<svg xmlns="http://www.w3.org/2000/svg" width="93.333" height="93.334" viewBox="0 0 93.333 93.334"><g transform="translate(-154.606 -2799.056)"><path d="M193.6,2833.487a1.263,1.263,0,0,0,1.249-1.249,1.249,1.249,0,1,0-1.249,1.249Z" fill="#003972"/><path d="M202.38,2833.487h.021a1.26,1.26,0,1,0-.021,0Z" fill="#003972"/><path d="M198.191,2833.487a1.263,1.263,0,0,0,1.249-1.249,1.249,1.249,0,1,0-1.249,1.249Z" fill="#003972"/><path d="M201.273,2799.056a46.667,46.667,0,1,0,46.666,46.667A46.667,46.667,0,0,0,201.273,2799.056Zm17.6,37.444a5.108,5.108,0,1,1-5.107,5.108A5.108,5.108,0,0,1,218.876,2836.5Zm-29.98,1.324.514-1.838a.276.276,0,0,1,.073-.147v-6.7a1.977,1.977,0,0,1,1.984-1.969h13.157a2.032,2.032,0,0,1,2.015,1.984v6.811a1.977,1.977,0,0,1-1.982,1.971H191.5a2.208,2.208,0,0,1-.477-.073h-.037l-1.507.514a.463.463,0,0,1-.587-.551ZM183.6,2836.5a5.108,5.108,0,1,1-5.107,5.108A5.107,5.107,0,0,1,183.6,2836.5Zm9.411,27.63a.159.159,0,0,1-.148.148H174.42a.159.159,0,0,1-.147-.148v-7.238c0-.205,0-.411.015-.616a9.528,9.528,0,0,1,10.052-8.972,9.373,9.373,0,0,1,8.634,9.33h.042Zm3.632-20.648h-.03a2.226,2.226,0,0,1-2.211-2.241v-2.5h10.581a2.5,2.5,0,0,0,2.5-2.5v-3.969h2.406a2.2,2.2,0,0,1,2.15,2.241v6.754c0,.066-.015.129-.021.194l.827,1.685a.587.587,0,0,1-.7.808,14.478,14.478,0,0,0-1.433-.4.573.573,0,0,1-.3-.166,2.151,2.151,0,0,1-.62.094Zm31.625,20.684a.118.118,0,0,1-.106.106H209.65a.117.117,0,0,1-.106-.106v-7.053a9.647,9.647,0,0,1,8.523-9.777q.425-.039.852-.039a9.33,9.33,0,0,1,9.326,9.334h.028Z" fill="#003972"/></g></svg>