<svg xmlns="http://www.w3.org/2000/svg" width="36.42" height="29.767" viewBox="0 0 36.42 29.767"><path d="M100.5,27.944a11.911,11.911,0,0,0-1.466-5.863A7.576,7.576,0,0,0,84.94,25.689v.451a6.424,6.424,0,0,0,6.765,6.653,6.935,6.935,0,0,0,1.466-.113c-.338,7.893-7.893,12.741-7.893,12.741l2.481,2.706A24.322,24.322,0,0,0,98.921,35.273,20.335,20.335,0,0,0,100.5,27.944Zm-20.86,0a11.911,11.911,0,0,0-1.466-5.863,7.581,7.581,0,0,0-6.653-3.721,7.485,7.485,0,0,0-7.442,7.329v.451a6.424,6.424,0,0,0,6.765,6.653,6.935,6.935,0,0,0,1.466-.113c-.338,7.893-7.893,12.741-7.893,12.741l2.368,2.706c6.089-3.27,9.133-7.893,11.276-12.854A20.335,20.335,0,0,0,79.64,27.944Z" transform="translate(100.5 48.127) rotate(180)" fill="#b4cbdc"/></svg>