<svg xmlns="http://www.w3.org/2000/svg" width="60" height="77.042" viewBox="0 0 60 77.042"><g transform="translate(602.966 -2216.578)"><path d="M-544.482,2255.507c-.718-1.352-1.479-2.662-2.2-4.014a6.028,6.028,0,0,1-.634-3.844,62.2,62.2,0,0,0,.844-8.449,17.214,17.214,0,0,0-4.858-12.379,34.325,34.325,0,0,0-8.112-6.291,28.729,28.729,0,0,0-12.418-3.9,28.3,28.3,0,0,0-13.056,2.287A34.274,34.274,0,0,0-595.9,2226.4a23.9,23.9,0,0,0-5.83,10.054,26.657,26.657,0,0,0-1.14,10.309,21.228,21.228,0,0,0,3.971,10.393,80.53,80.53,0,0,1,4.478,6.933c1.69,3.082,2.873,6.291,1.774,9.929a1.245,1.245,0,0,0,.465,1.352l1.986,1.859c5.071,4.858,10.143,9.674,15.21,14.532.675.635,1.394,1.225,2.069,1.86h.888c.76-.508.8-1.4,1.056-2.2a28.594,28.594,0,0,1,4.943-9.63,4.764,4.764,0,0,1,3.844-2.027c1.69.042,3.338.257,5.028.423a14.617,14.617,0,0,0,5.07-.129,3.353,3.353,0,0,0,2.825-3.253c.338-2.367.634-4.774,1.057-7.14.591-3.21,1.647-6.21,4.478-8.2a1.941,1.941,0,0,0,.76-1.562A8.984,8.984,0,0,0-544.482,2255.507Zm-40.178-9.59a1.035,1.035,0,0,0-1.461.086,1.064,1.064,0,0,0-.144.209c-.385,1.015-.465,1.057-1.521.76a4.428,4.428,0,0,0-.718-.169c-.972-.257-1.057-.338-.845-1.352.129-.507-.169-.718-.507-.972a.664.664,0,0,0-.929-.042c-.8.464-.93.422-1.4-.386-.085-.169-.212-.337-.295-.507-.675-1.182-.675-1.182.338-2.027a1.008,1.008,0,0,0-.146-1.418.988.988,0,0,0-.24-.144c-.929-.338-1.014-.465-.76-1.437a4.58,4.58,0,0,1,.212-.718c.295-1.1.295-1.14,1.437-.929.465.084.675-.17.929-.465a.761.761,0,0,0,.085-.972c-.465-.845-.422-.972.423-1.479.256-.129.464-.3.717-.423,1.015-.549,1.015-.549,1.648.338a.742.742,0,0,0,.844.338c.386-.085.718-.129.845-.592.338-.972.465-1.014,1.479-.76.257.084.465.128.718.212,1.014.295,1.1.385.887,1.394a.88.88,0,0,0,.423.929.762.762,0,0,0,.929.129c.887-.465.972-.423,1.479.422.17.257.3.507.465.76.507.845.465,1.015-.338,1.563a.907.907,0,0,0-.385.972.811.811,0,0,0,.592.76c.93.295.972.422.76,1.352-.128.422-.212.887-.338,1.309-.084.338-.3.592-.592.55-.549-.042-1.014-.422-1.479.128-.337.423-.507.8-.128,1.268.385.507.212.887-.295,1.182-.257.17-.507.3-.76.465C-583.815,2246.889-583.857,2246.889-584.66,2245.917Zm12.711,6.163a7.033,7.033,0,0,1-.257.887.537.537,0,0,1-.611.45.557.557,0,0,1-.107-.028c-.887-.128-1.267.338-.929,1.141a.621.621,0,0,1-.2.855.536.536,0,0,1-.057.032,9.985,9.985,0,0,0-.887.549c-.385.257-.634.129-.887-.212-.55-.717-1.1-.675-1.479.17-.17.385-.386.549-.8.422-.295-.084-.634-.169-.929-.257-.465-.128-.635-.337-.55-.887a.714.714,0,0,0-.426-.915.718.718,0,0,0-.631.07.724.724,0,0,1-1.007-.194.716.716,0,0,1-.092-.191c-.128-.257-.295-.549-.422-.8a.514.514,0,0,1,.074-.723.561.561,0,0,1,.138-.08c.717-.549.675-1.14-.17-1.479a.611.611,0,0,1-.461-.731.66.66,0,0,1,.052-.142,6.729,6.729,0,0,0,.205-.887.669.669,0,0,1,.745-.583.627.627,0,0,1,.142.034c.76.128,1.183-.386.888-1.057a.734.734,0,0,1,.213-1.017.757.757,0,0,1,.172-.082l.634-.385c.422-.257.718-.257,1.014.212.465.634,1.14.591,1.4-.17.211-.507.507-.634.972-.465l.887.257c.385.128.549.338.464.718-.084.972.338,1.309,1.183.929a.56.56,0,0,1,.768.191.411.411,0,0,1,.034.066c.17.3.338.55.508.845.3.422.256.76-.257,1.057a.722.722,0,0,0-.317.973.723.723,0,0,0,.486.379c.637.21.726.548.51,1.055Zm12.637-14.57c-1.056.295-1.267.592-1.309,1.647,0,.465.337.55.634.76.93.592,1.014.887.422,1.817-.337.55-.675,1.1-1.056,1.647-.465.718-.76.76-1.522.338-.929-.55-1.309-.465-2.069.257-.257.257-.17.549-.129.845.257,1.309.17,1.479-1.1,1.774-.675.169-1.352.295-1.859.422-.845.043-1.057-.337-1.182-.887a1.5,1.5,0,0,0-1.728-1.233l-.047.008c-.385.043-.464.385-.592.592-.591.93-.929,1.014-1.9.423-.55-.338-1.057-.676-1.6-1.015-.718-.464-.8-.8-.338-1.562a1.359,1.359,0,0,0-.147-1.917,1.486,1.486,0,0,0-.148-.111.721.721,0,0,0-.76-.084c-1.394.257-1.479.169-1.817-1.225-.128-.55-.257-1.057-.385-1.605-.128-.8.042-1.1.845-1.31,1.057-.3,1.182-.549,1.225-1.6,0-.464-.338-.591-.592-.76-.93-.634-1.014-.972-.423-1.9.338-.55.676-1.057,1.015-1.563.465-.717.76-.76,1.479-.337.972.549,1.267.507,2.069-.257.257-.257.17-.55.129-.845-.257-1.309-.129-1.479,1.182-1.817.55-.128,1.057-.256,1.605-.385.8-.169,1.225,0,1.31.8.128.887.592,1.14,1.352,1.267a.908.908,0,0,0,.972-.465c.717-1.14.929-1.182,2.112-.422a16.716,16.716,0,0,1,1.436.929c.718.465.761.76.338,1.522a1.38,1.38,0,0,0,.137,1.947,1.277,1.277,0,0,0,.165.122.837.837,0,0,0,.76.129c1.437-.257,1.479-.212,1.817,1.225.128.549.256,1.056.385,1.6C-558.34,2236.96-558.552,2237.3-559.312,2237.51Z" fill="#005ba8"/><path d="M-568.187,2234.385a2.874,2.874,0,0,0-2.875,2.872,2.874,2.874,0,0,0,2.872,2.875l.087,0a3.03,3.03,0,0,0,2.874-2.914A3.061,3.061,0,0,0-568.187,2234.385Z" fill="#005ba8"/><path d="M-586.224,2237.8a2.1,2.1,0,0,0-2.112,2.091c0,.021,0,.042,0,.064a2.077,2.077,0,0,0,2,2.153c.039,0,.078,0,.116,0a2.154,2.154,0,0,0,2.156-2.153,2.154,2.154,0,0,0-2.153-2.156Z" fill="#005ba8"/><path d="M-577.182,2249.385a1.554,1.554,0,0,0-1.645,1.459c0,.034,0,.067,0,.1a1.707,1.707,0,0,0,1.605,1.689,1.587,1.587,0,0,0,1.646-1.527c0-.026,0-.052,0-.077A1.64,1.64,0,0,0-577.182,2249.385Z" fill="#005ba8"/></g></svg>