<svg xmlns="http://www.w3.org/2000/svg" width="62.098" height="77" viewBox="0 0 62.098 77"><g transform="translate(301.828 -2189.062)"><path d="M-261.261,2239.063a7.082,7.082,0,0,1,6.384-3.681c2.823-.028,4.226-1.466,4.283-4.283a7.037,7.037,0,0,1,3.681-6.354c2.415-1.437,2.932-3.393,1.553-5.837a7.053,7.053,0,0,1,0-7.359c1.379-2.439.862-4.4-1.553-5.837a7.079,7.079,0,0,1-3.681-6.383c-.056-2.817-1.468-4.225-4.285-4.283a7.082,7.082,0,0,1-6.383-3.68c-1.437-2.41-3.392-2.933-5.835-1.553a7.059,7.059,0,0,1-7.36,0c-2.445-1.38-4.4-.857-5.838,1.553a7.08,7.08,0,0,1-6.383,3.68c-2.789.028-4.226,1.438-4.256,4.256a7.136,7.136,0,0,1-3.68,6.383c-2.415,1.437-2.962,3.364-1.553,5.837a7.058,7.058,0,0,1,0,7.359c-1.38,2.439-.862,4.4,1.553,5.837a7.067,7.067,0,0,1,3.68,6.354c.029,2.823,1.467,4.255,4.284,4.284a7.076,7.076,0,0,1,6.383,3.68c1.438,2.415,3.393,2.932,5.837,1.553a7.184,7.184,0,0,1,7.36,0C-264.654,2242-262.7,2241.478-261.261,2239.063Zm-9.515-8.453a15.4,15.4,0,0,1-15.422-15.378,15.4,15.4,0,0,1,15.378-15.422,15.4,15.4,0,0,1,15.422,15.378v.012a15.412,15.412,0,0,1-15.38,15.411Z" fill="#005ba8"/><path d="M-286.907,2237.626c-2.962,0-3.363-1.38-3.363-1.38l-11.558,22.715,9.258-1.036,5.118,7.7s10.667-22.282,10.667-22.138C-282.306,2243.376-280.092,2237.769-286.907,2237.626Z" fill="#005ba8"/><path d="M-251.428,2237.137c-8.453.89-6.727,2.99-8.653,4.6a5.974,5.974,0,0,1-5.005,1.9l13.024,22.426,3.22-8.31,9.112,1.18Z" fill="#005ba8"/><path d="M-267.557,2211.808l-3.221-6.527-3.22,6.527-7.216,1.035,5.2,5.089-1.208,7.186,6.44-3.393,6.469,3.393-1.235-7.186,5.2-5.089Z" fill="#005ba8"/></g></svg>