<svg xmlns="http://www.w3.org/2000/svg" width="93.333" height="93.333" viewBox="0 0 93.333 93.333"><g transform="translate(-291 -7073)"><g transform="translate(960 4425.281)"><path d="M-611.443,2675.575a20.533,20.533,0,0,0-10.89-2.828,21.013,21.013,0,0,0-10.891,2.97,22,22,0,0,0-7.92,7.778,20.542,20.542,0,0,0-2.828,10.89,22.319,22.319,0,0,0,2.828,10.891,22.374,22.374,0,0,0,7.92,7.92,21.452,21.452,0,0,0,21.781,0,21.294,21.294,0,0,0,7.92-7.92,21.451,21.451,0,0,0,0-21.781A22.358,22.358,0,0,0-611.443,2675.575Zm1.7,21.356-19.093,10.89a2.121,2.121,0,0,1-2.546,0,2.545,2.545,0,0,1-1.273-2.262v-22.488a2.406,2.406,0,0,1,1.273-2.263,2.121,2.121,0,0,1,2.546,0l19.093,11.6a2.547,2.547,0,0,1,1.273,2.263A2.406,2.406,0,0,1-609.746,2696.931Z" fill="#005ba8"/><path d="M-622.333,2647.719A46.666,46.666,0,0,0-669,2694.385a46.666,46.666,0,0,0,46.667,46.667,46.666,46.666,0,0,0,46.666-46.667A46.666,46.666,0,0,0-622.333,2647.719Zm23.194,60.1a26.9,26.9,0,0,1-9.758,9.759,26.386,26.386,0,0,1-26.872,0,26.9,26.9,0,0,1-9.759-9.759,26.385,26.385,0,0,1,0-26.872,26.9,26.9,0,0,1,9.759-9.758,26.386,26.386,0,0,1,26.872,0,26.9,26.9,0,0,1,9.758,9.758A26.385,26.385,0,0,1-599.139,2707.821Z" fill="#005ba8"/></g></g></svg>