<?xml version="1.0" encoding="utf-8"?>
<!-- Generator: Adobe Illustrator 23.0.1, SVG Export Plug-In . SVG Version: 6.00 Build 0)  -->
<svg version="1.1" id="Layer_1" xmlns="http://www.w3.org/2000/svg" xmlns:xlink="http://www.w3.org/1999/xlink" x="0px" y="0px"
	 viewBox="0 0 93.3 93.3" style="enable-background:new 0 0 93.3 93.3;" xml:space="preserve">
<style type="text/css">
	.st0{fill:#003972;}
</style>
<g>
	<path class="st0" d="M47.4,59c-0.6,0-1.1-0.2-1.4-0.6L32.6,45.1c-0.4-0.4-0.6-0.9-0.6-1.4c0-0.5,0.2-1.1,0.6-1.4l3-2.9
		c0.3-0.4,0.9-0.6,1.4-0.6c0.6,0,1.1,0.2,1.5,0.6l9,9l10.9-10.9c-0.8-1.9-2.6-3.2-4.7-3.2H35.9c-2.8,0-5,2.3-5,5v17.7
		c0,2.8,2.3,5,5,5h17.7c2.8,0,5-2.3,5-5l0-8.3l-9.8,9.8C48.5,58.8,47.9,59,47.4,59z"/>
	<path class="st0" d="M46.7,0C20.9,0,0,20.9,0,46.7c0,25.8,20.9,46.7,46.7,46.7c25.8,0,46.7-20.9,46.7-46.7C93.3,20.9,72.4,0,46.7,0
		z M72.4,34.9l-8.8,8.7v13.3c0,5.5-4.5,10-10,10H35.9c-5.5,0-10-4.5-10-10V39.2c0-5.5,4.5-10,10-10h17.7c3.4,0,6.5,1.7,8.4,4.5
		l4.6-4.6c0.4-0.4,0.9-0.6,1.5-0.6c0.5,0,1.1,0.2,1.4,0.6l3,2.9c0.4,0.4,0.6,0.9,0.6,1.4C73,34,72.8,34.5,72.4,34.9z"/>
</g>
</svg>
