<svg xmlns="http://www.w3.org/2000/svg" width="93.174" height="93.172" viewBox="0 0 93.174 93.172">
  <g id="icono-aprenderas-4" transform="translate(-1081.5 -4168.502)">
    <path id="icono-aprenderas-4-2" data-name="icono-aprenderas-4" d="M-6373.913-5979.826a45.8,45.8,0,0,1-17.94-3.622,45.933,45.933,0,0,1-14.649-9.877,45.921,45.921,0,0,1-9.877-14.648,45.791,45.791,0,0,1-3.622-17.938,45.792,45.792,0,0,1,3.622-17.939,45.928,45.928,0,0,1,9.877-14.649,45.933,45.933,0,0,1,14.649-9.877,45.8,45.8,0,0,1,17.94-3.622,45.792,45.792,0,0,1,17.939,3.622,45.933,45.933,0,0,1,14.649,9.877,45.928,45.928,0,0,1,9.877,14.649,45.792,45.792,0,0,1,3.622,17.939,45.791,45.791,0,0,1-3.622,17.938,45.921,45.921,0,0,1-9.877,14.648,45.933,45.933,0,0,1-14.649,9.877A45.792,45.792,0,0,1-6373.913-5979.826Zm-18.955-71.805a3.16,3.16,0,0,0-3.156,3.156v45.124a3.161,3.161,0,0,0,3.156,3.158h37.909a3.161,3.161,0,0,0,3.156-3.158v-45.124a3.16,3.16,0,0,0-3.156-3.156Z" transform="translate(7502 10241)" fill="#003972" stroke="rgba(0,0,0,0)" stroke-width="1"/>
    <g id="Group_3663" data-name="Group 3663" transform="translate(671.586 3863.328)">
      <rect id="Rectangle_746" data-name="Rectangle 746" width="31.333" height="7.111" rx="1.111" transform="translate(440.834 335.093)" fill="#003972"/>
      <rect id="Rectangle_747" data-name="Rectangle 747" width="31.333" height="7.111" transform="translate(440.834 348.204)" fill="#003972"/>
      <rect id="Rectangle_748" data-name="Rectangle 748" width="31.333" height="7.111" transform="translate(440.834 361.315)" fill="#003972"/>
    </g>
  </g>
</svg>
