<?xml version="1.0" encoding="utf-8"?>
<!-- Generator: Adobe Illustrator 23.0.1, SVG Export Plug-In . SVG Version: 6.00 Build 0)  -->
<svg version="1.1" id="Layer_1" xmlns="http://www.w3.org/2000/svg" xmlns:xlink="http://www.w3.org/1999/xlink" x="0px" y="0px"
	 viewBox="0 0 41 41" style="enable-background:new 0 0 41 41;" xml:space="preserve">
<style type="text/css">
	.st0{fill:#666666;}
	.st1{fill:none;}
	.st2{fill:#707070;}
</style>
<g transform="translate(72 5056) rotate(180)">
	<g transform="translate(1 -3594)">
		<path class="st0" d="M42.3,8628.8c-0.6,0.5-0.6,1.3-0.2,1.8c0.1,0.1,0.1,0.1,0.2,0.2l11.4,11.4c0.6,0.5,1.4,0.5,2,0l1.3-1.3
			c0.3-0.3,0.4-0.6,0.4-1c0-0.4-0.1-0.7-0.4-1l-9.1-9.1l9.1-9.1c0.3-0.3,0.4-0.6,0.4-1c0-0.4-0.2-0.7-0.4-1l-1.3-1.3
			c-0.6-0.5-1.4-0.5-2,0L42.3,8628.8z"/>
		<g transform="translate(30 8609)">
			<circle class="st1" cx="20.5" cy="20.5" r="20.5"/>
			<path class="st2" d="M20.5,0C31.8,0,41,9.2,41,20.5S31.8,41,20.5,41S0,31.8,0,20.5S9.2,0,20.5,0z M20.5,38
				C30.1,38,38,30.1,38,20.5S30.1,3,20.5,3S3,10.9,3,20.5S10.9,38,20.5,38z"/>
		</g>
	</g>
</g>
</svg>
