<svg xmlns="http://www.w3.org/2000/svg" width="14.857" height="13.714" viewBox="0 0 14.857 13.714"><path d="M11.429-1.714a.575.575,0,0,1-.571.571.575.575,0,0,1-.571-.571.575.575,0,0,1,.571-.571A.575.575,0,0,1,11.429-1.714Zm2.286,0a.575.575,0,0,1-.571.571.575.575,0,0,1-.571-.571.575.575,0,0,1,.571-.571A.575.575,0,0,1,13.714-1.714Zm1.143-2A.857.857,0,0,0,14-4.571H9.857L8.643-3.357a1.732,1.732,0,0,1-1.214.5,1.732,1.732,0,0,1-1.214-.5L5.009-4.571H.857A.857.857,0,0,0,0-3.714V-.857A.857.857,0,0,0,.857,0H14a.857.857,0,0,0,.857-.857Zm-2.9-5.08a.578.578,0,0,0-.527-.348H9.143v-4a.575.575,0,0,0-.571-.571H6.286a.575.575,0,0,0-.571.571v4H3.429a.578.578,0,0,0-.527.348.562.562,0,0,0,.125.625l4,4a.547.547,0,0,0,.4.17.547.547,0,0,0,.4-.17l4-4A.562.562,0,0,0,11.955-8.795Z" transform="translate(0 13.714)" fill="#fff"/></svg>