<svg xmlns="http://www.w3.org/2000/svg" width="272.627" height="46.869" viewBox="0 0 272.627 46.869">
  <g id="logo-wharton-blue" transform="translate(-8275 -6772)">
    <g id="wharton-execed-white-LG" transform="translate(8275 6772)">
      <path id="Path_4405" data-name="Path 4405" d="M185.7,25.593V10.963h7.884V12.8h-5.87V17.1h4.555l.263,1.84h-4.906v4.906h6.132v1.84Zm10.337-14.28,2.015-.438,3.592,5.519,3.5-5.344h2.19L202.7,17.971l4.994,7.446-2.015.438-4.117-6.22-3.942,6.045h-2.19l5.081-7.622Zm14.017,14.28V10.963h7.884V12.8h-5.87V17.1h4.555l.263,1.84h-4.906v4.906h6.045v1.84Zm16.207.263c-4.117,0-6.746-3.066-6.746-7.534s2.716-7.622,6.833-7.622a6.9,6.9,0,0,1,4.117,1.226l-.263,2.015a6.123,6.123,0,0,0-3.855-1.4c-2.979,0-4.731,2.278-4.731,5.782s1.752,5.694,4.731,5.694a6.6,6.6,0,0,0,4.117-1.489l.263,1.84a7.8,7.8,0,0,1-4.468,1.489Zm12.528,0c-3.5,0-5.607-2.19-5.607-5.782V10.963H235.2v8.848c0,2.541,1.139,4.205,3.679,4.205s3.679-1.489,3.679-4.205V10.963h2.015V19.9c-.088,3.767-2.278,5.957-5.782,5.957ZM253.331,12.8v12.79h-2.015V12.8h-4.643v-1.84H257.8l.263,1.84Zm7.1,12.79V10.963h2.015v14.63Zm11.651.088h-1.752L264.72,11.313l2.015-.438,4.555,12.177,4.468-12h2.1Zm7.972-.088V10.963h7.884V12.8h-5.87V17.1h4.555l.263,1.84h-4.906v4.906h6.132v1.84ZM185.7,47.144V32.514h7.884v1.84h-5.87v4.205h4.555l.263,1.84h-4.906V45.3h6.132v1.84Zm14.542,0h-4.117V32.514h4.205c5.081,0,7.709,2.979,7.709,7.271s-2.716,7.359-7.8,7.359Zm.175-12.79H198.14V45.3h2.278c3.5,0,5.607-1.752,5.607-5.519s-2.278-5.432-5.607-5.432Zm15.594,13.053c-3.5,0-5.607-2.278-5.607-5.782V32.514h2.015v8.848c0,2.541,1.139,4.205,3.679,4.205s3.679-1.489,3.679-4.205V32.514h2.015v8.936C221.706,45.216,219.516,47.407,216.011,47.407Zm14.63,0c-4.117,0-6.746-3.066-6.746-7.534s2.716-7.622,6.833-7.622a6.9,6.9,0,0,1,4.117,1.226l-.263,2.015a6.312,6.312,0,0,0-3.855-1.4c-2.979,0-4.731,2.19-4.731,5.782s1.752,5.694,4.731,5.694a6.6,6.6,0,0,0,4.117-1.489L235.109,46a8.163,8.163,0,0,1-4.468,1.4Zm17.258-.088-1.752-4.555H240.1l-1.665,4.38h-1.927l5.694-14.63h2.015l5.607,14.367Zm-4.731-12.44-2.278,6.132h4.643Zm12.615-.526v12.79h-2.015V34.353h-4.643v-1.84h11.126l.263,1.84Zm7.1,12.79V32.514H264.9v14.63Zm11.652.263c-4.117,0-6.658-3.066-6.658-7.534s2.628-7.622,6.746-7.622,6.658,3.066,6.658,7.534S278.649,47.407,274.532,47.407Zm0-13.316c-2.891,0-4.643,2.19-4.643,5.782s1.752,5.782,4.643,5.782,4.643-2.278,4.643-5.782-1.752-5.782-4.643-5.782Zm19.536,13.053L286.1,35.755V47.144h-1.84V32.514h1.752l7.8,10.951V32.514h1.84v14.63Z" transform="translate(-23.017 -1.326)" fill="#004785"/>
      <path id="Path_4406" data-name="Path 4406" d="M101.3,17.308V13.716c0-1.314-.876-1.664-2.1-1.664s-2.979.788-2.979,1.577c0,.175.088.438.088.788,0,1.226-.35,2.1-1.752,2.1A1.143,1.143,0,0,1,93.5,15.38a2.759,2.759,0,0,1,1.226-2.015,9.846,9.846,0,0,1,5.957-2.278,2.864,2.864,0,0,1,3.154,2.628V23.09c0,.526,0,1.577.788,1.577.526,0,.876-.7.964-1.139h.526c-.175,1.577-.876,2.541-2.453,2.541A2.534,2.534,0,0,1,101.3,23.79c-1.577,1.139-2.628,2.278-4.731,2.278a2.978,2.978,0,0,1-2.979-2.8c0-3.679,4.993-4.818,7.709-5.957m.088,5.519V18.184c-1.489.613-5.432,1.577-5.432,3.679a2.375,2.375,0,0,0,2.365,2.453h0a6.28,6.28,0,0,0,3.066-1.489m26.369-4.468A7.108,7.108,0,0,1,134.762,11c4.468,0,7.271,3.329,7.271,7.534s-2.8,7.446-7.184,7.446-7.1-3.417-7.1-7.622m2.8.175c0,2.541.964,6.746,4.293,6.746s4.293-3.329,4.293-5.957c0-2.8-.438-7.622-4.293-7.622-3.329,0-4.293,4.293-4.293,6.833" transform="translate(-11.589 -1.363)" fill="#004785"/>
      <path id="Path_4407" data-name="Path 4407" d="M39.075,2.19V1.4h7.709V2.19c-1.4,0-1.927,0-1.927.876a1.624,1.624,0,0,0,.175.613L49.5,19.361,55.983.7h.526L62.2,19.186S66.671,5.694,66.671,3.767c0-1.489-.964-1.4-2.19-1.577V1.4h4.731A11.3,11.3,0,0,0,74.555,0V11.914c1.4-1.314,2.716-2.365,4.818-2.365a4.177,4.177,0,0,1,3.767,2.015,6.155,6.155,0,0,1,.876,3.5v6.658c0,1.752.438,1.752,1.927,1.84v.613H79.461v-.613c1.4-.088,1.84-.088,1.84-1.84v-6.57a5.045,5.045,0,0,0-.438-2.541,2.78,2.78,0,0,0-2.716-1.664c-1.84.263-2.541,1.139-3.592,2.1v8.673c0,1.752.438,1.752,1.84,1.84v.613H69.912v-.613c1.489-.088,1.927-.088,1.927-1.84V2.453H70.613c-2.541.175-2.628,2.1-3.5,4.468l-5.782,17.7h-.438L55.107,6.833,48.449,24.617h-.613L41.7,5.169a6.723,6.723,0,0,0-1.051-2.453c-.263-.263-.263-.438-1.577-.526M142.1,24.179v-.613c-1.489-.088-1.927-.088-1.927-1.84V14.017c0-1.489,2.015-2.891,3.5-2.891A3.146,3.146,0,0,1,147,14.1v7.8c0,1.752-.438,1.752-1.927,1.84v.613h6.658v-.613c-1.139-.088-2.1-.088-2.1-1.84V14.017c0-2.453-2.541-4.38-4.906-4.38-2.1,0-3.241.964-4.555,2.365V9.637a21.6,21.6,0,0,1-4.555,1.577v.526c1.4.175,1.927.613,1.927,1.84v8.235c0,1.752-.438,1.752-1.927,1.84v.613Zm-35.3,0v-.613c-1.752-.088-2.19-.088-2.19-1.84V12.966c0-.526.876-1.314,1.84-1.314s1.051,1.051,2.1,1.051c1.314,0,1.665-.7,1.665-1.664s-1.139-1.577-2.365-1.577c-1.489,0-2.541,1.226-3.329,2.365V9.637a21.442,21.442,0,0,1-4.731,1.577v.526c1.489.175,2.1.526,2.1,1.752v8.322c0,1.752-.438,1.752-1.927,1.84v.613Zm14.1-13.754.526-1.84h-5.782V5.694h-.35a39.906,39.906,0,0,1-4.205,4.38v.35h1.84v9.9c0,2.365,1.051,4.293,3.592,4.293a6.517,6.517,0,0,0,4.731-2.628l-.438-.526a3.96,3.96,0,0,1-2.8,1.4c-1.927,0-2.453-1.051-2.453-2.891V10.425ZM40.477,31.8c0,1.139.263,2.015,1.489,2.015s1.665-.7,1.665-2.015V29.523a.79.79,0,0,0-.088-.438c0-.263-.263-.438-.7-.438v-.175H44.77v.175a.694.694,0,0,0-.7.438V31.8a2.143,2.143,0,0,1-1.84,2.365h-.35c-1.752,0-2.278-.876-2.278-2.365V29.435c0-.7,0-.7-.7-.788v-.175h2.19v.175c-.7.088-.7.088-.7.788Z" transform="translate(-4.822)" fill="#004785"/>
      <path id="Path_4408" data-name="Path 4408" d="M40.477,35.829c0,1.139.263,2.015,1.489,2.015s1.665-.7,1.665-2.015V33.551a.79.79,0,0,0-.088-.438c0-.263-.263-.438-.7-.438V32.5H44.77v.175a.694.694,0,0,0-.7.438v2.716a2.143,2.143,0,0,1-1.84,2.365h-.35c-1.752,0-2.278-.876-2.278-2.365V33.464c0-.7,0-.7-.7-.788V32.5h2.19v.175c-.7.088-.7.088-.7.788A21.349,21.349,0,0,1,40.477,35.829Z" transform="translate(-4.822 -4.028)" fill="none"/>
      <path id="Path_4409" data-name="Path 4409" d="M50.33,38.293c-.964-1.139-2.015-2.365-3.066-3.592v3.154c0,.263.263.35.7.35v.175H46.475v-.175c.263,0,.526-.088.526-.35V34.613a.893.893,0,0,0-.7-.438V34h1.139l2.8,3.417V34.526c0-.175-.263-.263-.613-.35V34h1.489v.175c-.263,0-.526.088-.526.35V38.38Z" transform="translate(-5.739 -4.214)" fill="#fff"/>
      <path id="Path_4410" data-name="Path 4410" d="M50.33,38.293c-.964-1.139-2.015-2.365-3.066-3.592v3.154c0,.263.263.35.7.35v.175H46.475v-.175c.263,0,.526-.088.526-.35V34.613a.893.893,0,0,0-.7-.438V34h1.139l2.8,3.417V34.526c0-.175-.263-.263-.613-.35V34h1.489v.175c-.263,0-.526.088-.526.35V38.38Z" transform="translate(-5.739 -4.214)" fill="#004785"/>
      <path id="Path_4411" data-name="Path 4411" d="M54.239,37.5c0,.613,0,.526.526.613v.175H53.1v-.175c.526-.088.526,0,.526-.613V34.7c0-.613,0-.526-.526-.613V34h1.664v.175c-.526.088-.526,0-.526.613Z" transform="translate(-6.582 -4.214)" fill="#fff"/>
      <path id="Path_4412" data-name="Path 4412" d="M54.239,37.5c0,.613,0,.526.526.613v.175H53.1v-.175c.526-.088.526,0,.526-.613V34.7c0-.613,0-.526-.526-.613V34h1.664v.175c-.526.088-.526,0-.526.613Z" transform="translate(-6.582 -4.214)" fill="#004785"/>
      <path id="Path_4413" data-name="Path 4413" d="M57.852,34.05c-.35,0-.613.088-.35.7s.613,1.752.964,2.716c.438-.964.788-1.927,1.139-2.891.175-.438,0-.613-.438-.613v-.175h1.226v.175a.591.591,0,0,0-.526.35c-.526,1.314-1.051,2.541-1.577,3.767h-.35c-.35-1.051-.788-2.278-1.139-3.329-.175-.7-.438-.876-.7-.876V33.7h1.665Z" transform="translate(-6.953 -4.177)" fill="#fff"/>
      <path id="Path_4414" data-name="Path 4414" d="M57.852,34.05c-.35,0-.613.088-.35.7s.613,1.752.964,2.716c.438-.964.788-1.927,1.139-2.891.175-.438,0-.613-.438-.613v-.175h1.226v.175a.591.591,0,0,0-.526.35c-.526,1.314-1.051,2.541-1.577,3.767h-.35c-.35-1.051-.788-2.278-1.139-3.329-.175-.7-.438-.876-.7-.876V33.7h1.665l.088.35Z" transform="translate(-6.953 -4.177)" fill="#004785"/>
      <path id="Path_4415" data-name="Path 4415" d="M62.1,38.117c.526-.088.526,0,.526-.613V34.7c0-.613,0-.526-.526-.613V34h2.8v1.051h-.175c-.088-.438-.175-.788-.613-.788h-.876v1.752h.526a.579.579,0,0,0,.613-.526h.175V36.8h-.175a.553.553,0,0,0-.613-.613h-.526v1.4c0,.526.263.613.788.613.876,0,.876-.263,1.139-.876h.175l-.175,1.139H62.188v-.35Z" transform="translate(-7.697 -4.214)" fill="#fff"/>
      <path id="Path_4416" data-name="Path 4416" d="M62.1,38.117c.526-.088.526,0,.526-.613V34.7c0-.613,0-.526-.526-.613V34h2.8v1.051h-.175c-.088-.438-.175-.788-.613-.788h-.876v1.752h.526a.579.579,0,0,0,.613-.526h.175V36.8h-.175a.553.553,0,0,0-.613-.613h-.526v1.4c0,.526.263.613.788.613.876,0,.876-.263,1.139-.876h.175l-.175,1.139H62.188v-.35Z" transform="translate(-7.697 -4.214)" fill="#004785"/>
      <path id="Path_4417" data-name="Path 4417" d="M68.226,36.19h.526c.526,0,.788-.438.788-1.139s-.35-.876-.788-.876h-.438ZM67.088,34h1.84a1.109,1.109,0,0,1,1.226,1.051,1.318,1.318,0,0,1-.876,1.226l.613.876a9.278,9.278,0,0,0,.876,1.051v.088h-.613c-.35,0-.613-.7-1.314-1.927h-.613V37.5c0,.613,0,.526.526.613v.175H67v-.175c.526-.088.526,0,.526-.613V34.7c0-.613,0-.526-.526-.613Z" transform="translate(-8.304 -4.214)" fill="#fff"/>
      <path id="Path_4418" data-name="Path 4418" d="M68.226,36.19h.526c.526,0,.788-.438.788-1.139s-.35-.876-.788-.876h-.438l-.088,2.015ZM67.088,34h1.84a1.109,1.109,0,0,1,1.226,1.051,1.318,1.318,0,0,1-.876,1.226l.613.876a9.278,9.278,0,0,0,.876,1.051v.088h-.613c-.35,0-.613-.7-1.314-1.927h-.613V37.5c0,.613,0,.526.526.613v.175H67v-.175c.526-.088.526,0,.526-.613V34.7c0-.613,0-.526-.526-.613L67.088,34Z" transform="translate(-8.304 -4.214)" fill="#004785"/>
      <path id="Path_4419" data-name="Path 4419" d="M74.5,34.864a.785.785,0,0,0-.788-.788h0a.666.666,0,0,0-.7.526v.088c0,.438.438.7,1.051,1.139s.876.788.876,1.314c0,.7-.788,1.139-1.489,1.139a4.4,4.4,0,0,1-1.051-.175v-.964h.175a.972.972,0,0,0,.964.964h0a.785.785,0,0,0,.788-.788h0c0-.438-.175-.7-1.139-1.314a1.174,1.174,0,0,1-.7-1.139c0-.526.613-.964,1.314-.964a2.98,2.98,0,0,1,.876.088v.876Z" transform="translate(-8.974 -4.202)" fill="#fff"/>
      <path id="Path_4420" data-name="Path 4420" d="M74.5,34.864a.785.785,0,0,0-.788-.788h0a.666.666,0,0,0-.7.526v.088c0,.438.438.7,1.051,1.139s.876.788.876,1.314c0,.7-.788,1.139-1.489,1.139a4.4,4.4,0,0,1-1.051-.175v-.964h.175a.972.972,0,0,0,.964.964h0a.785.785,0,0,0,.788-.788h0c0-.438-.175-.7-1.139-1.314a1.174,1.174,0,0,1-.7-1.139c0-.526.613-.964,1.314-.964a2.98,2.98,0,0,1,.876.088v.876Z" transform="translate(-8.974 -4.202)" fill="#004785"/>
      <path id="Path_4421" data-name="Path 4421" d="M77.939,37.5c0,.613,0,.526.526.613v.175H76.8v-.175c.526-.088.526,0,.526-.613V34.7c0-.613,0-.526-.526-.613V34h1.665v.175c-.526.088-.526,0-.526.613Z" transform="translate(-9.519 -4.214)" fill="#fff"/>
      <path id="Path_4422" data-name="Path 4422" d="M77.939,37.5c0,.613,0,.526.526.613v.175H76.8v-.175c.526-.088.526,0,.526-.613V34.7c0-.613,0-.526-.526-.613V34h1.665v.175c-.526.088-.526,0-.526.613Z" transform="translate(-9.519 -4.214)" fill="#004785"/>
      <path id="Path_4423" data-name="Path 4423" d="M82.078,37.492c0,.613,0,.526.526.613v.175H80.939v-.175c.526-.088.526,0,.526-.613V34.163h-.613c-.526,0-.7.35-.876.7H79.8l.175-.964h3.5l.175.964h-.175c-.175-.438-.35-.7-.876-.7h-.526Z" transform="translate(-9.891 -4.202)" fill="#fff"/>
      <path id="Path_4424" data-name="Path 4424" d="M82.078,37.492c0,.613,0,.526.526.613v.175H80.939v-.175c.526-.088.526,0,.526-.613V34.163h-.613c-.526,0-.7.35-.876.7H79.8l.175-.964h3.5l.175.964h-.175c-.175-.438-.35-.7-.876-.7h-.526v3.329Z" transform="translate(-9.891 -4.202)" fill="#004785"/>
      <path id="Path_4425" data-name="Path 4425" d="M86.039,38.117c.526-.088.526,0,.526-.613v-.964L85.6,34.613c-.175-.438-.35-.526-.7-.526V34h1.577v.175c-.438,0-.438.263-.263.526l.7,1.577.876-1.577c.175-.35,0-.526-.35-.526V34h1.314v.175a.633.633,0,0,0-.526.35l-1.051,1.927a.79.79,0,0,0-.088.438V37.5c0,.613,0,.526.526.613v.175H85.951Z" transform="translate(-10.523 -4.214)" fill="#fff"/>
      <path id="Path_4426" data-name="Path 4426" d="M86.039,38.117c.526-.088.526,0,.526-.613v-.964L85.6,34.613c-.175-.438-.35-.526-.7-.526V34h1.577v.175c-.438,0-.438.263-.263.526l.7,1.577.876-1.577c.175-.35,0-.526-.35-.526V34h1.314v.175a.633.633,0,0,0-.526.35l-1.051,1.927a.79.79,0,0,0-.088.438V37.5c0,.613,0,.526.526.613v.175H85.951C86.039,38.293,86.039,38.117,86.039,38.117Z" transform="translate(-10.523 -4.214)" fill="#004785"/>
      <path id="Path_4427" data-name="Path 4427" d="M95.8,34.991c0-.876-.526-.876-.613-.876-.876,0-1.489,1.577-1.489,2.628,0,.438.088,1.139.7,1.139.876.088,1.4-1.489,1.4-2.891M93,36.568c0-1.051.876-2.628,2.278-2.628,1.051,0,1.314.7,1.314,1.489,0,.876-.7,2.8-2.278,2.8C93.263,38.145,93,37.356,93,36.568m7.271-2.365-.175.175H99.045a41.828,41.828,0,0,1-1.489,5.694h-.35l1.139-5.694h-.788l.088-.35h.788a2.33,2.33,0,0,1,2.19-1.927,1.053,1.053,0,0,1,.7.175l-.088.526-.175.088a.893.893,0,0,0-.7-.438c-.526,0-.876.35-1.051,1.226l-.088.438h1.139Zm4.818,2.891c0,.7,0,.7.7.788v.175H103.6v-.175c.7-.088.7-.088.7-.788V33.5c0-.7,0-.7-.7-.788v-.175h2.1c1.314,0,2.015.526,2.015,1.489,0,1.139-1.051,1.752-2.278,1.752v-.263a1.36,1.36,0,0,0,1.489-1.139v-.35a1.161,1.161,0,0,0-1.314-1.314h-.526Z" transform="translate(-11.527 -3.979)" fill="#004785"/>
      <path id="Path_4428" data-name="Path 4428" d="M106.589,37.155c0,.7,0,.7.7.788v.175H105.1v-.175c.7-.088.7-.088.7-.788V33.564c0-.7,0-.7-.7-.788V32.6h2.1c1.314,0,2.015.526,2.015,1.489,0,1.139-1.051,1.752-2.278,1.752v-.263a1.36,1.36,0,0,0,1.489-1.139v-.35a1.161,1.161,0,0,0-1.314-1.314h-.526v4.38Z" transform="translate(-13.027 -4.041)" fill="none"/>
      <path id="Path_4429" data-name="Path 4429" d="M111.1,38.117c.526-.088.526,0,.526-.613V34.7c0-.613,0-.526-.526-.613V34h2.8v1.051h-.175c-.088-.438-.175-.788-.613-.788h-.876v1.752h.526a.465.465,0,0,0,.526-.526h.175V36.8h-.175c0-.35-.175-.613-.526-.613h-.526v1.4c0,.526.263.613.788.613.876,0,.876-.263,1.139-.876h.175l-.175,1.139H111.1Z" transform="translate(-13.771 -4.214)" fill="#fff"/>
      <path id="Path_4430" data-name="Path 4430" d="M111.1,38.117c.526-.088.526,0,.526-.613V34.7c0-.613,0-.526-.526-.613V34h2.8v1.051h-.175c-.088-.438-.175-.788-.613-.788h-.876v1.752h.526a.465.465,0,0,0,.526-.526h.175V36.8h-.175c0-.35-.175-.613-.526-.613h-.526v1.4c0,.526.263.613.788.613.876,0,.876-.263,1.139-.876h.175l-.175,1.139H111.1C111.1,38.293,111.1,38.117,111.1,38.117Z" transform="translate(-13.771 -4.214)" fill="#004785"/>
      <path id="Path_4431" data-name="Path 4431" d="M119.73,38.293,116.751,34.7v3.154c0,.263.263.35.613.35v.175h-1.489v-.175c.263,0,.526-.088.526-.35V34.613a.893.893,0,0,0-.7-.438V34h1.139c.876,1.139,1.927,2.278,2.8,3.417V34.526c0-.088-.263-.263-.7-.35V34h1.489v.175c-.263,0-.526.088-.526.35V38.38Z" transform="translate(-14.341 -4.214)" fill="#fff"/>
      <path id="Path_4432" data-name="Path 4432" d="M119.73,38.293,116.751,34.7v3.154c0,.263.263.35.613.35v.175h-1.489v-.175c.263,0,.526-.088.526-.35V34.613a.893.893,0,0,0-.7-.438V34h1.139c.876,1.139,1.927,2.278,2.8,3.417V34.526c0-.088-.263-.263-.7-.35V34h1.489v.175c-.263,0-.526.088-.526.35V38.38Z" transform="translate(-14.341 -4.214)" fill="#004785"/>
      <path id="Path_4433" data-name="Path 4433" d="M126.23,38.293c-.964-1.139-2.015-2.365-2.979-3.592v3.154c0,.263.263.35.613.35v.175h-1.489v-.175c.263,0,.526-.088.526-.35V34.613a.893.893,0,0,0-.7-.438V34h1.139c.964,1.139,1.927,2.278,2.8,3.417V34.526c0-.088-.263-.263-.7-.35V34h1.489v.175c-.263,0-.526.088-.526.35V38.38Z" transform="translate(-15.146 -4.214)" fill="#fff"/>
      <path id="Path_4434" data-name="Path 4434" d="M126.23,38.293c-.964-1.139-2.015-2.365-2.979-3.592v3.154c0,.263.263.35.613.35v.175h-1.489v-.175c.263,0,.526-.088.526-.35V34.613a.893.893,0,0,0-.7-.438V34h1.139c.964,1.139,1.927,2.278,2.8,3.417V34.526c0-.088-.263-.263-.7-.35V34h1.489v.175c-.263,0-.526.088-.526.35V38.38Z" transform="translate(-15.146 -4.214)" fill="#004785"/>
      <path id="Path_4435" data-name="Path 4435" d="M131.1,34.864a.785.785,0,0,0-.788-.788h0a.666.666,0,0,0-.7.526v.088c0,.438.438.7,1.051,1.139s.876.788.876,1.314c0,.7-.788,1.139-1.489,1.139A4.4,4.4,0,0,1,129,38.105v-.964h.175a.972.972,0,0,0,.964.964h0a.785.785,0,0,0,.788-.788h0c0-.438-.175-.7-1.139-1.314A1.4,1.4,0,0,1,129,34.864c0-.526.613-.964,1.314-.964a2.98,2.98,0,0,1,.876.088.086.086,0,0,1,.088.088h0v.788Z" transform="translate(-15.989 -4.202)" fill="#fff"/>
      <path id="Path_4436" data-name="Path 4436" d="M131.1,34.864a.785.785,0,0,0-.788-.788h0a.666.666,0,0,0-.7.526v.088c0,.438.438.7,1.051,1.139s.876.788.876,1.314c0,.7-.788,1.139-1.489,1.139A4.4,4.4,0,0,1,129,38.105v-.964h.175a.972.972,0,0,0,.964.964h0a.785.785,0,0,0,.788-.788h0c0-.438-.175-.7-1.139-1.314A1.4,1.4,0,0,1,129,34.864c0-.526.613-.964,1.314-.964a2.98,2.98,0,0,1,.876.088.086.086,0,0,1,.088.088h0v.788Z" transform="translate(-15.989 -4.202)" fill="#004785"/>
      <path id="Path_4437" data-name="Path 4437" d="M134.039,38.117c.526-.088.526,0,.526-.613v-.964l-.964-1.927c-.175-.438-.35-.526-.7-.526V34h1.577v.175c-.438,0-.438.263-.263.526L135,36.278l.876-1.577c.175-.35,0-.526-.35-.526V34h1.314v.175a.634.634,0,0,0-.526.35l-1.051,1.927a.789.789,0,0,0-.088.438V37.5c0,.613,0,.526.526.613v.175h-1.665Z" transform="translate(-16.473 -4.214)" fill="#fff"/>
      <path id="Path_4438" data-name="Path 4438" d="M134.039,38.117c.526-.088.526,0,.526-.613v-.964l-.964-1.927c-.175-.438-.35-.526-.7-.526V34h1.577v.175c-.438,0-.438.263-.263.526L135,36.278l.876-1.577c.175-.35,0-.526-.35-.526V34h1.314v.175a.634.634,0,0,0-.526.35l-1.051,1.927a.789.789,0,0,0-.088.438V37.5c0,.613,0,.526.526.613v.175h-1.665v-.175Z" transform="translate(-16.473 -4.214)" fill="#004785"/>
      <path id="Path_4439" data-name="Path 4439" d="M138.6,38.117c.526-.088.526,0,.526-.613V34.7c0-.613,0-.526-.526-.613V34h1.664v.175c-.526.088-.526,0-.526.613v2.891c0,.438.263.438.788.438.876,0,.876-.263,1.139-.876h.175l-.175,1.139H138.6Z" transform="translate(-17.179 -4.214)" fill="#fff"/>
      <path id="Path_4440" data-name="Path 4440" d="M138.6,38.117c.526-.088.526,0,.526-.613V34.7c0-.613,0-.526-.526-.613V34h1.664v.175c-.526.088-.526,0-.526.613v2.891c0,.438.263.438.788.438.876,0,.876-.263,1.139-.876h.175l-.175,1.139H138.6v-.263Z" transform="translate(-17.179 -4.214)" fill="#004785"/>
      <path id="Path_4441" data-name="Path 4441" d="M144.152,34.05c-.35,0-.613.088-.35.7s.613,1.752.964,2.716c.438-.964.788-1.927,1.139-2.891.175-.438,0-.613-.438-.613v-.175h1.314v.175a.592.592,0,0,0-.526.35l-1.577,3.767h-.35c-.35-1.051-.788-2.278-1.226-3.329-.263-.7-.438-.876-.7-.876V33.7h1.665Z" transform="translate(-17.65 -4.177)" fill="#fff"/>
      <path id="Path_4442" data-name="Path 4442" d="M144.152,34.05c-.35,0-.613.088-.35.7s.613,1.752.964,2.716c.438-.964.788-1.927,1.139-2.891.175-.438,0-.613-.438-.613v-.175h1.314v.175a.592.592,0,0,0-.526.35l-1.577,3.767h-.35c-.35-1.051-.788-2.278-1.226-3.329-.263-.7-.438-.876-.7-.876V33.7h1.665l.088.35Z" transform="translate(-17.65 -4.177)" fill="#004785"/>
      <path id="Path_4443" data-name="Path 4443" d="M150.016,36.628l-.7-2.015-.7,2.015Zm-1.577.263-.263.876a.385.385,0,0,0,.088.438h.175v.175H147.3v-.175a.482.482,0,0,0,.438-.263c.263-.526.964-2.541,1.489-3.942h.35c.438,1.226,1.051,3.154,1.226,3.679.175.35.263.526.526.526v.175h-1.4v-.175c.35,0,.438-.175.35-.438l-.263-.788Z" transform="translate(-18.257 -4.214)" fill="#fff"/>
      <path id="Path_4444" data-name="Path 4444" d="M150.016,36.628l-.7-2.015-.7,2.015Zm-1.577.263-.263.876a.385.385,0,0,0,.088.438h.175v.175H147.3v-.175a.482.482,0,0,0,.438-.263c.263-.526.964-2.541,1.489-3.942h.35c.438,1.226,1.051,3.154,1.226,3.679.175.35.263.526.526.526v.175h-1.4v-.175c.35,0,.438-.175.35-.438l-.263-.788Z" transform="translate(-18.257 -4.214)" fill="#004785"/>
      <path id="Path_4445" data-name="Path 4445" d="M156.83,38.293,153.851,34.7v3.154c0,.263.263.35.613.35v.175h-1.489v-.175c.263,0,.526-.088.526-.35V34.613a.893.893,0,0,0-.7-.438V34h1.139c.964,1.139,1.84,2.278,2.8,3.417V34.526c0-.088-.263-.263-.7-.35V34h1.577v.175c-.263,0-.526.088-.526.35V38.38Z" transform="translate(-18.939 -4.214)" fill="#fff"/>
      <path id="Path_4446" data-name="Path 4446" d="M156.83,38.293,153.851,34.7v3.154c0,.263.263.35.613.35v.175h-1.489v-.175c.263,0,.526-.088.526-.35V34.613a.893.893,0,0,0-.7-.438V34h1.139c.964,1.139,1.84,2.278,2.8,3.417V34.526c0-.088-.263-.263-.7-.35V34h1.577v.175c-.263,0-.526.088-.526.35V38.38Z" transform="translate(-18.939 -4.214)" fill="#004785"/>
      <path id="Path_4447" data-name="Path 4447" d="M160.539,37.5c0,.613,0,.526.526.613v.175H159.4v-.175c.526-.088.526,0,.526-.613V34.7c0-.613,0-.526-.526-.613V34h1.665v.175c-.526.088-.526,0-.526.613Z" transform="translate(-19.757 -4.214)" fill="#fff"/>
      <path id="Path_4448" data-name="Path 4448" d="M160.539,37.5c0,.613,0,.526.526.613v.175H159.4v-.175c.526-.088.526,0,.526-.613V34.7c0-.613,0-.526-.526-.613V34h1.665v.175c-.526.088-.526,0-.526.613V37.5Z" transform="translate(-19.757 -4.214)" fill="#004785"/>
      <path id="Path_4449" data-name="Path 4449" d="M165.041,36.628l-.7-2.015-.788,2.015Zm-1.489.263-.263.876a.32.32,0,0,0,.175.438h.175v.175H162.5v-.175a.482.482,0,0,0,.438-.263c.263-.526.964-2.541,1.489-3.942h.35c.438,1.226,1.051,3.154,1.226,3.679.175.35.263.526.526.526v.175h-1.4v-.175c.35,0,.438-.175.35-.438l-.263-.788Z" transform="translate(-20.142 -4.214)" fill="#fff"/>
      <path id="Path_4450" data-name="Path 4450" d="M165.041,36.628l-.7-2.015-.788,2.015Zm-1.489.263-.263.876a.32.32,0,0,0,.175.438h.175v.175H162.5v-.175a.482.482,0,0,0,.438-.263c.263-.526.964-2.541,1.489-3.942h.35c.438,1.226,1.051,3.154,1.226,3.679.175.35.263.526.526.526v.175h-1.4v-.175c.35,0,.438-.175.35-.438l-.263-.788Z" transform="translate(-20.142 -4.214)" fill="#004785"/>
      <path id="Path_4451" data-name="Path 4451" d="M37.282,44.413l-.613-1.84-.613,1.84Zm0-2.8,1.489,4.38h-.964l-.35-.964H35.7l-.35.964h-.876l1.577-4.38Zm2.015,2.1v-.788h.876v.613a.952.952,0,0,1,1.051-.613v.788c-.876-.088-.964.35-.964.788V45.99h-.876Zm4.03.438c0-.175,0-.7-.526-.7s-.526.35-.613.7Zm-1.051.613c0,.175,0,.788.613.788a.491.491,0,0,0,.526-.438H44.2a1,1,0,0,1-.263.7,1.529,1.529,0,0,1-1.051.35,1.4,1.4,0,0,1-1.051-.35,2.093,2.093,0,0,1-.438-1.226,1.921,1.921,0,0,1,.613-1.489,1.48,1.48,0,0,1,.876-.263,1.3,1.3,0,0,1,1.226.7,2.4,2.4,0,0,1,.175,1.139Zm3.241.35a.414.414,0,0,0,.438.438h.088c.35,0,.438-.175.438-.35s-.088-.263-.438-.35l-.526-.175a.932.932,0,0,1-.788-.876c0-.613.526-.964,1.314-.964.613,0,1.139.263,1.139.876h-.788a.377.377,0,0,0-.35-.35h-.088c-.263,0-.438.088-.438.263s.175.263.438.35l.526.175c.526.175.788.438.788.876s-.438,1.051-1.4,1.051a1.529,1.529,0,0,1-1.051-.35.8.8,0,0,1-.263-.613Zm4.205.876a1.929,1.929,0,0,1-.7.088c-.876,0-.876-.526-.876-.788V43.625h-.613v-.613h.613v-.526l.876-.35v.876h.7v.613h-.7v1.314c0,.263,0,.438.438.438h.263Zm1.226-3.066.7,2.1.7-2.1h.876L52.087,45.9l-.35,1.226h-.876l.35-1.139-1.226-3.066Zm4.38-1.314h.964v4.38h-.964Zm1.752,1.927v-.526h.876v.438a1.1,1.1,0,0,1,.964-.526.947.947,0,0,1,.964.613,2.98,2.98,0,0,1,.088.876v1.664h-.964v-1.84a.527.527,0,0,0-.088-.35.5.5,0,0,0-.876,0,.79.79,0,0,0-.088.438v1.752h-.876Zm4.293,1.577a.493.493,0,0,0,.526.438c.35,0,.438-.175.438-.35s-.088-.263-.438-.35l-.526-.175a.932.932,0,0,1-.788-.876c0-.613.526-.964,1.314-.964.613,0,1.139.263,1.139.876h-.788c0-.35-.263-.35-.438-.35s-.438.088-.438.263.175.263.438.35l.526.175c.526.175.788.438.788.876s-.438,1.051-1.4,1.051a1.529,1.529,0,0,1-1.051-.35.542.542,0,0,1-.175-.613Zm4.205.876a1.929,1.929,0,0,1-.7.088c-.876,0-.876-.526-.876-.788V43.625h-.613v-.613H64v-.526l.876-.35v.876h.7v.613h-.7v1.314c0,.263,0,.438.438.438h.263Zm.613-3.066h.876V45.99h-.876Zm0-1.314h.964V42.4h-.964Zm3.5,4.38a1.929,1.929,0,0,1-.7.088c-.876,0-.876-.526-.876-.788V43.625h-.613v-.613h.613v-.526l.876-.35v.876h.7v.613h-.7v1.314c0,.263,0,.438.438.438H69.7Zm1.314-3.066v1.84c0,.263,0,.7.438.7s.613-.438.613-.964V42.924h.876V45.99h-.788v-.438a.89.89,0,0,1-.876.438,1.078,1.078,0,0,1-.876-.438.894.894,0,0,1-.175-.788V42.836Zm4.643,3.066a1.929,1.929,0,0,1-.7.088c-.876,0-.876-.526-.876-.788V43.625h-.613v-.613h.613v-.526l.876-.35v.876h.7v.613h-.7v1.314c0,.263,0,.438.438.438h.263Zm2.365-1.84c0-.175,0-.7-.526-.7s-.526.35-.613.7Zm-1.139.613c0,.175,0,.788.613.788a.491.491,0,0,0,.526-.438h.788a1,1,0,0,1-.263.7,1.53,1.53,0,0,1-1.051.35,1.4,1.4,0,0,1-1.051-.35,1.57,1.57,0,0,1-.35-1.226A1.921,1.921,0,0,1,76.7,43.1a1.48,1.48,0,0,1,.876-.263,1.3,1.3,0,0,1,1.226.7,2.4,2.4,0,0,1,.175,1.139Zm5.782.788c.35,0,.7-.263.7-1.051,0-.438-.088-.964-.7-.964s-.7.788-.7,1.051c0,.613.263.964.7.964m0-2.628a1.472,1.472,0,0,1,1.577,1.4v.263a1.5,1.5,0,0,1-1.4,1.664h-.175a1.534,1.534,0,0,1-1.577-1.4v-.175a1.55,1.55,0,0,1,1.4-1.665c0-.088.088-.088.175-.088m2.278.7H84.5v-.613h.438v-.438c0-.526.175-.964,1.051-.964h.526v.613h-.175c-.438,0-.438.263-.438.438v.35h.613v.613H85.9v2.453h-.876Zm3.767-2.015H91.6v.7H89.582v1.051h1.84v.7h-1.84V45.2H91.6v.7H88.618C88.706,45.99,88.706,41.61,88.706,41.61Zm4.38,1.314.613.964.613-.964h.964l-.964,1.489,1.051,1.577H94.313L93.7,44.851l-.613,1.139H92.035l1.051-1.665-.964-1.4Zm4.38,1.226c0-.175,0-.7-.526-.7s-.526.35-.613.7Zm-1.139.613c0,.175,0,.788.613.788a.491.491,0,0,0,.526-.438h.788a1,1,0,0,1-.263.7,1.529,1.529,0,0,1-1.051.35,1.4,1.4,0,0,1-1.051-.35,1.57,1.57,0,0,1-.35-1.226,1.921,1.921,0,0,1,.613-1.489,1.48,1.48,0,0,1,.876-.263,1.3,1.3,0,0,1,1.226.7,2.4,2.4,0,0,1,.175,1.139Zm4.293-.7c0-.088,0-.526-.35-.526s-.438.613-.438.964a3.726,3.726,0,0,0,.175.964.322.322,0,0,0,.263.088c.088,0,.35,0,.438-.613h.876a1.557,1.557,0,0,1-.35.876A1.387,1.387,0,0,1,98.956,44.5a1.4,1.4,0,0,1,1.226-1.577h.263a1.109,1.109,0,0,1,1.226,1.051v.088Zm2.278-1.139v1.84c0,.263,0,.7.526.7s.613-.438.613-.964V42.924h.876V45.99h-.876v-.438a.768.768,0,0,1-.876.438,1.078,1.078,0,0,1-.876-.438,1.3,1.3,0,0,1-.175-.788V42.836Zm4.643,3.066a1.929,1.929,0,0,1-.7.088c-.876,0-.876-.526-.876-.788V43.625h-.613v-.613h.613v-.526l.876-.35v.876h.7v.613h-.7v1.314c0,.263,0,.438.438.438h.263Zm.526-3.066h.876V45.99h-.876Zm0-1.314h.964V42.4h-.964Zm2.365,1.314.7,2.1.7-2.1h.876l-1.051,3.066h-.964l-1.139-3.066Zm4.468,1.226c0-.175,0-.7-.526-.7s-.526.35-.613.7Zm-1.139.613c0,.175,0,.788.613.788a.491.491,0,0,0,.526-.438h.788a1,1,0,0,1-.263.7,1.529,1.529,0,0,1-1.051.35,1.4,1.4,0,0,1-1.051-.35,1.57,1.57,0,0,1-.35-1.226,1.668,1.668,0,0,1,.613-1.489,1.48,1.48,0,0,1,.876-.263,1.3,1.3,0,0,1,1.226.7,2.4,2.4,0,0,1,.175,1.139Zm4.38-3.154h2.891v.7h-2.015v1.051h1.84v.7h-1.84V45.2h2.1v.7h-2.979Zm4.993,3.855a.592.592,0,0,0,.526-.35,2.062,2.062,0,0,0,.175-.7c0-.613-.263-.876-.7-.876-.613,0-.7.7-.7,1.051.088.526.263.964.7.876m.7-3.767h.876v4.38h-.876V45.64a.684.684,0,0,1-.35.35,1.266,1.266,0,0,1-.613.175c-.788,0-1.314-.526-1.314-1.489s.526-1.665,1.314-1.665a1.078,1.078,0,0,1,.876.438Zm2.628,1.226v1.84c0,.263,0,.7.526.7s.526-.438.526-.964V42.924h.964V45.99H127.6v-.438a.768.768,0,0,1-.876.438,1.407,1.407,0,0,1-.964-.438,1.3,1.3,0,0,1-.175-.788V42.836Zm4.38,1.139c0-.088,0-.526-.35-.526s-.438.613-.438.964a2,2,0,0,0,.263.964.322.322,0,0,0,.263.088c.088,0,.35,0,.438-.613h.876a1.338,1.338,0,0,1-.35.876,1.48,1.48,0,0,1-.876.263,1.276,1.276,0,0,1-1.051-.438,1.57,1.57,0,0,1-.35-1.226,1.4,1.4,0,0,1,1.226-1.577h.263a1.059,1.059,0,0,1,1.226,1.051v.175h-1.139Zm2.19.964a.414.414,0,0,0,.438.438h0a.455.455,0,0,0,.35-.175A1.3,1.3,0,0,0,134,44.5c-.526,0-.964.175-.964.526m1.139.964v-.438a1.228,1.228,0,0,1-1.664.263h0a1,1,0,0,1-.263-.7,1.077,1.077,0,0,1,.613-.964,2.784,2.784,0,0,1,1.226-.175v-.438a.469.469,0,0,0-.35-.263.455.455,0,0,0-.35.175.322.322,0,0,0-.088.263h-.876a.8.8,0,0,1,.35-.7,1.766,1.766,0,0,1,.964-.263,1.179,1.179,0,0,1,1.051.438.894.894,0,0,1,.175.788V45.2a2.425,2.425,0,0,0,.088.788Zm3.329,0a1.929,1.929,0,0,1-.7.088c-.876,0-.876-.526-.876-.788V43.625h-.613v-.613h.613v-.526l.876-.35v.876h.7v.613h-.7v1.314c0,.263,0,.438.438.438h.35Zm.526-3.066h.876V45.99h-.876Zm0-1.314h.964V42.4h-.964Zm3.154,3.942c.35,0,.7-.263.7-1.051,0-.438-.088-.964-.7-.964s-.7.788-.7,1.051c0,.613.263.964.7.964m0-2.628a1.472,1.472,0,0,1,1.577,1.4v.263a1.5,1.5,0,0,1-1.4,1.664h-.175a1.472,1.472,0,0,1-1.577-1.4v-.263a1.547,1.547,0,0,1,1.314-1.665h.263m2.278.613v-.526h.876v.438a1.1,1.1,0,0,1,.964-.526.947.947,0,0,1,.964.613,2.979,2.979,0,0,1,.088.876v1.664h-.876v-1.84a.527.527,0,0,0-.088-.35.5.5,0,0,0-.876,0,.79.79,0,0,0-.088.438v1.752h-.876ZM.4,2.1H30.624V17.168a17.109,17.109,0,0,1-4.117,11.126c-5.607,6.4-10.863,7.8-10.863,7.8s-4.731-1.314-10.25-6.921A16.434,16.434,0,0,1,.488,17.431Z" transform="translate(-0.05 -0.26)" fill="#004785"/>
      <path id="Path_4452" data-name="Path 4452" d="M15.506,36.292c1.752-.088,15.506-6.483,15.506-19.1V1.6H0V17.106c0,12.7,13.754,19.1,15.506,19.186" transform="translate(0 -0.198)" fill="#fff"/>
      <path id="Path_4453" data-name="Path 4453" d="M30.335,17.305c0,11.914-13.141,18.309-14.718,18.309S.9,29.22.9,17.305V2.5H30.335Z" transform="translate(-0.112 -0.31)" fill="#fff" stroke="#004785" stroke-width="0.3"/>
      <path id="Path_4454" data-name="Path 4454" d="M14.654,8.808a6.985,6.985,0,0,1,1.4.7l.876.438.175.088A4.213,4.213,0,0,0,20,10.56,2.82,2.82,0,0,0,21.75,9.508a2.368,2.368,0,0,0,.35-2.015c-.7-2.365.175-3.329.175-3.329a1.766,1.766,0,0,0-1.489.175,1.613,1.613,0,0,0-.7,1.577,1.523,1.523,0,0,0-.964.526,1.345,1.345,0,0,0,0,1.4l.175.35.175-.263a.989.989,0,0,1,.964-.263.587.587,0,0,1,.263.7.669.669,0,0,1-.175.438,1.434,1.434,0,0,1-1.051.175,2.164,2.164,0,0,1-.788-.35c-.175-.175-.175-.35-.35-.526s0-.35,0-.438a.96.96,0,0,0,0-.7c-.088-.263-.35-.35-.526-.438s-.263-.088-.263-.175c-.088-.088-.088-.175,0-.35a.894.894,0,0,0-.175-.788.951.951,0,0,0-.788-.35.79.79,0,0,1-.438-.088c-.088,0-.088-.088-.088-.175-.088-.35-.35-.7-.7-.7a.661.661,0,0,0-.7.088c-.088.088-.175.088-.35.088-.088,0-.088,0-.175-.088a.833.833,0,0,0-.876-.35,1.014,1.014,0,0,0-.613.438l-.088.088-.088-.088a.664.664,0,0,0-.876-.088.9.9,0,0,0-.438.526c-.088.088-.175.175-.263.175l-.175-.263c-.526.263-1.577,2.716-1.577,3.241a.624.624,0,0,0,.263.526c.088.088.175.175.088.263,0,.088-.088.175-.175.263a.8.8,0,0,0,0,1.051l.263.088c.088.438.438.526.876.526a3.487,3.487,0,0,0,1.84-.788l.088-.088a1.243,1.243,0,0,0,.7-.788,2.062,2.062,0,0,1,.7-.175,1.48,1.48,0,0,1,.876.263M.9,11.523V2.5H30.335v9.023Z" transform="translate(-0.112 -0.31)" fill="#a90533"/>
      <path id="Path_4455" data-name="Path 4455" d="M11.7,10.267a4.441,4.441,0,0,0,1.577-.788h.088a1.056,1.056,0,0,0,.438-.438V8.865c-.088,0-.175-.088-.263-.088a.188.188,0,0,1-.175-.175c-.088-.175.088-.263.175-.263a3.551,3.551,0,0,0,.788-.438l-.438-.438-.175-.175a.8.8,0,0,0-.613-.263c-.175,0-.35.263-.526.35s-.35-.175-.263-.35.263-.175.263-.35a2.49,2.49,0,0,0-.35-1.051c0-.088-.175-.175-.263-.175a5.309,5.309,0,0,0-1.226,2.541c0,.088,0,.175.088.175a.624.624,0,0,1,.263.526.757.757,0,0,1-.263.526c-.088.088-.175.175-.175.263,0,.175,0,.35.526.35a1.053,1.053,0,0,0,.7-.175,2.362,2.362,0,0,0,.7-.613.164.164,0,0,1,.263,0c.088,0,.088.088.088.175-.175.35-.613.526-.876.7a1.3,1.3,0,0,1-.788.175c-.175.088.175.263.438.175m6.658-.088-.175-.088-.876-.438a10.458,10.458,0,0,0-1.4-.7,1.856,1.856,0,0,0-1.664,0,1.069,1.069,0,0,1-.7.788l-.088.088a3.487,3.487,0,0,1-1.84.788.809.809,0,0,1-.876-.526L10.472,10a.8.8,0,0,1,0-1.051c.088-.088.175-.175.175-.263a.322.322,0,0,0-.088-.263A.53.53,0,0,1,10.3,7.9c0-.526,1.051-2.979,1.577-3.241l.175.175c.088-.088.175-.175.175-.263a2.323,2.323,0,0,1,.438-.526,1.159,1.159,0,0,1,1.051.175l.088.088.088-.088a.79.79,0,0,1,.526-.526.707.707,0,0,1,.788.35c.088.088.088.175.175.088.088,0,.263-.088.35-.088a1.237,1.237,0,0,1,.788-.088.951.951,0,0,1,.7.7c0,.088,0,.175.088.175a.79.79,0,0,0,.438.088.951.951,0,0,1,.788.35.894.894,0,0,1,.175.788v.35a.188.188,0,0,0,.175.175.9.9,0,0,1,.526.438.96.96,0,0,1,0,.7c0,.088-.088.35,0,.438s.175.263.35.438a1.574,1.574,0,0,0,.788.35A1.508,1.508,0,0,0,21.6,8.778a.669.669,0,0,0,.175-.438.587.587,0,0,0-.263-.7.989.989,0,0,0-.964.263l-.088.438-.088-.35a1.345,1.345,0,0,1,0-1.4,1.264,1.264,0,0,1,.964-.613A1.565,1.565,0,0,1,21.861,4.4a1.8,1.8,0,0,1,1.489-.175s-.876.964-.175,3.241a2.278,2.278,0,0,1-.35,2.1,2.82,2.82,0,0,1-1.752,1.051c-.263,0-.526.088-.788.088a4.264,4.264,0,0,1-1.927-.526" transform="translate(-1.274 -0.455)" fill="#004785"/>
      <path id="Path_4456" data-name="Path 4456" d="M19.358,8.05a7.939,7.939,0,0,1-.964-1.4l-.175-.088V6.473a3.738,3.738,0,0,0-3.066-1.489,5.111,5.111,0,0,0-2.278.526l-.088-.088L12.7,5.159c.088-.088.175-.175.175-.263a.684.684,0,0,1,.35-.35c.263-.088.35,0,.613.088l.175.088c.175.088.35-.088.438-.263s.175-.263.35-.263a.421.421,0,0,1,.526.175.53.53,0,0,0,.526.263.669.669,0,0,0,.438-.175.656.656,0,0,1,.438-.088c.35.088.438.263.438.526a.745.745,0,0,0,.263.438.769.769,0,0,0,.613.088.644.644,0,0,1,.526.175c.088.088.088.263.088.526a.931.931,0,0,0,.088.7A.664.664,0,0,0,19.1,7c.175,0,.263.175.35.263a.391.391,0,0,1,0,.438c0,.175,0,.263-.088.35" transform="translate(-1.574 -0.516)" fill="#fff"/>
      <path id="Path_4457" data-name="Path 4457" d="M14.426,7.153a1.915,1.915,0,0,1,.438-.263.322.322,0,0,1,.263.088.482.482,0,0,1,.263.438l.088.263.175-.175a.579.579,0,0,1,.526-.088c.175,0,.263.175.35.35l.088.263.175-.175a.455.455,0,0,1,.35-.175c.088,0,.175.175.263.35,0,.088.088.088.088.175.088.175.263.175.438.175s.175,0,.263.263.438.175.35-.088c-.175-.526-.438-.526-.613-.526h-.088l-.088-.175a.78.78,0,0,0-.526-.526.656.656,0,0,0-.438.088,1.056,1.056,0,0,0-.438-.438.769.769,0,0,0-.613.088.875.875,0,0,0-.35-.438.72.72,0,0,0-.613-.088,1.833,1.833,0,0,0-.526.35c-.175-.175-.876-.088-.876-.088a2.558,2.558,0,0,0-.175-.788c0-.263,1.489-.526,2.19-.526a3.363,3.363,0,0,1,2.716,1.4v.088l.088.088A19.242,19.242,0,0,0,19.42,8.642l.613.613A1.945,1.945,0,0,0,21,9.693a1.727,1.727,0,0,0,1.314-.263,1.071,1.071,0,0,0,.263-.788c0-.35,0-.964-.613-1.051a1.317,1.317,0,0,0-.964.35,1.037,1.037,0,0,1,.088-.876.734.734,0,0,1,.7-.526h.175V6.364a1.616,1.616,0,0,1,.438-1.4,1.413,1.413,0,0,1,.788-.263,4.592,4.592,0,0,0,.088,3.066,2.064,2.064,0,0,1-.263,1.752,2.579,2.579,0,0,1-1.577.876,3.937,3.937,0,0,1-2.628-.438l-.175-.088-.876-.438a11.4,11.4,0,0,0-1.489-.7,2.454,2.454,0,0,0-1.927,0h-.088c.526-.263.7-.438.7-.7a.527.527,0,0,0-.088-.35,1.911,1.911,0,0,1-.35-.438l-.088-.088" transform="translate(-1.636 -0.583)" fill="#fff"/>
      <path id="Path_4458" data-name="Path 4458" d="M11.237,10.243a1.3,1.3,0,0,0,.788-.175c.263-.175.788-.438.876-.7,0-.088-.088-.175-.175-.263-.088,0-.175,0-.175.088a1.628,1.628,0,0,1-1.314.788c-.526,0-.438-.175-.438-.35,0-.088.088-.175.175-.263a.757.757,0,0,0,.263-.526.53.53,0,0,0-.263-.526c-.088,0-.088-.088-.088-.175A5.309,5.309,0,0,1,12.113,5.6c.088,0,.175.088.263.175a2.49,2.49,0,0,1,.35,1.051c0,.175-.175.175-.263.35s0,.438.263.35.438-.35.613-.35a.8.8,0,0,1,.613.263l.175.175a1.911,1.911,0,0,0,.35.438,1.908,1.908,0,0,1-.7.438c-.088.088-.263.175-.263.263a.188.188,0,0,0,.175.175.322.322,0,0,1,.263.088s.088.175,0,.175a1.056,1.056,0,0,1-.438.438h-.088a4.447,4.447,0,0,1-1.577.788h-.088c-.438.088-.613-.175-.526-.175" transform="translate(-1.338 -0.694)" fill="#fff"/>
      <path id="Path_4459" data-name="Path 4459" d="M11.9,9.076V8.813a.455.455,0,0,1,.175-.35l.438-.263a1.987,1.987,0,0,0-.088.35.527.527,0,0,1-.088.35.28.28,0,0,1-.263.263h-.088c.088,0,0,0-.088-.088" transform="translate(-1.475 -1.016)" fill="#004785"/>
      <path id="Path_4460" data-name="Path 4460" d="M.7,12.8H30.749v.788H.7Z" transform="translate(-0.087 -1.587)" fill="#fff"/>
      <path id="Path_4461" data-name="Path 4461" d="M15.878,13.6,28.844,25.865a15.871,15.871,0,0,1-1.752,2.891A24.693,24.693,0,0,1,24.2,31.909l-8.235-8.5L7.643,32a21.222,21.222,0,0,1-2.716-2.891A14.487,14.487,0,0,1,3,25.952Zm0,8.5a2.9,2.9,0,0,0-.35-5.782,2.825,2.825,0,0,0-2.716,2.891A3.07,3.07,0,0,0,15.878,22.1m9.9,3.154a2.984,2.984,0,1,0-3.154,2.8H22.8a2.973,2.973,0,0,0,2.979-2.8h0m-16.733,2.8a2.856,2.856,0,1,0,.438-5.694H9.045a2.856,2.856,0,1,0-.438,5.694h.438" transform="translate(-0.372 -1.686)" fill="#004785"/>
      <path id="Path_4462" data-name="Path 4462" d="M5.3,4.563c.35,0,.526-.263.964-.263.613,0,.788.35,1.4.526h.788v.526c0,.175.438.175.438.613s-.438.35-.438.526V7.717c0,.175.438.175.438.613s-.438.35-.438.613v.7H2.238v-.7c0-.263-.438-.263-.438-.613s.35-.438.35-.613V6.49c0-.175-.35-.175-.35-.613s.438-.438.438-.613V4.738h.788c.613-.175.788-.438,1.4-.438.438,0,.613.263.876.263Z" transform="translate(-0.223 -0.533)" fill="#fff"/>
      <path id="Path_4463" data-name="Path 4463" d="M5.265,4.163h.35A2.333,2.333,0,0,1,6.667,3.9c.35,0,.7.35,1.051.438h.35V8.631H5.879c0,.263-.35.35-.438.35a.368.368,0,0,1-.35-.35H2.9V4.338h.35c.438,0,.788-.35,1.051-.438a1.766,1.766,0,0,1,.964.263" transform="translate(-0.359 -0.483)" fill="#004785"/>
      <path id="Path_4464" data-name="Path 4464" d="M3.3,8.317V4.726c.438-.088.788-.438,1.051-.438a1.766,1.766,0,0,1,.964.263V7.967a1.958,1.958,0,0,0-.876.263A5,5,0,0,1,3.3,8.317m4.468,0A5,5,0,0,1,6.629,8.23a2.623,2.623,0,0,0-.876-.35V4.463A1.766,1.766,0,0,1,6.717,4.2c.35,0,.7.35,1.051.438ZM26.428,4.55c.35,0,.526-.263.964-.263.613,0,.788.35,1.4.526h.788v.526c0,.175.438.175.438.613s-.438.438-.438.613V7.792c0,.175.438.175.438.613s-.438.35-.438.613v.7H23.449V8.931c0-.263-.438-.263-.438-.613s.35-.438.35-.613V6.478c0-.175-.35-.175-.35-.613s.438-.438.438-.613V4.726h.788c.613-.175.788-.438,1.4-.438.35,0,.526.263.788.263Z" transform="translate(-0.409 -0.521)" fill="#fff"/>
      <path id="Path_4465" data-name="Path 4465" d="M29.141,4.163h.438a1.308,1.308,0,0,1,.876-.263c.263,0,.7.35,1.051.438h.35V8.631h-2.19c0,.263-.35.35-.438.35s-.438-.088-.438-.35H26.6V4.338h.35A2.8,2.8,0,0,0,28.089,3.9a2.333,2.333,0,0,1,1.051.263" transform="translate(-3.297 -0.483)" fill="#004785"/>
      <path id="Path_4466" data-name="Path 4466" d="M27.1,8.317V4.726c.438-.088.788-.438,1.051-.438a1.766,1.766,0,0,1,.964.263V7.967a2.623,2.623,0,0,0-.876.35H27.1m4.555,0a5,5,0,0,1-1.139-.088,2.623,2.623,0,0,0-.876-.35V4.463A1.766,1.766,0,0,1,30.6,4.2c.263,0,.7.35,1.051.438Z" transform="translate(-3.359 -0.521)" fill="#fff"/>
    </g>
  </g>
</svg>
