<?xml version="1.0" encoding="utf-8"?>
<!-- Generator: Adobe Illustrator 22.0.1, SVG Export Plug-In . SVG Version: 6.00 Build 0)  -->
<svg version="1.1" id="Layer_1_copy" xmlns="http://www.w3.org/2000/svg" xmlns:xlink="http://www.w3.org/1999/xlink" x="0px"
	 y="0px" viewBox="0 0 311 53.8" style="enable-background:new 0 0 311 53.8;" xml:space="preserve">
<style type="text/css">
	.st0{fill:#FFFFFF;}
	.st1{fill:none;stroke:#FFFFFF;stroke-width:9.000000e-02;stroke-miterlimit:3.86;}
	.st2{fill:#A90533;}
	.st3{fill:#004785;}
</style>
<path class="st0" d="M185.7,27.7V11h9v2.1h-6.7V18h5.2l0.3,2.1h-5.6v5.6h7v2.1L185.7,27.7z M197.5,11.4l2.3-0.5l4.1,6.3l4-6.1h2.5
	l-5.3,7.9l5.7,8.5l-2.3,0.5l-4.7-7.1l-4.5,6.9h-2.5l5.8-8.7L197.5,11.4z M213.5,27.7V11h9v2.1h-6.7V18h5.2l0.3,2.1h-5.6v5.6h6.9v2.1
	L213.5,27.7z M232,28c-4.7,0-7.7-3.5-7.7-8.6s3.1-8.7,7.8-8.7c1.7,0,3.3,0.4,4.7,1.4l-0.3,2.3c-1.2-1-2.8-1.6-4.4-1.6
	c-3.4,0-5.4,2.6-5.4,6.6s2,6.5,5.4,6.5c1.7,0,3.3-0.6,4.7-1.7l0.3,2.1C235.5,27.4,233.8,28,232,28L232,28z M246.3,28
	c-4,0-6.4-2.5-6.4-6.6V11h2.3v10.1c0,2.9,1.3,4.8,4.2,4.8s4.2-1.7,4.2-4.8V11h2.3v10.2C252.8,25.5,250.3,28,246.3,28L246.3,28z
	 M262.9,13.1v14.6h-2.3V13.1h-5.3V11h12.7l0.3,2.1H262.9z M271,27.7V11h2.3v16.7H271z M284.3,27.8h-2l-6.4-16.4l2.3-0.5l5.2,13.9
	l5.1-13.7h2.4L284.3,27.8z M293.4,27.7V11h9v2.1h-6.7V18h5.2l0.3,2.1h-5.6v5.6h7v2.1L293.4,27.7z M185.7,52.3V35.6h9v2.1h-6.7v4.8
	h5.2l0.3,2.1h-5.6v5.6h7v2.1H185.7z M202.3,52.3h-4.7V35.6h4.8c5.8,0,8.8,3.4,8.8,8.3S208.1,52.3,202.3,52.3L202.3,52.3z
	 M202.5,37.7h-2.6v12.5h2.6c4,0,6.4-2,6.4-6.3S206.3,37.7,202.5,37.7L202.5,37.7z M220.3,52.6c-4,0-6.4-2.6-6.4-6.6V35.6h2.3v10.1
	c0,2.9,1.3,4.8,4.2,4.8s4.2-1.7,4.2-4.8V35.6h2.3v10.2C226.8,50.1,224.3,52.6,220.3,52.6z M237,52.6c-4.7,0-7.7-3.5-7.7-8.6
	s3.1-8.7,7.8-8.7c1.7,0,3.3,0.4,4.7,1.4l-0.3,2.3c-1.3-1-2.8-1.6-4.4-1.6c-3.4,0-5.4,2.5-5.4,6.6s2,6.5,5.4,6.5
	c1.7,0,3.3-0.6,4.7-1.7l0.3,2.2C240.6,52,238.8,52.6,237,52.6L237,52.6z M256.7,52.5l-2-5.2h-6.9l-1.9,5h-2.2l6.5-16.7h2.3l6.4,16.4
	L256.7,52.5z M251.3,38.3l-2.6,7h5.3L251.3,38.3z M265.7,37.7v14.6h-2.3V37.7h-5.3v-2.1h12.7l0.3,2.1L265.7,37.7z M273.8,52.3V35.6
	h2.3v16.7H273.8z M287.1,52.6c-4.7,0-7.6-3.5-7.6-8.6s3-8.7,7.7-8.7s7.6,3.5,7.6,8.6S291.8,52.6,287.1,52.6z M287.1,37.4
	c-3.3,0-5.3,2.5-5.3,6.6s2,6.6,5.3,6.6s5.3-2.6,5.3-6.6S290.4,37.4,287.1,37.4L287.1,37.4z M309.4,52.3l-9.1-13v13h-2.1V35.6h2
	l8.9,12.5V35.6h2.1v16.7H309.4z"/>
<path class="st0" d="M102.4,18.2v-4.1c0-1.5-1-1.9-2.4-1.9s-3.4,0.9-3.4,1.8c0,0.2,0.1,0.5,0.1,0.9c0,1.4-0.4,2.4-2,2.4
	c-0.7-0.1-1.2-0.6-1.2-1.3c0.1-0.9,0.6-1.8,1.4-2.3c1.9-1.6,4.3-2.5,6.8-2.6c1.8-0.2,3.4,1.1,3.6,3c0,0.2,0,0.5,0,0.7v10
	c0,0.6,0,1.8,0.9,1.8c0.6,0,1-0.8,1.1-1.3h0.6c-0.2,1.8-1,2.9-2.8,2.9c-1.4-0.1-2.6-1.2-2.7-2.6c-1.8,1.3-3,2.6-5.4,2.6
	c-1.8,0-3.3-1.4-3.4-3.2C93.6,20.8,99.3,19.5,102.4,18.2 M102.5,24.5v-5.3c-1.7,0.7-6.2,1.8-6.2,4.2c0,1.5,1.1,2.8,2.7,2.8
	c0,0,0,0,0,0C100.4,26.1,101.3,25.3,102.5,24.5 M132.6,19.4c0-4.5,3.3-8.4,8-8.4c5.1,0,8.3,3.8,8.3,8.6s-3.2,8.5-8.2,8.5
	S132.6,24.2,132.6,19.4 M135.8,19.6c0,2.9,1.1,7.7,4.9,7.7s4.9-3.8,4.9-6.8c0-3.2-0.5-8.7-4.9-8.7C136.9,11.8,135.8,16.7,135.8,19.6
	"/>
<path class="st0" d="M39.1,2.5V1.6h8.8v0.9c-1.6,0-2.2,0-2.2,1c0,0.2,0.1,0.5,0.2,0.7L51,22.1l7.4-21.3h0.6l6.5,21.1
	c0,0,5.1-15.4,5.1-17.6c0-1.7-1.1-1.6-2.5-1.8V1.6h5.4c2.1,0,4.3-0.6,6.1-1.6v13.6c1.6-1.5,3.1-2.7,5.5-2.7c1.7-0.1,3.4,0.8,4.3,2.3
	c0.7,1.2,1.1,2.6,1,4v7.6c0,2,0.5,2,2.2,2.1v0.7h-7.4v-0.7c1.6-0.1,2.1-0.1,2.1-2.1v-7.5c0.1-1-0.1-2-0.5-2.9
	c-0.5-1.2-1.8-2-3.1-1.9c-2.1,0.3-2.9,1.3-4.1,2.4v9.9c0,2,0.5,2,2.1,2.1v0.7h-7.4v-0.7c1.7-0.1,2.2-0.1,2.2-2.1V2.8
	c-0.5,0-0.9,0-1.4,0c-2.9,0.2-3,2.4-4,5.1l-6.6,20.2H64L57.4,7.8l-7.6,20.3h-0.7l-7-22.2c-0.2-1-0.6-1.9-1.2-2.8
	C40.6,2.8,40.6,2.6,39.1,2.5 M156.7,27.6v-0.7c-1.7-0.1-2.2-0.1-2.2-2.1V16c0-1.7,2.3-3.3,4-3.3c2-0.1,3.7,1.4,3.8,3.4
	c0,0.2,0,0.4,0,0.6v8.3c0,2-0.5,2-2.2,2.1v0.7h7.6v-0.7c-1.3-0.1-2.4-0.1-2.4-2.1V16c0-2.8-2.9-5-5.6-5c-2.4,0-3.7,1.1-5.2,2.7V11
	c-1.7,0.8-3.4,1.4-5.2,1.8v0.6c1.6,0.2,2.2,0.7,2.2,2.1v9.4c0,2-0.5,2-2.2,2.1v0.7L156.7,27.6z M116.4,27.6v-0.7
	c-2-0.1-2.5-0.1-2.5-2.1v-10c0-0.6,1-1.5,2.1-1.5s1.2,1.2,2.4,1.2c1.5,0,1.9-0.8,1.9-1.9s-1.3-1.8-2.7-1.8c-1.7,0-2.9,1.4-3.8,2.7
	v-2.5c-1.7,0.8-3.5,1.4-5.4,1.8v0.6c1.7,0.2,2.4,0.6,2.4,2v9.5c0,2-0.5,2-2.2,2.1v0.7L116.4,27.6z M132.5,11.9l0.6-2.1h-6.6V6.5
	h-0.4c-1.5,1.8-3.1,3.5-4.8,5v0.4h2.1v11.3c0,2.7,1.2,4.9,4.1,4.9c2.5,0,4.4-1.8,5.4-3l-0.5-0.6c-0.8,1-2,1.5-3.2,1.6
	c-2.2,0-2.8-1.2-2.8-3.3V11.9H132.5z M40.7,36.3c0,1.3,0.3,2.3,1.7,2.3s1.9-0.8,1.9-2.3v-2.6c0-0.2,0-0.3-0.1-0.5
	c0-0.3-0.3-0.5-0.8-0.5v-0.2h2.2v0.2c-0.4,0-0.7,0.2-0.8,0.5c0,0.2,0,0.3,0,0.5v2.6c0.2,1.3-0.8,2.5-2.1,2.7c-0.1,0-0.2,0-0.4,0
	c-2,0-2.6-1-2.6-2.7v-2.7c0-0.8,0-0.8-0.8-0.9v-0.2h2.5v0.2c-0.8,0.1-0.8,0.1-0.8,0.9L40.7,36.3z"/>
<path class="st1" d="M40.7,36.3c0,1.3,0.3,2.3,1.7,2.3s1.9-0.8,1.9-2.3v-2.6c0-0.2,0-0.3-0.1-0.5c0-0.3-0.3-0.5-0.8-0.5v-0.2h2.2
	v0.2c-0.4,0-0.7,0.2-0.8,0.5c0,0.2,0,0.3,0,0.5v2.6c0.2,1.3-0.8,2.5-2.1,2.7c-0.1,0-0.2,0-0.4,0c-2,0-2.6-1-2.6-2.7v-2.7
	c0-0.8,0-0.8-0.8-0.9v-0.2h2.5v0.2c-0.8,0.1-0.8,0.1-0.8,0.9C40.7,33.6,40.7,36.3,40.7,36.3z"/>
<path class="st0" d="M50.9,38.9c-1.1-1.3-2.3-2.7-3.5-4.1V38c0,0.1,0,0.3,0,0.4c0,0.3,0.3,0.4,0.8,0.4v0.2h-1.7v-0.2
	c0.3,0,0.6-0.1,0.6-0.4c0-0.1,0-0.3,0-0.4v-3.3c-0.2-0.3-0.5-0.5-0.8-0.5v-0.2h1.3l3.2,3.9v-2.9c0-0.1,0-0.3,0-0.4
	c0-0.2-0.3-0.3-0.7-0.4V34h1.7v0.2c-0.3,0-0.6,0.1-0.6,0.4s0,0.2,0,0.4v4L50.9,38.9z"/>
<path class="st1" d="M50.9,38.9c-1.1-1.3-2.3-2.7-3.5-4.1V38c0,0.1,0,0.3,0,0.4c0,0.3,0.3,0.4,0.8,0.4v0.2h-1.7v-0.2
	c0.3,0,0.6-0.1,0.6-0.4c0-0.1,0-0.3,0-0.4v-3.3c-0.2-0.3-0.5-0.5-0.8-0.5v-0.2h1.3l3.2,3.9v-2.9c0-0.1,0-0.3,0-0.4
	c0-0.2-0.3-0.3-0.7-0.4V34h1.7v0.2c-0.3,0-0.6,0.1-0.6,0.4s0,0.2,0,0.4v4L50.9,38.9z"/>
<path class="st0" d="M54.4,38c0,0.7,0,0.6,0.6,0.7v0.2h-1.9v-0.2c0.6-0.1,0.6,0,0.6-0.7v-3.2c0-0.7,0-0.6-0.6-0.7V34H55v0.2
	c-0.6,0.1-0.6,0-0.6,0.7V38z"/>
<path class="st1" d="M54.4,38c0,0.7,0,0.6,0.6,0.7v0.2h-1.9v-0.2c0.6-0.1,0.6,0,0.6-0.7v-3.2c0-0.7,0-0.6-0.6-0.7V34H55v0.2
	c-0.6,0.1-0.6,0-0.6,0.7V38z"/>
<path class="st0" d="M58.1,34.1c-0.4,0-0.7,0.1-0.4,0.8s0.7,2,1.1,3.1c0.5-1.1,0.9-2.2,1.3-3.3c0.2-0.5,0-0.7-0.5-0.7v-0.2H61v0.2
	c-0.3,0-0.5,0.2-0.6,0.4c-0.6,1.5-1.2,2.9-1.8,4.3h-0.4c-0.4-1.2-0.9-2.6-1.3-3.8c-0.2-0.8-0.5-1-0.8-1v-0.2h1.9L58.1,34.1z"/>
<path class="st1" d="M58.1,34.1c-0.4,0-0.7,0.1-0.4,0.8s0.7,2,1.1,3.1c0.5-1.1,0.9-2.2,1.3-3.3c0.2-0.5,0-0.7-0.5-0.7v-0.2H61v0.2
	c-0.3,0-0.5,0.2-0.6,0.4c-0.6,1.5-1.2,2.9-1.8,4.3h-0.4c-0.4-1.2-0.9-2.6-1.3-3.8c-0.2-0.8-0.5-1-0.8-1v-0.2h1.9L58.1,34.1
	L58.1,34.1z"/>
<path class="st0" d="M62.1,38.7c0.6-0.1,0.6,0,0.6-0.7v-3.2c0-0.7,0-0.6-0.6-0.7V34h3.2v1.2h-0.2c-0.1-0.5-0.2-0.9-0.7-0.9h-1v2H64
	c0.4,0,0.6-0.2,0.7-0.6h0.2v1.5h-0.2c0-0.4-0.2-0.7-0.7-0.7h-0.6v1.6c0,0.6,0.3,0.7,0.9,0.7c1,0,1-0.3,1.3-1h0.2l-0.2,1.3h-3.4V38.7
	z"/>
<path class="st1" d="M62.1,38.7c0.6-0.1,0.6,0,0.6-0.7v-3.2c0-0.7,0-0.6-0.6-0.7V34h3.2v1.2h-0.2c-0.1-0.5-0.2-0.9-0.7-0.9h-1v2H64
	c0.4,0,0.6-0.2,0.7-0.6h0.2v1.5h-0.2c0-0.4-0.2-0.7-0.7-0.7h-0.6v1.6c0,0.6,0.3,0.7,0.9,0.7c1,0,1-0.3,1.3-1h0.2l-0.2,1.3h-3.4V38.7
	z"/>
<path class="st0" d="M68.4,36.5h0.6c0.6,0,0.9-0.5,0.9-1.3s-0.4-1-0.9-1h-0.5L68.4,36.5z M67.1,34h2.1c0.7,0,1.4,0.4,1.4,1.2
	c0,0.6-0.4,1.2-1,1.4l0.7,1c0.3,0.4,0.6,0.8,1,1.2v0.1h-0.7c-0.4,0-0.7-0.8-1.5-2.2h-0.7V38c0,0.7,0,0.6,0.6,0.7v0.2H67v-0.2
	c0.6-0.1,0.6,0,0.6-0.7v-3.2c0-0.7,0-0.6-0.6-0.7L67.1,34z"/>
<path class="st1" d="M68.4,36.5h0.6c0.6,0,0.9-0.5,0.9-1.3s-0.4-1-0.9-1h-0.5L68.4,36.5L68.4,36.5z M67.1,34h2.1
	c0.7,0,1.4,0.4,1.4,1.2c0,0.6-0.4,1.2-1,1.4l0.7,1c0.3,0.4,0.6,0.8,1,1.2v0.1h-0.7c-0.4,0-0.7-0.8-1.5-2.2h-0.7V38
	c0,0.7,0,0.6,0.6,0.7v0.2H67v-0.2c0.6-0.1,0.6,0,0.6-0.7v-3.2c0-0.7,0-0.6-0.6-0.7L67.1,34L67.1,34z"/>
<path class="st0" d="M74.8,35c0-0.5-0.4-0.9-0.9-0.9c0,0,0,0,0,0c-0.4,0-0.7,0.2-0.8,0.6c0,0,0,0.1,0,0.1c0,0.5,0.5,0.8,1.2,1.3
	s1,0.9,1,1.5c0,0.8-0.9,1.3-1.7,1.3c-0.4,0-0.8-0.1-1.2-0.2v-1.1h0.2c0,0.6,0.5,1.1,1.1,1.1c0,0,0,0,0,0c0.5,0,0.9-0.4,0.9-0.9
	c0,0,0,0,0,0c0-0.5-0.2-0.8-1.3-1.5c-0.5-0.2-0.8-0.7-0.8-1.3c0-0.6,0.7-1.1,1.5-1.1c0.3,0,0.7,0,1,0.1v1L74.8,35z"/>
<path class="st1" d="M74.8,35c0-0.5-0.4-0.9-0.9-0.9c0,0,0,0,0,0c-0.4,0-0.7,0.2-0.8,0.6c0,0,0,0.1,0,0.1c0,0.5,0.5,0.8,1.2,1.3
	s1,0.9,1,1.5c0,0.8-0.9,1.3-1.7,1.3c-0.4,0-0.8-0.1-1.2-0.2v-1.1h0.2c0,0.6,0.5,1.1,1.1,1.1c0,0,0,0,0,0c0.5,0,0.9-0.4,0.9-0.9
	c0,0,0,0,0,0c0-0.5-0.2-0.8-1.3-1.5c-0.5-0.2-0.8-0.7-0.8-1.3c0-0.6,0.7-1.1,1.5-1.1c0.3,0,0.7,0,1,0.1v1L74.8,35z"/>
<path class="st0" d="M78.1,38c0,0.7,0,0.6,0.6,0.7v0.2h-1.9v-0.2c0.6-0.1,0.6,0,0.6-0.7v-3.2c0-0.7,0-0.6-0.6-0.7V34h1.9v0.2
	c-0.6,0.1-0.6,0-0.6,0.7V38z"/>
<path class="st1" d="M78.1,38c0,0.7,0,0.6,0.6,0.7v0.2h-1.9v-0.2c0.6-0.1,0.6,0,0.6-0.7v-3.2c0-0.7,0-0.6-0.6-0.7V34h1.9v0.2
	c-0.6,0.1-0.6,0-0.6,0.7V38z"/>
<path class="st0" d="M82.4,38c0,0.7,0,0.6,0.6,0.7v0.2h-1.9v-0.2c0.6-0.1,0.6,0,0.6-0.7v-3.8H81c-0.6,0-0.8,0.4-1,0.8h-0.2l0.2-1.1
	H84l0.2,1.1H84c-0.2-0.5-0.4-0.8-1-0.8h-0.6L82.4,38z"/>
<path class="st1" d="M82.4,38c0,0.7,0,0.6,0.6,0.7v0.2h-1.9v-0.2c0.6-0.1,0.6,0,0.6-0.7v-3.8H81c-0.6,0-0.8,0.4-1,0.8h-0.2l0.2-1.1
	H84l0.2,1.1H84c-0.2-0.5-0.4-0.8-1-0.8h-0.6L82.4,38L82.4,38z"/>
<path class="st0" d="M86.2,38.7c0.6-0.1,0.6,0,0.6-0.7v-1.1l-1.1-2.2c-0.2-0.5-0.4-0.6-0.8-0.6V34h1.8v0.2c-0.5,0-0.5,0.3-0.3,0.6
	l0.8,1.8l1-1.8c0.2-0.4,0-0.6-0.4-0.6V34h1.5v0.2c-0.2,0-0.4,0.1-0.6,0.4l-1.2,2.2c-0.1,0.2-0.1,0.3-0.1,0.5V38c0,0.7,0,0.6,0.6,0.7
	v0.2h-1.9L86.2,38.7z"/>
<path class="st1" d="M86.2,38.7c0.6-0.1,0.6,0,0.6-0.7v-1.1l-1.1-2.2c-0.2-0.5-0.4-0.6-0.8-0.6V34h1.8v0.2c-0.5,0-0.5,0.3-0.3,0.6
	l0.8,1.8l1-1.8c0.2-0.4,0-0.6-0.4-0.6V34h1.5v0.2c-0.2,0-0.4,0.1-0.6,0.4l-1.2,2.2c-0.1,0.2-0.1,0.3-0.1,0.5V38c0,0.7,0,0.6,0.6,0.7
	v0.2h-1.9C86.2,38.9,86.2,38.7,86.2,38.7z"/>
<path class="st0" d="M96.2,35.4c0-1-0.6-1-0.7-1c-1,0-1.7,1.8-1.7,3c0,0.5,0.1,1.3,0.8,1.3C95.6,38.8,96.2,37,96.2,35.4 M93,37.2
	c0-1.2,1-3,2.6-3c1.2,0,1.5,0.8,1.5,1.7c0,1-0.8,3.2-2.6,3.2C93.3,39,93,38.1,93,37.2 M101.3,34.5l-0.2,0.2h-1.2
	c-0.4,2.2-1,4.4-1.7,6.5h-0.4l1.3-6.5h-0.9l0.1-0.4h0.9c0.2-1.2,1.3-2.2,2.5-2.2c0.3,0,0.5,0,0.8,0.2l-0.1,0.6l-0.2,0.1
	c-0.2-0.3-0.5-0.5-0.8-0.5c-0.6,0-1,0.4-1.2,1.4l-0.1,0.5h1.3L101.3,34.5z M106.8,37.8c0,0.8,0,0.8,0.8,0.9v0.2h-2.5v-0.2
	c0.8-0.1,0.8-0.1,0.8-0.9v-4.1c0-0.8,0-0.8-0.8-0.9v-0.2h2.4c1.5,0,2.3,0.6,2.3,1.7c0,1.3-1.2,2-2.6,2V36c0.8,0.1,1.6-0.5,1.7-1.3
	c0-0.1,0-0.2,0-0.4c0-1-0.5-1.5-1.5-1.5h-0.6L106.8,37.8z"/>
<path class="st1" d="M106.8,37.8c0,0.8,0,0.8,0.8,0.9v0.2h-2.5v-0.2c0.8-0.1,0.8-0.1,0.8-0.9v-4.1c0-0.8,0-0.8-0.8-0.9v-0.2h2.4
	c1.5,0,2.3,0.6,2.3,1.7c0,1.3-1.2,2-2.6,2V36c0.8,0.1,1.6-0.5,1.7-1.3c0-0.1,0-0.2,0-0.4c0-1-0.5-1.5-1.5-1.5h-0.6L106.8,37.8
	L106.8,37.8z"/>
<path class="st0" d="M111.1,38.7c0.6-0.1,0.6,0,0.6-0.7v-3.2c0-0.7,0-0.6-0.6-0.7V34h3.2v1.2h-0.2c-0.1-0.5-0.2-0.9-0.7-0.9h-1v2
	h0.6c0.4,0,0.6-0.2,0.6-0.6h0.2v1.5h-0.2c0-0.4-0.2-0.7-0.6-0.7h-0.6v1.6c0,0.6,0.3,0.7,0.9,0.7c1,0,1-0.3,1.3-1h0.2l-0.2,1.3h-3.5
	L111.1,38.7z"/>
<path class="st1" d="M111.1,38.7c0.6-0.1,0.6,0,0.6-0.7v-3.2c0-0.7,0-0.6-0.6-0.7V34h3.2v1.2h-0.2c-0.1-0.5-0.2-0.9-0.7-0.9h-1v2
	h0.6c0.4,0,0.6-0.2,0.6-0.6h0.2v1.5h-0.2c0-0.4-0.2-0.7-0.6-0.7h-0.6v1.6c0,0.6,0.3,0.7,0.9,0.7c1,0,1-0.3,1.3-1h0.2l-0.2,1.3h-3.5
	C111.1,38.9,111.1,38.7,111.1,38.7z"/>
<path class="st0" d="M120.3,38.9l-3.4-4.1V38c0,0.1,0,0.3,0,0.4c0,0.3,0.3,0.4,0.7,0.4v0.2h-1.7v-0.2c0.3,0,0.6-0.1,0.6-0.4
	c0-0.1,0-0.3,0-0.4v-3.3c-0.2-0.3-0.5-0.5-0.8-0.5V34h1.3c1,1.3,2.2,2.6,3.2,3.9v-2.9v-0.4c0-0.1-0.3-0.3-0.8-0.4V34h1.7v0.2
	c-0.3,0-0.6,0.1-0.6,0.4s0,0.2,0,0.4v4L120.3,38.9z"/>
<path class="st1" d="M120.3,38.9l-3.4-4.1V38c0,0.1,0,0.3,0,0.4c0,0.3,0.3,0.4,0.7,0.4v0.2h-1.7v-0.2c0.3,0,0.6-0.1,0.6-0.4
	c0-0.1,0-0.3,0-0.4v-3.3c-0.2-0.3-0.5-0.5-0.8-0.5V34h1.3c1,1.3,2.2,2.6,3.2,3.9v-2.9v-0.4c0-0.1-0.3-0.3-0.8-0.4V34h1.7v0.2
	c-0.3,0-0.6,0.1-0.6,0.4s0,0.2,0,0.4v4L120.3,38.9z"/>
<path class="st0" d="M126.8,38.9c-1.1-1.3-2.3-2.7-3.4-4.1V38c0,0.1,0,0.3,0,0.4c0,0.3,0.3,0.4,0.7,0.4v0.2h-1.7v-0.2
	c0.3,0,0.6-0.1,0.6-0.4c0-0.1,0-0.3,0-0.4v-3.3c-0.2-0.3-0.5-0.5-0.8-0.5V34h1.3c1.1,1.3,2.2,2.6,3.2,3.9v-2.9v-0.4
	c0-0.1-0.3-0.3-0.8-0.4V34h1.7v0.2c-0.3,0-0.6,0.1-0.6,0.4c0,0.1,0,0.3,0,0.4v4L126.8,38.9z"/>
<path class="st1" d="M126.8,38.9c-1.1-1.3-2.3-2.7-3.4-4.1V38c0,0.1,0,0.3,0,0.4c0,0.3,0.3,0.4,0.7,0.4v0.2h-1.7v-0.2
	c0.3,0,0.6-0.1,0.6-0.4c0-0.1,0-0.3,0-0.4v-3.3c-0.2-0.3-0.5-0.5-0.8-0.5V34h1.3c1.1,1.3,2.2,2.6,3.2,3.9v-2.9v-0.4
	c0-0.1-0.3-0.3-0.8-0.4V34h1.7v0.2c-0.3,0-0.6,0.1-0.6,0.4c0,0.1,0,0.3,0,0.4v4L126.8,38.9z"/>
<path class="st0" d="M131.4,35c0-0.5-0.4-0.9-0.9-0.9c0,0,0,0,0,0c-0.4,0-0.7,0.2-0.8,0.6c0,0,0,0.1,0,0.1c0,0.5,0.5,0.8,1.2,1.3
	s1,0.9,1,1.5c0,0.8-0.9,1.3-1.7,1.3c-0.4,0-0.8-0.1-1.2-0.2c0,0,0-0.1,0-0.1v-1h0.2c0,0.6,0.5,1.1,1.1,1.1c0,0,0,0,0,0
	c0.5,0,0.9-0.4,0.9-0.9c0,0,0,0,0,0c0-0.5-0.2-0.8-1.3-1.5c-0.5-0.2-0.8-0.7-0.9-1.3c0-0.6,0.7-1.1,1.5-1.1c0.3,0,0.7,0,1,0.1
	c0,0,0.1,0,0.1,0.1c0,0,0,0,0,0V35L131.4,35z"/>
<path class="st1" d="M131.4,35c0-0.5-0.4-0.9-0.9-0.9c0,0,0,0,0,0c-0.4,0-0.7,0.2-0.8,0.6c0,0,0,0.1,0,0.1c0,0.5,0.5,0.8,1.2,1.3
	s1,0.9,1,1.5c0,0.8-0.9,1.3-1.7,1.3c-0.4,0-0.8-0.1-1.2-0.2c0,0,0-0.1,0-0.1v-1h0.2c0,0.6,0.5,1.1,1.1,1.1c0,0,0,0,0,0
	c0.5,0,0.9-0.4,0.9-0.9c0,0,0,0,0,0c0-0.5-0.2-0.8-1.3-1.5c-0.5-0.2-0.8-0.7-0.9-1.3c0-0.6,0.7-1.1,1.5-1.1c0.3,0,0.7,0,1,0.1
	c0,0,0.1,0,0.1,0.1c0,0,0,0,0,0V35L131.4,35z"/>
<path class="st0" d="M134.2,38.7c0.6-0.1,0.6,0,0.6-0.7v-1.1l-1.1-2.2c-0.2-0.5-0.4-0.6-0.8-0.6V34h1.8v0.2c-0.5,0-0.5,0.3-0.3,0.6
	l0.9,1.8l1-1.8c0.2-0.4,0-0.6-0.4-0.6v-0.2h1.5v0.2c-0.2,0-0.4,0.1-0.6,0.4l-1.2,2.2c-0.1,0.2-0.1,0.3-0.1,0.5V38
	c0,0.7,0,0.6,0.6,0.7v0.2h-1.9L134.2,38.7z"/>
<path class="st1" d="M134.2,38.7c0.6-0.1,0.6,0,0.6-0.7v-1.1l-1.1-2.2c-0.2-0.5-0.4-0.6-0.8-0.6V34h1.8v0.2c-0.5,0-0.5,0.3-0.3,0.6
	l0.9,1.8l1-1.8c0.2-0.4,0-0.6-0.4-0.6v-0.2h1.5v0.2c-0.2,0-0.4,0.1-0.6,0.4l-1.2,2.2c-0.1,0.2-0.1,0.3-0.1,0.5V38
	c0,0.7,0,0.6,0.6,0.7v0.2h-1.9L134.2,38.7L134.2,38.7z"/>
<path class="st0" d="M138.6,38.7c0.6-0.1,0.6,0,0.6-0.7v-3.2c0-0.7,0-0.6-0.6-0.7V34h1.9v0.2c-0.6,0.1-0.6,0-0.6,0.7v3.3
	c0,0.5,0.3,0.5,0.9,0.5c1,0,1-0.3,1.3-1h0.2l-0.2,1.3h-3.5L138.6,38.7z"/>
<path class="st1" d="M138.6,38.7c0.6-0.1,0.6,0,0.6-0.7v-3.2c0-0.7,0-0.6-0.6-0.7V34h1.9v0.2c-0.6,0.1-0.6,0-0.6,0.7v3.3
	c0,0.5,0.3,0.5,0.9,0.5c1,0,1-0.3,1.3-1h0.2l-0.2,1.3h-3.5L138.6,38.7L138.6,38.7z"/>
<path class="st0" d="M144.4,34.1c-0.4,0-0.7,0.1-0.4,0.8s0.7,2,1.1,3.1c0.5-1.1,0.9-2.2,1.3-3.3c0.2-0.5,0-0.7-0.5-0.7v-0.2h1.5v0.2
	c-0.3,0-0.5,0.2-0.6,0.4l-1.8,4.3h-0.4c-0.4-1.2-0.9-2.6-1.4-3.8c-0.3-0.8-0.5-1-0.8-1v-0.2h1.9L144.4,34.1z"/>
<path class="st1" d="M144.4,34.1c-0.4,0-0.7,0.1-0.4,0.8s0.7,2,1.1,3.1c0.5-1.1,0.9-2.2,1.3-3.3c0.2-0.5,0-0.7-0.5-0.7v-0.2h1.5v0.2
	c-0.3,0-0.5,0.2-0.6,0.4l-1.8,4.3h-0.4c-0.4-1.2-0.9-2.6-1.4-3.8c-0.3-0.8-0.5-1-0.8-1v-0.2h1.9L144.4,34.1L144.4,34.1z"/>
<path class="st0" d="M150.4,37l-0.8-2.3l-0.8,2.3H150.4z M148.6,37.3l-0.3,1c-0.1,0.2,0,0.4,0.1,0.5c0.1,0,0.1,0,0.2,0V39h-1.3v-0.2
	c0.2,0,0.4-0.1,0.5-0.3c0.3-0.6,1.1-2.9,1.7-4.5h0.4c0.5,1.4,1.2,3.6,1.4,4.2c0.2,0.4,0.3,0.6,0.6,0.6v0.2h-1.6v-0.2
	c0.4,0,0.5-0.2,0.4-0.5l-0.3-0.9L148.6,37.3z"/>
<path class="st1" d="M150.4,37l-0.8-2.3l-0.8,2.3H150.4z M148.6,37.3l-0.3,1c-0.1,0.2,0,0.4,0.1,0.5c0.1,0,0.1,0,0.2,0V39h-1.3v-0.2
	c0.2,0,0.4-0.1,0.5-0.3c0.3-0.6,1.1-2.9,1.7-4.5h0.4c0.5,1.4,1.2,3.6,1.4,4.2c0.2,0.4,0.3,0.6,0.6,0.6v0.2h-1.6v-0.2
	c0.4,0,0.5-0.2,0.4-0.5l-0.3-0.9L148.6,37.3z"/>
<path class="st0" d="M157.4,38.9l-3.4-4.1V38c0,0.1,0,0.3,0,0.4c0,0.3,0.3,0.4,0.7,0.4v0.2h-1.7v-0.2c0.3,0,0.6-0.1,0.6-0.4
	c0-0.1,0-0.3,0-0.4v-3.3c-0.2-0.3-0.5-0.5-0.8-0.5V34h1.3c1.1,1.3,2.1,2.6,3.2,3.9v-2.9v-0.4c0-0.1-0.3-0.3-0.8-0.4V34h1.8v0.2
	c-0.3,0-0.6,0.1-0.6,0.4s0,0.2,0,0.4v4L157.4,38.9z"/>
<path class="st1" d="M157.4,38.9l-3.4-4.1V38c0,0.1,0,0.3,0,0.4c0,0.3,0.3,0.4,0.7,0.4v0.2h-1.7v-0.2c0.3,0,0.6-0.1,0.6-0.4
	c0-0.1,0-0.3,0-0.4v-3.3c-0.2-0.3-0.5-0.5-0.8-0.5V34h1.3c1.1,1.3,2.1,2.6,3.2,3.9v-2.9v-0.4c0-0.1-0.3-0.3-0.8-0.4V34h1.8v0.2
	c-0.3,0-0.6,0.1-0.6,0.4s0,0.2,0,0.4v4L157.4,38.9z"/>
<path class="st0" d="M160.7,38c0,0.7,0,0.6,0.6,0.7v0.2h-1.9v-0.2c0.6-0.1,0.6,0,0.6-0.7v-3.2c0-0.7,0-0.6-0.6-0.7V34h1.9v0.2
	c-0.6,0.1-0.6,0-0.6,0.7L160.7,38z"/>
<path class="st1" d="M160.7,38c0,0.7,0,0.6,0.6,0.7v0.2h-1.9v-0.2c0.6-0.1,0.6,0,0.6-0.7v-3.2c0-0.7,0-0.6-0.6-0.7V34h1.9v0.2
	c-0.6,0.1-0.6,0-0.6,0.7L160.7,38L160.7,38z"/>
<path class="st0" d="M165.4,37l-0.8-2.3l-0.9,2.3H165.4z M163.7,37.3l-0.3,1c-0.1,0.2,0,0.4,0.2,0.5c0.1,0,0.1,0,0.2,0V39h-1.3v-0.2
	c0.2,0,0.4-0.1,0.5-0.3c0.3-0.6,1.1-2.9,1.7-4.5h0.4c0.5,1.4,1.2,3.6,1.4,4.2c0.2,0.4,0.3,0.6,0.6,0.6v0.2h-1.6v-0.2
	c0.4,0,0.5-0.2,0.4-0.5l-0.3-0.9L163.7,37.3z"/>
<path class="st1" d="M165.4,37l-0.8-2.3l-0.9,2.3H165.4z M163.7,37.3l-0.3,1c-0.1,0.2,0,0.4,0.2,0.5c0.1,0,0.1,0,0.2,0V39h-1.3v-0.2
	c0.2,0,0.4-0.1,0.5-0.3c0.3-0.6,1.1-2.9,1.7-4.5h0.4c0.5,1.4,1.2,3.6,1.4,4.2c0.2,0.4,0.3,0.6,0.6,0.6v0.2h-1.6v-0.2
	c0.4,0,0.5-0.2,0.4-0.5l-0.3-0.9L163.7,37.3z"/>
<path class="st0" d="M42.5,50.4l-0.7-2.1l-0.7,2.1H42.5z M42.5,47.2l1.7,5h-1.1l-0.4-1.1h-2l-0.4,1.1h-1l1.8-5L42.5,47.2z
	 M44.8,49.6v-0.9h1v0.7c0.2-0.5,0.7-0.8,1.2-0.7v0.9c-1-0.1-1.1,0.4-1.1,0.9v1.7h-1L44.8,49.6z M49.4,50.1c0-0.2,0-0.8-0.6-0.8
	s-0.6,0.4-0.7,0.8H49.4z M48.2,50.8c0,0.2,0,0.9,0.7,0.9c0.3,0,0.6-0.2,0.6-0.5h0.9c0,0.3-0.1,0.6-0.3,0.8c-0.3,0.3-0.8,0.4-1.2,0.4
	c-0.5,0-0.9-0.1-1.2-0.4c-0.3-0.4-0.5-0.9-0.5-1.4c0-0.6,0.2-1.3,0.7-1.7c0.3-0.2,0.6-0.3,1-0.3c0.6,0,1.2,0.3,1.4,0.8
	c0.2,0.4,0.2,0.8,0.2,1.3L48.2,50.8z M51.9,51.2c0,0.3,0.2,0.5,0.5,0.5c0,0,0,0,0.1,0c0.4,0,0.5-0.2,0.5-0.4s-0.1-0.3-0.5-0.4
	l-0.6-0.2c-0.5-0.1-0.9-0.5-0.9-1c0-0.7,0.6-1.1,1.5-1.1c0.7,0,1.3,0.3,1.3,1h-0.9c0-0.2-0.2-0.4-0.4-0.4c0,0,0,0-0.1,0
	c-0.3,0-0.5,0.1-0.5,0.3s0.2,0.3,0.5,0.4l0.6,0.2c0.6,0.2,0.9,0.5,0.9,1s-0.5,1.2-1.6,1.2c-0.4,0-0.9-0.1-1.2-0.4
	c-0.2-0.2-0.3-0.4-0.3-0.7L51.9,51.2z M56.7,52.2c-0.3,0.1-0.5,0.1-0.8,0.1c-1,0-1-0.6-1-0.9v-1.9h-0.7v-0.7h0.7v-0.6l1-0.4v1h0.8
	v0.7h-0.8V51c0,0.3,0,0.5,0.5,0.5c0.1,0,0.2,0,0.3,0L56.7,52.2z M58.1,48.7l0.8,2.4l0.8-2.4h1l-1.3,3.4l-0.4,1.4h-1l0.4-1.3L57,48.7
	C57,48.7,58.1,48.7,58.1,48.7z M63.1,47.2h1.1v5h-1.1V47.2z M65.1,49.4v-0.6h1v0.5c0.2-0.4,0.7-0.6,1.1-0.6c0.5,0,0.9,0.2,1.1,0.7
	c0.1,0.3,0.1,0.7,0.1,1v1.9h-1.1v-2.1c0-0.1,0-0.3-0.1-0.4c-0.1-0.2-0.3-0.3-0.5-0.3c-0.2,0-0.4,0.1-0.5,0.3
	c-0.1,0.2-0.1,0.3-0.1,0.5v2h-1L65.1,49.4z M70,51.2c0,0.2,0.2,0.5,0.6,0.5s0.5-0.2,0.5-0.4s-0.1-0.3-0.5-0.4L70,50.7
	c-0.5-0.1-0.9-0.5-0.9-1c0-0.7,0.6-1.1,1.5-1.1c0.7,0,1.3,0.3,1.3,1h-0.9c0-0.4-0.3-0.4-0.5-0.4s-0.5,0.1-0.5,0.3s0.2,0.3,0.5,0.4
	l0.6,0.2c0.6,0.2,0.9,0.5,0.9,1s-0.5,1.2-1.6,1.2c-0.4,0-0.9-0.1-1.2-0.4c-0.2-0.2-0.3-0.4-0.2-0.7L70,51.2z M74.8,52.2
	c-0.3,0.1-0.5,0.1-0.8,0.1c-1,0-1-0.6-1-0.9v-1.9h-0.7v-0.7H73v-0.6l1-0.4v1h0.8v0.7H74V51c0,0.3,0,0.5,0.5,0.5c0.1,0,0.2,0,0.3,0
	L74.8,52.2z M75.5,48.7h1v3.5h-1V48.7z M75.5,47.2h1.1v0.9h-1.1V47.2z M79.5,52.2c-0.3,0.1-0.5,0.1-0.8,0.1c-1,0-1-0.6-1-0.9v-1.9
	H77v-0.7h0.7v-0.6l1-0.4v1h0.8v0.7h-0.8V51c0,0.3,0,0.5,0.5,0.5c0.1,0,0.2,0,0.3,0L79.5,52.2z M81,48.7v2.1c0,0.3,0,0.8,0.5,0.8
	s0.7-0.5,0.7-1.1v-1.8h1V52c0,0.1,0,0.2,0,0.2h-0.9v-0.5c-0.2,0.3-0.6,0.6-1,0.5c-0.4,0-0.8-0.2-1-0.5c-0.2-0.3-0.3-0.6-0.2-0.9
	v-2.2L81,48.7z M86.3,52.2c-0.3,0.1-0.5,0.1-0.8,0.1c-1,0-1-0.6-1-0.9v-1.9h-0.7v-0.7h0.7v-0.6l1-0.4v1h0.8v0.7h-0.8V51
	c0,0.3,0,0.5,0.5,0.5c0.1,0,0.2,0,0.3,0L86.3,52.2z M89,50.1c0-0.2,0-0.8-0.6-0.8s-0.6,0.4-0.7,0.8H89z M87.7,50.8
	c0,0.2,0,0.9,0.7,0.9c0.3,0,0.6-0.2,0.6-0.5h0.9c0,0.3-0.1,0.6-0.3,0.8c-0.3,0.3-0.8,0.4-1.2,0.4c-0.5,0-0.9-0.1-1.2-0.4
	c-0.3-0.4-0.5-0.9-0.4-1.4c0-0.6,0.2-1.3,0.7-1.7c0.3-0.2,0.6-0.3,1-0.3c0.6,0,1.2,0.3,1.4,0.8c0.2,0.4,0.2,0.8,0.2,1.3L87.7,50.8z
	 M94.3,51.7c0.4,0,0.8-0.3,0.8-1.2c0-0.5-0.1-1.1-0.8-1.1s-0.8,0.9-0.8,1.2C93.5,51.3,93.8,51.7,94.3,51.7 M94.3,48.7
	c0.9-0.1,1.7,0.6,1.8,1.6c0,0.1,0,0.2,0,0.3c0.1,1-0.6,1.8-1.6,1.9c-0.1,0-0.2,0-0.2,0c-0.9,0.1-1.7-0.7-1.8-1.6c0-0.1,0-0.2,0-0.2
	c-0.1-0.9,0.6-1.8,1.6-1.9C94.1,48.7,94.2,48.7,94.3,48.7 M96.9,49.5h-0.5v-0.7h0.5v-0.5c0-0.6,0.2-1.1,1.2-1.1c0.2,0,0.4,0,0.6,0
	v0.7h-0.2c-0.5,0-0.5,0.3-0.5,0.5v0.4h0.7v0.7h-0.7v2.8h-1L96.9,49.5z M101.2,47.2h3.3v0.8h-2.3v1.2h2.1v0.8h-2.1v1.3h2.3v0.8h-3.4
	C101.2,52.2,101.2,47.2,101.2,47.2z M106.2,48.7l0.7,1.1l0.7-1.1h1.1l-1.1,1.7l1.2,1.8h-1.2l-0.7-1.3l-0.7,1.3H105l1.2-1.9l-1.1-1.6
	C105,48.7,106.2,48.7,106.2,48.7z M111.2,50.1c0-0.2,0-0.8-0.6-0.8s-0.6,0.4-0.7,0.8H111.2z M109.9,50.8c0,0.2,0,0.9,0.7,0.9
	c0.3,0,0.6-0.2,0.6-0.5h0.9c0,0.3-0.1,0.6-0.3,0.8c-0.3,0.3-0.8,0.4-1.2,0.4c-0.5,0-0.9-0.1-1.2-0.4c-0.3-0.4-0.5-0.9-0.4-1.4
	c0-0.6,0.2-1.3,0.7-1.7c0.3-0.2,0.6-0.3,1-0.3c0.6,0,1.2,0.3,1.4,0.8c0.2,0.4,0.2,0.8,0.2,1.3L109.9,50.8z M114.8,50
	c0-0.1,0-0.6-0.4-0.6s-0.5,0.7-0.5,1.1c0,0.4,0.1,0.7,0.2,1.1c0.1,0.1,0.2,0.1,0.3,0.1c0.1,0,0.4,0,0.5-0.7h1c0,0.4-0.2,0.7-0.4,1
	c-0.7,0.5-1.6,0.4-2.2-0.1c-0.3-0.4-0.5-0.9-0.4-1.4c-0.1-0.9,0.5-1.7,1.4-1.8c0.1,0,0.2,0,0.3,0c0.7-0.1,1.4,0.5,1.4,1.2
	c0,0,0,0.1,0,0.1L114.8,50z M117.4,48.7v2.1c0,0.3,0,0.8,0.6,0.8s0.7-0.5,0.7-1.1v-1.8h1v3.5h-1v-0.5c-0.2,0.4-0.6,0.6-1,0.5
	c-0.4,0-0.8-0.2-1-0.5c-0.2-0.3-0.2-0.6-0.2-0.9v-2.2L117.4,48.7z M122.7,52.2c-0.3,0.1-0.5,0.1-0.8,0.1c-1,0-1-0.6-1-0.9v-1.9h-0.7
	v-0.7h0.7v-0.6l1-0.4v1h0.8v0.7h-0.8V51c0,0.3,0,0.5,0.5,0.5c0.1,0,0.2,0,0.3,0L122.7,52.2z M123.3,48.7h1v3.5h-1V48.7z M123.3,47.2
	h1.1v0.9h-1.1V47.2z M126,48.7l0.8,2.4l0.8-2.4h1l-1.2,3.5h-1.1l-1.3-3.5H126z M131.1,50.1c0-0.2,0-0.8-0.6-0.8s-0.6,0.4-0.7,0.8
	H131.1z M129.8,50.8c0,0.2,0,0.9,0.7,0.9c0.3,0,0.6-0.2,0.6-0.5h0.9c0,0.3-0.1,0.6-0.3,0.8c-0.3,0.3-0.8,0.4-1.2,0.4
	c-0.5,0-0.9-0.1-1.2-0.4c-0.3-0.4-0.5-0.9-0.4-1.4c-0.1-0.6,0.2-1.3,0.7-1.7c0.3-0.2,0.6-0.3,1-0.3c0.6,0,1.2,0.3,1.4,0.8
	c0.2,0.4,0.2,0.8,0.2,1.3L129.8,50.8z M134.8,47.2h3.3v0.8h-2.3v1.2h2.1v0.8h-2.1v1.3h2.4v0.8h-3.4
	C134.8,52.2,134.8,47.2,134.8,47.2z M140.5,51.6c0.3,0,0.5-0.2,0.6-0.4c0.1-0.3,0.2-0.5,0.2-0.8c0-0.7-0.3-1-0.8-1
	c-0.7,0-0.8,0.8-0.8,1.2C139.8,51.2,140,51.7,140.5,51.6 M141.3,47.3h1v4.4c0,0.2,0,0.4,0,0.6h-1v-0.5c-0.1,0.2-0.2,0.3-0.4,0.4
	c-0.2,0.1-0.4,0.2-0.7,0.2c-0.9,0-1.5-0.6-1.5-1.7s0.6-1.9,1.5-1.9c0.4,0,0.8,0.2,1,0.5L141.3,47.3z M144.3,48.7v2.1
	c0,0.3,0,0.8,0.6,0.8s0.6-0.5,0.6-1.1v-1.8h1.1V52c0,0.1,0,0.2,0,0.2h-1v-0.5c-0.2,0.4-0.6,0.6-1,0.5c-0.4,0-0.8-0.2-1.1-0.5
	c-0.2-0.3-0.2-0.6-0.2-0.9v-2.2L144.3,48.7z M149.3,50c0-0.1,0-0.6-0.4-0.6s-0.5,0.7-0.5,1.1c0,0.4,0.1,0.7,0.3,1.1
	c0.1,0.1,0.2,0.1,0.3,0.1c0.1,0,0.4,0,0.5-0.7h1c0,0.4-0.2,0.8-0.4,1c-0.3,0.2-0.6,0.3-1,0.3c-0.4,0-0.9-0.1-1.2-0.5
	c-0.3-0.4-0.5-0.9-0.4-1.4c-0.1-0.9,0.5-1.7,1.4-1.8c0.1,0,0.2,0,0.3,0c0.7-0.1,1.4,0.4,1.4,1.2c0,0.1,0,0.1,0,0.2H149.3z
	 M151.8,51.1c0,0.3,0.2,0.5,0.5,0.5c0,0,0,0,0,0c0.2,0,0.3-0.1,0.4-0.2c0.2-0.3,0.2-0.6,0.2-0.9C152.3,50.5,151.8,50.7,151.8,51.1
	 M153.1,52.2c0-0.2,0-0.3,0-0.5c-0.4,0.6-1.3,0.7-1.9,0.3c0,0,0,0,0,0c-0.2-0.2-0.3-0.5-0.3-0.8c0-0.5,0.3-0.9,0.7-1.1
	c0.4-0.2,0.9-0.2,1.4-0.2c0-0.2,0-0.3,0-0.5c-0.1-0.2-0.3-0.3-0.4-0.3c-0.2,0-0.3,0.1-0.4,0.2c-0.1,0.1-0.1,0.2-0.1,0.3h-1
	c0-0.3,0.1-0.6,0.4-0.8c0.3-0.2,0.7-0.3,1.1-0.3c0.5,0,0.9,0.1,1.2,0.5c0.2,0.3,0.3,0.6,0.2,0.9v1.4c0,0.3,0,0.6,0.1,0.9L153.1,52.2
	z M156.9,52.2c-0.3,0.1-0.5,0.1-0.8,0.1c-1,0-1-0.6-1-0.9v-1.9h-0.7v-0.7h0.7v-0.6l1-0.4v1h0.8v0.7h-0.8V51c0,0.3,0,0.5,0.5,0.5
	c0.1,0,0.2,0,0.4,0L156.9,52.2z M157.5,48.7h1v3.5h-1V48.7z M157.5,47.2h1.1v0.9h-1.1V47.2z M161.1,51.7c0.4,0,0.8-0.3,0.8-1.2
	c0-0.5-0.1-1.1-0.8-1.1s-0.8,0.9-0.8,1.2C160.3,51.3,160.6,51.7,161.1,51.7 M161.1,48.7c0.9-0.1,1.7,0.6,1.8,1.6c0,0.1,0,0.2,0,0.3
	c0.1,1-0.6,1.8-1.6,1.9c-0.1,0-0.2,0-0.2,0c-0.9,0.1-1.7-0.6-1.8-1.6c0-0.1,0-0.2,0-0.3c-0.1-0.9,0.6-1.8,1.5-1.9
	C160.9,48.7,161,48.7,161.1,48.7 M163.7,49.4v-0.6h1v0.5c0.2-0.4,0.7-0.6,1.1-0.6c0.5,0,0.9,0.2,1.1,0.7c0.1,0.3,0.1,0.7,0.1,1v1.9
	h-1v-2.1c0-0.1,0-0.3-0.1-0.4c-0.1-0.2-0.3-0.3-0.5-0.3c-0.2,0-0.4,0.1-0.5,0.3c-0.1,0.2-0.1,0.3-0.1,0.5v2h-1L163.7,49.4z M0.4,2.1
	h34.5v17.2c0,4.7-1.7,9.2-4.7,12.7c-6.4,7.3-12.4,8.9-12.4,8.9S12.4,39.4,6.1,33c-3.6-3.5-5.6-8.4-5.6-13.4L0.4,2.1z"/>
<path class="st0" d="M17.7,41.2c2-0.1,17.7-7.4,17.7-21.8V1.6H0v17.7C0,33.8,15.7,41.1,17.7,41.2"/>
<path class="st0" d="M34.5,19.4c0,13.6-15,20.9-16.8,20.9S0.9,33,0.9,19.4V2.5h33.6V19.4z"/>
<path class="st2" d="M16.6,9.7c0.6,0.2,1.1,0.5,1.6,0.8c0.4,0.2,0.8,0.4,1,0.5l0.2,0.1c1,0.6,2.2,0.8,3.3,0.6c0.8-0.1,1.5-0.6,2-1.2
	c0.5-0.7,0.6-1.5,0.4-2.3c-0.8-2.7,0.2-3.8,0.2-3.8c-0.6-0.2-1.2-0.1-1.7,0.2C23,5,22.7,5.7,22.8,6.4C22.4,6.4,22,6.7,21.7,7
	c-0.3,0.5-0.3,1.1,0,1.6L21.9,9l0.2-0.3c0.3-0.3,0.7-0.4,1.1-0.3c0.3,0.2,0.4,0.5,0.3,0.8c0,0.2-0.1,0.4-0.2,0.5
	c-0.3,0.2-0.8,0.3-1.2,0.2c-0.3-0.1-0.7-0.2-0.9-0.4C21,9.3,21,9.1,20.8,8.9s0-0.4,0-0.5c0.1-0.3,0.1-0.6,0-0.8
	c-0.1-0.3-0.4-0.4-0.6-0.5C20,7,19.9,7,19.9,6.9c-0.1-0.1-0.1-0.2,0-0.4c0.1-0.3,0-0.6-0.2-0.9c-0.2-0.3-0.6-0.4-0.9-0.4
	c-0.2,0-0.3,0-0.5-0.1c-0.1,0-0.1-0.1-0.1-0.2c-0.1-0.4-0.4-0.8-0.8-0.8c-0.3-0.1-0.6-0.1-0.8,0.1c-0.1,0.1-0.2,0.1-0.4,0.1
	c-0.1,0-0.1,0-0.2-0.1c-0.2-0.3-0.6-0.5-1-0.4c-0.3,0.1-0.5,0.2-0.7,0.5c0,0-0.1,0.1-0.1,0.1l-0.1-0.1C13.9,4,13.4,4,13.1,4.2
	c-0.2,0.1-0.4,0.3-0.5,0.6C12.5,4.9,12.4,5,12.3,5l-0.2-0.3c-0.6,0.3-1.8,3.1-1.8,3.7c0,0.2,0.1,0.5,0.3,0.6
	c0.1,0.1,0.2,0.2,0.1,0.3c0,0.1-0.1,0.2-0.2,0.3c-0.3,0.3-0.3,0.9,0,1.2l0.3,0.1c0.1,0.5,0.5,0.6,1,0.6c0.8-0.1,1.5-0.4,2.1-0.9
	l0.1-0.1c0.4-0.2,0.7-0.5,0.8-0.9c0.3-0.1,0.5-0.2,0.8-0.2C16,9.4,16.3,9.5,16.6,9.7 M0.9,12.8V2.5h33.6v10.3H0.9z"/>
<path class="st3" d="M11.9,11.2c0.6-0.1,1.2-0.5,1.8-0.9h0.1c0.2-0.1,0.4-0.3,0.5-0.5V9.6c-0.1,0-0.2-0.1-0.3-0.1
	c-0.1,0-0.2-0.1-0.2-0.2C13.7,9.1,13.9,9,14,9c0.3-0.1,0.6-0.3,0.9-0.5c-0.2-0.2-0.3-0.3-0.5-0.5c-0.1-0.1-0.1-0.1-0.2-0.2
	c-0.2-0.2-0.4-0.3-0.7-0.3c-0.2,0-0.4,0.3-0.6,0.4s-0.4-0.2-0.3-0.4s0.3-0.2,0.3-0.4c0-0.4-0.2-0.8-0.4-1.2c0-0.1-0.2-0.2-0.3-0.2
	c-0.7,0.8-1.2,1.8-1.4,2.9c0,0.1,0,0.2,0.1,0.2c0.2,0.1,0.3,0.4,0.3,0.6c0,0.2-0.1,0.4-0.3,0.6c-0.1,0.1-0.2,0.2-0.2,0.3
	c0,0.2,0,0.4,0.6,0.4c0.3,0,0.5,0,0.8-0.2c0.3-0.2,0.6-0.4,0.8-0.7c0.1-0.1,0.2-0.1,0.3,0c0.1,0,0.1,0.1,0.1,0.2
	c-0.2,0.4-0.7,0.6-1,0.8c-0.3,0.2-0.6,0.2-0.9,0.2C11.2,11.1,11.6,11.3,11.9,11.2 M19.5,11.1L19.3,11c-0.2-0.1-0.6-0.3-1-0.5
	c-0.5-0.3-1.1-0.6-1.6-0.8c-0.6-0.3-1.3-0.3-1.9,0c-0.1,0.4-0.4,0.8-0.8,0.9l-0.1,0.1c-0.6,0.5-1.3,0.8-2.1,0.9
	c-0.5,0-0.9-0.2-1-0.6l-0.3-0.1c-0.3-0.3-0.3-0.9,0-1.2c0.1-0.1,0.2-0.2,0.2-0.3c0-0.1,0-0.2-0.1-0.3c-0.2-0.1-0.3-0.3-0.3-0.6
	c0-0.6,1.2-3.4,1.8-3.7L12.3,5c0.1-0.1,0.2-0.2,0.2-0.3c0.1-0.2,0.3-0.4,0.5-0.6C13.4,4,13.8,4,14.2,4.3c0,0,0.1,0.1,0.1,0.1
	c0,0,0.1-0.1,0.1-0.1C14.5,4,14.7,3.8,15,3.7c0.4-0.1,0.7,0.1,0.9,0.4c0.1,0.1,0.1,0.2,0.2,0.1c0.1,0,0.3-0.1,0.4-0.1
	C16.8,4,17.1,3.9,17.4,4c0.4,0.1,0.7,0.4,0.8,0.8c0,0.1,0,0.2,0.1,0.2c0.2,0.1,0.3,0.1,0.5,0.1c0.3,0,0.7,0.1,0.9,0.4
	c0.2,0.3,0.3,0.6,0.2,0.9v0.4C19.9,6.9,20,7,20.1,7c0.3,0.1,0.5,0.3,0.6,0.5c0.1,0.3,0.1,0.6,0,0.8c0,0.1-0.1,0.4,0,0.5
	s0.2,0.3,0.4,0.5c0.3,0.2,0.6,0.4,0.9,0.4c0.4,0.1,0.8,0,1.2-0.2c0.1-0.1,0.2-0.3,0.2-0.5c0.1-0.3,0-0.6-0.3-0.8
	c-0.4-0.1-0.8,0-1.1,0.3L21.9,9l-0.1-0.4c-0.3-0.5-0.3-1.1,0-1.6c0.2-0.4,0.6-0.6,1.1-0.7C22.7,5.6,23,5,23.5,4.5
	c0.5-0.3,1.2-0.4,1.7-0.2c0,0-1,1.1-0.2,3.7c0.3,0.8,0.1,1.7-0.4,2.4c-0.5,0.6-1.2,1.1-2,1.2c-0.3,0-0.6,0.1-0.9,0.1
	C21.1,11.7,20.2,11.5,19.5,11.1"/>
<path class="st0" d="M20.3,8.6c-0.4-0.5-0.8-1-1.1-1.6L19,6.9l0-0.1c-0.8-1.1-2.1-1.7-3.5-1.7c-0.9,0-1.8,0.2-2.6,0.6l-0.1-0.1
	l-0.1-0.3c0.1-0.1,0.2-0.2,0.2-0.3c0.1-0.2,0.2-0.3,0.4-0.4c0.3-0.1,0.4,0,0.7,0.1l0.2,0.1c0.2,0.1,0.4-0.1,0.5-0.3s0.2-0.3,0.4-0.3
	c0.2-0.1,0.5,0,0.6,0.2c0.1,0.2,0.3,0.3,0.6,0.3c0.2,0,0.4-0.1,0.5-0.2c0.1-0.1,0.3-0.1,0.5-0.1c0.4,0.1,0.5,0.3,0.5,0.6
	c0,0.2,0.2,0.4,0.3,0.5c0.2,0.1,0.5,0.2,0.7,0.1c0.2,0,0.4,0,0.6,0.2c0.1,0.1,0.1,0.3,0.1,0.6c-0.1,0.3,0,0.6,0.1,0.8
	c0.1,0.1,0.3,0.2,0.4,0.2c0.2,0,0.3,0.2,0.4,0.3c0.1,0.2,0.1,0.4,0,0.5C20.4,8.4,20.4,8.5,20.3,8.6"/>
<path class="st0" d="M14.6,7.5c0.1-0.1,0.3-0.2,0.5-0.3c0.1,0,0.2,0,0.3,0.1c0.2,0.1,0.3,0.3,0.3,0.5l0.1,0.3L16,7.9
	c0.2-0.1,0.4-0.2,0.6-0.1C16.8,7.8,16.9,8,17,8.2l0.1,0.3l0.2-0.2c0.1-0.1,0.2-0.2,0.4-0.2c0.1,0,0.2,0.2,0.3,0.4
	c0,0.1,0.1,0.1,0.1,0.2c0.1,0.2,0.3,0.2,0.5,0.2c0.2,0,0.2,0,0.3,0.3s0.5,0.2,0.4-0.1c-0.2-0.6-0.5-0.6-0.7-0.6s-0.1,0-0.1,0
	l-0.1-0.2c-0.1-0.2-0.2-0.5-0.6-0.6c-0.2,0-0.4,0-0.5,0.1c-0.1-0.2-0.3-0.4-0.5-0.5c-0.2-0.1-0.5,0-0.7,0.1
	c-0.1-0.2-0.2-0.4-0.4-0.5c-0.2-0.1-0.4-0.2-0.7-0.1c-0.2,0.1-0.4,0.2-0.6,0.4c-0.2-0.2-1-0.1-1-0.1c0-0.3-0.1-0.6-0.2-0.9
	c0-0.3,1.7-0.6,2.5-0.6c1.2,0,2.4,0.6,3.1,1.6l0,0.1l0.1,0.1c0.4,0.6,0.9,1.2,1.4,1.8c0.2,0.2,0.5,0.5,0.7,0.7
	c0.3,0.3,0.7,0.4,1.1,0.5c0.5,0.1,1.1,0,1.5-0.3c0.2-0.2,0.3-0.5,0.3-0.9c0-0.4,0-1.1-0.7-1.2c-0.4,0-0.8,0.1-1.1,0.4
	c-0.1-0.3-0.1-0.7,0.1-1C22.3,7,22.7,6.8,23,6.8h0.2V6.6C23.1,6,23.3,5.4,23.7,5c0.3-0.2,0.6-0.3,0.9-0.3c-0.4,1.2-0.3,2.4,0.1,3.5
	c0.2,0.7,0.1,1.4-0.3,2c-0.4,0.5-1.1,0.9-1.8,1c-1,0.2-2.1,0-3-0.5l-0.2-0.1l-1-0.5c-0.6-0.3-1.1-0.6-1.7-0.8
	c-0.7-0.3-1.5-0.3-2.2,0h-0.1C15,9,15.2,8.8,15.2,8.5c0-0.1,0-0.3-0.1-0.4C15,8,14.8,7.8,14.7,7.6L14.6,7.5"/>
<path class="st0" d="M11.3,10.9c0.3,0,0.6,0,0.9-0.2c0.3-0.2,0.9-0.5,1-0.8c0-0.1-0.1-0.2-0.2-0.3c-0.1,0-0.2,0-0.2,0.1
	c-0.3,0.5-0.9,0.9-1.5,0.9c-0.6,0-0.5-0.2-0.5-0.4c0-0.1,0.1-0.2,0.2-0.3c0.2-0.2,0.3-0.4,0.3-0.6c0-0.3-0.1-0.5-0.3-0.6
	c-0.1,0-0.1-0.1-0.1-0.2c0.2-1.1,0.7-2.1,1.4-2.9c0.1,0,0.2,0.1,0.3,0.2c0.2,0.4,0.4,0.8,0.4,1.2c0,0.2-0.2,0.2-0.3,0.4
	s0,0.5,0.3,0.4s0.5-0.4,0.7-0.4c0.3,0,0.5,0.1,0.7,0.3c0.1,0.1,0.1,0.1,0.2,0.2c0.1,0.2,0.3,0.4,0.4,0.5c-0.2,0.2-0.5,0.4-0.8,0.5
	c-0.1,0.1-0.3,0.2-0.3,0.3c0,0.1,0.1,0.2,0.2,0.2c0.1,0,0.2,0,0.3,0.1c0,0,0.1,0.2,0,0.2c-0.1,0.2-0.3,0.4-0.5,0.5h-0.1
	c-0.5,0.4-1.1,0.7-1.8,0.9h-0.1C11.4,11.2,11.2,10.9,11.3,10.9"/>
<path class="st3" d="M11.9,9.2c0,0,0-0.2,0-0.3c0-0.2,0.1-0.3,0.2-0.4c0,0,0.5-0.3,0.5-0.3s-0.1,0.3-0.1,0.4c0,0.1,0,0.3-0.1,0.4
	c0,0.1-0.1,0.3-0.3,0.3h-0.1C12.1,9.3,12,9.3,11.9,9.2"/>
<path class="st0" d="M0.7,12.8H35v0.9H0.7V12.8z"/>
<path class="st3" d="M17.7,13.6l14.8,14c-0.6,1.2-1.2,2.3-2,3.3c-1,1.3-2.1,2.5-3.3,3.6l-9.4-9.7l-9.5,9.8c-1.1-1-2.2-2.1-3.1-3.3
	C4.3,30.2,3.6,29,3,27.7L17.7,13.6z M17.7,23.3c1.8-0.1,3.2-1.7,3.1-3.5s-1.7-3.2-3.5-3.1c-1.8,0.1-3.1,1.5-3.1,3.3
	C14.3,21.9,15.9,23.3,17.7,23.3 M29,26.9c0.1-1.9-1.3-3.5-3.2-3.6c-1.9-0.1-3.5,1.3-3.6,3.2c-0.1,1.9,1.3,3.5,3.2,3.6
	c0.1,0,0.1,0,0.2,0C27.3,30.2,28.9,28.7,29,26.9C28.9,26.9,28.9,26.9,29,26.9 M9.9,30.1c1.8,0.1,3.3-1.2,3.5-3
	c0.1-1.8-1.2-3.3-3-3.5c-0.2,0-0.3,0-0.5,0c-1.8-0.1-3.3,1.2-3.5,3c-0.1,1.8,1.2,3.3,3,3.5C9.5,30.1,9.7,30.1,9.9,30.1"/>
<path class="st0" d="M5.8,4.6c0.4,0,0.6-0.3,1.1-0.3c0.7,0,0.9,0.4,1.6,0.6h0.9v0.6c0,0.2,0.5,0.2,0.5,0.7S9.4,6.6,9.4,6.8v1.4
	c0,0.2,0.5,0.2,0.5,0.7S9.4,9.3,9.4,9.6v0.8H2.3V9.6c0-0.3-0.5-0.3-0.5-0.7s0.4-0.5,0.4-0.7V6.8c0-0.2-0.4-0.2-0.4-0.7
	s0.5-0.5,0.5-0.7V4.8h0.9c0.7-0.2,0.9-0.5,1.6-0.5C5.3,4.3,5.5,4.6,5.8,4.6L5.8,4.6z"/>
<path class="st3" d="M5.6,4.2h0.4C6.4,4,6.8,3.9,7.2,3.9c0.4,0,0.8,0.4,1.2,0.5h0.4v4.9H6.3c0,0.3-0.4,0.4-0.5,0.4S5.4,9.6,5.4,9.3
	H2.9V4.4h0.4C3.8,4.4,4.2,4,4.5,3.9C4.9,3.9,5.3,4,5.6,4.2"/>
<path class="st0" d="M3.3,8.9V4.8c0.5-0.1,0.9-0.5,1.2-0.5c0.4,0,0.8,0.1,1.1,0.3v3.9C5.3,8.5,5,8.6,4.6,8.8
	C4.2,8.9,3.7,8.9,3.3,8.9 M8.4,8.9c-0.4,0-0.9,0-1.3-0.1c-0.3-0.2-0.6-0.3-1-0.4V4.5c0.3-0.2,0.7-0.3,1.1-0.3c0.4,0,0.8,0.4,1.2,0.5
	L8.4,8.9z M29.7,4.6c0.4,0,0.6-0.3,1.1-0.3c0.7,0,0.9,0.4,1.6,0.6h0.9v0.6c0,0.2,0.5,0.2,0.5,0.7s-0.5,0.5-0.5,0.7v1.4
	c0,0.2,0.5,0.2,0.5,0.7s-0.5,0.4-0.5,0.7v0.8h-7V9.6c0-0.3-0.5-0.3-0.5-0.7s0.4-0.5,0.4-0.7V6.8c0-0.2-0.4-0.2-0.4-0.7
	s0.5-0.5,0.5-0.7V4.8h0.9c0.7-0.2,0.9-0.5,1.6-0.5C29.2,4.3,29.4,4.6,29.7,4.6L29.7,4.6z"/>
<path class="st3" d="M29.5,4.2h0.5C30.2,4,30.6,3.9,31,3.9c0.3,0,0.8,0.4,1.2,0.5h0.4v4.9h-2.5c0,0.3-0.4,0.4-0.5,0.4
	s-0.5-0.1-0.5-0.4h-2.5V4.4h0.4C27.6,4.4,28,4,28.3,3.9C28.7,3.9,29.1,4,29.5,4.2"/>
<path class="st0" d="M27.1,8.9V4.8c0.5-0.1,0.9-0.5,1.2-0.5c0.4,0,0.8,0.1,1.1,0.3v3.9c-0.4,0.1-0.7,0.2-1,0.4
	C28,8.9,27.6,8.9,27.1,8.9 M32.3,8.9c-0.4,0-0.9,0-1.3-0.1c-0.3-0.2-0.6-0.3-1-0.4V4.5c0.3-0.2,0.7-0.3,1.1-0.3
	c0.3,0,0.8,0.4,1.2,0.5L32.3,8.9z"/>
</svg>
