<svg xmlns="http://www.w3.org/2000/svg" width="140.679" height="138" viewBox="0 0 140.679 138"><g transform="translate(-721.414 -3638.529)"><rect width="140.679" height="138" transform="translate(721.414 3638.529)" fill="#a30533"/><path d="M834.387,3721.872h-2.824v-5.07a2.212,2.212,0,0,0-2.209-2.21h-1.026v-14.559H795.976v1.618h-2.427v1.618h-2.427v5.662H790.1a2.213,2.213,0,0,0-2.21,2.209v35.336h0a2.066,2.066,0,0,0,2.07,2.088h36.2a2.051,2.051,0,0,0,1.98-1.466l8.273-22.678v-.143a2.168,2.168,0,0,0-2.031-2.4m-5.033-5.662a.593.593,0,0,1,.592.592v5.07h-1.618v-5.662Zm-2.643-14.559v20.221H798.185a2.093,2.093,0,0,0-.546.079c-.014,0-.032,0-.046.007v-20.307Zm-30.735,1.618v20.694l-.052.14-.758,2.078v-22.911Zm-3.237,1.617h.809v25.729l-.809,2.217v-27.946Zm-3.234,6.254a.593.593,0,0,1,.592-.592h1.024v26.646l-1.616,4.413Zm37.1,35.47a.454.454,0,0,1-.439.337h-36.2a.452.452,0,0,1-.363-.18.444.444,0,0,1-.1-.33l1.622-4.448h0l2.427-6.652,2.427-6.653v0l1.562-4.288.055-.15.128-.355.023-.067a.458.458,0,0,1,.441-.337h36.2c.306,0,.386.441.406.663Z" transform="translate(-18.61 -17.217)" fill="#fff"/></g></svg>