<svg xmlns="http://www.w3.org/2000/svg" width="80.802" height="81.152" viewBox="0 0 80.802 81.152"><g transform="translate(-361.454 -609.111)"><path d="M413.409,681.092a21.312,21.312,0,0,1-18.32-10.355H372.1a.778.778,0,0,1-.8-.759.245.245,0,0,1,0-.038v-4.211a.776.776,0,0,1,.758-.8H392.7a21.111,21.111,0,0,1-.683-5.462,21.554,21.554,0,0,1,1.252-7.169H372.1a.778.778,0,0,1-.8-.759.244.244,0,0,1,0-.038V647.3a.776.776,0,0,1,.758-.8.242.242,0,0,1,.039,0h24.237a21.329,21.329,0,0,1,17.182-8.648,20.761,20.761,0,0,1,10.241,2.618V616.688a6.847,6.847,0,0,0-6.828-6.827h-47.9a6.846,6.846,0,0,0-6.827,6.827v66a6.847,6.847,0,0,0,6.827,6.827h47.791a6.848,6.848,0,0,0,6.827-6.827v-4.211A22.073,22.073,0,0,1,413.409,681.092Zm-42.1-51.66a.776.776,0,0,1,.758-.8.242.242,0,0,1,.039,0h41.76a.777.777,0,0,1,.8.758v4.249a.779.779,0,0,1-.759.8H372.1a.778.778,0,0,1-.8-.759.245.245,0,0,1,0-.038Z" transform="translate(0)" fill="none" stroke="#43a2da" stroke-width="1.5"/><g transform="translate(397.596 643.773)"><path d="M440.645,682.265,426.877,668.5a15.3,15.3,0,0,0,2.618-8.762,15.872,15.872,0,1,0-6.486,12.858l13.654,13.655a2.751,2.751,0,0,0,3.888.095l.095-.095A2.85,2.85,0,0,0,440.645,682.265ZM413.564,670.09a10.241,10.241,0,1,1,10.241-10.241h0a10.2,10.2,0,0,1-10.156,10.241Z" transform="translate(-397.751 -643.922)" fill="none" stroke="#43a2da" stroke-width="1.5"/></g></g></svg>