<svg xmlns="http://www.w3.org/2000/svg" width="141.531" height="138.853" viewBox="0 0 141.531 138.853"><g transform="translate(-447.978 -3638.102)"><rect width="140.678" height="138" transform="translate(448.404 3638.529)" fill="none" stroke="#a92d3e" stroke-width="0.853"/><path d="M507.933,3723.458s3.868-11.724,5.476-16.6,7.357-2.783,5.9,1.638-5.4,16.746-5.4,16.746l4.033-12.229c1.782-5.4,7.55-2.247,6.1,2.157-.7,2.124-6.388,20.3-6.388,20.3s2.548-1.534,5.379-3.546,6.611,2.469,3.441,5.514c-1.92,1.844-9.537,8.906-12.155,10.958a13.041,13.041,0,0,1-10.905,2.294c-4.42-1.244-8.91-2.833-10.88-6.992s-1.871-7.841-.071-13.3,4.924-14.926,6.495-19.691,7.634-2.875,5.911,2.348l-3.18,9.452s4.255-12.148,5.373-15.535,7.093-2.747,5.2,2.995Zm44.326.17s-3.379-11.884-4.785-16.83-7.232-3.107-5.959,1.374,4.7,16.97,4.7,16.97l-3.524-12.4c-1.556-5.471-7.45-2.58-6.182,1.884.614,2.155,5.544,20.571,5.544,20.571s-2.485-1.645-5.228-3.779-6.708,2.172-3.666,5.354c1.843,1.928,9.161,9.322,11.691,11.487a13.068,13.068,0,0,0,10.8,2.779c4.466-1.049,9.018-2.437,11.158-6.506s2.193-7.752.62-13.28-4.3-15.13-5.673-19.96-7.508-3.212-6,2.083l2.786,9.586s-3.749-12.327-4.726-15.761-6.976-3.058-5.32,2.761Z" transform="translate(-11.424 -18.81)" fill="none" stroke="#a30533" stroke-miterlimit="10" stroke-width="2"/></g></svg>