<svg xmlns="http://www.w3.org/2000/svg" width="175.886" height="44.345" viewBox="0 0 175.886 44.345"><g transform="translate(-216.057 -245.71)"><path d="M349.832,292.449c-.1,0-.194.1-.436.412a12.181,12.181,0,0,1-.872,1.163c-.485.436-.921.485-2.956.485a5.749,5.749,0,0,1-2.4-.242,1.344,1.344,0,0,1-.63-1.09c0-.461-.073-3.852-.073-5.088,0-.412.024-.46.194-.46a25.523,25.523,0,0,1,4.482.146c.363.1.533.557.606.775.169.388.194.509.291.509.049,0,.218-.145.146-.485a7.331,7.331,0,0,1-.049-1.357c.049-.388.146-1.139.146-1.284s-.049-.266-.121-.266c-.1,0-.169.1-.243.266a2.1,2.1,0,0,1-.63.921c-.218.121-.509.169-1.623.169h-3.052c-.073,0-.146-.1-.146-.388v-5.548c0-.872.1-.921.291-.945.775-.024,3.973-.024,4.531.073.436.1.9.46,1.308,1.478.121.266.194.339.266.339.1,0,.121-.218.1-.363-.1-.485-.145-1.381-.169-1.648-.048-.242-.145-.387-.242-.387-.243,0-.582.048-1.478.048-.969,0-4.264.048-5.548.048-.7,0-1.453-.1-2.035-.1-.194,0-.363.073-.363.145q0,.145.363.218c.872.194,1.163.484,1.163,1.865,0,4.748,0,7.413-.121,11.266a1.333,1.333,0,0,1-1.333,1.526c-.266.073-.436.121-.436.218s.145.17.46.17c.266,0,1.623-.121,2.447-.121,1.962,0,4.7.1,7.268.1a.468.468,0,0,0,.388-.291c.121-.266.388-1.284.533-1.842C349.953,292.618,349.929,292.449,349.832,292.449Z" transform="translate(-70.313 -19.439)" fill="#063"/><path d="M392.353,279.519c-.678,0-1.963.145-2.642.145-.121,0-.218.267-.242.315a20.419,20.419,0,0,1-.727,1.962c-.582,1.187-3.659,7.171-5.088,9.909-.1.145-.146.242-.218.1-1.526-2.859-4.942-9.643-5.984-11.944-.1-.243-.218-.339-.315-.339-.775,0-2.253-.1-2.81-.121-.218,0-.436.048-.436.145s.17.169.388.218a2.233,2.233,0,0,1,1.333.654c.412.485.557.824.557,2.277,0,1.55-.339,6.929-.485,8.358a6.926,6.926,0,0,1-.509,2.616,1.819,1.819,0,0,1-1.308.775c-.339.073-.436.169-.436.242,0,.121.121.17.436.17.242,0,.9-.145,1.768-.145s1.744.1,2.035.121c.266.024.485-.024.485-.17,0-.1-.145-.193-.412-.242a1.419,1.419,0,0,1-1.236-.969,6.071,6.071,0,0,1-.146-1.768c0-.993.266-7.292.363-8.7.049-.315.1-.315.218-.121.921,1.89,4.143,8.625,5.282,11.072.218.46.388.848.509.848.145,0,.242-.145.363-.436,1.163-2.593,4.143-8.407,5.766-11.653.049-.146.121-.146.121.1,0,1.09,0,7.583-.073,8.891-.073,2.011-.243,2.4-1.26,2.665-.242.024-.485.121-.485.218,0,.17.267.194.509.194.363,0,1.017-.048,2.011-.048.655,0,1.964.145,2.424.145q.436,0,.436-.145c0-.121-.169-.194-.388-.266-.945-.291-1.212-.509-1.309-1.914-.048-.775-.145-3.174-.145-5.814,0-1.211.024-4.118.073-4.943.073-1.429.17-1.7,1.6-2.035.169-.024.363-.121.363-.218S392.6,279.519,392.353,279.519Z" transform="translate(-90.18 -19.374)" fill="#063"/><path d="M438.642,292.449c-.1,0-.194.1-.436.412a12.156,12.156,0,0,1-.872,1.163c-.485.436-.921.485-2.956.485a5.747,5.747,0,0,1-2.4-.242,1.343,1.343,0,0,1-.63-1.09c0-.461-.073-3.852-.073-5.088,0-.412.024-.46.194-.46a25.525,25.525,0,0,1,4.482.146c.363.1.533.557.605.775.17.388.194.509.291.509.048,0,.218-.145.146-.485a7.312,7.312,0,0,1-.049-1.357c.049-.388.145-1.139.145-1.284s-.048-.266-.121-.266c-.1,0-.17.1-.243.266a2.1,2.1,0,0,1-.63.921c-.218.121-.509.169-1.623.169h-3.052c-.073,0-.146-.1-.146-.388v-5.548c0-.872.1-.921.291-.945.775-.024,3.973-.024,4.531.073.436.1.9.46,1.308,1.478.121.266.194.339.266.339.1,0,.121-.218.1-.363-.1-.485-.145-1.381-.17-1.648-.048-.242-.145-.387-.242-.387-.242,0-.582.048-1.478.048-.969,0-4.264.048-5.548.048-.7,0-1.453-.1-2.035-.1-.194,0-.363.073-.363.145q0,.145.363.218c.872.194,1.163.484,1.163,1.865,0,4.748,0,7.413-.121,11.266a1.333,1.333,0,0,1-1.333,1.526c-.266.073-.436.121-.436.218s.145.17.46.17c.266,0,1.623-.121,2.447-.121,1.962,0,4.7.1,7.268.1a.468.468,0,0,0,.388-.291c.121-.266.388-1.284.533-1.842C438.763,292.618,438.739,292.449,438.642,292.449Z" transform="translate(-121.204 -19.439)" fill="#063"/><path d="M476.16,294.661a2.669,2.669,0,0,1-1.817-.945,16.3,16.3,0,0,1-1.768-2.2c-.775-1.138-2.156-3.391-2.616-4.312-.1-.242-.121-.388-.024-.436a4.871,4.871,0,0,0,1.381-.751A3.111,3.111,0,0,0,472.7,283.3a3.47,3.47,0,0,0-1.5-2.907,5.233,5.233,0,0,0-3.247-.872c-1.259,0-1.914.121-2.932.121-.848,0-1.55-.073-1.89-.073q-.436,0-.436.145c0,.121.194.169.412.218,1.017.169,1.042.533,1.09,1.211.049.824.145,2.35.145,5.717,0,3.029-.048,4.967-.121,6.347-.073.994-.315,1.211-1.114,1.381-.315.048-.46.121-.46.218,0,.121.169.17.412.17.46,0,1.333-.121,2.2-.121.9,0,1.623.121,2.059.121.266,0,.46-.073.46-.17s-.1-.17-.363-.218c-.848-.146-1.042-.412-1.114-.7a8.481,8.481,0,0,1-.194-2.3c-.024-.921-.024-3.731.024-4.022a.32.32,0,0,1,.218-.242,3.579,3.579,0,0,1,1.017.073c.315.049.557.266.872.678.485.751,2.253,3.707,3.319,5.112a4.237,4.237,0,0,0,3.537,1.938,3.358,3.358,0,0,0,1.114-.121c.17-.048.266-.145.266-.194C476.474,294.734,476.329,294.661,476.16,294.661Zm-9.3-7.7a2.166,2.166,0,0,1-.581-.049c-.1,0-.194-.1-.194-.412,0-.412.024-5.475.048-5.936.024-.412.1-.436.146-.46a1.531,1.531,0,0,1,.775-.169,3.668,3.668,0,0,1,2.762.969,3.773,3.773,0,0,1,.969,2.786,3.345,3.345,0,0,1-1.357,2.737A7.045,7.045,0,0,1,466.856,286.957Z" transform="translate(-141.301 -19.374)" fill="#063"/><path d="M507.533,279.972c.266-.024.363-.121.363-.218,0-.073-.146-.121-.363-.121-.533,0-1.284.1-2.084.1-.727,0-1.26-.1-2.059-.1-.218,0-.363.048-.363.121s.1.146.266.194c.824.194,1.066.291,1.163,1.09a20.286,20.286,0,0,1,.1,2.326c0,1.139.024,7.825-.024,9.231-.024,1.453-.17,1.841-1.066,2.035-.412.1-.533.17-.533.242,0,.121.169.17.388.17.46,0,1.163-.121,2.374-.121.7,0,1.308.073,1.7.073.291,0,.46-.024.46-.145s-.073-.194-.412-.267c-.7-.169-.848-.339-.921-1.26-.049-.727-.1-2.762-.1-6.323,0-1.5-.024-4.312.048-5.524C506.516,280.481,506.564,280.117,507.533,279.972Z" transform="translate(-164.388 -19.439)" fill="#063"/><path d="M535.808,278.975a4.06,4.06,0,0,1-1.987.267l-4.167.024c-2.5,0-4.894-.073-5.281-.1a1.32,1.32,0,0,1-.775-.242c-.073-.073-.146-.121-.194-.1-.121.048-.121.17-.146.363a14.1,14.1,0,0,1-.315,2.084c-.024.169-.024.363.073.363s.218-.121.339-.412c.339-.945.654-1.236,1.114-1.332a18.877,18.877,0,0,1,2.06-.1,14.7,14.7,0,0,1,1.817.073c.072,0,.146.073.17.291.049.339.049,9.982-.121,12.332-.073,1.114-.218,1.5-1.381,1.672-.267.049-.484.121-.484.218,0,.121.121.218.436.218.388,0,1.115-.145,2.35-.145.969,0,1.72.145,2.277.145.315,0,.485-.024.485-.169,0-.121-.121-.17-.412-.242-.824-.243-1.066-.412-1.163-1.236-.073-.751-.17-3.755-.145-5.112,0-1.017.048-6.662.048-7.559,0-.17.024-.364.146-.388.388-.049,1.6-.049,2.35-.049,1.7,0,2.01.1,2.229.291a2.244,2.244,0,0,1,.436,1.139c.024.121.1.339.194.339.073,0,.193-.17.193-.533a7.638,7.638,0,0,1,.073-1.841.548.548,0,0,0-.024-.315C535.978,278.878,535.905,278.9,535.808,278.975Z" transform="translate(-175.848 -18.975)" fill="#063"/><path d="M577.683,279.657c-.582,0-1.211.073-1.744.073-.751,0-1.163-.073-1.672-.073-.266,0-.388.049-.388.17,0,.073.17.194.364.218a3.817,3.817,0,0,1,.63.146c.678.242.872.557.872,5.16,0,.8-.024,1.938-.073,2.835-.17,4.773-1.962,6.178-4.7,6.178a4.743,4.743,0,0,1-3.416-1.333,5.9,5.9,0,0,1-1.308-4.046c-.049-1.211-.049-4.482,0-6.784,0-1.139-.049-1.962,1.187-2.156.194-.048.388-.121.388-.242,0-.073-.121-.146-.388-.146-.557,0-1.26.073-1.987.073-.872,0-1.575-.1-2.156-.1-.218,0-.436,0-.436.1,0,.121.169.194.291.242.993.266,1.042.412,1.138,1.623.073,1.429.049,5.233.1,7.074.1,2.956.63,4.385,2.108,5.548a6.369,6.369,0,0,0,3.779,1.114,5.846,5.846,0,0,0,4.264-1.575c1.381-1.478,1.623-3.561,1.769-5.742.121-1.5.121-4.748.218-6.226.073-1.09.121-1.575,1.09-1.745.388-.073.509-.145.509-.266C578.119,279.706,577.949,279.657,577.683,279.657Z" transform="translate(-198.727 -19.439)" fill="#063"/><path d="M613.594,286.736c-.775-.557-1.55-1.114-2.5-1.744a3.429,3.429,0,0,1-1.72-2.811,2.937,2.937,0,0,1,2.835-2.98,3.437,3.437,0,0,1,1.962.63,2.4,2.4,0,0,1,.921,1.429c.048.266.121.388.218.388s.169-.17.121-.485c-.024-.266-.1-.969-.1-1.623a.308.308,0,0,0-.17-.267,10.589,10.589,0,0,0-2.713-.436,5.088,5.088,0,0,0-3.125.969,3.811,3.811,0,0,0-1.551,3.125c0,2.084,1.478,3.392,3.344,4.652,1.744,1.163,2.907,2.084,2.907,3.731a3.152,3.152,0,0,1-3.2,3.15,3.481,3.481,0,0,1-3.561-2.641c-.1-.339-.17-.485-.266-.485s-.146.194-.121.46a14.257,14.257,0,0,0,.242,1.769.746.746,0,0,0,.412.655,8.152,8.152,0,0,0,3.295.678c2.519,0,5.063-1.623,5.063-4.312A4.593,4.593,0,0,0,613.594,286.736Z" transform="translate(-223.953 -18.983)" fill="#063"/><path d="M238.231,245.71A22.172,22.172,0,1,0,260.4,267.883,22.2,22.2,0,0,0,238.231,245.71Zm0,43.563a21.391,21.391,0,1,1,21.391-21.391A21.414,21.414,0,0,1,238.231,289.273Z" transform="translate(0 0)" fill="#063"/><path d="M244.985,257.493a17.132,17.132,0,0,0-10.44,30.722.4.4,0,0,0,.059.09.4.4,0,0,0,.191.1,17.1,17.1,0,0,0,20.377,0,.409.409,0,0,0,.19-.1.4.4,0,0,0,.059-.089,17.132,17.132,0,0,0-10.438-30.723Zm14.269,9.423h-6.476v-6.509A16.341,16.341,0,0,1,259.254,266.916Zm-30.5,7.72c0-.245.008-.488.019-.73.211.085.534.222.6.256a2.853,2.853,0,0,0,2.575,0,1.574,1.574,0,0,1,1.473,0,2.853,2.853,0,0,0,2.575,0,1.571,1.571,0,0,1,1.471,0,2.858,2.858,0,0,0,2.578,0,1.565,1.565,0,0,1,1.468,0,2.86,2.86,0,0,0,2.578,0,1.568,1.568,0,0,1,1.47,0,2.858,2.858,0,0,0,2.578,0,1.57,1.57,0,0,1,1.471,0,2.851,2.851,0,0,0,2.574,0,1.574,1.574,0,0,1,1.473,0,2.854,2.854,0,0,0,2.576,0,1.57,1.57,0,0,1,1.471,0,2.856,2.856,0,0,0,2.577,0,2.617,2.617,0,0,1,.909-.235c.01.235.018.471.018.709,0,.386-.018.767-.045,1.146a2.615,2.615,0,0,0-1.306.277,1.927,1.927,0,0,1-1.732,0,2.466,2.466,0,0,0-2.315,0,1.924,1.924,0,0,1-1.73,0,2.478,2.478,0,0,0-2.316,0,1.926,1.926,0,0,1-1.732,0,2.475,2.475,0,0,0-2.315,0,1.926,1.926,0,0,1-1.732,0,2.474,2.474,0,0,0-2.316,0,1.927,1.927,0,0,1-1.732,0,2.473,2.473,0,0,0-2.315,0,1.927,1.927,0,0,1-1.732,0,2.477,2.477,0,0,0-2.316,0,1.925,1.925,0,0,1-1.731,0,2.471,2.471,0,0,0-2.315,0,1.927,1.927,0,0,1-1.732,0,2.461,2.461,0,0,0-1-.365C228.773,275.343,228.757,274.991,228.757,274.635Zm23.009-1.283a1.934,1.934,0,0,1-1.732,0,2.47,2.47,0,0,0-2.315,0,1.934,1.934,0,0,1-1.732,0,2.526,2.526,0,0,0-.624-.226l.028-5.4h6.586v5.53C251.906,273.286,251.835,273.316,251.766,273.352Zm-6.37-6.437.044-8.5a16.113,16.113,0,0,1,6.538,1.575v6.922Zm-.909-.86h-10.1a14.08,14.08,0,0,1,10.123-5.034Zm-.036,7.042a2.526,2.526,0,0,0-.779.254,1.819,1.819,0,0,1-.558.178v-4.879h1.36Zm-2.148.392a1.789,1.789,0,0,1-.363-.137,2.463,2.463,0,0,0-1.816-.194v-4.507H242.3Zm-2.99-.015a1.941,1.941,0,0,1-1.42-.122,2.517,2.517,0,0,0-.758-.251v-4.45h2.178Zm-2.99-.371a2.508,2.508,0,0,0-.745.249,1.942,1.942,0,0,1-1.434.118v-4.819h2.179Zm24.7-.04a2.474,2.474,0,0,0-1.159.289,1.935,1.935,0,0,1-1.732,0,2.472,2.472,0,0,0-2.315,0,1.931,1.931,0,0,1-1.73,0,2.486,2.486,0,0,0-1.3-.279v-5.346h6.885a16.1,16.1,0,0,1,1.47,5.338Zm-16.493-14.645-.009,1.791a14.77,14.77,0,0,0-11.287,6.014.406.406,0,0,0,.109.563.417.417,0,0,0,.091.043l.012.006c.013,0,.027.005.041.008a.394.394,0,0,0,.112.023h10.887l-.005.973h-10.72a.406.406,0,0,0-.406.406h0a.38.38,0,0,0-.02.1v4.811a2.466,2.466,0,0,0-1.8.2,1.935,1.935,0,0,1-1.732,0,2.829,2.829,0,0,0-.96-.327A16.248,16.248,0,0,1,244.526,258.419Zm5.2,31.736-4.453-4.354a.42.42,0,0,0-.588,0l-4.434,4.353a16.183,16.183,0,0,1-4.621-2.276l9.368-9.343,9.349,9.343A16.165,16.165,0,0,1,249.721,290.155Zm-8.534.254,3.788-3.72,3.8,3.72a16.142,16.142,0,0,1-7.593,0Zm13.835-3.038-9.731-9.725a.421.421,0,0,0-.594,0l-9.751,9.725a16.219,16.219,0,0,1-6.056-10.688h0c.259.027.247.063.482.186a2.863,2.863,0,0,0,2.575,0,1.559,1.559,0,0,1,1.471,0,2.877,2.877,0,0,0,2.577,0,1.559,1.559,0,0,1,1.471,0,2.879,2.879,0,0,0,2.578,0,1.553,1.553,0,0,1,1.468,0,2.881,2.881,0,0,0,2.578,0,1.556,1.556,0,0,1,1.47,0,2.858,2.858,0,0,0,2.578,0,1.559,1.559,0,0,1,1.471,0,2.872,2.872,0,0,0,2.574,0,1.563,1.563,0,0,1,1.473,0,2.875,2.875,0,0,0,2.576,0,1.559,1.559,0,0,1,1.471,0,2.815,2.815,0,0,0,2.577,0,2.311,2.311,0,0,1,.793-.183A16.222,16.222,0,0,1,255.023,287.37Z" transform="translate(-6.754 -6.752)" fill="#063"/><path d="M260.495,318.551a1,1,0,1,0,.94,1.052A1,1,0,0,0,260.495,318.551Z" transform="translate(-24.859 -41.739)" fill="#063"/><path d="M254.13,324.915a1,1,0,1,0,.94,1.052A1,1,0,0,0,254.13,324.915Z" transform="translate(-21.212 -45.386)" fill="#063"/><path d="M272.276,318.551a1,1,0,1,0,1.054.936A1,1,0,0,0,272.276,318.551Z" transform="translate(-31.676 -41.739)" fill="#063"/><path d="M278.638,324.915a1,1,0,1,0,1.054.936A1,1,0,0,0,278.638,324.915Z" transform="translate(-35.322 -45.386)" fill="#063"/></g></svg>