<svg xmlns="http://www.w3.org/2000/svg" width="277.233" height="80.173" viewBox="0 0 277.233 80.173"><g transform="translate(92.874 20.422)"><path d="M141.458,31.9c.86,0,1.984.132,3.043.132,1.918,0,6.813-.066,8.269-.066,1.323,0,1.852-.066,2.183-.066.132,0,.265.2.331.6s.132,1.72.265,2.448c.066.2,0,.529-.132.529s-.2-.132-.4-.529c-.6-1.521-1.323-2.051-1.985-2.183-.86-.132-5.623-.132-6.747-.132-.265.066-.463.132-.463,1.389v8.269c0,.463.132.6.2.6h4.564c1.654,0,2.117-.066,2.448-.265a2.838,2.838,0,0,0,.926-1.389c.132-.265.2-.4.331-.4s.2.2.2.4-.132,1.323-.2,1.918a17.425,17.425,0,0,0,.066,2.051c.132.529-.132.728-.2.728-.132,0-.2-.2-.463-.728-.132-.331-.331-.992-.926-1.191-.86-.2-1.786-.2-6.681-.2-.265,0-.265.066-.265.661,0,1.852.132,6.88.132,7.607a2.06,2.06,0,0,0,.926,1.654c.6.265,1.191.331,3.572.331,3.043,0,3.7-.066,4.432-.728.331-.331.926-1.257,1.323-1.72.331-.463.529-.6.662-.6s.2.265.066.661a21.614,21.614,0,0,1-.794,2.778.706.706,0,0,1-.6.463c-3.837,0-7.938-.132-10.849-.132-1.257,0-3.241.2-3.638.2-.463,0-.662-.132-.662-.265s.265-.2.662-.331c1.257-.2,1.984-.661,1.984-2.249.2-5.755.2-9.724.2-16.8,0-2.051-.463-2.514-1.72-2.778-.331-.066-.529-.2-.529-.331C140.929,31.966,141.194,31.9,141.458,31.9Z" transform="translate(-140.4 -31.22)" fill="#105d39"/><path d="M175.123,31.8c.86.066,3.043.2,4.167.2.132,0,.331.132.463.529,1.588,3.44,6.681,13.561,8.93,17.86.132.2.2.066.331-.132,2.117-4.1,6.747-13.031,7.607-14.818a26.878,26.878,0,0,0,1.058-2.911c.066-.066.2-.463.331-.463.992,0,2.911-.2,3.969-.2.331,0,.6.066.6.2s-.265.265-.529.331c-2.117.529-2.249.926-2.381,3.043-.066,1.257-.132,5.557-.132,7.409,0,3.969.132,7.541.2,8.666.132,2.117.529,2.448,1.985,2.844.331.132.6.2.6.4,0,.132-.2.2-.661.2-.662,0-2.646-.2-3.638-.2-1.455,0-2.448.066-2.977.066-.331,0-.728-.066-.728-.265,0-.132.331-.265.728-.331,1.521-.4,1.786-.992,1.852-3.969.132-1.984.132-11.642.132-13.3,0-.331-.132-.331-.2-.132-2.447,4.829-6.88,13.561-8.6,17.4-.2.463-.331.661-.529.661s-.463-.6-.728-1.257c-1.72-3.638-6.483-13.693-7.872-16.537-.2-.265-.265-.265-.331.2-.132,2.117-.529,11.51-.529,12.965a9.978,9.978,0,0,0,.2,2.646,2.163,2.163,0,0,0,1.852,1.455c.4.066.6.2.6.331,0,.2-.331.265-.728.265a24.313,24.313,0,0,0-3.043-.2c-1.323,0-2.249.2-2.646.2-.463,0-.662-.066-.662-.265,0-.132.132-.265.662-.331a2.591,2.591,0,0,0,1.984-1.191c.331-.529.529-1.654.728-3.9.2-2.117.728-10.187.728-12.5,0-2.183-.2-2.646-.86-3.374a3.534,3.534,0,0,0-1.984-.992c-.331-.066-.6-.2-.6-.331C174.528,31.866,174.792,31.8,175.123,31.8Z" transform="translate(-151.706 -31.187)" fill="#105d39"/><path d="M227.058,31.9c.86,0,1.985.132,3.043.132,1.918,0,6.813-.066,8.269-.066,1.323,0,1.852-.066,2.183-.066.132,0,.265.2.331.6s.132,1.72.265,2.448c.066.2,0,.529-.132.529s-.2-.132-.4-.529c-.6-1.521-1.323-2.051-1.985-2.183-.86-.132-5.623-.132-6.747-.132-.265.066-.463.132-.463,1.389v8.269c0,.463.132.6.2.6h4.564c1.654,0,2.117-.066,2.447-.265a2.839,2.839,0,0,0,.926-1.389c.132-.265.2-.4.331-.4s.2.2.2.4-.132,1.323-.2,1.918a17.429,17.429,0,0,0,.066,2.051c.132.529-.132.728-.2.728-.132,0-.2-.2-.463-.728-.132-.331-.331-.992-.926-1.191-.86-.2-1.786-.2-6.681-.2-.265,0-.265.066-.265.661,0,1.852.132,6.88.132,7.607a2.06,2.06,0,0,0,.926,1.654c.6.265,1.191.331,3.572.331,3.043,0,3.7-.066,4.432-.728.331-.331.926-1.257,1.323-1.72.331-.463.529-.6.662-.6s.2.265.066.661a21.6,21.6,0,0,1-.794,2.778.706.706,0,0,1-.6.463c-3.837,0-7.938-.132-10.849-.132-1.257,0-3.241.2-3.638.2-.463,0-.661-.132-.661-.265s.265-.2.661-.331c1.257-.2,1.984-.661,1.984-2.249.2-5.755.2-9.724.2-16.8,0-2.051-.463-2.514-1.72-2.778-.331-.066-.529-.2-.529-.331C226.529,31.966,226.794,31.9,227.058,31.9Z" transform="translate(-169.376 -31.22)" fill="#105d39"/><path d="M272.567,33.054a5.086,5.086,0,0,1,2.249,4.366,4.622,4.622,0,0,1-2.051,4.035,6.326,6.326,0,0,1-2.051,1.125c-.132.066-.132.265.066.661a72.757,72.757,0,0,0,3.9,6.417,24.675,24.675,0,0,0,2.646,3.307,3.771,3.771,0,0,0,2.712,1.389c.265,0,.463.132.463.2s-.132.2-.4.265a5.341,5.341,0,0,1-1.654.2,6.275,6.275,0,0,1-5.292-2.911c-1.588-2.117-4.234-6.483-4.961-7.607a2.191,2.191,0,0,0-1.323-.992,6.99,6.99,0,0,0-1.522-.132.8.8,0,0,0-.331.331c-.066.463-.066,4.63-.066,6.02a13.867,13.867,0,0,0,.265,3.44c.132.463.4.86,1.654,1.058.4.066.529.2.529.331s-.265.265-.662.265c-.662,0-1.72-.2-3.043-.2s-2.58.2-3.307.2c-.331,0-.6-.066-.6-.265,0-.132.2-.265.661-.331,1.191-.265,1.588-.6,1.654-2.051.132-2.051.2-4.961.2-9.459,0-5.027-.132-7.276-.2-8.533-.066-.992-.132-1.588-1.654-1.786-.331-.066-.6-.132-.6-.331,0-.132.2-.2.661-.2.529,0,1.588.132,2.844.132,1.521,0,2.514-.2,4.366-.2A7.491,7.491,0,0,1,272.567,33.054Zm-7.343-.4c-.066.066-.2.066-.2.661-.066.661-.066,8.269-.066,8.864,0,.463.132.6.265.6a3.494,3.494,0,0,0,.86.066,10.744,10.744,0,0,0,3.837-.794,5.053,5.053,0,0,0,2.051-4.1,5.679,5.679,0,0,0-1.455-4.167,5.559,5.559,0,0,0-4.1-1.455A2.33,2.33,0,0,0,265.224,32.657Z" transform="translate(-180.817 -31.183)" fill="#105d39"/><path d="M299.328,31.9c1.191,0,1.984.132,3.043.132,1.191,0,2.315-.132,3.109-.132.331,0,.529.066.529.2s-.132.265-.529.331c-1.455.2-1.521.728-1.588,2.249-.132,1.786-.066,6.02-.066,8.269,0,5.292.066,8.335.132,9.459.132,1.389.331,1.654,1.389,1.852.529.132.6.2.6.4s-.265.2-.662.2c-.6,0-1.455-.132-2.514-.132-1.786,0-2.844.2-3.572.2-.331,0-.6-.066-.6-.265,0-.132.2-.2.794-.331,1.323-.265,1.588-.86,1.588-3.043.066-2.117.066-12.105.066-13.759a34.615,34.615,0,0,0-.132-3.506c-.132-1.191-.529-1.323-1.72-1.654-.265-.066-.4-.2-.4-.265S299,31.9,299.328,31.9Z" transform="translate(-193.951 -31.22)" fill="#105d39"/><path d="M334.207,31.618c1.72,0,2.381-.066,2.977-.4.132-.132.265-.132.265-.066a.852.852,0,0,1,.066.463,14.547,14.547,0,0,0-.132,2.778c0,.529-.2.794-.265.794-.132,0-.265-.331-.265-.529a3.142,3.142,0,0,0-.662-1.72c-.331-.265-.794-.463-3.307-.463-1.125,0-2.911,0-3.506.066-.2.066-.2.331-.2.6,0,1.323-.066,9.79-.066,11.312-.066,2.051.132,6.483.2,7.607.132,1.257.529,1.455,1.72,1.852.463.132.6.2.6.331,0,.2-.265.265-.728.265-.86,0-1.984-.2-3.374-.2-1.852,0-2.911.2-3.506.2-.463,0-.661-.132-.661-.331,0-.132.331-.265.728-.331,1.72-.265,1.984-.86,2.051-2.514.265-3.506.265-17.927.2-18.39-.066-.331-.132-.463-.265-.463a15.1,15.1,0,0,0-2.712-.132,29.6,29.6,0,0,0-3.043.132c-.662.132-1.191.6-1.654,1.984-.2.463-.331.6-.529.6-.132,0-.132-.265-.132-.529a18.633,18.633,0,0,0,.463-3.109c.066-.265.066-.463.2-.529.066-.066.2.066.265.132a1.7,1.7,0,0,0,1.191.331c.6.066,4.167.132,7.872.132Z" transform="translate(-200.518 -30.873)" fill="#105d39"/><path d="M363.213,31.9c.4,0,.6.132.6.2,0,.2-.265.265-.6.331-1.852.265-1.786,1.521-1.786,3.241-.066,3.44-.066,8.335,0,10.121.066,2.646.728,4.763,1.984,6.02a7.019,7.019,0,0,0,5.094,1.984c4.1,0,6.747-2.117,7.012-9.195.066-1.323.132-3.043.132-4.234,0-6.88-.265-7.343-1.323-7.673a2.6,2.6,0,0,0-.926-.2c-.265-.066-.529-.2-.529-.331,0-.2.2-.265.6-.265.728,0,1.389.132,2.514.132.794,0,1.72-.132,2.58-.132.4,0,.661.066.661.2,0,.2-.2.265-.728.4-1.455.265-1.521.992-1.654,2.58-.132,2.183-.132,7.078-.331,9.327-.2,3.241-.6,6.35-2.646,8.6a8.739,8.739,0,0,1-6.35,2.381,9.691,9.691,0,0,1-5.623-1.654c-2.183-1.72-2.977-3.9-3.175-8.269-.066-2.778-.066-8.4-.132-10.584-.132-1.786-.2-2.051-1.72-2.448-.2-.066-.463-.2-.463-.331s.331-.132.661-.132c.86,0,1.918.132,3.241.132C361.361,32.032,362.42,31.9,363.213,31.9Z" transform="translate(-213.517 -31.22)" fill="#105d39"/><path d="M411.195,31.761a.411.411,0,0,1,.265.4c0,.992.132,2.051.132,2.448.066.463-.066.728-.2.728s-.265-.2-.331-.6a3.448,3.448,0,0,0-1.389-2.117,5.232,5.232,0,0,0-2.911-.926,4.376,4.376,0,0,0-4.234,4.432,4.98,4.98,0,0,0,2.58,4.167c1.389.926,2.58,1.786,3.7,2.58,1.389.992,3.44,2.58,3.44,5.755,0,4.035-3.771,6.417-7.541,6.417a12.407,12.407,0,0,1-4.9-.992,1.064,1.064,0,0,1-.6-.992,23.983,23.983,0,0,1-.331-2.646c-.066-.4.066-.661.2-.661s.265.2.4.728a5.2,5.2,0,0,0,5.292,3.969,4.684,4.684,0,0,0,4.763-4.7c0-2.448-1.72-3.837-4.366-5.557-2.778-1.852-4.961-3.837-4.961-6.946a5.737,5.737,0,0,1,2.315-4.7,7.905,7.905,0,0,1,4.7-1.455A14.642,14.642,0,0,1,411.195,31.761Z" transform="translate(-227.894 -30.95)" fill="#105d39"/><g transform="translate(18.72 32.894)"><path d="M168.965,80.8c.331,0,.529.066.794.066.331,0,.6-.066.794-.066.066,0,.132,0,.132.066s-.066.066-.132.066c-.4.066-.4.2-.4.6v2.183a18.278,18.278,0,0,0,.066,2.448c0,.331.066.4.331.463.132,0,.132.066.132.132s-.066.066-.2.066h-.662c-.463,0-.728.066-.926.066-.066,0-.132,0-.132-.066a.29.29,0,0,1,.2-.066c.331-.066.4-.2.4-.794V82.321a3,3,0,0,0-.066-.926c-.066-.331-.132-.331-.463-.4a.231.231,0,0,1-.132-.066C168.832,80.8,168.832,80.8,168.965,80.8Z" transform="translate(-168.7 -80.668)" fill="#105d39"/><path d="M174.4,80.8c.265,0,.794.066,1.125.066.066,0,.066,0,.2.2.6.794,3.043,3.572,3.9,4.5a.065.065,0,0,0,.066-.066c0-.331,0-2.977-.066-3.771,0-.529-.2-.662-.529-.728a.29.29,0,0,1-.2-.066c0-.066.066-.066.2-.066.2,0,.463.066.661.066a5.131,5.131,0,0,0,.6-.066c.132,0,.132,0,.132.066s-.066.066-.132.066c-.4.132-.4.331-.4.6-.066.331-.066,2.381-.066,3.241v1.918c0,.2,0,.331-.066.331s-.132-.132-.331-.331c-.529-.661-2.977-3.44-4.234-4.961-.066-.066-.066-.066-.066,0v3.837c0,.4,0,.661.132.794a.67.67,0,0,0,.463.265.142.142,0,0,1,.132.132c0,.066-.066.066-.2.066-.2,0-.4-.066-.728-.066-.265,0-.6.066-.661.066-.132,0-.132,0-.132-.066s.066-.066.2-.066c.331-.132.463-.2.529-.728.066-.331.132-3.374.132-4.1,0-.529-.066-.6-.2-.661a3.228,3.228,0,0,0-.463-.2.29.29,0,0,1-.2-.066C174.2,80.8,174.2,80.8,174.4,80.8Z" transform="translate(-170.562 -80.668)" fill="#105d39"/><path d="M189.409,80.846c.066,0,.066.066.066.132a1.845,1.845,0,0,0,.066.661c0,.132,0,.2-.066.2s-.066-.066-.066-.132a.816.816,0,0,0-.331-.529,1.621,1.621,0,0,0-.794-.265A1.169,1.169,0,0,0,187.16,82.1a1.431,1.431,0,0,0,.662,1.125c.4.265.661.463.992.661a1.729,1.729,0,0,1-1.058,3.241,3.526,3.526,0,0,1-1.257-.265c-.132-.066-.132-.132-.132-.265s-.066-.463-.066-.662c0-.132,0-.2.066-.2s.066.066.132.2A1.392,1.392,0,0,0,187.888,87a1.256,1.256,0,0,0,1.257-1.257c0-.661-.463-.992-1.125-1.455a2.251,2.251,0,0,1-1.323-1.852,1.336,1.336,0,0,1,.6-1.191,1.959,1.959,0,0,1,1.191-.4C188.747,80.648,189.211,80.78,189.409,80.846Z" transform="translate(-174.658 -80.648)" fill="#105d39"/><path d="M197.908,80.8c.463,0,.6,0,.794-.132.066,0,.066-.066.066,0V80.8a1.3,1.3,0,0,0,0,.728.29.29,0,0,1-.066.2c-.066,0-.066-.066-.066-.132a.515.515,0,0,0-.2-.463c-.066-.066-.2-.132-.86-.132h-.926c-.066,0-.066.066-.066.132v2.977a17.4,17.4,0,0,0,.066,1.984c.066.331.132.4.463.463.132,0,.132.066.132.066,0,.066-.066.066-.2.066-.2,0-.529-.066-.86-.066-.463,0-.794.066-.926.066a.29.29,0,0,1-.2-.066c0-.066.066-.066.2-.066.463-.066.529-.2.529-.661.066-.926.066-4.7.066-4.829a.231.231,0,0,0-.066-.132h-.728a2.5,2.5,0,0,0-.794.066c-.2.066-.331.132-.463.529-.066.132-.066.132-.132.132s-.066-.066,0-.132a3.962,3.962,0,0,0,.132-.794c0-.066,0-.132.066-.132a.065.065,0,0,1,.066.066.5.5,0,0,0,.331.066c.132,0,1.058.066,2.051.066Z" transform="translate(-177.137 -80.6)" fill="#105d39"/><path d="M203.865,80.8c.331,0,.529.066.794.066.331,0,.6-.066.794-.066.066,0,.132,0,.132.066s-.066.066-.132.066c-.4.066-.4.2-.4.6v2.183a18.27,18.27,0,0,0,.066,2.448c0,.331.066.4.331.463.132,0,.132.066.132.132s-.066.066-.2.066h-.662c-.463,0-.728.066-.926.066-.066,0-.132,0-.132-.066a.29.29,0,0,1,.2-.066c.331-.066.4-.2.4-.794V82.321a3.008,3.008,0,0,0-.066-.926c-.066-.331-.132-.331-.463-.4a.231.231,0,0,1-.132-.066C203.732,80.8,203.8,80.8,203.865,80.8Z" transform="translate(-180.514 -80.668)" fill="#105d39"/><path d="M213.008,80.8c.463,0,.6,0,.794-.132.066,0,.066-.066.066,0V80.8a1.305,1.305,0,0,0,0,.728.29.29,0,0,1-.066.2c-.066,0-.066-.066-.066-.132a.515.515,0,0,0-.2-.463c-.066-.066-.2-.132-.86-.132h-.926c-.066,0-.066.066-.066.132v2.977a17.37,17.37,0,0,0,.066,1.984c.066.331.132.4.463.463.132,0,.132.066.132.066,0,.066-.066.066-.2.066-.2,0-.529-.066-.86-.066-.463,0-.794.066-.926.066a.29.29,0,0,1-.2-.066c0-.066.066-.066.2-.066.463-.066.529-.2.529-.661.066-.926.066-4.7.066-4.829a.231.231,0,0,0-.066-.132h-.728a2.5,2.5,0,0,0-.794.066c-.2.066-.331.132-.463.529-.066.132-.066.132-.132.132s-.066-.066,0-.132a3.962,3.962,0,0,0,.132-.794c0-.066,0-.132.066-.132a.065.065,0,0,1,.066.066.5.5,0,0,0,.331.066c.132,0,1.058.066,2.051.066Z" transform="translate(-182.249 -80.6)" fill="#105d39"/><path d="M220.62,80.732c.132,0,.132,0,.132.066s-.066.066-.132.066c-.463.066-.463.4-.463.86v2.646a2.292,2.292,0,0,0,.529,1.588,1.7,1.7,0,0,0,1.323.529c1.058,0,1.786-.529,1.852-2.448V82.915c0-1.786-.066-1.918-.331-2.051-.066,0-.2-.066-.265-.066a.231.231,0,0,1-.132-.066c0-.066.066-.066.132-.066h1.323c.132,0,.2,0,.2.066s-.066.066-.2.132c-.4.066-.4.265-.4.661-.066.6-.066,1.852-.066,2.448a3.623,3.623,0,0,1-.662,2.249,2.559,2.559,0,0,1-3.109.132c-.6-.463-.794-.992-.794-2.183,0-.728,0-2.183-.066-2.778-.066-.463-.066-.529-.463-.662a.231.231,0,0,1-.132-.066c0-.066.066-.066.2-.066.2,0,.529.066.86.066C220.091,80.8,220.421,80.732,220.62,80.732Z" transform="translate(-185.693 -80.6)" fill="#105d39"/><path d="M234.008,80.8c.463,0,.6,0,.794-.132.066,0,.066-.066.066,0V80.8a1.3,1.3,0,0,0,0,.728.29.29,0,0,1-.066.2c-.066,0-.066-.066-.066-.132a.515.515,0,0,0-.2-.463c-.066-.066-.2-.132-.86-.132h-.926c-.066,0-.066.066-.066.132v2.977a17.386,17.386,0,0,0,.066,1.984c.066.331.132.4.463.463.132,0,.132.066.132.066,0,.066-.066.066-.2.066-.2,0-.529-.066-.86-.066-.463,0-.794.066-.926.066a.29.29,0,0,1-.2-.066c0-.066.066-.066.2-.066.463-.066.529-.2.529-.661.066-.926.066-4.7.066-4.829a.231.231,0,0,0-.066-.132h-.728a2.5,2.5,0,0,0-.794.066c-.2.066-.331.132-.463.529-.066.132-.066.132-.132.132s-.066-.066,0-.132a3.958,3.958,0,0,0,.132-.794c0-.066,0-.132.066-.132a.065.065,0,0,1,.066.066.5.5,0,0,0,.331.066c.132,0,1.058.066,2.051.066Z" transform="translate(-189.357 -80.6)" fill="#105d39"/><path d="M240,80.8c.2,0,.529.066.794.066h2.778c.066,0,.066.066.066.132a2.484,2.484,0,0,0,.066.661c0,.066,0,.132-.066.132,0,0-.066,0-.132-.132a.811.811,0,0,0-.529-.6,8.038,8.038,0,0,0-1.786,0c-.066,0-.132,0-.132.4v2.117c0,.132,0,.132.066.132h1.191c.463,0,.529,0,.661-.066a1.809,1.809,0,0,0,.265-.331.083.083,0,1,1,.132,0c0,.066-.066.331-.066.529v.529a.29.29,0,0,1-.066.2c-.066,0-.066-.066-.132-.2a.4.4,0,0,0-.265-.331,7.323,7.323,0,0,0-1.72-.066c-.066,0-.066,0-.066.2v1.984a.411.411,0,0,0,.265.4,2.531,2.531,0,0,0,.926.066c.794,0,.992,0,1.125-.2a2.8,2.8,0,0,0,.331-.463c.066-.132.132-.132.2-.132s.066.066,0,.2c-.066.2-.132.6-.2.728-.066.066-.066.132-.132.132-.992,0-2.051-.066-2.844-.066-.331,0-.86.066-.926.066-.132,0-.2,0-.2-.066s.066-.066.2-.066c.331-.066.529-.2.529-.6.066-1.521.066-2.58.066-4.432,0-.529-.132-.662-.463-.728a.231.231,0,0,1-.132-.066C239.865,80.866,239.931,80.8,240,80.8Z" transform="translate(-192.7 -80.668)" fill="#105d39"/><path d="M261.852,83.841a3.084,3.084,0,0,1-1.786,2.778,2.685,2.685,0,0,1-1.257.265,3.162,3.162,0,0,1-3.109-3.175,3.032,3.032,0,0,1,1.257-2.514,2.957,2.957,0,0,1,1.852-.6A3.167,3.167,0,0,1,261.852,83.841Zm-4.564-2.381a3.674,3.674,0,0,0,.066,4.3,2.075,2.075,0,0,0,1.72.926,1.458,1.458,0,0,0,.992-.4,3.094,3.094,0,0,0,1.058-2.514,3.775,3.775,0,0,0-.794-2.315,2.062,2.062,0,0,0-1.588-.794A2.406,2.406,0,0,0,257.288,81.46Z" transform="translate(-198.15 -80.6)" fill="#105d39"/><path d="M271.372,80.8c.2,0,.265.066.265.132,0,.132.066.529.066.661,0,.066,0,.2-.066.2s-.066-.066-.132-.2a.7.7,0,0,0-.728-.529h-1.588c-.066,0-.132.132-.132.2v2.448a.231.231,0,0,0,.066.132h1.588c.132,0,.265-.066.4-.4.066-.066.066-.132.132-.132s.066.066.066.132c0,.132-.066.4-.066.6a.979.979,0,0,0,.066.463c0,.132,0,.132-.066.132s-.066-.066-.132-.2c-.066-.2-.2-.331-.265-.331a13.624,13.624,0,0,0-1.654-.066.231.231,0,0,0-.066.132v2.051c0,.331.066.4.529.529a.231.231,0,0,1,.132.066c0,.066-.132.066-.2.066-.132,0-.529-.066-.926-.066-.331,0-.6.066-.728.066-.066,0-.132,0-.132-.066s.066-.066.2-.066c.331-.066.4-.132.4-.529v-4.7c0-.331-.066-.4-.4-.529a.231.231,0,0,1-.132-.066c0-.066.066-.066.132-.066.132,0,.662.066,1.058.066C269.983,80.866,270.975,80.8,271.372,80.8Z" transform="translate(-202.246 -80.668)" fill="#105d39"/><path d="M282.9,80.766c.2,0,.794.066,1.125.066.066,0,.066.066.132.132.4.926,1.72,3.572,2.315,4.7,0,.066.066,0,.066-.066.529-1.058,1.786-3.44,1.984-3.9a5.552,5.552,0,0,0,.265-.794l.066-.132c.265,0,.794-.066,1.058-.066.066,0,.132,0,.132.066s-.066.066-.132.066c-.529.132-.6.265-.6.794v1.918c0,1.058.066,1.984.066,2.249.066.529.132.661.529.728a.142.142,0,0,1,.132.132c0,.066-.066.066-.2.066-.2,0-.662-.066-.926-.066h-.794c-.066,0-.2,0-.2-.066s.066-.066.2-.066c.4-.132.463-.265.463-1.058V81.957c0-.066,0-.066-.066-.066-.661,1.257-1.786,3.572-2.249,4.564-.066.132-.066.2-.132.2s-.132-.132-.2-.331c-.463-.926-1.72-3.572-2.051-4.3-.066-.066-.066-.066-.066.066-.066.529-.132,3.043-.132,3.374a1.659,1.659,0,0,0,.066.662.7.7,0,0,0,.463.4c.132,0,.132.066.132.066,0,.066-.066.066-.2.066s-.463-.066-.794-.066a5.108,5.108,0,0,0-.661.066c-.132,0-.2,0-.2-.066a.29.29,0,0,1,.2-.066.745.745,0,0,0,.529-.331,4.044,4.044,0,0,0,.2-.992c.066-.529.2-2.646.2-3.241s-.066-.728-.2-.86a1,1,0,0,0-.529-.265.231.231,0,0,1-.132-.066Z" transform="translate(-207.222 -80.634)" fill="#105d39"/><path d="M299.141,80.752a2.744,2.744,0,0,0,.265.794c.661,1.786,1.191,3.043,1.786,4.366.265.529.331.662.6.728.132,0,.132.066.132.066,0,.066-.066.066-.2.066h-.794c-.331,0-.728.066-.926.066-.132,0-.132,0-.132-.066s.066-.066.2-.066c.4-.066.463-.2.4-.4a17.552,17.552,0,0,0-.661-1.852.142.142,0,0,0-.132-.132h-1.786c-.066,0-.132.132-.132.2-.066.2-.331.926-.463,1.389-.132.331-.132.529,0,.662a.559.559,0,0,0,.4.132.231.231,0,0,1,.132.066c0,.066-.066.066-.2.066-.2,0-.6-.066-.926-.066-.265,0-.4.066-.661.066-.132,0-.132,0-.132-.066s.066-.066.2-.066c.463-.066.529-.2.86-.992.265-.6,1.124-2.646,1.654-4.1a.5.5,0,0,0,.066-.265v-.132a.618.618,0,0,0,.331-.463c0-.066,0-.066.066-.066C299.075,80.62,299.075,80.686,299.141,80.752Zm.331,3.109c-.4-1.058-.661-1.654-.794-1.984,0-.066-.066-.066-.066,0-.2.529-.6,1.654-.728,2.051v.066h.728a2.283,2.283,0,0,0,.794-.066C299.472,83.927,299.538,83.927,299.472,83.861Z" transform="translate(-211.758 -80.62)" fill="#105d39"/><path d="M307.1,80.8c.265,0,.794.066,1.125.066.066,0,.066,0,.2.2.6.794,3.043,3.572,3.9,4.5a.065.065,0,0,0,.066-.066c0-.331,0-2.977-.066-3.771,0-.529-.2-.662-.529-.728a.29.29,0,0,1-.2-.066c0-.066.066-.066.2-.066.2,0,.463.066.662.066a5.131,5.131,0,0,0,.6-.066c.132,0,.132,0,.132.066s-.066.066-.132.066c-.4.132-.4.331-.4.6-.066.331-.066,2.381-.066,3.241v1.918c0,.2,0,.331-.066.331s-.132-.132-.331-.331c-.529-.661-2.977-3.44-4.234-4.961-.066-.066-.066-.066-.066,0v3.837c0,.4,0,.661.132.794a.67.67,0,0,0,.463.265.142.142,0,0,1,.132.132c0,.066-.066.066-.2.066-.2,0-.4-.066-.728-.066-.265,0-.6.066-.661.066-.132,0-.132,0-.132-.066s.066-.066.2-.066c.331-.132.463-.2.529-.728.066-.331.132-3.374.132-4.1,0-.529-.066-.6-.2-.661a3.232,3.232,0,0,0-.463-.2.29.29,0,0,1-.2-.066C306.9,80.8,306.966,80.8,307.1,80.8Z" transform="translate(-215.481 -80.668)" fill="#105d39"/><path d="M321.541,80.752a2.746,2.746,0,0,0,.265.794c.662,1.786,1.191,3.043,1.786,4.366.265.529.331.662.6.728.132,0,.132.066.132.066,0,.066-.066.066-.2.066h-.794c-.331,0-.728.066-.926.066-.132,0-.132,0-.132-.066s.066-.066.2-.066c.4-.066.463-.2.4-.4a17.549,17.549,0,0,0-.661-1.852.142.142,0,0,0-.132-.132h-1.786c-.066,0-.132.132-.132.2-.066.2-.331.926-.463,1.389-.132.331-.132.529,0,.662a.559.559,0,0,0,.4.132.231.231,0,0,1,.132.066c0,.066-.066.066-.2.066-.2,0-.6-.066-.926-.066-.265,0-.4.066-.661.066-.132,0-.132,0-.132-.066s.066-.066.2-.066c.463-.066.529-.2.86-.992.265-.6,1.125-2.646,1.654-4.1a.5.5,0,0,0,.066-.265v-.132a.619.619,0,0,0,.331-.463c0-.066,0-.066.066-.066C321.475,80.62,321.475,80.686,321.541,80.752Zm.331,3.109c-.4-1.058-.661-1.654-.794-1.984,0-.066-.066-.066-.066,0-.2.529-.6,1.654-.728,2.051v.066h.728a2.282,2.282,0,0,0,.794-.066C321.872,83.927,321.938,83.927,321.872,83.861Z" transform="translate(-219.34 -80.62)" fill="#105d39"/><path d="M333.8,80.8a6.135,6.135,0,0,0,.661.2c.066,0,.066.132.066.2l.066.6c0,.132,0,.2-.066.2s-.066,0-.132-.132a1.734,1.734,0,0,0-1.786-1.125,2.293,2.293,0,0,0-1.72.728,3.235,3.235,0,0,0-.794,2.315,3.037,3.037,0,0,0,1.125,2.381,2.458,2.458,0,0,0,1.455.529,1.5,1.5,0,0,0,1.058-.4c.132-.132.132-.265.132-.529a5.649,5.649,0,0,0,0-1.058c0-.331-.132-.4-.529-.463a.666.666,0,0,1-.2-.066c0-.066.066-.066.265-.066s.463.066.86.066h.6c.066,0,.132,0,.132.066s-.132.066-.2.132c-.132.066-.2.132-.2.6s.066,1.058.066,1.191,0,.2-.066.2a3.224,3.224,0,0,1-.463.2,3.368,3.368,0,0,1-1.455.331,3.486,3.486,0,0,1-2.381-.86,2.865,2.865,0,0,1-.992-2.249,3.129,3.129,0,0,1,1.257-2.514,3.266,3.266,0,0,1,2.183-.662A3.318,3.318,0,0,1,333.8,80.8Z" transform="translate(-223.064 -80.6)" fill="#105d39"/><path d="M340.5,80.8c.2,0,.529.066.794.066h2.778c.066,0,.066.066.066.132a2.481,2.481,0,0,0,.066.661c0,.066,0,.132-.066.132,0,0-.066,0-.132-.132a.811.811,0,0,0-.529-.6,8.037,8.037,0,0,0-1.786,0c-.066,0-.132,0-.132.4v2.117c0,.132,0,.132.066.132h1.191c.463,0,.529,0,.662-.066a1.817,1.817,0,0,0,.265-.331.083.083,0,1,1,.132,0c0,.066-.066.331-.066.529v.529a.29.29,0,0,1-.066.2c-.066,0-.066-.066-.132-.2a.4.4,0,0,0-.265-.331,7.324,7.324,0,0,0-1.72-.066c-.066,0-.066,0-.066.2v1.984a.411.411,0,0,0,.265.4,2.532,2.532,0,0,0,.926.066c.794,0,.992,0,1.125-.2a2.8,2.8,0,0,0,.331-.463c.066-.132.132-.132.2-.132s.066.066,0,.2c-.066.2-.132.6-.2.728-.066.066-.066.132-.132.132-.992,0-2.051-.066-2.844-.066-.331,0-.86.066-.926.066-.132,0-.2,0-.2-.066s.066-.066.2-.066c.331-.066.529-.2.529-.6.066-1.521.066-2.58.066-4.432,0-.529-.132-.662-.463-.728a.231.231,0,0,1-.132-.066C340.365,80.866,340.431,80.8,340.5,80.8Z" transform="translate(-226.72 -80.668)" fill="#105d39"/><path d="M349.4,80.766c.2,0,.794.066,1.125.066.066,0,.066.066.132.132.4.926,1.72,3.572,2.315,4.7,0,.066.066,0,.066-.066.529-1.058,1.786-3.44,1.984-3.9a5.551,5.551,0,0,0,.265-.794l.066-.132c.265,0,.794-.066,1.058-.066.066,0,.132,0,.132.066s-.066.066-.132.066c-.529.132-.6.265-.6.794v1.918c0,1.058.066,1.984.066,2.249.066.529.132.661.529.728a.142.142,0,0,1,.132.132c0,.066-.066.066-.2.066-.2,0-.661-.066-.926-.066h-.794c-.066,0-.2,0-.2-.066s.066-.066.2-.066c.4-.132.463-.265.463-1.058V81.957c0-.066,0-.066-.066-.066-.661,1.257-1.786,3.572-2.249,4.564-.066.132-.066.2-.132.2s-.132-.132-.2-.331c-.463-.926-1.72-3.572-2.051-4.3-.066-.066-.066-.066-.066.066-.066.529-.132,3.043-.132,3.374a1.661,1.661,0,0,0,.066.662.7.7,0,0,0,.463.4c.132,0,.132.066.132.066,0,.066-.066.066-.2.066s-.463-.066-.794-.066a5.1,5.1,0,0,0-.661.066c-.132,0-.2,0-.2-.066a.29.29,0,0,1,.2-.066.744.744,0,0,0,.529-.331,4.034,4.034,0,0,0,.2-.992c.066-.529.2-2.646.2-3.241s-.066-.728-.2-.86a1,1,0,0,0-.529-.265.231.231,0,0,1-.132-.066Z" transform="translate(-229.732 -80.634)" fill="#105d39"/><path d="M362.9,80.8c.2,0,.529.066.794.066h2.778c.066,0,.066.066.066.132a2.485,2.485,0,0,0,.066.661c0,.066,0,.132-.066.132,0,0-.066,0-.132-.132a.811.811,0,0,0-.529-.6,8.037,8.037,0,0,0-1.786,0c-.066,0-.132,0-.132.4v2.117c0,.132,0,.132.066.132h1.191c.463,0,.529,0,.661-.066a1.809,1.809,0,0,0,.265-.331.083.083,0,1,1,.132,0c0,.066-.066.331-.066.529v.529a.29.29,0,0,1-.066.2c-.066,0-.066-.066-.132-.2a.4.4,0,0,0-.265-.331,7.325,7.325,0,0,0-1.72-.066c-.066,0-.066,0-.066.2v1.984a.411.411,0,0,0,.265.4,2.532,2.532,0,0,0,.926.066c.794,0,.992,0,1.125-.2a2.806,2.806,0,0,0,.331-.463c.066-.132.132-.132.2-.132s.066.066,0,.2c-.066.2-.132.6-.2.728-.066.066-.066.132-.132.132-.992,0-2.051-.066-2.844-.066-.331,0-.86.066-.926.066-.132,0-.2,0-.2-.066s.066-.066.2-.066c.331-.066.529-.2.529-.6.066-1.521.066-2.58.066-4.432,0-.529-.132-.662-.463-.728a.231.231,0,0,1-.132-.066C362.7,80.866,362.765,80.8,362.9,80.8Z" transform="translate(-234.302 -80.668)" fill="#105d39"/><path d="M371.4,80.8c.265,0,.794.066,1.125.066.066,0,.066,0,.2.2.6.794,3.043,3.572,3.9,4.5a.065.065,0,0,0,.066-.066c0-.331,0-2.977-.066-3.771,0-.529-.2-.662-.529-.728a.29.29,0,0,1-.2-.066c0-.066.066-.066.2-.066.2,0,.463.066.661.066a5.131,5.131,0,0,0,.6-.066c.132,0,.132,0,.132.066s-.066.066-.132.066c-.4.132-.4.331-.4.6-.066.331-.066,2.381-.066,3.241v1.918c0,.2,0,.331-.066.331s-.132-.132-.331-.331c-.529-.661-2.977-3.44-4.234-4.961-.066-.066-.066-.066-.066,0v3.837c0,.4,0,.661.132.794a.669.669,0,0,0,.463.265.142.142,0,0,1,.132.132c0,.066-.066.066-.2.066-.2,0-.4-.066-.728-.066-.265,0-.6.066-.661.066-.132,0-.132,0-.132-.066s.066-.066.2-.066c.331-.132.463-.2.529-.728.066-.331.132-3.374.132-4.1,0-.529-.066-.6-.2-.661a3.223,3.223,0,0,0-.463-.2.29.29,0,0,1-.2-.066C371.2,80.8,371.266,80.8,371.4,80.8Z" transform="translate(-237.247 -80.668)" fill="#105d39"/><path d="M387.308,80.8c.463,0,.6,0,.794-.132.066,0,.066-.066.066,0V80.8a1.3,1.3,0,0,0,0,.728.29.29,0,0,1-.066.2c-.066,0-.066-.066-.066-.132a.515.515,0,0,0-.2-.463c-.066-.066-.2-.132-.86-.132h-.926c-.066,0-.066.066-.066.132v2.977a17.362,17.362,0,0,0,.066,1.984c.066.331.132.4.463.463.132,0,.132.066.132.066,0,.066-.066.066-.2.066-.2,0-.529-.066-.86-.066-.463,0-.794.066-.926.066a.29.29,0,0,1-.2-.066c0-.066.066-.066.2-.066.463-.066.529-.2.529-.661.066-.926.066-4.7.066-4.829a.231.231,0,0,0-.066-.132h-.728a2.5,2.5,0,0,0-.794.066c-.2.066-.331.132-.463.529-.066.132-.066.132-.132.132s-.066-.066,0-.132a3.956,3.956,0,0,0,.132-.794c0-.066,0-.132.066-.132a.065.065,0,0,1,.066.066.5.5,0,0,0,.331.066c.132,0,1.058.066,2.051.066Z" transform="translate(-241.25 -80.6)" fill="#105d39"/></g></g><path d="M40.087,80.173A40.087,40.087,0,1,1,80.173,40.087,40.1,40.1,0,0,1,40.087,80.173Zm0-78.784a38.7,38.7,0,1,0,38.7,38.7A38.79,38.79,0,0,0,40.087,1.389Z" fill="#105d39"/><path d="M47.026,73.652A26.526,26.526,0,1,1,73.552,47.126,26.566,26.566,0,0,1,47.026,73.652Zm0-51.729A25.137,25.137,0,1,0,72.163,47.06,25.168,25.168,0,0,0,47.026,21.923Z" transform="translate(-6.939 -6.973)" fill="#105d39"/><path d="M60.789,45.875H59.4L59.532,21.4h1.389Z" transform="translate(-20.107 -7.244)" fill="#105d39"/><path d="M50.894,41.723H33.7a.611.611,0,0,1-.6-.661.653.653,0,0,1,.6-.661h17.2a.663.663,0,0,1,.662.661A.625.625,0,0,1,50.894,41.723Z" transform="translate(-11.204 -13.676)" fill="#105d39"/><path d="M41,54.261a.611.611,0,0,1-.6-.661V45.662A.653.653,0,0,1,41,45a.663.663,0,0,1,.662.662v8A.7.7,0,0,1,41,54.261Z" transform="translate(-13.676 -15.233)" fill="#105d39"/><path d="M33.961,54.426a.663.663,0,0,1-.661-.662v-8.2a.663.663,0,0,1,.661-.661.611.611,0,0,1,.6.661V53.83A.593.593,0,0,1,33.961,54.426Z" transform="translate(-11.272 -15.199)" fill="#105d39"/><path d="M47.961,54.493a.663.663,0,0,1-.661-.661v-8.07a.663.663,0,0,1,.661-.661.611.611,0,0,1,.6.661v8.07A.653.653,0,0,1,47.961,54.493Z" transform="translate(-16.011 -15.267)" fill="#105d39"/><path d="M55,54.493a.611.611,0,0,1-.6-.661v-8.07A.653.653,0,0,1,55,45.1a.663.663,0,0,1,.661.661v8.07A.771.771,0,0,1,55,54.493Z" transform="translate(-18.415 -15.267)" fill="#105d39"/><path d="M51.094,45.923H33.961a.661.661,0,1,1,0-1.323H51.028a.663.663,0,0,1,.661.662A.611.611,0,0,1,51.094,45.923Z" transform="translate(-11.272 -15.097)" fill="#105d39"/><path d="M33.6,37.119a.505.505,0,0,1-.331-.132.722.722,0,0,1-.2-.86A22.788,22.788,0,0,1,51.191,26.8h0a.611.611,0,0,1,.6.661.593.593,0,0,1-.6.6h0c-11.047,0-17,8.666-17.067,8.8A.6.6,0,0,1,33.6,37.119Z" transform="translate(-11.171 -9.072)" fill="#105d39"/><path d="M69.163,63.35a4.861,4.861,0,0,1-1.984-.463,2.273,2.273,0,0,0-2.249,0,4.217,4.217,0,0,1-3.969,0,2.273,2.273,0,0,0-2.249,0,4.217,4.217,0,0,1-3.969,0,2.273,2.273,0,0,0-2.249,0,4.217,4.217,0,0,1-3.969,0,2.273,2.273,0,0,0-2.249,0,4.217,4.217,0,0,1-3.969,0,2.273,2.273,0,0,0-2.249,0,4.217,4.217,0,0,1-3.969,0,2.273,2.273,0,0,0-2.249,0,4.217,4.217,0,0,1-3.969,0,2.273,2.273,0,0,0-2.249,0,4.217,4.217,0,0,1-3.969,0c-.4-.2-.331-.265-.728-.265l-.661.132L21.8,57.066,22.528,57a4.3,4.3,0,0,1,1.786.529,3.237,3.237,0,0,0,2.712,0,3.8,3.8,0,0,1,3.572,0,3.237,3.237,0,0,0,2.712,0,3.8,3.8,0,0,1,3.572,0,3.237,3.237,0,0,0,2.712,0,3.8,3.8,0,0,1,3.572,0,3.237,3.237,0,0,0,2.712,0,3.8,3.8,0,0,1,3.572,0,3.237,3.237,0,0,0,2.712,0,3.8,3.8,0,0,1,3.572,0,3.237,3.237,0,0,0,2.712,0,3.8,3.8,0,0,1,3.572,0,3.237,3.237,0,0,0,2.712,0,3.8,3.8,0,0,1,3.572,0,3.237,3.237,0,0,0,2.712,0,3.6,3.6,0,0,1,1.786-.463h1.191l-.2,5.623-.661-.066a5.627,5.627,0,0,0-1.455.265A11.408,11.408,0,0,1,69.163,63.35Zm-3.109-2.183a3.6,3.6,0,0,1,1.786.463,3.237,3.237,0,0,0,2.712,0,3.749,3.749,0,0,1,2.381-.4V58.323a4.309,4.309,0,0,0-1.786.4,4.217,4.217,0,0,1-3.969,0,2.273,2.273,0,0,0-2.249,0,4.217,4.217,0,0,1-3.969,0,2.273,2.273,0,0,0-2.249,0,4.217,4.217,0,0,1-3.969,0,2.273,2.273,0,0,0-2.249,0,4.217,4.217,0,0,1-3.969,0,2.273,2.273,0,0,0-2.249,0,4.217,4.217,0,0,1-3.969,0,2.273,2.273,0,0,0-2.249,0,4.217,4.217,0,0,1-3.969,0,2.273,2.273,0,0,0-2.249,0,4.217,4.217,0,0,1-3.969,0,2.273,2.273,0,0,0-2.249,0,4.217,4.217,0,0,1-3.969,0c-.132-.066-1.058-.463-1.191-.529l-.331,3.043c.794-.463,1.852.2,2.183.4a3.237,3.237,0,0,0,2.712,0,3.8,3.8,0,0,1,3.572,0,3.237,3.237,0,0,0,2.712,0,3.8,3.8,0,0,1,3.572,0,3.237,3.237,0,0,0,2.712,0,3.8,3.8,0,0,1,3.572,0,3.237,3.237,0,0,0,2.712,0,3.8,3.8,0,0,1,3.572,0,3.237,3.237,0,0,0,2.712,0,3.8,3.8,0,0,1,3.572,0,3.237,3.237,0,0,0,2.712,0,3.8,3.8,0,0,1,3.572,0,3.237,3.237,0,0,0,2.712,0C64.8,61.3,65.459,61.167,66.054,61.167Z" transform="translate(-7.379 -19.295)" fill="#105d39"/><path d="M77.6,47.592A.593.593,0,0,1,77,47V25.9a.6.6,0,0,1,1.191,0V47C78.257,47.328,77.992,47.592,77.6,47.592Z" transform="translate(-26.065 -8.564)" fill="#105d39"/><path d="M83.318,43.723H60.7a.611.611,0,0,1-.6-.662.653.653,0,0,1,.6-.661H83.318a.663.663,0,0,1,.661.661A.625.625,0,0,1,83.318,43.723Z" transform="translate(-20.344 -14.353)" fill="#105d39"/><g transform="translate(23.814 44.585)"><g transform="translate(6.412 9.323)"><path d="M55.207,83.151A1.558,1.558,0,1,1,53.751,81.5,1.653,1.653,0,0,1,55.207,83.151Z" transform="translate(-47.86 -81.493)" fill="#105d39"/><path d="M48.807,89.551A1.558,1.558,0,1,1,47.351,87.9,1.555,1.555,0,0,1,48.807,89.551Z" transform="translate(-45.693 -83.66)" fill="#105d39"/></g><path d="M64,83.151A1.558,1.558,0,1,0,65.453,81.5,1.555,1.555,0,0,0,64,83.151Z" transform="translate(-45.476 -72.171)" fill="#105d39"/><path d="M70.3,89.551A1.558,1.558,0,1,0,71.755,87.9,1.6,1.6,0,0,0,70.3,89.551Z" transform="translate(-47.611 -74.337)" fill="#105d39"/><path d="M36.661,84.268a.6.6,0,0,1-.463-.2.639.639,0,0,1,0-.926L51.876,67.6a.639.639,0,0,1,.926,0L68.413,83.21a.655.655,0,1,1-.926.926L52.273,68.988,37.125,84.07A.6.6,0,0,1,36.661,84.268Z" transform="translate(-36 -67.4)" fill="#105d39"/><path d="M49.861,94.57a.6.6,0,0,1-.463-.2.639.639,0,0,1,0-.926l6.88-6.747a.639.639,0,0,1,.926,0l6.88,6.747a.655.655,0,1,1-.926.926l-6.417-6.284-6.417,6.284A.6.6,0,0,1,49.861,94.57Z" transform="translate(-40.468 -73.865)" fill="#105d39"/></g><g transform="translate(8.119 3.969)"><path d="M12.754,32.354A4.026,4.026,0,0,1,14.739,30.7c.132,0,.2,0,.265.132l.2.6c.066.132,0,.2-.132.2a2.742,2.742,0,0,0-1.455,1.125,2.566,2.566,0,0,0,4.432,2.58,3.53,3.53,0,0,0,.463-1.455l-.992-.529-.4.86c-.066.066-.132.132-.265.066l-.529-.265c-.066-.066-.132-.132-.066-.265l.926-1.588c.066-.066.2-.132.265-.066.661.4,1.389.794,2.117,1.191.066,0,.066.066.066.132a4.834,4.834,0,0,1-.661,2.448,3.579,3.579,0,0,1-4.9,1.323A3.487,3.487,0,0,1,12.754,32.354Z" transform="translate(-12.274 -14.361)" fill="#105d39"/><path d="M19.875,24.1a.2.2,0,0,1,0-.265l.463-.463a.2.2,0,0,1,.265,0l4.167,4.1,1.918-1.918a.2.2,0,0,1,.265,0l.4.4a.2.2,0,0,1,0,.265L24.9,28.733a.2.2,0,0,1-.265,0Z" transform="translate(-14.83 -11.865)" fill="#105d39"/><path d="M31.992,13.254a3.586,3.586,0,1,1-1.323,4.9A3.638,3.638,0,0,1,31.992,13.254ZM35.1,18.546a2.533,2.533,0,0,0,.926-3.506A2.564,2.564,0,0,0,31.6,17.62,2.5,2.5,0,0,0,35.1,18.546Z" transform="translate(-18.348 -8.293)" fill="#105d39"/><path d="M44.7,8.293c0-.066.066-.2.132-.2l2.183-.529a1.906,1.906,0,0,1,2.448,1.323,1.92,1.92,0,0,1-.662,1.786,1.8,1.8,0,0,1,1.588,1.257,2.037,2.037,0,0,1-1.654,2.381l-2.249.529c-.132,0-.2-.066-.2-.132Zm2.977,2.183A.977.977,0,0,0,48.4,9.219a.916.916,0,0,0-1.257-.728l-1.323.331.463,2.051Zm.86,2.911a1.082,1.082,0,0,0,.794-1.323,1.157,1.157,0,0,0-1.455-.728l-1.323.331.463,2.051Z" transform="translate(-23.25 -6.507)" fill="#105d39"/><path d="M57.087,12.747l3.241-6.615c0-.066.132-.132.2-.132h.132c.066,0,.132.066.2.132l2.778,6.813c.066.132,0,.265-.2.265h-.6c-.132,0-.2-.066-.2-.132l-.6-1.389-3.241-.066c-.2.463-.463.86-.662,1.323,0,.066-.132.132-.265.132h-.6C57.087,13.012,57.021,12.88,57.087,12.747Zm4.564-1.984L60.527,7.984h-.066L59.138,10.7Z" transform="translate(-27.435 -6)" fill="#105d39"/><path d="M72.586,7.832c0-.066.132-.132.265-.132l.662.2c.066,0,.132.132.132.265l-1.588,5.623,2.58.728c.132,0,.132.132.132.265l-.132.529c0,.066-.132.132-.265.132l-3.44-1.058c-.132,0-.132-.132-.132-.265Z" transform="translate(-32.085 -6.575)" fill="#105d39"/><path d="M88.99,15.552c.066-.066.2-.132.265-.066l.529.4c.066.066.132.2.066.265l-3.7,5.424c-.066.066-.2.132-.265.066l-.529-.4c-.066-.066-.132-.2-.066-.265Z" transform="translate(-36.98 -9.202)" fill="#105d39"/><path d="M95.712,20.144c.066-.132.2-.132.331-.066l.463.529a.243.243,0,0,1,.066.2l-2.051,4.961.066.066,5.094-1.786a.243.243,0,0,1,.2.066l.463.529c.132.132.066.265-.066.331l-6.946,2.381a.243.243,0,0,1-.2-.066l-.066-.066a.243.243,0,0,1-.066-.2Z" transform="translate(-39.6 -10.751)" fill="#105d39"/><path d="M102.6,35.187l1.852-3.638a.187.187,0,0,1,.331,0l.331.661c.066.066,0,.132,0,.2l-1.389,2.778,3.109.4a.231.231,0,0,1,.132.066l.331.661c.066.132,0,.265-.2.265l-4.035-.529-2.778,1.521c-.066.066-.2,0-.265-.066l-.331-.6c-.066-.066,0-.2.066-.265Z" transform="translate(-41.854 -14.615)" fill="#105d39"/></g><g transform="translate(8.903 53.818)"><path d="M19.175,81.986c.066-.066.2,0,.265.066l2.117,3.374c.066.066,0,.2-.066.265l-.529.265c-.066.066-.2,0-.265-.066l-1.654-2.646L17.323,84.3l1.389,2.249c.066.066,0,.2-.066.265l-.463.265c-.066.066-.2,0-.265-.066l-1.389-2.249-1.786,1.191L16.4,88.6c.066.066,0,.2-.066.265l-.463.265c-.066.066-.2,0-.265-.066L13.486,85.69c-.066-.066,0-.2.066-.265Z" transform="translate(-13.459 -81.562)" fill="#105d39"/><path d="M25.507,90.375a.2.2,0,0,1,.265,0l1.654,1.588a3.464,3.464,0,1,1-4.7,5.094l-1.654-1.588a.2.2,0,0,1,0-.265Zm-2.249,5.887a2.528,2.528,0,0,0,3.44-3.7l-.926-.86-3.44,3.638Z" transform="translate(-16.02 -84.394)" fill="#105d39"/><path d="M36.132,98.352c.066-.066.2-.132.265-.066l.6.331c.066.066.132.132.066.265l-1.852,3.638a1.645,1.645,0,1,0,2.911,1.521l1.852-3.638c.066-.066.132-.132.265-.066l.6.331c.066.066.132.132.066.265l-1.918,3.7a2.708,2.708,0,0,1-3.638,1.191,2.671,2.671,0,0,1-1.191-3.638Z" transform="translate(-20.361 -87.079)" fill="#105d39"/><path d="M50.864,103.863a3.338,3.338,0,0,1,2.183,1.389.164.164,0,0,1-.066.265l-.529.331a.164.164,0,0,1-.265-.066,2.855,2.855,0,0,0-1.588-.992,2.557,2.557,0,0,0-.926,5.027,2.653,2.653,0,0,0,1.786-.331c.132-.066.2,0,.265.066l.331.529c.066.066,0,.2-.066.265a3.235,3.235,0,0,1-2.58.463,3.583,3.583,0,0,1-2.844-4.167A3.707,3.707,0,0,1,50.864,103.863Z" transform="translate(-24.641 -88.951)" fill="#105d39"/><path d="M59.488,111.412l2.58-6.88c0-.066.132-.132.132-.132h.132c.066,0,.132.066.2.066l3.506,6.416c.066.132,0,.265-.132.265l-.6.066a.344.344,0,0,1-.265-.132l-.728-1.323-3.241.2c-.2.463-.331.926-.529,1.389,0,.066-.066.132-.2.132l-.6.066C59.488,111.676,59.422,111.544,59.488,111.412Zm4.3-2.381L62.4,106.384h-.066l-.992,2.778Z" transform="translate(-29.032 -89.158)" fill="#105d39"/><path d="M71.718,103.554l-1.521.463c-.132,0-.2,0-.265-.132l-.132-.529a.264.264,0,0,1,.132-.265l4.1-1.191c.132,0,.2,0,.265.132l.132.529a.264.264,0,0,1-.132.265l-1.521.463,1.654,5.557a.264.264,0,0,1-.132.265l-.6.2a.264.264,0,0,1-.265-.132Z" transform="translate(-32.53 -88.312)" fill="#105d39"/><path d="M79.586,100.415c-.066-.066,0-.2.066-.265l.6-.265c.066-.066.2,0,.265.066l2.977,5.887c.066.066,0,.2-.066.265l-.6.265c-.066.066-.2,0-.265-.066Z" transform="translate(-35.834 -87.621)" fill="#105d39"/><path d="M87.641,94.078a3.57,3.57,0,1,1-.463,5.027A3.568,3.568,0,0,1,87.641,94.078Zm3.9,4.763a2.583,2.583,0,0,0-3.307-3.969,2.674,2.674,0,0,0-.331,3.638A2.61,2.61,0,0,0,91.544,98.841Z" transform="translate(-38.134 -85.385)" fill="#105d39"/><path d="M94.652,86.149c-.066-.066-.132-.2-.066-.265l.132-.2,6.549-.86h0l-3.9-2.58c-.066-.066-.132-.2-.066-.265l.331-.529c.066-.066.2-.132.265-.066l5.623,3.638c.066.066.132.2.066.265l-.132.2-6.615.794h0l4.035,2.646c.066.066.132.2.066.265l-.331.529c-.066.066-.2.132-.265.066Z" transform="translate(-40.911 -81.359)" fill="#105d39"/></g></svg>