<svg xmlns="http://www.w3.org/2000/svg" width="73.18mm" height="21.17mm" viewBox="0 0 207.43 60"><defs><style>.cls-1{fill:#105D39;}</style></defs><title>emeritus-logo-complete</title><g id="Layer_2" data-name="Layer 2"><g id="Layer_1-2" data-name="Layer 1"><path class="cls-1" d="M70.29,15.76c.65,0,1.49.11,2.27.11,1.44,0,5.12,0,6.2,0s1.38-.06,1.65-.06c.11,0,.22.16.27.43s.08,1.3.19,1.85c0,.16,0,.4-.11.4s-.16-.08-.3-.38c-.46-1.13-1-1.54-1.46-1.65s-4.19-.11-5.06-.08c-.21,0-.32.08-.32,1.06v6.19c0,.33.08.44.16.44h3.41A4,4,0,0,0,79,23.83a2.39,2.39,0,0,0,.71-1c.08-.19.16-.3.27-.3s.13.14.13.3-.11,1-.16,1.43a9.47,9.47,0,0,0,0,1.52c.08.38-.1.54-.16.54s-.13-.14-.32-.57c-.08-.24-.27-.76-.68-.87a29.36,29.36,0,0,0-5-.16c-.19,0-.21.06-.21.52,0,1.38.08,5.17.08,5.68a1.5,1.5,0,0,0,.7,1.22,6.42,6.42,0,0,0,2.68.27c2.27,0,2.76-.06,3.3-.54a13.33,13.33,0,0,0,1-1.3c.27-.35.38-.46.48-.46s.14.19,0,.49c-.16.62-.46,1.75-.59,2a.54.54,0,0,1-.44.33c-2.87,0-5.92-.11-8.12-.11-.92,0-2.43.13-2.73.13s-.51-.08-.51-.19.19-.16.48-.24a1.49,1.49,0,0,0,1.49-1.7c.14-4.31.14-7.28.14-12.59,0-1.54-.33-1.87-1.3-2.08-.27-.06-.41-.14-.41-.25S70.07,15.76,70.29,15.76Z"/><path class="cls-1" d="M87,15.73c.63,0,2.28.14,3.14.14.11,0,.25.11.35.38,1.17,2.57,5,10.15,6.69,13.34.08.16.13.06.24-.11,1.6-3.06,5-9.74,5.69-11.07.29-.67.65-1.65.81-2.19,0,0,.13-.35.27-.35.76,0,2.19-.16,3-.16.27,0,.43,0,.43.16s-.21.22-.4.24c-1.6.38-1.71.68-1.79,2.28,0,.92-.08,4.16-.08,5.52,0,2.95.11,5.63.16,6.49.11,1.57.41,1.82,1.46,2.14.25.08.44.16.44.3s-.17.16-.49.16c-.51,0-2-.16-2.71-.16-1.11,0-1.84,0-2.24,0s-.57,0-.57-.21.27-.22.54-.25c1.14-.3,1.32-.73,1.41-3,.08-1.47.08-8.72.08-9.94,0-.27-.08-.27-.14-.1-1.81,3.62-5.14,10.12-6.44,13-.14.33-.24.49-.41.49s-.32-.43-.56-1C94.56,29.24,91,21.72,89.94,19.6c-.14-.21-.19-.21-.25.14-.11,1.57-.4,8.61-.4,9.72a6.86,6.86,0,0,0,.16,2,1.57,1.57,0,0,0,1.38,1.08c.3.06.46.17.46.27s-.24.22-.54.19-1.3-.13-2.28-.13-1.7.16-2,.16S86,33,86,32.81s.11-.19.49-.27A2,2,0,0,0,88,31.67a7.62,7.62,0,0,0,.57-2.92c.16-1.59.54-7.6.54-9.33s-.16-2-.62-2.55A2.55,2.55,0,0,0,87,16.14c-.24-.05-.43-.13-.43-.24S86.77,15.73,87,15.73Z"/><path class="cls-1" d="M112.65,15.76c.64,0,1.48.11,2.27.11,1.43,0,5.11,0,6.2,0s1.38-.06,1.65-.06c.11,0,.21.16.27.43a17.83,17.83,0,0,0,.19,1.85c0,.16,0,.4-.11.4s-.16-.08-.3-.38c-.46-1.13-1-1.54-1.46-1.65s-4.2-.11-5.06-.08c-.22,0-.33.08-.33,1.06v6.19c0,.33.09.44.17.44h3.41a4,4,0,0,0,1.81-.19,2.4,2.4,0,0,0,.7-1c.08-.19.17-.3.27-.3s.14.14.14.3-.11,1-.16,1.43a7.58,7.58,0,0,0,0,1.52c.08.38-.11.54-.16.54s-.14-.14-.33-.57c-.08-.24-.27-.76-.67-.87a29.54,29.54,0,0,0-5-.16c-.19,0-.22.06-.22.52,0,1.38.09,5.17.09,5.68a1.5,1.5,0,0,0,.7,1.22,6.38,6.38,0,0,0,2.68.27c2.27,0,2.76-.06,3.3-.54a13.32,13.32,0,0,0,1-1.3c.27-.35.38-.46.49-.46s.14.19,0,.49a21.27,21.27,0,0,1-.6,2c-.11.19-.24.33-.43.33-2.87,0-5.93-.11-8.12-.11-.92,0-2.43.13-2.73.13s-.52-.08-.52-.19.19-.16.49-.24a1.49,1.49,0,0,0,1.49-1.7c.13-4.31.13-7.28.13-12.59,0-1.54-.32-1.87-1.29-2.08-.28-.06-.41-.14-.41-.25S112.43,15.76,112.65,15.76Z"/><path class="cls-1" d="M138.11,16.68a3.86,3.86,0,0,1,1.68,3.25,3.48,3.48,0,0,1-1.54,3,5.47,5.47,0,0,1-1.54.84c-.11.05-.09.22,0,.49.52,1,2.06,3.54,2.93,4.81a17.76,17.76,0,0,0,2,2.47,3,3,0,0,0,2,1c.19,0,.35.08.35.16s-.11.17-.29.22a3.76,3.76,0,0,1-1.25.14A4.72,4.72,0,0,1,138.52,31c-1.19-1.57-3.17-4.87-3.71-5.71-.35-.46-.62-.7-1-.76a4.1,4.1,0,0,0-1.14-.08.35.35,0,0,0-.24.27c-.06.33-.06,3.47,0,4.49a9.43,9.43,0,0,0,.22,2.58c.08.32.29.62,1.24.78.3.05.41.14.41.24s-.22.19-.52.19c-.48,0-1.3-.13-2.3-.13S129.53,33,129,33c-.27,0-.46,0-.46-.19s.16-.19.51-.24c.9-.19,1.17-.43,1.25-1.54.08-1.54.13-3.71.13-7.09,0-3.76-.1-5.47-.16-6.39,0-.76-.08-1.16-1.22-1.35-.24-.06-.46-.11-.46-.25s.17-.16.49-.16,1.17.08,2.11.08c1.14,0,1.87-.13,3.28-.13A5.82,5.82,0,0,1,138.11,16.68Zm-5.49-.32c-.05,0-.14.05-.16.51s-.06,6.17-.06,6.63.11.46.22.46a2.18,2.18,0,0,0,.65.06,8,8,0,0,0,2.87-.6,3.73,3.73,0,0,0,1.51-3.06,4.22,4.22,0,0,0-1.08-3.11,4.07,4.07,0,0,0-3.08-1.08A1.67,1.67,0,0,0,132.62,16.36Z"/><path class="cls-1" d="M148.29,15.76c.89,0,1.49.11,2.3.11s1.73-.11,2.33-.11c.24,0,.4.06.4.14s-.1.21-.4.24c-1.09.16-1.14.57-1.19,1.68-.08,1.35-.06,4.49-.06,6.17,0,4,.06,6.25.11,7.06.08,1,.24,1.22,1,1.41.38.08.46.16.46.3s-.19.16-.51.16-1.11-.08-1.9-.08c-1.35,0-2.14.13-2.65.13-.25,0-.43,0-.43-.19s.13-.16.59-.27c1-.21,1.16-.65,1.19-2.27s0-9,0-10.31a23.65,23.65,0,0,0-.11-2.6c-.11-.89-.38-1-1.3-1.22-.19-.05-.3-.13-.3-.21S148.05,15.76,148.29,15.76Z"/><path class="cls-1" d="M169.48,15.84a4.62,4.62,0,0,0,2.22-.29c.11-.09.19-.11.22-.06a.67.67,0,0,1,0,.35,9.5,9.5,0,0,0-.08,2.06c0,.41-.13.6-.21.6s-.19-.25-.22-.38a2.56,2.56,0,0,0-.49-1.28c-.24-.21-.59-.32-2.49-.32-.84,0-2.19,0-2.62.05-.14,0-.17.25-.17.44,0,1,0,7.3,0,8.44,0,1.52.08,4.87.16,5.71s.38,1.11,1.3,1.38c.33.08.46.14.46.27s-.19.19-.54.19c-.62,0-1.46-.16-2.54-.16-1.38,0-2.2.16-2.63.16s-.49-.11-.49-.24.25-.19.55-.25c1.3-.19,1.46-.62,1.54-1.86.19-2.63.19-13.4.13-13.78s-.1-.32-.19-.32a15.85,15.85,0,0,0-2-.08c-1.1,0-1.75.05-2.3.1s-.86.44-1.24,1.49c-.14.33-.27.46-.38.46s-.11-.21-.08-.4a16.7,16.7,0,0,0,.35-2.33c0-.22,0-.35.16-.41s.14,0,.22.11a1.48,1.48,0,0,0,.87.27c.43,0,3.11.11,5.9.11Z"/><path class="cls-1" d="M181.47,15.79c.3,0,.43.08.43.16s-.21.22-.43.27c-1.38.22-1.32,1.14-1.32,2.41-.06,2.57-.06,6.22,0,7.58a6.58,6.58,0,0,0,1.46,4.52,5.29,5.29,0,0,0,3.81,1.49c3.06,0,5.06-1.57,5.25-6.9.06-1,.08-2.28.08-3.17,0-5.14-.21-5.49-1-5.77a4.56,4.56,0,0,0-.7-.16c-.22,0-.41-.16-.41-.24s.14-.19.43-.19c.57,0,1,.08,1.87.08.6,0,1.3-.08,1.95-.08.3,0,.49.05.49.13s-.14.22-.57.3c-1.09.19-1.14.73-1.22,2-.11,1.65-.11,5.28-.24,7-.17,2.43-.44,4.76-2,6.41a6.52,6.52,0,0,1-4.76,1.76,7.07,7.07,0,0,1-4.22-1.25c-1.66-1.3-2.25-2.89-2.36-6.19C178,23.8,178,19.55,178,18c-.11-1.35-.16-1.51-1.27-1.81-.13-.05-.32-.13-.32-.27s.24-.11.48-.11c.65,0,1.44.11,2.41.11C180.06,15.87,180.85,15.79,181.47,15.79Z"/><path class="cls-1" d="M206.61,15.87a.34.34,0,0,1,.19.3c0,.73.08,1.51.11,1.81s0,.54-.13.54-.19-.13-.25-.43a2.62,2.62,0,0,0-1-1.6,3.8,3.8,0,0,0-2.19-.7,3.28,3.28,0,0,0-3.16,3.33,3.82,3.82,0,0,0,1.92,3.14c1.05.7,1.92,1.32,2.79,1.95a5.13,5.13,0,0,1,2.57,4.3c0,3-2.85,4.82-5.66,4.82a9.1,9.1,0,0,1-3.68-.76.82.82,0,0,1-.46-.73,17,17,0,0,1-.27-2c0-.3,0-.51.13-.51s.19.16.3.54a3.89,3.89,0,0,0,4,3,3.51,3.51,0,0,0,3.57-3.52c0-1.84-1.3-2.87-3.25-4.17s-3.73-2.87-3.73-5.19a4.25,4.25,0,0,1,1.73-3.49,5.67,5.67,0,0,1,3.49-1.09A11.53,11.53,0,0,1,206.61,15.87Z"/><path class="cls-1" d="M83.67,40c.23,0,.38,0,.6,0s.45,0,.6,0S85,40,85,40s0,.06-.11.06c-.28,0-.29.15-.31.44s0,1.18,0,1.62c0,1,0,1.64,0,1.85s.06.32.26.37.12,0,.12.08,0,0-.13,0l-.49,0c-.36,0-.56,0-.69,0s-.12,0-.12,0,0,0,.16-.07.3-.17.31-.59,0-2.37,0-2.7,0-.58,0-.68-.1-.27-.34-.32c0,0-.08,0-.08-.06S83.6,40,83.67,40Z"/><path class="cls-1" d="M86.33,40l.85,0s.06,0,.16.15c.47.6,2.29,2.65,2.93,3.36,0,0,0,0,0,0,0-.26,0-2.21,0-2.84,0-.41-.16-.49-.39-.54-.08,0-.13,0-.13-.07s.06,0,.14,0l.49,0c.2,0,.38,0,.46,0S91,40,91,40s-.06.05-.12.07c-.28.09-.29.24-.32.42s0,1.76,0,2.43,0,1.06,0,1.44c0,.15,0,.22-.06.22a1,1,0,0,1-.24-.26c-.4-.5-2.22-2.59-3.17-3.71,0,0-.06,0-.06,0,0,.24,0,2.56,0,2.89a1.53,1.53,0,0,0,.08.6.55.55,0,0,0,.35.22c.07,0,.12,0,.12.08s-.07,0-.13,0-.32,0-.54,0-.43,0-.49,0-.12,0-.12,0,0-.05.13-.07c.26-.08.34-.13.38-.55s.07-2.52.07-3.09-.06-.47-.12-.51a.66.66,0,0,0-.34-.14c-.1,0-.13,0-.13-.06S86.22,40,86.33,40Z"/><path class="cls-1" d="M94.51,40a.12.12,0,0,1,0,.08,4.45,4.45,0,0,0,0,.48c0,.09,0,.14,0,.14s0,0-.06-.12a.71.71,0,0,0-.27-.41,1,1,0,0,0-.57-.19.86.86,0,0,0-.83.87,1,1,0,0,0,.5.83c.28.18.5.34.73.51a1.34,1.34,0,0,1,.67,1.12,1.37,1.37,0,0,1-1.47,1.27,2.38,2.38,0,0,1-1-.2.21.21,0,0,1-.12-.19,3.45,3.45,0,0,1-.07-.52c0-.08,0-.14,0-.14s.05.05.08.15a1,1,0,0,0,1,.77.93.93,0,0,0,.93-.92c0-.49-.34-.76-.85-1.1s-1-.75-1-1.36a1.11,1.11,0,0,1,.45-.91,1.47,1.47,0,0,1,.91-.29A3.34,3.34,0,0,1,94.51,40Z"/><path class="cls-1" d="M99,40a1.23,1.23,0,0,0,.58-.08s0,0,0,0a.13.13,0,0,1,0,.1,2,2,0,0,0,0,.53c0,.11,0,.16-.06.16s0-.06,0-.1a.63.63,0,0,0-.13-.33c-.06-.06-.16-.09-.65-.09a6.55,6.55,0,0,0-.68,0s0,.06,0,.11c0,.26,0,1.91,0,2.21s0,1.28,0,1.5.1.29.34.36.12,0,.12.07,0,0-.14,0-.38,0-.66,0-.57,0-.69,0-.12,0-.12-.06.06-.05.14-.07c.34-.05.38-.16.4-.49,0-.68,0-3.51,0-3.61s0-.08,0-.08a4,4,0,0,0-.53,0,4.23,4.23,0,0,0-.6,0c-.14,0-.23.11-.33.39,0,.08-.07.12-.1.12s0-.06,0-.11a3.46,3.46,0,0,0,.09-.61c0-.06,0-.09,0-.11l0,0a.33.33,0,0,0,.23.07c.11,0,.81,0,1.54,0Z"/><path class="cls-1" d="M101,40c.23,0,.38,0,.6,0s.45,0,.6,0,.11,0,.11,0,0,.06-.11.06c-.28,0-.29.15-.31.44s0,1.18,0,1.62c0,1,0,1.64,0,1.85s.06.32.26.37.12,0,.12.08,0,0-.13,0l-.49,0c-.36,0-.56,0-.69,0s-.12,0-.12,0,0,0,.16-.07.3-.17.31-.59,0-2.37,0-2.7a6.8,6.8,0,0,0,0-.68c0-.24-.1-.27-.34-.32-.05,0-.08,0-.08-.06S100.89,40,101,40Z"/><path class="cls-1" d="M106.48,40a1.23,1.23,0,0,0,.58-.08s0,0,.06,0a.31.31,0,0,1,0,.1,2,2,0,0,0,0,.53c0,.11,0,.16-.06.16s0-.06-.05-.1a.63.63,0,0,0-.13-.33c-.06-.06-.15-.09-.65-.09a6.55,6.55,0,0,0-.68,0s0,.06,0,.11c0,.26,0,1.91,0,2.21s0,1.28,0,1.5.1.29.34.36.12,0,.12.07,0,0-.14,0-.38,0-.66,0-.57,0-.69,0-.12,0-.12-.06.06-.05.14-.07c.34-.05.38-.16.4-.49,0-.68,0-3.51,0-3.61s0-.08,0-.08a4,4,0,0,0-.53,0,4.23,4.23,0,0,0-.6,0c-.14,0-.23.11-.33.39,0,.08-.07.12-.09.12s0-.06,0-.11a3.52,3.52,0,0,0,.1-.61c0-.06,0-.09,0-.11l0,0a.33.33,0,0,0,.23.07c.11,0,.81,0,1.54,0Z"/><path class="cls-1" d="M109.6,40c.08,0,.12,0,.12,0s-.06.06-.12.07c-.35.06-.34.3-.34.64,0,.67,0,1.63,0,2a1.76,1.76,0,0,0,.38,1.19,1.39,1.39,0,0,0,1,.39c.79,0,1.31-.42,1.36-1.81,0-.27,0-.6,0-.83,0-1.35,0-1.44-.25-1.51l-.18,0c-.06,0-.11,0-.11-.06s0,0,.11,0l.49,0,.51,0c.08,0,.13,0,.13,0s0,.05-.15.07c-.29,0-.3.2-.32.52s0,1.38-.06,1.82a2.67,2.67,0,0,1-.52,1.68,1.69,1.69,0,0,1-1.24.46,1.63,1.63,0,0,1-1.71-2c0-.54,0-1.65,0-2.07s0-.4-.33-.48c0,0-.09,0-.09-.07s.07,0,.13,0,.37,0,.63,0Z"/><path class="cls-1" d="M116.9,40a1.23,1.23,0,0,0,.58-.08s0,0,0,0a.13.13,0,0,1,0,.1,2,2,0,0,0,0,.53c0,.11,0,.16-.06.16s0-.06,0-.1a.63.63,0,0,0-.13-.33c-.06-.06-.16-.09-.65-.09a6.55,6.55,0,0,0-.68,0s0,.06,0,.11c0,.26,0,1.91,0,2.21s0,1.28,0,1.5.1.29.34.36.12,0,.12.07,0,0-.14,0-.38,0-.66,0-.57,0-.69,0-.12,0-.12-.06.06-.05.14-.07c.34-.05.38-.16.4-.49.05-.68.05-3.51,0-3.61s0-.08,0-.08a4,4,0,0,0-.53,0,4.23,4.23,0,0,0-.6,0c-.14,0-.23.11-.33.39,0,.08-.07.12-.1.12s0-.06,0-.11a3.46,3.46,0,0,0,.09-.61c0-.06,0-.09.05-.11l0,0a.33.33,0,0,0,.23.07c.11,0,.81,0,1.54,0Z"/><path class="cls-1" d="M118.86,40c.17,0,.39,0,.59,0h1.62c.26,0,.36,0,.43,0s0,0,.07.12,0,.34.05.48,0,.11,0,.11,0,0-.08-.1c-.12-.3-.25-.41-.38-.44s-1.09,0-1.32,0c0,0-.08,0-.08.28V42c0,.09,0,.12,0,.12h.89a1.1,1.1,0,0,0,.47,0,.77.77,0,0,0,.19-.27c0-.05,0-.08.07-.08s0,0,0,.08,0,.26,0,.37a2.38,2.38,0,0,0,0,.4c0,.1,0,.14,0,.14s0,0-.08-.15-.07-.2-.18-.22a6.45,6.45,0,0,0-1.31-.05s0,0,0,.14c0,.36,0,1.35,0,1.49a.41.41,0,0,0,.18.32,1.71,1.71,0,0,0,.7.07c.59,0,.72,0,.86-.14s.18-.25.26-.34.09-.13.12-.13,0,0,0,.13a4.09,4.09,0,0,1-.16.54.13.13,0,0,1-.11.09c-.75,0-1.54,0-2.11,0l-.72,0c-.09,0-.13,0-.13,0s0,0,.13-.06a.38.38,0,0,0,.38-.45c0-1.12,0-1.9,0-3.29,0-.41-.09-.49-.34-.55-.07,0-.11,0-.11-.06S118.8,40,118.86,40Z"/><path class="cls-1" d="M131.16,42.3a2.28,2.28,0,0,1-1.32,2.08,2.23,2.23,0,0,1-.93.22,2.38,2.38,0,0,1-2.32-2.4,2.19,2.19,0,0,1,.92-1.86,2.29,2.29,0,0,1,3.65,2Zm-3.46-1.77a2.68,2.68,0,0,0-.5,1.64,2.64,2.64,0,0,0,.54,1.57,1.59,1.59,0,0,0,1.29.72,1.16,1.16,0,0,0,.76-.28,2.37,2.37,0,0,0,.77-1.88,2.77,2.77,0,0,0-.6-1.72,1.54,1.54,0,0,0-1.2-.58A1.6,1.6,0,0,0,127.7,40.53Z"/><path class="cls-1" d="M135.19,40c.15,0,.2,0,.2.09s0,.41.05.49,0,.14,0,.14-.05,0-.08-.14a.58.58,0,0,0-.53-.41c-.23,0-.53,0-1.17,0-.05,0-.1.09-.1.13,0,.2,0,1,0,1.83a.09.09,0,0,0,.07.08c.71,0,1,0,1.17,0s.19,0,.3-.28c0-.07.06-.09.08-.09s0,0,0,.1,0,.29,0,.44a2.51,2.51,0,0,0,0,.34c0,.09,0,.12,0,.12s-.06,0-.1-.15-.13-.23-.21-.25a7.34,7.34,0,0,0-1.22,0,.14.14,0,0,0-.08.09c0,.13,0,1.24,0,1.56s.05.31.37.39c.06,0,.1,0,.1.06s-.08,0-.15,0-.4,0-.69,0-.44,0-.54,0-.12,0-.12,0,0-.05.13-.07c.27-.06.3-.12.32-.38s0-1.11,0-1.89,0-1.19,0-1.62c0-.25,0-.32-.29-.38-.06,0-.11,0-.11-.07s0,0,.1,0,.47,0,.78,0Z"/><path class="cls-1" d="M140.08,40l.82,0s.06,0,.09.1c.3.68,1.3,2.66,1.74,3.5,0,0,0,0,.07,0,.41-.8,1.31-2.55,1.48-2.9.07-.18.17-.43.21-.58s0-.09.07-.09c.2,0,.57,0,.77,0s.11,0,.11,0-.06.06-.11.07c-.41.1-.44.17-.46.59,0,.24,0,1.09,0,1.45,0,.77,0,1.47,0,1.7,0,.41.11.48.38.56.06,0,.11,0,.11.08s0,0-.12,0-.52,0-.71,0H144c-.08,0-.15,0-.15,0s.07-.06.14-.07c.3-.08.34-.19.37-.78,0-.38,0-2.28,0-2.6,0-.07,0-.07,0,0-.47.95-1.34,2.65-1.68,3.41,0,.09-.06.13-.1.13s-.09-.11-.15-.25c-.33-.71-1.27-2.69-1.54-3.24,0-.06-.05-.06-.06,0,0,.41-.11,2.25-.11,2.54a1.52,1.52,0,0,0,.05.52.39.39,0,0,0,.35.28c.08,0,.12,0,.12.07s-.06.06-.14,0-.33,0-.59,0-.44,0-.51,0-.13,0-.13,0,0-.05.13-.07a.53.53,0,0,0,.38-.23,2,2,0,0,0,.14-.76c.05-.42.15-2,.15-2.45s-.05-.52-.17-.67a.66.66,0,0,0-.38-.19c-.07,0-.12,0-.12-.06S140,40,140.08,40Z"/><path class="cls-1" d="M148.83,40a2.51,2.51,0,0,0,.19.6c.49,1.32.87,2.28,1.31,3.28.17.42.25.48.42.53s.12,0,.12.06-.06.05-.13.05-.24,0-.61,0-.53,0-.7,0-.12,0-.12,0,.07-.06.14-.07c.28,0,.32-.16.31-.32a13.49,13.49,0,0,0-.49-1.37s-.06-.09-.09-.09c-.27,0-1.16,0-1.31,0s-.08.08-.11.13-.27.68-.37,1-.07.4,0,.48a.56.56,0,0,0,.3.12c.07,0,.11,0,.11.07s-.07,0-.14,0-.43,0-.68,0-.31,0-.48,0-.12,0-.12,0,.07-.05.14-.06c.32-.06.39-.13.66-.72s.82-2,1.23-3.05a.41.41,0,0,0,0-.2.15.15,0,0,1,0-.08.67.67,0,0,0,.26-.37s0-.07.05-.07S148.82,39.93,148.83,40Zm.29,2.34c-.29-.81-.48-1.26-.58-1.5,0-.06,0,0-.06,0-.17.41-.46,1.22-.56,1.51,0,0,0,.07,0,.07h.56a4.83,4.83,0,0,0,.62,0A.15.15,0,0,0,149.12,42.31Z"/><path class="cls-1" d="M152,40l.85,0s.06,0,.16.15c.47.6,2.29,2.65,2.93,3.36,0,0,0,0,0,0,0-.26,0-2.21,0-2.84,0-.41-.15-.49-.38-.54s-.13,0-.13-.07.06,0,.14,0l.49,0c.2,0,.38,0,.46,0s.11,0,.11,0-.06.05-.12.07c-.28.09-.29.24-.32.42s0,1.76,0,2.43,0,1.06,0,1.44c0,.15,0,.22-.06.22s-.12-.1-.24-.26c-.4-.5-2.22-2.59-3.17-3.71,0,0-.06,0-.06,0,0,.24,0,2.56,0,2.89a1.53,1.53,0,0,0,.08.6.55.55,0,0,0,.35.22c.07,0,.12,0,.12.08s-.07,0-.13,0-.32,0-.54,0-.44,0-.49,0-.12,0-.12,0,.06-.05.13-.07c.26-.08.34-.13.38-.55s.07-2.52.07-3.09-.06-.47-.12-.51a.66.66,0,0,0-.34-.14c-.1,0-.14,0-.14-.06S151.91,40,152,40Z"/><path class="cls-1" d="M159.92,40a2.51,2.51,0,0,0,.19.6c.49,1.32.87,2.28,1.31,3.28.17.42.25.48.42.53s.12,0,.12.06-.06.05-.13.05-.24,0-.61,0-.53,0-.7,0-.12,0-.12,0,.07-.06.14-.07c.28,0,.32-.16.31-.32a13.49,13.49,0,0,0-.49-1.37s-.06-.09-.09-.09c-.27,0-1.16,0-1.31,0s-.08.08-.11.13-.27.68-.37,1-.07.4,0,.48a.56.56,0,0,0,.3.12c.07,0,.11,0,.11.07s-.07,0-.14,0-.43,0-.68,0-.31,0-.48,0-.12,0-.12,0,.07-.05.14-.06c.32-.06.39-.13.66-.72s.82-2,1.23-3.05a.41.41,0,0,0,0-.2.15.15,0,0,1,0-.08.67.67,0,0,0,.26-.37s0-.07.05-.07S159.91,39.93,159.92,40Zm.28,2.34c-.28-.81-.47-1.26-.57-1.5,0-.06,0,0-.06,0-.17.41-.46,1.22-.56,1.51,0,0,0,.07,0,.07h.56a4.57,4.57,0,0,0,.61,0A.08.08,0,0,0,160.2,42.31Z"/><path class="cls-1" d="M166.34,40c.18,0,.4.14.48.17a.2.2,0,0,1,.07.17l.07.46c0,.09,0,.13,0,.13s0,0-.08-.11a1.3,1.3,0,0,0-1.36-.84,1.76,1.76,0,0,0-1.3.57,2.51,2.51,0,0,0-.6,1.71,2.4,2.4,0,0,0,.82,1.78,1.73,1.73,0,0,0,1.08.42,1.2,1.2,0,0,0,.79-.3.67.67,0,0,0,.11-.39,5.3,5.3,0,0,0,0-.8c0-.24-.1-.32-.4-.37-.07,0-.13,0-.13-.06s0-.05.18-.05.33,0,.62,0,.39,0,.45,0,.12,0,.12,0-.08.06-.14.08-.16.08-.16.46,0,.79,0,.89,0,.14-.05.17l-.35.17a2.72,2.72,0,0,1-1.06.27,2.61,2.61,0,0,1-1.78-.65,2.14,2.14,0,0,1-.76-1.69,2.24,2.24,0,0,1,.95-1.86,2.48,2.48,0,0,1,1.63-.51A3.22,3.22,0,0,1,166.34,40Z"/><path class="cls-1" d="M168.62,40c.17,0,.39,0,.59,0h1.62c.26,0,.36,0,.43,0s.06,0,.07.12,0,.34,0,.48,0,.11,0,.11,0,0-.08-.1c-.12-.3-.25-.41-.38-.44s-1.09,0-1.32,0c0,0-.08,0-.08.28V42c0,.09,0,.12,0,.12h.89a1.1,1.1,0,0,0,.47,0,.77.77,0,0,0,.19-.27c0-.05,0-.08.07-.08s0,0,0,.08,0,.26,0,.37a2.38,2.38,0,0,0,0,.4c0,.1,0,.14,0,.14s0,0-.08-.15-.07-.2-.18-.22a6.39,6.39,0,0,0-1.3-.05c-.05,0-.06,0-.06.14,0,.36,0,1.35,0,1.49a.41.41,0,0,0,.18.32,1.71,1.71,0,0,0,.7.07c.59,0,.72,0,.86-.14s.19-.25.26-.34.1-.13.12-.13,0,0,0,.13-.12.46-.15.54a.15.15,0,0,1-.12.09c-.75,0-1.54,0-2.11,0l-.72,0c-.09,0-.13,0-.13,0s.05,0,.13-.06a.38.38,0,0,0,.38-.45c0-1.12,0-1.9,0-3.29,0-.41-.08-.49-.34-.55-.07,0-.1,0-.1-.06S168.57,40,168.62,40Z"/><path class="cls-1" d="M173,40l.82,0s.06,0,.09.1c.3.68,1.3,2.66,1.74,3.5,0,0,0,0,.07,0,.41-.8,1.31-2.55,1.48-2.9a4.62,4.62,0,0,0,.21-.58s0-.09.07-.09c.2,0,.57,0,.77,0s.11,0,.11,0-.06.06-.1.07c-.42.1-.45.17-.47.59,0,.24,0,1.09,0,1.45,0,.77,0,1.47,0,1.7,0,.41.11.48.38.56.07,0,.11,0,.11.08s0,0-.12,0-.52,0-.71,0h-.58c-.07,0-.15,0-.15,0s.07-.06.14-.07c.3-.08.35-.19.37-.78,0-.38,0-2.28,0-2.6,0-.07,0-.07,0,0-.47.95-1.34,2.65-1.68,3.41,0,.09-.06.13-.1.13s-.09-.11-.15-.25c-.33-.71-1.27-2.69-1.54-3.24,0-.06-.05-.06-.06,0,0,.41-.11,2.25-.11,2.54a1.52,1.52,0,0,0,.05.52c0,.17.19.25.36.28s.12,0,.12.07-.07.06-.15,0-.33,0-.59,0-.44,0-.51,0-.13,0-.13,0,0-.05.13-.07a.51.51,0,0,0,.38-.23,2.12,2.12,0,0,0,.15-.76c0-.42.14-2,.14-2.45s0-.52-.16-.67a.71.71,0,0,0-.39-.19c-.07,0-.12,0-.12-.06S172.92,40,173,40Z"/><path class="cls-1" d="M179.66,40c.17,0,.39,0,.59,0h1.62c.26,0,.36,0,.43,0s.06,0,.07.12,0,.34,0,.48,0,.11,0,.11,0,0-.08-.1c-.12-.3-.25-.41-.38-.44s-1.09,0-1.32,0c-.05,0-.08,0-.08.28V42c0,.09,0,.12,0,.12h.89a1.1,1.1,0,0,0,.47,0,.66.66,0,0,0,.19-.27c0-.05,0-.08.07-.08s0,0,0,.08,0,.26,0,.37,0,.35,0,.4,0,.14,0,.14,0,0-.08-.15-.07-.2-.18-.22a6.39,6.39,0,0,0-1.3-.05c-.05,0-.06,0-.06.14,0,.36,0,1.35,0,1.49a.41.41,0,0,0,.18.32,1.71,1.71,0,0,0,.7.07c.6,0,.72,0,.86-.14s.19-.25.26-.34.1-.13.12-.13,0,0,0,.13-.12.46-.15.54a.15.15,0,0,1-.12.09c-.75,0-1.54,0-2.11,0l-.72,0c-.09,0-.13,0-.13,0s.05,0,.13-.06a.4.4,0,0,0,.39-.45c0-1.12,0-1.9,0-3.29,0-.41-.08-.49-.34-.55-.07,0-.1,0-.1-.06S179.61,40,179.66,40Z"/><path class="cls-1" d="M183.86,40l.85,0s.06,0,.16.15c.46.6,2.28,2.65,2.93,3.36,0,0,0,0,0,0,0-.26,0-2.21,0-2.84,0-.41-.15-.49-.38-.54-.08,0-.13,0-.13-.07s.06,0,.14,0l.49,0c.2,0,.38,0,.45,0s.12,0,.12,0-.06.05-.12.07c-.28.09-.29.24-.32.42s0,1.76,0,2.43,0,1.06,0,1.44c0,.15,0,.22-.06.22s-.12-.1-.24-.26c-.4-.5-2.22-2.59-3.17-3.71,0,0-.06,0-.06,0,0,.24,0,2.56,0,2.89a1.53,1.53,0,0,0,.08.6c.05.12.23.19.35.22s.12,0,.12.08-.07,0-.13,0-.32,0-.54,0-.44,0-.49,0-.12,0-.12,0,.05-.05.13-.07c.25-.08.34-.13.37-.55s.08-2.52.08-3.09-.06-.47-.13-.51a.63.63,0,0,0-.33-.14c-.1,0-.14,0-.14-.06S183.75,40,183.86,40Z"/><path class="cls-1" d="M192.73,40a1.18,1.18,0,0,0,.57-.08s0,0,.06,0a.22.22,0,0,1,0,.1,2,2,0,0,0,0,.53c0,.11,0,.16-.06.16s0-.06-.06-.1a.63.63,0,0,0-.12-.33c-.07-.06-.16-.09-.65-.09a6.86,6.86,0,0,0-.69,0s0,.06,0,.11c0,.26,0,1.91,0,2.21s0,1.28,0,1.5.1.29.34.36c.08,0,.12,0,.12.07s-.05,0-.14,0-.38,0-.67,0-.57,0-.68,0-.13,0-.13-.06.07-.05.14-.07c.34-.05.38-.16.41-.49,0-.68,0-3.51,0-3.61s0-.08-.05-.08a3.74,3.74,0,0,0-.53,0,4.23,4.23,0,0,0-.6,0c-.13,0-.22.11-.32.39,0,.08-.07.12-.1.12s0-.06,0-.11a4.74,4.74,0,0,0,.09-.61c0-.06,0-.09,0-.11a.09.09,0,0,1,.06,0A.33.33,0,0,0,190,40c.11,0,.81,0,1.53,0Z"/><path class="cls-1" d="M30,60A30,30,0,1,1,60,30,30,30,0,0,1,30,60ZM30,1.06A28.94,28.94,0,1,0,58.94,30,29,29,0,0,0,30,1.06Z"/><path class="cls-1" d="M30,49.87A19.87,19.87,0,1,1,49.87,30,19.9,19.9,0,0,1,30,49.87Zm0-38.68A18.81,18.81,0,1,0,48.81,30,18.83,18.83,0,0,0,30,11.19Z"/><polygon class="cls-1" points="30.44 28.91 29.38 28.91 29.47 10.59 30.53 10.59 30.44 28.91"/><path class="cls-1" d="M29.71,21H16.8a.47.47,0,0,1,0-.94H29.71a.47.47,0,0,1,0,.94Z"/><path class="cls-1" d="M20.43,29.2a.47.47,0,0,1-.47-.47v-6a.47.47,0,0,1,.94,0v6A.47.47,0,0,1,20.43,29.2Z"/><path class="cls-1" d="M17,29.34a.47.47,0,0,1-.47-.47V22.71a.47.47,0,0,1,.94,0v6.16A.47.47,0,0,1,17,29.34Z"/><path class="cls-1" d="M23.9,29.32a.47.47,0,0,1-.47-.47v-6a.47.47,0,0,1,.94,0v6A.47.47,0,0,1,23.9,29.32Z"/><path class="cls-1" d="M27.36,29.32a.47.47,0,0,1-.47-.47v-6a.47.47,0,0,1,.94,0v6A.47.47,0,0,1,27.36,29.32Z"/><path class="cls-1" d="M29.77,23.07H17a.47.47,0,0,1,0-.94H29.77a.47.47,0,0,1,0,.94Z"/><path class="cls-1" d="M16.77,21a.48.48,0,0,1-.27-.09.46.46,0,0,1-.12-.65,17.07,17.07,0,0,1,13.55-7h0a.47.47,0,0,1,0,.94h0a16.35,16.35,0,0,0-12.77,6.57A.48.48,0,0,1,16.77,21Z"/><path class="cls-1" d="M46.24,33a3.28,3.28,0,0,1-1.49-.36,1.79,1.79,0,0,0-1.71,0,3.35,3.35,0,0,1-3,0,1.77,1.77,0,0,0-1.7,0,3.35,3.35,0,0,1-3,0,1.77,1.77,0,0,0-1.7,0,3.35,3.35,0,0,1-3,0,1.77,1.77,0,0,0-1.7,0,3.35,3.35,0,0,1-3,0,1.77,1.77,0,0,0-1.7,0,3.35,3.35,0,0,1-3,0,1.77,1.77,0,0,0-1.7,0,3.35,3.35,0,0,1-3,0,1.77,1.77,0,0,0-1.7,0,3.35,3.35,0,0,1-3,0c-.27-.14-.26-.19-.56-.22l-.47.08-.35-4.27.52-.07a3,3,0,0,1,1.35.4,2.22,2.22,0,0,0,2,0,2.89,2.89,0,0,1,2.68,0,2.22,2.22,0,0,0,2,0,2.89,2.89,0,0,1,2.68,0,2.22,2.22,0,0,0,2,0,2.89,2.89,0,0,1,2.68,0,2.22,2.22,0,0,0,2,0,2.89,2.89,0,0,1,2.68,0,2.22,2.22,0,0,0,2,0,2.89,2.89,0,0,1,2.68,0,2.22,2.22,0,0,0,2,0,2.89,2.89,0,0,1,2.68,0,2.22,2.22,0,0,0,2,0,2.89,2.89,0,0,1,2.68,0,2.22,2.22,0,0,0,2,0,2.92,2.92,0,0,1,1.34-.33h.88l-.14,4.2-.51,0a2.89,2.89,0,0,0-1.08.22A3.31,3.31,0,0,1,46.24,33Zm-2.35-1.64a2.87,2.87,0,0,1,1.34.34,2.22,2.22,0,0,0,2,0,2.94,2.94,0,0,1,1.81-.29l0-2.19a3.24,3.24,0,0,0-1.34.28,3.26,3.26,0,0,1-3,0,1.85,1.85,0,0,0-1.71,0,3.28,3.28,0,0,1-3,0,1.83,1.83,0,0,0-1.7,0,3.28,3.28,0,0,1-3,0,1.83,1.83,0,0,0-1.7,0,3.28,3.28,0,0,1-3,0,1.83,1.83,0,0,0-1.7,0,3.28,3.28,0,0,1-3,0,1.83,1.83,0,0,0-1.7,0,3.28,3.28,0,0,1-3,0,1.83,1.83,0,0,0-1.7,0,3.28,3.28,0,0,1-3,0,1.83,1.83,0,0,0-1.7,0,3.28,3.28,0,0,1-3,0c-.11-.05-.79-.34-.9-.37l-.26,2.26c.57-.35,1.39.17,1.65.31a2.22,2.22,0,0,0,2,0,2.86,2.86,0,0,1,2.68,0,2.22,2.22,0,0,0,2,0,2.89,2.89,0,0,1,2.68,0,2.22,2.22,0,0,0,2,0,2.86,2.86,0,0,1,2.68,0,2.22,2.22,0,0,0,2,0,2.86,2.86,0,0,1,2.68,0,2.22,2.22,0,0,0,2,0,2.89,2.89,0,0,1,2.68,0,2.22,2.22,0,0,0,2,0,2.89,2.89,0,0,1,2.68,0,2.22,2.22,0,0,0,2,0A2.93,2.93,0,0,1,43.89,31.31Z"/><path class="cls-1" d="M38.57,29.19a.45.45,0,0,1-.46-.46V12.94a.46.46,0,1,1,.92,0V28.73A.45.45,0,0,1,38.57,29.19Z"/><path class="cls-1" d="M47.13,22H30.21a.47.47,0,0,1,0-.94H47.13a.47.47,0,0,1,0,.94Z"/><path class="cls-1" d="M28.08,41.57a1.15,1.15,0,0,1-1.22,1.09A1.16,1.16,0,1,1,27,40.35,1.15,1.15,0,0,1,28.08,41.57Z"/><path class="cls-1" d="M24.93,44.72a1.15,1.15,0,0,1-1.22,1.09,1.16,1.16,0,1,1,.13-2.31A1.15,1.15,0,0,1,24.93,44.72Z"/><path class="cls-1" d="M31.66,41.57a1.16,1.16,0,1,0,1.09-1.22A1.15,1.15,0,0,0,31.66,41.57Z"/><path class="cls-1" d="M34.81,44.72A1.15,1.15,0,0,0,36,45.81a1.16,1.16,0,1,0-.13-2.31A1.15,1.15,0,0,0,34.81,44.72Z"/><path class="cls-1" d="M18.32,46a.49.49,0,0,1-.35-.15.48.48,0,0,1,0-.68l11.7-11.67a.49.49,0,0,1,.69,0L42,45.16a.48.48,0,0,1,0,.68.49.49,0,0,1-.69,0L30,34.52,18.66,45.84A.48.48,0,0,1,18.32,46Z"/><path class="cls-1" d="M24.85,48.83a.47.47,0,0,1-.35-.15.48.48,0,0,1,0-.69l5.14-5.05a.5.5,0,0,1,.68,0L35.49,48a.48.48,0,0,1,0,.69.49.49,0,0,1-.69,0L30,44l-4.8,4.72A.51.51,0,0,1,24.85,48.83Z"/><path class="cls-1" d="M6.44,16.42a2.65,2.65,0,0,1,1.5-1.22.14.14,0,0,1,.18.1c.05.15.09.31.14.46s0,.13-.11.16a2,2,0,0,0-1.07.85,1.93,1.93,0,0,0,3.34,1.92,2.56,2.56,0,0,0,.34-1.09L10,17.18l-.36.63a.13.13,0,0,1-.19.06l-.37-.22a.13.13,0,0,1,0-.19l.67-1.17a.14.14,0,0,1,.19,0l1.56.89a.16.16,0,0,1,.07.11,3.66,3.66,0,0,1-.49,1.84,2.67,2.67,0,0,1-4.63-2.67Z"/><path class="cls-1" d="M9.86,12.1a.13.13,0,0,1,0-.19l.35-.35a.13.13,0,0,1,.19,0l3.11,3.07,1.41-1.43a.14.14,0,0,1,.2,0l.29.29a.14.14,0,0,1,0,.2l-1.86,1.88a.13.13,0,0,1-.2,0Z"/><path class="cls-1" d="M16.28,6.67A2.67,2.67,0,1,1,19,11.29a2.67,2.67,0,0,1-2.68-4.62Zm2.31,4A1.92,1.92,0,0,0,19.29,8a1.92,1.92,0,1,0-.7,2.63Z"/><path class="cls-1" d="M22.14,4.31a.15.15,0,0,1,.11-.17l1.61-.39a1.42,1.42,0,0,1,1.82,1,1.42,1.42,0,0,1-.47,1.33,1.32,1.32,0,0,1,1.18,1,1.49,1.49,0,0,1-1.24,1.77l-1.7.4a.14.14,0,0,1-.17-.1ZM24.34,6a.74.74,0,0,0,.56-1A.72.72,0,0,0,24,4.44l-1,.23.36,1.52ZM25,8.12a.79.79,0,0,0,.6-1,.85.85,0,0,0-1.07-.54l-1,.23.37,1.55Z"/><path class="cls-1" d="M28.27,8,30.7,3.07A.18.18,0,0,1,30.83,3h.07a.2.2,0,0,1,.13.08l2.11,5.07a.13.13,0,0,1-.13.19l-.47,0a.17.17,0,0,1-.17-.12l-.43-1L29.51,7.1c-.15.34-.32.67-.48,1a.18.18,0,0,1-.17.11l-.47,0A.13.13,0,0,1,28.27,8Zm3.41-1.47-.85-2.06h0l-1,2Z"/><path class="cls-1" d="M36.38,3.93a.14.14,0,0,1,.18-.09L37,4a.15.15,0,0,1,.1.17l-1.2,4.2,1.93.55a.15.15,0,0,1,.1.18l-.11.39a.15.15,0,0,1-.18.1l-2.54-.73a.14.14,0,0,1-.1-.17Z"/><path class="cls-1" d="M45,7.72a.15.15,0,0,1,.2,0l.4.28a.14.14,0,0,1,0,.19l-2.77,4.06a.15.15,0,0,1-.2,0l-.4-.27a.15.15,0,0,1,0-.2Z"/><path class="cls-1" d="M48.05,10a.12.12,0,0,1,.22,0l.37.38a.14.14,0,0,1,0,.15l-1.55,3.71,0,0,3.8-1.34a.14.14,0,0,1,.14,0l.36.38a.13.13,0,0,1,0,.23l-5.2,1.77a.13.13,0,0,1-.14,0l0,0a.14.14,0,0,1,0-.15Z"/><path class="cls-1" d="M51.5,18.38l1.36-2.7a.14.14,0,0,1,.25,0l.26.48a.13.13,0,0,1,0,.14l-1,2.08,2.31.29a.13.13,0,0,1,.11.07l.26.49a.14.14,0,0,1-.13.21l-3-.38-2.09,1.12a.16.16,0,0,1-.19-.06l-.23-.43a.14.14,0,0,1,.06-.19Z"/><path class="cls-1" d="M10.91,40.57a.16.16,0,0,1,.2,0l1.57,2.52a.13.13,0,0,1,0,.19l-.35.22a.14.14,0,0,1-.2,0l-1.24-2-1.29.8,1,1.68a.16.16,0,0,1,0,.2l-.35.22a.16.16,0,0,1-.2-.05L9,42.69l-1.35.85,1.24,2a.13.13,0,0,1,0,.19l-.35.22a.14.14,0,0,1-.19,0L6.7,43.37a.14.14,0,0,1,0-.19Z"/><path class="cls-1" d="M13.77,44.75a.15.15,0,0,1,.2,0l1.25,1.17a2.6,2.6,0,1,1-3.55,3.8l-1.25-1.17a.14.14,0,0,1,0-.19Zm-1.69,4.37a1.89,1.89,0,0,0,2.58-2.77l-.72-.67-2.58,2.77Z"/><path class="cls-1" d="M18.44,48.71a.16.16,0,0,1,.19-.06l.45.23a.13.13,0,0,1,.06.18L17.75,51.8A1.24,1.24,0,1,0,20,52.93l1.4-2.74a.14.14,0,0,1,.19-.06l.44.22a.14.14,0,0,1,.06.19l-1.41,2.78A2,2,0,0,1,17,51.49Z"/><path class="cls-1" d="M26.29,51.42a2.55,2.55,0,0,1,1.62,1,.14.14,0,0,1,0,.21l-.38.26a.11.11,0,0,1-.18,0,2,2,0,0,0-1.17-.74A1.9,1.9,0,0,0,24,53.68a1.88,1.88,0,0,0,1.47,2.24,1.94,1.94,0,0,0,1.34-.23.13.13,0,0,1,.18,0l.27.39c.05.06,0,.15-.05.2a2.53,2.53,0,0,1-1.9.35,2.67,2.67,0,1,1,1-5.24Z"/><path class="cls-1" d="M29.43,56.92l1.92-5.14a.15.15,0,0,1,.12-.09h.07a.17.17,0,0,1,.13.07l2.61,4.83a.13.13,0,0,1-.11.2l-.47,0a.17.17,0,0,1-.17-.1l-.54-1-2.42.17c-.12.35-.25.69-.38,1.05a.18.18,0,0,1-.16.12l-.46,0A.13.13,0,0,1,29.43,56.92Zm3.24-1.81-1.06-2h0l-.76,2.09Z"/><path class="cls-1" d="M36,51.68,34.84,52a.13.13,0,0,1-.17-.1l-.12-.39a.13.13,0,0,1,.09-.18l3.06-.91a.13.13,0,0,1,.17.09l.12.4a.13.13,0,0,1-.09.17l-1.16.35L38,55.64a.15.15,0,0,1-.1.17l-.47.14a.14.14,0,0,1-.17-.09Z"/><path class="cls-1" d="M39.4,49.81a.15.15,0,0,1,.06-.19l.44-.22a.15.15,0,0,1,.19.06l2.21,4.39a.14.14,0,0,1-.06.19l-.44.22a.15.15,0,0,1-.19-.07Z"/><path class="cls-1" d="M43.69,46.79a2.67,2.67,0,1,1-.33,3.76A2.67,2.67,0,0,1,43.69,46.79Zm3,3.53a1.93,1.93,0,0,0,.25-2.71,1.93,1.93,0,1,0-3,2.47A1.93,1.93,0,0,0,46.64,50.32Z"/><path class="cls-1" d="M46.88,43.87a.14.14,0,0,1,0-.19l.11-.16,4.87-.67h0l-2.94-1.92a.13.13,0,0,1,0-.19l.26-.4a.16.16,0,0,1,.2,0L53.48,43a.13.13,0,0,1,0,.19l-.11.17-5,.61h0l3,2a.14.14,0,0,1,0,.2l-.25.39a.15.15,0,0,1-.2,0Z"/></g></g></svg>