<svg xmlns="http://www.w3.org/2000/svg" width="350.003" height="350" viewBox="0 0 350.003 350"><g transform="translate(-158.323 -78.717)"><path d="M333.318,78.717A175,175,0,0,1,365.473,81.7L349.4,167.7a87.516,87.516,0,0,0-16.078-1.49Z" fill="#005a94" fill-rule="evenodd"/><path d="M365.474,81.7A174.99,174.99,0,0,1,482.1,161.59L407.71,207.651A87.5,87.5,0,0,0,349.4,167.705Z" fill="#ba2044" fill-rule="evenodd"/><path d="M482.1,161.589A174.993,174.993,0,0,1,438.777,393.36l-52.73-69.824A87.5,87.5,0,0,0,407.71,207.651Z" fill="#323272" fill-rule="evenodd"/><path d="M438.776,393.361a174.995,174.995,0,0,1-279.706-123.5l87.124-8.073a87.5,87.5,0,0,0,139.853,61.751Z" fill="#354294" fill-rule="evenodd"/><path d="M159.07,269.859a174.992,174.992,0,0,1,34.6-121.6l69.825,52.728a87.492,87.492,0,0,0-17.3,60.8Z" fill="#047fbe" fill-rule="evenodd"/><path d="M193.669,148.254A174.993,174.993,0,0,1,333.318,78.717v87.5a87.5,87.5,0,0,0-69.824,34.768Z" fill="#28b1e6" fill-rule="evenodd"/><text transform="translate(336.405 127.968)" fill="#fff" font-size="14" font-family="Roboto-Medium, Roboto" font-weight="500"><tspan x="0" y="0">3</tspan></text><text transform="translate(344.189 127.968)" fill="#fff" font-size="14" font-family="Roboto-Medium, Roboto" font-weight="500"><tspan x="0" y="0">%</tspan></text><text transform="translate(394.785 150.382)" fill="#fff" font-size="14" font-family="Roboto-Medium, Roboto" font-weight="500"><tspan x="0" y="0">1</tspan></text><text transform="translate(402.569 150.382)" fill="#fff" font-size="14" font-family="Roboto-Medium, Roboto" font-weight="500"><tspan x="0" y="0">3</tspan></text><text transform="translate(410.354 150.382)" fill="#fff" font-size="14" font-family="Roboto-Medium, Roboto" font-weight="500"><tspan x="0" y="0">%</tspan></text><text transform="translate(449.624 282.78)" fill="#fff" font-size="14" font-family="Roboto-Medium, Roboto" font-weight="500"><tspan x="0" y="0">2</tspan></text><text transform="translate(457.407 282.78)" fill="#fff" font-size="14" font-family="Roboto-Medium, Roboto" font-weight="500"><tspan x="0" y="0">3</tspan></text><text transform="translate(465.191 282.78)" fill="#fff" font-size="14" font-family="Roboto-Medium, Roboto" font-weight="500"><tspan x="0" y="0">%</tspan></text><text transform="translate(267.595 378.722)" fill="#fff" font-size="14" font-family="Roboto-Medium, Roboto" font-weight="500"><tspan x="0" y="0">3</tspan></text><text transform="translate(275.379 378.722)" fill="#fff" font-size="14" font-family="Roboto-Medium, Roboto" font-weight="500"><tspan x="0" y="0">4</tspan></text><text transform="translate(283.163 378.722)" fill="#fff" font-size="14" font-family="Roboto-Medium, Roboto" font-weight="500"><tspan x="0" y="0">%</tspan></text><text transform="translate(194.376 222.748)" fill="#fff" font-size="14" font-family="Roboto-Medium, Roboto" font-weight="500"><tspan x="0" y="0">1</tspan></text><text transform="translate(202.159 222.748)" fill="#fff" font-size="14" font-family="Roboto-Medium, Roboto" font-weight="500"><tspan x="0" y="0">2</tspan></text><text transform="translate(209.943 222.748)" fill="#fff" font-size="14" font-family="Roboto-Medium, Roboto" font-weight="500"><tspan x="0" y="0">%</tspan></text><text transform="translate(262.107 141.17)" fill="#fff" font-size="14" font-family="Roboto-Medium, Roboto" font-weight="500"><tspan x="0" y="0">1</tspan></text><text transform="translate(269.891 141.17)" fill="#fff" font-size="14" font-family="Roboto-Medium, Roboto" font-weight="500"><tspan x="0" y="0">5</tspan></text><text transform="translate(277.675 141.17)" fill="#fff" font-size="14" font-family="Roboto-Medium, Roboto" font-weight="500"><tspan x="0" y="0">%</tspan></text></g></svg>