<svg xmlns="http://www.w3.org/2000/svg" width="350" height="349.997" viewBox="0 0 350 349.997">
  <g id="Grupo_4233" data-name="Grupo 4233" transform="translate(0)">
    <path id="Trazado_6873" data-name="Trazado 6873" d="M342.235,2479.357a174.918,174.918,0,0,1,32.155,2.98l-16.077,86.006a87.51,87.51,0,0,0-16.078-1.489Z" transform="translate(-167.241 -2479.357)" fill="#3c3b52" fill-rule="evenodd"/>
    <path id="Trazado_6874" data-name="Trazado 6874" d="M374.39,2482.337a175,175,0,0,1,116.628,79.891l-74.391,46.061a87.5,87.5,0,0,0-58.314-39.945Z" transform="translate(-167.241 -2479.357)" fill="#ab388d" fill-rule="evenodd"/>
    <path id="Trazado_6875" data-name="Trazado 6875" d="M491.018,2562.228A174.993,174.993,0,0,1,447.692,2794l-52.728-69.824a87.5,87.5,0,0,0,21.663-115.885Z" transform="translate(-167.241 -2479.357)" fill="#23b3e8" fill-rule="evenodd"/>
    <path id="Trazado_6876" data-name="Trazado 6876" d="M447.693,2794a174.994,174.994,0,0,1-279.7-123.5l87.123-8.073a87.5,87.5,0,0,0,139.852,61.75Z" transform="translate(-167.241 -2479.357)" fill="#d5244c" fill-rule="evenodd"/>
    <path id="Trazado_6877" data-name="Trazado 6877" d="M167.988,2670.5a175,175,0,0,1,34.6-121.6l69.823,52.729a87.5,87.5,0,0,0-17.3,60.8Z" transform="translate(-167.241 -2479.357)" fill="#0c7ec1" fill-rule="evenodd"/>
    <path id="Trazado_6878" data-name="Trazado 6878" d="M202.587,2548.893a175,175,0,0,1,139.648-69.536v87.5a87.494,87.494,0,0,0-69.823,34.768Z" transform="translate(-167.241 -2479.357)" fill="#6a3d94" fill-rule="evenodd"/>
    <text id="_3_" data-name="3%" transform="translate(176.081 49.251)" fill="#fff" font-size="16" font-family="Arial-BoldMT, Arial" font-weight="700"><tspan x="0" y="0">3%</tspan></text>
    <text id="_13_" data-name="13%" transform="translate(236.456 71.66)" fill="#fff" font-size="16" font-family="Arial-BoldMT, Arial" font-weight="700"><tspan x="0" y="0">13%</tspan></text>
    <text id="_23_" data-name="23%" transform="translate(291.296 204.059)" fill="#fff" font-size="16" font-family="Arial-BoldMT, Arial" font-weight="700"><tspan x="0" y="0">23%</tspan></text>
    <text id="_34_" data-name="34%" transform="translate(109.275 299.999)" fill="#fff" font-size="16" font-family="Arial-BoldMT, Arial" font-weight="700"><tspan x="0" y="0">34%</tspan></text>
    <text id="_12_" data-name="12%" transform="translate(36.052 144.025)" fill="#fff" font-size="16" font-family="Arial-BoldMT, Arial" font-weight="700"><tspan x="0" y="0">12%</tspan></text>
    <text id="_15_" data-name="15%" transform="translate(103.784 62.453)" fill="#fff" font-size="16" font-family="Arial-BoldMT, Arial" font-weight="700"><tspan x="0" y="0">15%</tspan></text>
  </g>
</svg>
