<svg xmlns="http://www.w3.org/2000/svg" width="60.015" height="60.015" viewBox="0 0 60.015 60.015"><g transform="translate(-99 -673)"><g transform="translate(99 673)" fill="none" stroke="#d9d9d9" stroke-width="3"><circle cx="30.008" cy="30.008" r="30.008" stroke="none"/><circle cx="30.008" cy="30.008" r="28.508" fill="none"/></g><path d="M11.9,28.635a12.1,12.1,0,0,0,5.95,1.75v1.33a.862.862,0,1,0,1.715,0V30.28a6.777,6.777,0,0,0,6.37-7.105c0-3.5-2.1-5.775-6.37-6.51V8.615a8.847,8.847,0,0,1,3.01.91,1.727,1.727,0,0,0,.805.21,1.363,1.363,0,0,0,.56-2.59,10.93,10.93,0,0,0-4.375-1.3V4.485a.862.862,0,1,0-1.715,0V5.85a6.612,6.612,0,0,0-6.3,6.9c0,3.43,2.1,5.74,6.3,6.51v8.4a10.134,10.134,0,0,1-4.515-1.47,1.727,1.727,0,0,0-.8-.21,1.342,1.342,0,0,0-1.365,1.435A1.385,1.385,0,0,0,11.9,28.635Zm5.95-12.285c-2.59-.63-3.43-1.925-3.43-3.85a3.721,3.721,0,0,1,3.43-3.885Zm1.715,11.2V19.57c2.555.595,3.5,1.89,3.5,3.78A3.957,3.957,0,0,1,19.563,27.55Z" transform="translate(111 684)" fill="#d9d9d9"/></g></svg>