<svg xmlns="http://www.w3.org/2000/svg" width="72.926" height="77.001" viewBox="0 0 72.926 77.001"><g transform="translate(-265.134 -2181.863)"><path d="M336.567,2255.88h-3.308v-47.915a4.045,4.045,0,0,0-4.036-4.036h-7.379a4.045,4.045,0,0,0-4.036,4.036v47.915h-8.39v-26.218a4.045,4.045,0,0,0-4.036-4.036H298a4.045,4.045,0,0,0-4.036,4.036v26.218h-8.389v-13.593a4.045,4.045,0,0,0-4.036-4.037H274.17a4.045,4.045,0,0,0-4.037,4.037v13.593h-3.507a1.49,1.49,0,0,0-1.492,1.486v.006a1.516,1.516,0,0,0,1.492,1.492h69.941a1.493,1.493,0,0,0,0-2.986Z" fill="#005ba8"/><path d="M333.259,2183.438a1.355,1.355,0,0,0-.444-1.129,1.487,1.487,0,0,0-1.124-.444h-9.2a1.49,1.49,0,0,0-1.492,1.486v.006a1.515,1.515,0,0,0,1.492,1.492H328.1l-14.886,14.891-5.608-5.614a1.461,1.461,0,0,0-2.066-.03l-.031.03-27.024,27.066a1.486,1.486,0,0,0-.036,2.1l.036.037a1.537,1.537,0,0,0,1.05.444,1.469,1.469,0,0,0,1.049-.444l25.976-25.976,5.606,5.606a1.486,1.486,0,0,0,2.1.036l.037-.036,15.931-15.931v5.081a1.493,1.493,0,0,0,2.985,0v-8.592C333.259,2183.478,333.259,2183.478,333.259,2183.438Z" fill="#005ba8"/></g></svg>