<svg xmlns="http://www.w3.org/2000/svg" width="41.282" height="69.74" viewBox="0 0 41.282 69.74"><path d="M30.02,60.12l1.6-10.48c4.48,1.28,6.24,2.56,6.24,5.36C37.86,58.2,35.14,59.88,30.02,60.12Zm3.2-49.6L32.1,17.88H30.18c-12.4,0-19.12,6.16-19.12,15.44,0,9.6,8.24,13.2,15.36,15.12L24.66,59.32a39.347,39.347,0,0,1-12.08-4.24L10.26,65.64a37.658,37.658,0,0,0,12.8,4.08l-1.44,9.04h5.44l1.36-8.56h1.04c13.12,0,20.48-6.72,20.48-16.24,0-9.6-8-12.96-15.68-15.12l.8-4.96c.4-2.48.8-4.96.72-4.96a37.789,37.789,0,0,1,10.64,3.84L48.9,22.28a33.224,33.224,0,0,0-11.44-3.84l1.2-7.92ZM30.5,27.88l-1.6,9.84c-3.76-1.2-5.68-2.64-5.68-5.12C23.22,29.64,25.38,27.96,30.5,27.88Z" transform="translate(-9.408 -9.77)" fill="none" stroke="#43a2da" stroke-width="1.5"/></svg>