<svg xmlns="http://www.w3.org/2000/svg" width="109.128" height="82.098" viewBox="0 0 109.128 82.098"><g transform="translate(0.75 0.749)"><path d="M-13997.144-2046.4a4.868,4.868,0,0,1-4.856-4.856,4.866,4.866,0,0,1,4.856-4.853h7.711a12,12,0,0,1-6.418-10.6v-48.311a12.054,12.054,0,0,1,11.976-11.976h71.3a12,12,0,0,1,11.976,11.976v48.23a11.946,11.946,0,0,1-6.381,10.683h7.759a4.865,4.865,0,0,1,4.853,4.853,4.868,4.868,0,0,1-4.853,4.856Zm84.565-14.323a6.062,6.062,0,0,0,6.068-6.051v-48.248a6.06,6.06,0,0,0-6.055-6.069h-71.311a6.06,6.06,0,0,0-6.068,6.051v48.248a6.06,6.06,0,0,0,6.055,6.069h30.562c.214-8.365,2.762-24.827,19.464-25.248h.65c16.785.422,19.333,16.883,19.547,25.248Zm-54.91-25.01a15.435,15.435,0,0,1-15.371-15.5,15.431,15.431,0,0,1,15.5-15.371,15.437,15.437,0,0,1,15.37,15.5,14.973,14.973,0,0,1-.974,5.422c.085.081.085.162.165.242l2.267,4.772a1.057,1.057,0,0,1,.053.555,1.019,1.019,0,0,1-1.184.819l-5.18-.489h-.165a15.44,15.44,0,0,1-10.42,4.048Zm5.784-15.37a1.86,1.86,0,0,0,1.862,1.859,1.884,1.884,0,0,0,1.862-1.859,1.864,1.864,0,0,0-1.862-1.862A1.861,1.861,0,0,0-13961.7-2101.1Zm-7.443,0a1.86,1.86,0,0,0,1.859,1.859h0a1.878,1.878,0,0,0,1.859-1.859,1.861,1.861,0,0,0-1.862-1.862A1.861,1.861,0,0,0-13969.147-2101.1Zm-7.446,0a1.86,1.86,0,0,0,1.862,1.859,1.883,1.883,0,0,0,1.862-1.859,1.863,1.863,0,0,0-1.862-1.862A1.861,1.861,0,0,0-13976.594-2101.1Zm29.7.081a13.351,13.351,0,0,1,13.35-13.353,13.352,13.352,0,0,1,13.354,13.353,13.351,13.351,0,0,1-13.354,13.35A13.35,13.35,0,0,1-13946.89-2101.023Z" transform="translate(14002 2127)" fill="none" stroke="#43a2da" stroke-width="1.5"/></g></svg>