<svg xmlns="http://www.w3.org/2000/svg" width="77.182" height="77" viewBox="0 0 77.182 77"><g transform="translate(25.517 -2188.94)"><circle cx="6.728" cy="6.728" r="6.728" transform="translate(6.346 2188.941)" fill="#005ba8"/><path d="M15.664,2204.032H10.528a9.3,9.3,0,0,0-9.134,9.471v1.573c0,.725.273,1.546,1.091,1.546H23.664c.818,0,1.09-.819,1.09-1.546v-1.448A9.374,9.374,0,0,0,15.664,2204.032Z" fill="#005ba8"/><path d="M-16.109,2233.623a1.368,1.368,0,0,0,1.364-1.364,27.8,27.8,0,0,1,10.409-21.722,1.286,1.286,0,0,0,.272-1.773c-.045-.045-.091-.091-.091-.136a1.353,1.353,0,0,0-1.864-.183,30.662,30.662,0,0,0-11.408,23.814A1.359,1.359,0,0,0-16.109,2233.623Z" fill="#005ba8"/><path d="M21.936,2258.625h0a28.668,28.668,0,0,1-17.682,0,1.3,1.3,0,0,0-1.659.8c-.008.022-.015.045-.022.068v.044a1.408,1.408,0,0,0,.91,1.682,32.592,32.592,0,0,0,9.591,1.545,29.765,29.765,0,0,0,9.773-1.637,1.357,1.357,0,0,0,.591-1.818A1.437,1.437,0,0,0,21.936,2258.625Z" fill="#005ba8"/><path d="M29.074,2209.578h0a27.742,27.742,0,0,1,11.773,22.682,1.367,1.367,0,0,0,1.364,1.364,1.34,1.34,0,0,0,1.365-1.314v-.05a30.783,30.783,0,0,0-12.911-24.951,1.408,1.408,0,0,0-1.863.363A1.366,1.366,0,0,0,29.074,2209.578Z" fill="#005ba8"/><circle cx="6.728" cy="6.728" r="6.728" transform="translate(-20.564 2238.26)" fill="#005ba8"/><path d="M-11.245,2253.351h-5.136a9.333,9.333,0,0,0-9.134,9.5v1.545c0,.725.272,1.546,1.091,1.546H-3.245c.818,0,1.09-.819,1.09-1.546v-1.448A9.4,9.4,0,0,0-11.245,2253.351Z" fill="#005ba8"/><circle cx="6.728" cy="6.728" r="6.728" transform="translate(33.255 2238.26)" fill="#005ba8"/><path d="M42.573,2253.351H37.437a9.332,9.332,0,0,0-9.136,9.5v1.545c0,.725.272,1.546,1.09,1.546H50.573c.818,0,1.09-.819,1.09-1.546v-1.448A9.4,9.4,0,0,0,42.573,2253.351Z" fill="#005ba8"/></g></svg>