<svg xmlns="http://www.w3.org/2000/svg" width="93.174" height="93.175" viewBox="0 0 93.174 93.175"><path d="M-6901.917-9842.283a45.8,45.8,0,0,1-17.939-3.622,45.958,45.958,0,0,1-14.649-9.877,45.926,45.926,0,0,1-9.877-14.65,45.8,45.8,0,0,1-3.622-17.938,45.8,45.8,0,0,1,3.622-17.938,45.926,45.926,0,0,1,9.877-14.65,45.918,45.918,0,0,1,14.649-9.876,45.8,45.8,0,0,1,17.939-3.622,45.8,45.8,0,0,1,17.939,3.622,45.912,45.912,0,0,1,14.649,9.876,45.928,45.928,0,0,1,9.877,14.65,45.8,45.8,0,0,1,3.622,17.938,45.8,45.8,0,0,1-3.622,17.938,45.928,45.928,0,0,1-9.877,14.65,45.936,45.936,0,0,1-14.649,9.877A45.8,45.8,0,0,1-6901.917-9842.283Zm-5.363-22.6v2.939a2.3,2.3,0,0,0,2.351,2.3h6.393a2.329,2.329,0,0,0,2.351-2.3h-.012v-2.939Zm5.375-39.7a14.469,14.469,0,0,0-14.216,11.878,13.494,13.494,0,0,0,3.528,11.1,19.66,19.66,0,0,1,5.215,13.018v1.149h11.08v-1.149a18.189,18.189,0,0,1,4.961-12.9,13.343,13.343,0,0,0,3.782-9.316C-6887.553-9898.4-6893.991-9904.582-6901.9-9904.582Zm24.875,15.06a1.282,1.282,0,0,0-1.279,1.281,1.281,1.281,0,0,0,1.279,1.279h3.834a1.281,1.281,0,0,0,1.279-1.279,1.282,1.282,0,0,0-1.279-1.281Zm-53.607,0a1.282,1.282,0,0,0-1.279,1.281,1.281,1.281,0,0,0,1.279,1.279h3.832a1.281,1.281,0,0,0,1.279-1.279,1.282,1.282,0,0,0-1.279-1.281Zm48.973-19.554a1.278,1.278,0,0,0-.9.363l-2.6,2.508a1.285,1.285,0,0,0-.394.919,1.278,1.278,0,0,0,.377.921,1.3,1.3,0,0,0,.915.379,1.291,1.291,0,0,0,.9-.358l2.6-2.506a1.276,1.276,0,0,0,.4-.921,1.272,1.272,0,0,0-.382-.924A1.273,1.273,0,0,0-6881.664-9909.076Zm-40.554-.013a1.284,1.284,0,0,0-.909.376,1.283,1.283,0,0,0-.385.928,1.284,1.284,0,0,0,.4.922l2.6,2.506a1.3,1.3,0,0,0,.9.359,1.281,1.281,0,0,0,.913-.377,1.279,1.279,0,0,0,.378-.924,1.283,1.283,0,0,0-.4-.919l-2.6-2.508A1.278,1.278,0,0,0-6922.217-9909.089Zm20.3-8.009a1.305,1.305,0,0,0-1.3,1.3v3.516a1.305,1.305,0,0,0,1.3,1.3,1.305,1.305,0,0,0,1.3-1.3v-3.516A1.305,1.305,0,0,0-6901.922-9917.1Z" transform="translate(6948.504 9934.959)" fill="#005ba8" stroke="rgba(0,0,0,0)" stroke-width="1"/></svg>