<?xml version="1.0" encoding="utf-8"?>
<!-- Generator: Adobe Illustrator 23.0.1, SVG Export Plug-In . SVG Version: 6.00 Build 0)  -->
<svg version="1.1" id="Layer_1" xmlns="http://www.w3.org/2000/svg" xmlns:xlink="http://www.w3.org/1999/xlink" x="0px" y="0px"
	 viewBox="0 0 93.3 93.3" style="enable-background:new 0 0 93.3 93.3;" xml:space="preserve">
<style type="text/css">
	.st0{fill:#005BA8;}
</style>
<g>
	<path class="st0" d="M40.8,38.5L40.8,38.5C40.8,38.5,40.8,38.5,40.8,38.5c-0.6,0-1,0.4-1,1c0,0.5,0.4,0.9,1,0.9
		c0.5,0,0.9-0.4,0.9-0.9C41.8,38.9,41.3,38.5,40.8,38.5z"/>
	<path class="st0" d="M33.3,38.5C33.3,38.5,33.3,38.5,33.3,38.5c-0.6,0-1,0.4-1,1c0,0.5,0.4,0.9,1,0.9c0.5,0,0.9-0.4,0.9-0.9
		C34.3,38.9,33.9,38.5,33.3,38.5z"/>
	<path class="st0" d="M37.1,38.5c-0.5,0-0.9,0.4-0.9,0.9c0,0.5,0.4,0.9,0.9,1c0.5,0,0.9-0.4,0.9-0.9C38,38.9,37.6,38.5,37.1,38.5z"
		/>
	<path class="st0" d="M46.7,0C20.9,0,0,20.9,0,46.7c0,25.8,20.9,46.7,46.7,46.7c25.8,0,46.7-20.9,46.7-46.7C93.3,20.9,72.4,0,46.7,0
		z M71.2,66.9H22.1c-1.3,0-2.4-1.1-2.4-2.4c0-1.3,1-2.5,2.4-2.5H26c-2-1-3.2-3.1-3.2-5.3V32.5c0-3.3,2.7-6,6-6h35.8c3.3,0,6,2.7,6,6
		v24.2c0,2.2-1.2,4.3-3.2,5.4h3.9v0c1.3,0,2.4,1.1,2.4,2.4C73.6,65.7,72.6,66.9,71.2,66.9z"/>
	<path class="st0" d="M67.6,32.5c0-1.7-1.4-3-3-3H28.8c-1.7,0-3,1.4-3,3v0l0,24.2c0,1.7,1.4,3,3,3h15.3c0.1-4.2,1.4-12.5,9.8-12.7
		h0.3c8.4,0.2,9.7,8.5,9.8,12.7h0.5c1.7,0,3-1.4,3-3V32.5z M44.9,45.4l-2.6-0.2h-0.1c-1.4,1.3-3.3,2-5.3,2l0,0c0,0,0,0,0,0
		c-4.3,0-7.7-3.5-7.7-7.8c0-4.3,3.5-7.7,7.8-7.7c4.3,0,7.7,3.5,7.7,7.8c0,0.9-0.2,1.9-0.5,2.7c0,0,0,0.1,0.1,0.1l1.1,2.4
		c0,0.1,0,0.2,0,0.3C45.5,45.2,45.2,45.4,44.9,45.4z M54,46.2c-3.7,0-6.7-3-6.7-6.7c0-3.7,3-6.7,6.7-6.7s6.7,3,6.7,6.7
		C60.7,43.2,57.7,46.2,54,46.2z"/>
</g>
</svg>
