<svg xmlns="http://www.w3.org/2000/svg" width="60.015" height="60.015" viewBox="0 0 60.015 60.015"><g transform="translate(-99 -673)"><g transform="translate(99 673)" fill="none" stroke="#d9d9d9" stroke-width="3"><circle cx="30.008" cy="30.008" r="30.008" stroke="none"/><circle cx="30.008" cy="30.008" r="28.508" fill="none"/></g><path d="M18.583.922a16.434,16.434,0,0,1,8.477,2.29A17.131,17.131,0,0,1,33.246,9.4a16.434,16.434,0,0,1,2.29,8.477,16.434,16.434,0,0,1-2.29,8.477,17.131,17.131,0,0,1-6.187,6.187,16.434,16.434,0,0,1-8.477,2.29,16.434,16.434,0,0,1-8.477-2.29A17.131,17.131,0,0,1,3.92,26.352a16.434,16.434,0,0,1-2.29-8.477A16.434,16.434,0,0,1,3.92,9.4a17.131,17.131,0,0,1,6.187-6.187A16.434,16.434,0,0,1,18.583.922Zm0,30.625A13.267,13.267,0,0,0,25.419,29.7a13.787,13.787,0,0,0,4.99-4.99,13.582,13.582,0,0,0,0-13.672,13.787,13.787,0,0,0-4.99-4.99,13.582,13.582,0,0,0-13.672,0,13.787,13.787,0,0,0-4.99,4.99,13.582,13.582,0,0,0,0,13.672,13.787,13.787,0,0,0,4.99,4.99A13.267,13.267,0,0,0,18.583,31.547Zm4.238-7.109a.74.74,0,0,0,.615.137.875.875,0,0,0,.547-.342l1.23-1.777a.85.85,0,0,0,.171-.615.749.749,0,0,0-.308-.547L20.5,18.012V8.3a.817.817,0,0,0-.82-.82H17.489a.817.817,0,0,0-.82.82V19.516a.842.842,0,0,0,.342.684Z" transform="translate(111 684)" fill="#d9d9d9"/></g></svg>