<svg xmlns="http://www.w3.org/2000/svg" width="93.174" height="93.172" viewBox="0 0 93.174 93.172"><path d="M-6914.832-9842.219a45.748,45.748,0,0,1-17.938-3.623,45.9,45.9,0,0,1-14.65-9.875,45.926,45.926,0,0,1-9.876-14.648,45.794,45.794,0,0,1-3.622-17.939,45.794,45.794,0,0,1,3.622-17.939,45.926,45.926,0,0,1,9.876-14.648,45.9,45.9,0,0,1,14.65-9.875,45.748,45.748,0,0,1,17.938-3.623,45.748,45.748,0,0,1,17.938,3.623,45.9,45.9,0,0,1,14.65,9.875,45.926,45.926,0,0,1,9.876,14.648,45.794,45.794,0,0,1,3.622,17.939,45.794,45.794,0,0,1-3.622,17.939,45.926,45.926,0,0,1-9.876,14.648,45.9,45.9,0,0,1-14.65,9.875A45.748,45.748,0,0,1-6914.832-9842.219Zm14.775-47.777a2.578,2.578,0,0,0-2.572,2.578v16.76a2.577,2.577,0,0,0,2.572,2.576h6.359a2.579,2.579,0,0,0,2.577-2.576v-16.76A2.58,2.58,0,0,0-6893.7-9890Zm-17.489-10.426a2.731,2.731,0,0,0-2.729,2.725v26.887a2.731,2.731,0,0,0,2.729,2.729h6.051a2.731,2.731,0,0,0,2.729-2.729V-9897.7a2.731,2.731,0,0,0-2.729-2.725Zm-17.676-8.967a2.7,2.7,0,0,0-2.7,2.7v35.9a2.7,2.7,0,0,0,2.7,2.7h6.111a2.7,2.7,0,0,0,2.7-2.7v-35.9a2.7,2.7,0,0,0-2.7-2.7Z" transform="translate(6961.419 9934.891)" fill="#003972" stroke="rgba(0,0,0,0)" stroke-width="1"/></svg>