<svg xmlns="http://www.w3.org/2000/svg" width="60.015" height="60.015" viewBox="0 0 60.015 60.015"><g transform="translate(-99 -673)"><g transform="translate(99 673)" fill="none" stroke="#d9d9d9" stroke-width="3"><circle cx="30.008" cy="30.008" r="30.008" stroke="none"/><circle cx="30.008" cy="30.008" r="28.508" fill="none"/></g><path d="M35.057,19.037a1.65,1.65,0,0,0,0-2.324L23.573,5.229a1.641,1.641,0,0,0-2.8,1.162v6.563h-9.3a1.634,1.634,0,0,0-1.641,1.641v6.563A1.634,1.634,0,0,0,11.473,22.8h9.3v6.563a1.643,1.643,0,0,0,2.8,1.162ZM14.208,30.18a.817.817,0,0,1-.82.82H7.645A6.329,6.329,0,0,1,3,29.086a6.329,6.329,0,0,1-1.914-4.648V11.313A6.329,6.329,0,0,1,3,6.664,6.329,6.329,0,0,1,7.645,4.75h5.742a.817.817,0,0,1,.82.82V8.3a.817.817,0,0,1-.82.82H7.645a2.218,2.218,0,0,0-2.187,2.188V24.438a2.218,2.218,0,0,0,2.188,2.188h5.742a.817.817,0,0,1,.82.82Z" transform="translate(110 686)" fill="#d9d9d9"/></g></svg>