<svg xmlns="http://www.w3.org/2000/svg" width="81.5" height="81.5" viewBox="0 0 81.5 81.5"><g transform="translate(0.75 0.75)"><path d="M74.526,60A40.045,40.045,0,0,1,60,74.526a39.275,39.275,0,0,1-40,0A40.045,40.045,0,0,1,5.474,60a39.275,39.275,0,0,1,0-40A40.045,40.045,0,0,1,20,5.474a39.275,39.275,0,0,1,40,0A40.045,40.045,0,0,1,74.526,20a39.275,39.275,0,0,1,0,40ZM12,56.211A33.29,33.29,0,0,0,23.789,68a31.93,31.93,0,0,0,32.421,0A31.681,31.681,0,0,0,68,56.211a31.93,31.93,0,0,0,0-32.421A33.29,33.29,0,0,0,56.211,12,30.575,30.575,0,0,0,40,7.789a31.278,31.278,0,0,0-16.211,4.421A32.726,32.726,0,0,0,12,23.789,30.575,30.575,0,0,0,7.789,40,33.221,33.221,0,0,0,12,56.211ZM60.632,40.421a3.571,3.571,0,0,1-1.895,3.368L30.316,60a3.158,3.158,0,0,1-3.789,0,3.794,3.794,0,0,1-1.895-3.368V23.158a3.571,3.571,0,0,1,1.895-3.368,3.158,3.158,0,0,1,3.789,0L58.737,37.053A3.794,3.794,0,0,1,60.632,40.421Z" fill="none" stroke="#43a2da" stroke-width="1.5"/></g></svg>