<svg xmlns="http://www.w3.org/2000/svg" width="81.403" height="82.9" viewBox="0 0 81.403 82.9"><g transform="translate(0.75 0.75)"><path d="M25.8,21.6v2.3a1.367,1.367,0,0,0,1.4,1.4h4.9a8.173,8.173,0,0,1,3.4-5.2H27.2A1.524,1.524,0,0,0,25.8,21.6Z" fill="none" stroke="#43a2da" stroke-width="1.5"/><path d="M27.3,14H69.6A1.367,1.367,0,0,0,71,12.6V10.3a1.367,1.367,0,0,0-1.4-1.4H27.3a1.367,1.367,0,0,0-1.4,1.4v2.3A1.312,1.312,0,0,0,27.3,14Z" fill="none" stroke="#43a2da" stroke-width="1.5"/><path d="M32,26.6c0-.4.1-.9.1-1.3H27.2a1.367,1.367,0,0,1-1.4-1.4V21.6a1.367,1.367,0,0,1,1.4-1.4h8.3A7.749,7.749,0,0,1,40,18.8H74.8a7.79,7.79,0,0,1,3.1.6V8.1a7.92,7.92,0,0,0-8-8.1H26.1A8.066,8.066,0,0,0,18,8.1V28.5H31.7ZM25.8,10.3a1.367,1.367,0,0,1,1.4-1.4H69.5a1.367,1.367,0,0,1,1.4,1.4v2.3A1.367,1.367,0,0,1,69.5,14H27.3a1.367,1.367,0,0,1-1.4-1.4V10.3Z" fill="none" stroke="#43a2da" stroke-width="1.5"/><path d="M74.9,21.7H40.1A5.121,5.121,0,0,0,35,26.8l-.7,4.7H8.3A8.28,8.28,0,0,0,0,39.8V73.1a8.28,8.28,0,0,0,8.3,8.3H71.6a8.28,8.28,0,0,0,8.3-8.3V26.9A5,5,0,0,0,74.9,21.7Z" fill="none" stroke="#43a2da" stroke-width="1.5"/></g></svg>