<svg xmlns="http://www.w3.org/2000/svg" width="117.936" height="81.5" viewBox="0 0 117.936 81.5"><g transform="translate(0.75 0.75)"><g transform="translate(0 20.119)"><ellipse cx="11.01" cy="11.01" rx="11.01" ry="11.01" transform="translate(9.109)" fill="none" stroke="#43a2da" stroke-width="1.5"/><path d="M40.317,74.9A20.206,20.206,0,0,0,21.7,54.786C9.9,53.914,0,63.657,0,75.459v15.6a.341.341,0,0,0,.317.317H40.079a.341.341,0,0,0,.317-.317V74.9Z" transform="translate(0 -31.499)" fill="none" stroke="#43a2da" stroke-width="1.5"/><g transform="translate(76.04)"><ellipse cx="11.01" cy="11.01" rx="11.01" ry="11.01" transform="translate(9.109)" fill="none" stroke="#43a2da" stroke-width="1.5"/><path d="M136.317,74.919a20.113,20.113,0,0,0-21.941-20.04C103.762,55.751,96,65.335,96,75.949V91.157a.253.253,0,0,0,.238.238h39.921a.253.253,0,0,0,.238-.238V74.919Z" transform="translate(-96 -31.513)" fill="none" stroke="#43a2da" stroke-width="1.5"/></g></g><g transform="translate(31.482)"><g transform="translate(11.924 11.01)"><path d="M-666.148-2087.822a31.311,31.311,0,0,0-3.089-.871,1.473,1.473,0,0,1-.64-.342,4.929,4.929,0,0,1-1.341.184h-28.356a4.8,4.8,0,0,1-4.831-4.832v-5.385h22.811a5.391,5.391,0,0,0,5.386-5.386v-8.555h5.069a4.734,4.734,0,0,1,4.753,4.832v14.494a5.009,5.009,0,0,1-.026.506l1.768,3.614a1.271,1.271,0,0,1-1.143,1.8A1.23,1.23,0,0,1-666.148-2087.822Z" transform="translate(704.406 2113.01)" fill="none" stroke="#43a2da" stroke-width="1.5"/></g><path d="M73.69,0H45.333a4.259,4.259,0,0,0-4.277,4.277V18.693a.6.6,0,0,0-.158.317l-1.109,3.96a1,1,0,0,0,1.267,1.188L44.3,23.049h.079a4.636,4.636,0,0,0,1.03.158H73.769a4.259,4.259,0,0,0,4.277-4.277V4.277A4.379,4.379,0,0,0,73.69,0ZM49.927,13.624a2.693,2.693,0,1,1,2.693-2.693A2.722,2.722,0,0,1,49.927,13.624Zm9.9,0a2.693,2.693,0,1,1,2.693-2.693A2.722,2.722,0,0,1,59.828,13.624Zm9.03,0a2.693,2.693,0,1,1,2.693-2.693A2.671,2.671,0,0,1,68.858,13.624Z" transform="translate(-39.746)" fill="none" stroke="#43a2da" stroke-width="1.5"/></g></g></svg>