<svg xmlns="http://www.w3.org/2000/svg" width="93.175" height="93.176" viewBox="0 0 93.175 93.176"><path d="M-7041.625-9842.412a45.8,45.8,0,0,1-17.939-3.622,45.936,45.936,0,0,1-14.649-9.877,45.928,45.928,0,0,1-9.877-14.65,45.8,45.8,0,0,1-3.622-17.938,45.8,45.8,0,0,1,3.622-17.939,45.928,45.928,0,0,1,9.877-14.65,45.944,45.944,0,0,1,14.649-9.876,45.8,45.8,0,0,1,17.939-3.622,45.8,45.8,0,0,1,17.939,3.622,45.924,45.924,0,0,1,14.649,9.876,45.941,45.941,0,0,1,9.877,14.65,45.8,45.8,0,0,1,3.622,17.939,45.8,45.8,0,0,1-3.622,17.938,45.941,45.941,0,0,1-9.877,14.65,45.938,45.938,0,0,1-14.649,9.877A45.8,45.8,0,0,1-7041.625-9842.412Zm-13.047-48.27h0l16.963,21.6a2.429,2.429,0,0,0,1.885.927c.038,0,.075,0,.115,0a2.428,2.428,0,0,0,1.922-1.067l17.139-25.4,4.007,2.705,1.015-14.493-13.057,6.365,4.009,2.705-15.274,22.636-16.934-21.551a2.44,2.44,0,0,0-1.937-.928h-.043a2.438,2.438,0,0,0-1.922,1.039l-16.834,24.175a2.43,2.43,0,0,0,.606,3.379,2.409,2.409,0,0,0,1.386.436,2.436,2.436,0,0,0,1.995-1.042l14.958-21.48Z" transform="translate(7088.212 9935.089)" fill="#005ba8" stroke="rgba(0,0,0,0)" stroke-width="1"/></svg>