<svg xmlns="http://www.w3.org/2000/svg" width="118.46" height="62.511" viewBox="0 0 118.46 62.511"><g transform="translate(0 0)"><rect width="5.977" height="38.408" transform="translate(40.443 0.565)" fill="red"/><path d="M203.572,34.147v-12h11.686v-5.28H203.572V6.4h12.286V1.12H197.59V39.533h18.722V34.147Z" transform="translate(-97.852 -0.555)" fill="red"/><path d="M177.9,35.66h.01l-.02-.01Z" transform="translate(-88.096 -17.655)" fill="red"/><path d="M177.9,35.66h.01l-.02-.01Z" transform="translate(-88.096 -17.655)" fill="red"/><path d="M155.3,21.483l.914.5.742.394c3.443,1.807,5.553,3.079,5.553,6.2,0,5.048-4.543,5.588-6.481,5.588a17.755,17.755,0,0,1-7.289-1.863L146.7,31.3V38.4l1.085.273a37.463,37.463,0,0,0,8.056.868c6.269,0,12.968-2.978,12.968-11.332,0-5.714-2.913-8-6.426-10.191h0l-4.326-2.408c-4.164-2.186-5.608-3.089-5.608-6.012,0-2.615,2.07-4.306,5.27-4.306a17.194,17.194,0,0,1,7.067,1.878l2.019.939V1.126L165.7.863A30.772,30.772,0,0,0,158.453,0C151.194,0,146.5,4.038,146.5,10.252c0,6.451,4.477,8.879,8.8,11.226" transform="translate(-72.551 0)" fill="red"/><path d="M122.792,34.147H110.047v-12h11.686v-5.28H110.047V6.4h12.3V1.12H104.07V39.533h18.722Z" transform="translate(-51.538 -0.555)" fill="red"/><path d="M44.88,57.728a16.824,16.824,0,0,0,2.807-1.312V37.8H44.88Z" transform="translate(-22.226 -18.72)" fill="red"/><path d="M53.81,55.285a17.294,17.294,0,0,0,2.7-2.554V37.8h-2.7Z" transform="translate(-26.648 -18.72)" fill="red"/><path d="M35.32,58.683a17.12,17.12,0,0,0,3.12-.449V37.8H35.32Z" transform="translate(-17.491 -18.72)" fill="red"/><path d="M62.53,50.344a17.6,17.6,0,0,0,2.489-9.051V37.76H62.53Z" transform="translate(-30.966 -18.7)" fill="red"/><rect width="2.776" height="17.672" transform="translate(13.346 0)" fill="red"/><rect width="2.701" height="17.672" transform="translate(8.945 0)" fill="red"/><rect width="2.807" height="17.672" transform="translate(4.437 0)" fill="red"/><path d="M3.345,0h-.58A2.156,2.156,0,0,0,.64,2.176V17.667H3.345Z" transform="translate(-0.317 0)" fill="red"/><path d="M0,38.163v3.155A17.237,17.237,0,0,0,16.122,58.683V37.8H0Zm8.5,1.948a2.781,2.781,0,1,1-2.725,2.836c0-.018,0-.037,0-.055A2.756,2.756,0,0,1,8.5,40.112m0,7.425a2.781,2.781,0,1,1-2.725,2.836c0-.018,0-.037,0-.055a2.751,2.751,0,0,1,2.72-2.781H8.5" transform="translate(0 -18.72)" fill="red"/><path d="M49.418,0H35.32V17.667H51.543V2.176A2.156,2.156,0,0,0,49.418,0M43.008,15.143a2.781,2.781,0,1,1,2.72-2.841c0,.02,0,.04,0,.06a2.751,2.751,0,0,1-2.72,2.781h0m0-7.324a2.751,2.751,0,0,1-2.726-2.771,2.723,2.723,0,1,1,5.447,0,2.751,2.751,0,0,1-2.72,2.781h0" transform="translate(-17.491 0)" fill="red"/><path d="M93.68,111.776a1.514,1.514,0,0,0-1.434.782v-.707H91.54v4.462h.707v-2.706a1.176,1.176,0,0,1,1.133-1.218,1.078,1.078,0,0,1,.114,0c.717,0,1.05.348,1.05,1.136v2.786h.707v-2.736c0-1.3-.646-1.8-1.57-1.8" transform="translate(-45.333 -55.353)" fill="red"/><rect width="0.707" height="4.457" transform="translate(51.154 56.499)" fill="red"/><path d="M83.961,112.39c0,1.514-.58,1.888-1.555,1.888s-1.469-.5-1.469-1.777v-3.786H80.2v3.872a2.034,2.034,0,0,0,2.191,2.3,2.117,2.117,0,0,0,2.312-2.4V108.71h-.742Z" transform="translate(-39.717 -53.836)" fill="red"/><path d="M101.539,108.23a.469.469,0,1,0,.469.469.474.474,0,0,0-.469-.469" transform="translate(-50.052 -53.598)" fill="red"/><path d="M106.37,115.675l-1.323-3.745h-.767l1.62,4.462h.9l1.6-4.462h-.732Z" transform="translate(-51.642 -55.431)" fill="red"/><path d="M200.07,115.675l-1.322-3.745h-.767l1.62,4.462h.9l1.605-4.462h-.732Z" transform="translate(-98.045 -55.431)" fill="red"/><path d="M182.587,113.728l-2.968-5.038h-.959v6.1h.707v-5.229l3.079,5.229h.848v-6.1h-.707Z" transform="translate(-88.477 -53.826)" fill="red"/><path d="M191.654,111.78a1.561,1.561,0,0,0-1.767,1.388h.707c.066-.545.409-.8,1.01-.8s.954.3.954,1.01v.323h-.641c-1.141,0-2.236.348-2.236,1.383,0,.914.656,1.312,1.484,1.312a1.61,1.61,0,0,0,1.388-.636v.56h.707v-2.943a1.439,1.439,0,0,0-1.63-1.6m.924,2.978c0,.692-.57,1.075-1.322,1.075-.621,0-.843-.293-.843-.752,0-.656.656-.878,1.555-.878h.616Z" transform="translate(-93.934 -55.356)" fill="red"/><path d="M147.425,115.13l-1.363-3.2H145.3l1.752,4-.848,2.009h.717l2.463-6.012h-.722Z" transform="translate(-71.956 -55.431)" fill="red"/><path d="M168.581,109.1v.727h-.641v.6h.641v3.862h.707v-3.862h1.09v-.6h-1.09v-.8c0-.454.187-.767.646-.767a1.394,1.394,0,0,1,.5.1v-.6a1.433,1.433,0,0,0-.5-.086c-.888,0-1.328.5-1.328,1.434" transform="translate(-83.168 -53.321)" fill="red"/><path d="M160.567,111.78a2.155,2.155,0,0,0-2.194,2.117c0,.053,0,.107,0,.16v.071a2.191,2.191,0,0,0,4.381.006v-.072a2.145,2.145,0,0,0-2.02-2.263c-.057,0-.114,0-.171,0m1.459,2.347a1.473,1.473,0,1,1-2.918,0v-.071a1.492,1.492,0,0,1,1.459-1.691c.893,0,1.459.666,1.459,1.7Z" transform="translate(-78.431 -55.356)" fill="red"/><path d="M229.534,111.78a1.562,1.562,0,0,0-1.767,1.388h.707c.066-.545.409-.8,1.01-.8s.954.3.954,1.01v.323h-.631c-1.146,0-2.236.348-2.236,1.383,0,.914.656,1.312,1.484,1.312a1.61,1.61,0,0,0,1.393-.636v.56h.707v-2.943a1.439,1.439,0,0,0-1.63-1.6m.924,2.978c0,.692-.57,1.075-1.323,1.075-.621,0-.843-.293-.843-.752,0-.656.656-.878,1.555-.878h.616Z" transform="translate(-112.699 -55.356)" fill="red"/><path d="M223.087,112.657v-.8h-.707v4.462h.707v-2.448c0-1.1.57-1.383,1.469-1.423v-.666a1.555,1.555,0,0,0-1.469.878" transform="translate(-110.128 -55.355)" fill="red"/><path d="M217.077,112.657v-.8h-.707v4.462h.707v-2.448c0-1.1.57-1.383,1.469-1.423v-.666a1.555,1.555,0,0,0-1.469.878" transform="translate(-107.152 -55.355)" fill="red"/><path d="M208.784,111.78a1.561,1.561,0,0,0-1.767,1.388h.707c.071-.545.409-.8,1.01-.8s.954.3.954,1.01v.323h-.641c-1.141,0-2.236.348-2.236,1.383,0,.914.656,1.312,1.484,1.312a1.61,1.61,0,0,0,1.388-.636v.56h.707v-2.943a1.439,1.439,0,0,0-1.63-1.6m.924,2.978c0,.692-.57,1.075-1.323,1.075-.621,0-.843-.293-.843-.752,0-.656.656-.878,1.555-.878h.616Z" transform="translate(-102.418 -55.356)" fill="red"/><path d="M141.018,114.216v-2.68h1.04v-.6h-1.04v-1.01h-.707v1.01h-.641v.6h.641v2.746a1.08,1.08,0,0,0,1.2,1.176,1.7,1.7,0,0,0,.606-.091v-.6a1.468,1.468,0,0,1-.545.1c-.358,0-.555-.212-.555-.651" transform="translate(-69.168 -54.44)" fill="red"/><rect width="0.707" height="4.457" transform="translate(69.003 56.499)" fill="red"/><path d="M123.692,112.657v-.8H123v4.462h.707v-2.448c0-1.1.57-1.383,1.469-1.423v-.666a1.555,1.555,0,0,0-1.469.878" transform="translate(-60.913 -55.355)" fill="red"/><path d="M115.133,111.78a2.1,2.1,0,0,0-2.09,2.287v.071a2.1,2.1,0,0,0,1.921,2.256,2.138,2.138,0,0,0,.235.006,1.719,1.719,0,0,0,1.9-1.363H116.4c-.1.5-.5.777-1.186.777-.914,0-1.4-.565-1.434-1.58h3.362v-.227a1.951,1.951,0,0,0-2.019-2.216m-1.333,1.878a1.338,1.338,0,0,1,1.333-1.287c.732,0,1.211.368,1.282,1.287Z" transform="translate(-55.979 -55.356)" fill="red"/><path d="M129.977,113.713c-.818-.146-1.04-.308-1.04-.707s.333-.641.843-.641a.838.838,0,0,1,.939.7h.681a1.422,1.422,0,0,0-1.61-1.287,1.389,1.389,0,0,0-1.514,1.252c0,.828.394,1.1,1.55,1.312.692.126,1.04.283,1.04.752s-.3.707-.974.707-1.01-.333-1.05-.863h-.692c.04.914.681,1.449,1.747,1.449s1.635-.545,1.635-1.353c0-.949-.646-1.151-1.57-1.322" transform="translate(-63.463 -55.356)" fill="red"/><path d="M136.919,108.23a.469.469,0,1,0,.469.469h0a.474.474,0,0,0-.469-.469" transform="translate(-67.574 -53.598)" fill="red"/><path d="M224.968,92.247v-.086a2.807,2.807,0,0,0-5.6-.337,2.875,2.875,0,0,0,0,.337v.086a2.807,2.807,0,0,0,5.6.337,2.882,2.882,0,0,0,0-.337m-4.669,0v-.076c0-1.307.722-2.16,1.868-2.16s1.868.853,1.868,2.171v.076a1.886,1.886,0,1,1-3.735,0" transform="translate(-108.633 -44.168)" fill="red"/><path d="M212.348,92.162a2.807,2.807,0,0,0-5.6-.337,2.882,2.882,0,0,0,0,.337v.086a2.807,2.807,0,0,0,5.6.337,2.875,2.875,0,0,0,0-.337Zm-.939.1a1.886,1.886,0,1,1-3.735,0v-.086c0-1.307.722-2.16,1.868-2.16s1.868.853,1.868,2.171Z" transform="translate(-102.383 -44.168)" fill="red"/><path d="M106.816,94.484c-.919,0-1.277-.424-1.343-1.1h-.883c.056,1.166.873,1.853,2.236,1.853s2.095-.7,2.095-1.731c0-1.211-.828-1.474-2.019-1.691-1.05-.187-1.333-.394-1.333-.9s.424-.818,1.08-.818a1.073,1.073,0,0,1,1.2.893h.873a1.819,1.819,0,0,0-2.059-1.646,1.773,1.773,0,0,0-1.928,1.6c0,1.055.5,1.408,1.984,1.681.883.162,1.333.358,1.333.959s-.384.9-1.242.9" transform="translate(-51.796 -44.243)" fill="red"/><rect width="0.914" height="8.43" transform="translate(117.547 42.462)" fill="red"/><path d="M115.736,84.79a.449.449,0,1,1-.005.01" transform="translate(-57.015 -41.99)" fill="red"/><path d="M137.375,92.167a2.506,2.506,0,0,0-2.564-2.837,2.682,2.682,0,0,0-2.67,2.923v.086a2.679,2.679,0,0,0,2.761,2.887,2.2,2.2,0,0,0,2.433-1.747h-.9c-.121.666-.631,1.01-1.514,1.01-1.166,0-1.787-.722-1.832-2.019h4.3Zm-4.265-.434a1.715,1.715,0,0,1,1.7-1.651c.929,0,1.55.469,1.635,1.651Z" transform="translate(-65.439 -44.239)" fill="red"/><rect width="0.904" height="5.704" transform="translate(58.281 45.187)" fill="red"/><path d="M83.875,89.08a1.6,1.6,0,0,0,1.176-1.646v-.045c0-1.514-1.055-2.019-2.524-2.019H80.2v7.8h2.67c1.56,0,2.564-.707,2.564-2.181v-.045a1.718,1.718,0,0,0-1.56-1.868m-2.766-2.963h1.413c1.09,0,1.605.358,1.605,1.242V87.4c0,.959-.434,1.373-1.58,1.373H81.109Zm3.382,4.866c0,.949-.5,1.449-1.661,1.449H81.109V89.514h1.6c1.252,0,1.787.459,1.787,1.418Z" transform="translate(-39.717 -42.277)" fill="red"/><path d="M174.984,90.869c0-1.474-.914-2.019-2.65-2.271-1.6-.242-1.878-.631-1.878-1.4s.555-1.267,1.625-1.267,1.646.4,1.832,1.383h.848a2.368,2.368,0,0,0-2.68-2.145,2.277,2.277,0,0,0-2.524,2.115c0,1.388.969,1.9,2.6,2.15,1.484.237,1.888.611,1.888,1.514a1.576,1.576,0,0,1-1.777,1.474c-1.57,0-1.943-.787-2.059-1.711H169.3c.141,1.333.893,2.473,2.978,2.473a2.466,2.466,0,0,0,2.69-2.3" transform="translate(-83.842 -42.178)" fill="red"/><path d="M158.266,93.494c0-1.211-.828-1.474-2.019-1.691-1.05-.187-1.333-.394-1.333-.9s.424-.818,1.08-.818a1.072,1.072,0,0,1,1.2.893h.873a1.819,1.819,0,0,0-2.059-1.646,1.773,1.773,0,0,0-1.928,1.6c0,1.055.5,1.408,1.984,1.681.883.162,1.333.358,1.333.959s-.384.9-1.242.9a1.168,1.168,0,0,1-1.343-1.1h-.883c.056,1.166.873,1.853,2.236,1.853s2.095-.7,2.095-1.731" transform="translate(-76.23 -44.239)" fill="red"/><path d="M125.24,95.127v-3.5c0-1.656-.828-2.3-2.019-2.3a1.964,1.964,0,0,0-1.832,1.01v-.914H120.5v5.7h.9V91.684a1.514,1.514,0,0,1,1.466-1.561c.043,0,.086,0,.129,0,.919,0,1.343.449,1.343,1.449v3.569Z" transform="translate(-59.675 -44.235)" fill="red"/><path d="M148.331,93.494c0-1.211-.828-1.474-2.019-1.691-1.05-.187-1.333-.394-1.333-.9s.424-.818,1.08-.818a1.072,1.072,0,0,1,1.2.893h.873a1.819,1.819,0,0,0-2.059-1.646,1.773,1.773,0,0,0-1.928,1.6c0,1.055.5,1.408,1.984,1.681.883.162,1.333.358,1.333.959s-.384.9-1.242.9a1.168,1.168,0,0,1-1.343-1.1H144c.056,1.166.873,1.853,2.236,1.853s2.095-.7,2.095-1.731" transform="translate(-71.313 -44.239)" fill="red"/><path d="M198.941,88.986v3.569h.9v-3.5c0-1.656-.828-2.3-2.019-2.3a1.958,1.958,0,0,0-1.832,1.01V84.12H195.1v8.43h.9V89.107a1.515,1.515,0,0,1,1.451-1.575c.04,0,.079,0,.119,0,.919,0,1.343.449,1.343,1.449" transform="translate(-96.619 -41.658)" fill="red"/><path d="M97.684,95.224v-5.7h-.9v3.458a1.514,1.514,0,0,1-1.467,1.56c-.034,0-.068,0-.1,0-.893,0-1.323-.449-1.323-1.449V89.52H93v3.609c0,1.57.848,2.191,1.984,2.191A1.948,1.948,0,0,0,96.8,94.31v.9Z" transform="translate(-46.056 -44.333)" fill="red"/><path d="M187.644,93.056h-.838a1.539,1.539,0,0,1-1.635,1.4c-1.1,0-1.863-.742-1.863-2.14v-.086a1.924,1.924,0,0,1,1.832-2.171,1.424,1.424,0,0,1,1.58,1.242h.893a2.261,2.261,0,0,0-2.478-2.019,2.771,2.771,0,0,0-2.775,2.767c0,.052,0,.1,0,.155v.086a2.711,2.711,0,0,0,2.527,2.883,2.565,2.565,0,0,0,.264,0,2.378,2.378,0,0,0,2.489-2.145" transform="translate(-90.308 -44.214)" fill="red"/></g></svg>