<svg xmlns="http://www.w3.org/2000/svg" width="145.682" height="81.709" viewBox="0 0 145.682 81.709"><g transform="translate(0.885 0.863)"><path d="M36.936,1.393C33.258,3.437,34.484,6.3,35.3,7.933s8.991,15.122,8.991,15.122l-2.044,1.226a.4.4,0,0,0-.409-.409L29.171,2.211A4.614,4.614,0,0,0,23.04.576l-.409.409A4.614,4.614,0,0,0,21,7.115L32.849,27.55l.409.409-1.635.817c0-.409,0-.409-.409-.817L16.91,3.028a5.009,5.009,0,0,0-6.539-1.635h0A5.009,5.009,0,0,0,8.736,7.933l14.3,24.931a1.427,1.427,0,0,1,.409.817l-1.226.817c0-.409,0-.409-.409-.409L9.553,12.428a4.614,4.614,0,0,0-6.131-1.635l-.409.409a4.614,4.614,0,0,0-1.635,6.131L19.362,48.394a.4.4,0,0,0,.409.409h0L21,50.846s1.226,1.226.409,1.635S6.692,47.168,6.692,47.168,2.605,45.124.562,50.029c-1.635,3.678.817,5.722.817,5.722L30.4,70.873s10.218,5.313,23.7-2.452,11.852-25.339,7.765-32.7S43.884,4.254,43.884,4.254,40.615-.65,36.936,1.393Z" transform="translate(79.609 0) rotate(7)" fill="none" stroke="#43a2da" stroke-width="1.5"/><path d="M28.257,1.393c3.678,2.044,2.452,4.9,1.635,6.539-.817,1.226-8.583,15.122-8.583,15.122l2.044,1.226a.4.4,0,0,1,.409-.409L36.431,2.211A3.607,3.607,0,0,1,41.744.576l.409.409a4.614,4.614,0,0,1,1.635,6.131L31.935,27.55l-.409.409,1.635.817c0-.409,0-.409.409-.817l14.3-24.931a5.009,5.009,0,0,1,6.539-1.635h0a5.009,5.009,0,0,1,1.635,6.539l-14.3,24.931a1.427,1.427,0,0,0-.409.817l1.226.817c0-.409,0-.409.409-.409L55.231,12.428a4.614,4.614,0,0,1,6.131-1.635l.409.409a4.614,4.614,0,0,1,1.635,6.131L45.422,48.394a.4.4,0,0,1-.409.409h0l-1.226,2.043s-1.226,1.226-.409,1.635,14.713-5.313,14.713-5.313,4.087-2.044,6.13,2.861c1.635,3.678-.817,5.722-.817,5.722L34.387,70.873s-10.218,5.313-23.7-2.452S-1.17,43.081,2.917,35.724,20.9,4.254,20.9,4.254,24.579-.65,28.257,1.393Z" transform="translate(0 7.895) rotate(-7)" fill="none" stroke="#43a2da" stroke-width="1.5"/></g></svg>