<svg xmlns="http://www.w3.org/2000/svg" width="141.533" height="138.853" viewBox="0 0 141.533 138.853"><g transform="translate(-992.222 -3638.102)"><path d="M1098.914,3709.312h-46.422a1.036,1.036,0,0,0-1.037,1.036v28.737a1.037,1.037,0,0,0,1.037,1.037h46.422a1.038,1.038,0,0,0,1.037-1.037v-28.737a1.037,1.037,0,0,0-1.037-1.036m-33.089,28.737h-7.875v-2.588a.07.07,0,0,1,.047-.066l5.119-1.706a2.607,2.607,0,0,0,.257-.1l2.451,1.635Zm-2.381-19.3a2.264,2.264,0,0,1,1.678-.736h3.477a2.28,2.28,0,0,1,2.272,2.469l-.472,5.667a2.181,2.181,0,0,1-1.191,1.759l-1.379.688a2.17,2.17,0,0,1-1.936,0l-1.38-.688a2.181,2.181,0,0,1-1.19-1.759l-.474-5.667a2.262,2.262,0,0,1,.594-1.733m1.124,13.138c.007-.076.014-.155.014-.231v-1.4l.384.192a4.267,4.267,0,0,0,3.792,0l.382-.192v1.4a2.257,2.257,0,0,0,.015.231l-2.293,1.528Zm11.205,6.16H1067.9v-2.83l2.454-1.635a2.4,2.4,0,0,0,.252.1l5.12,1.706a.072.072,0,0,1,.049.066Zm22.1,0h-20.032v-2.588a2.14,2.14,0,0,0-1.466-2.031l-5.12-1.707a.066.066,0,0,1-.047-.065v-2.519a1.129,1.129,0,0,0-.011-.14,4.277,4.277,0,0,0,1.261-2.673l.472-5.669a4.348,4.348,0,0,0-4.337-4.712h-3.477a4.35,4.35,0,0,0-4.337,4.712l.473,5.669a4.251,4.251,0,0,0,1.261,2.673c0,.046-.01.092-.01.14v2.521a.069.069,0,0,1-.046.064l-5.122,1.707a2.137,2.137,0,0,0-1.463,2.031v2.588h-2.349v-26.665h44.348Z" transform="translate(-16.464 -19.854)" fill="#a30533"/><rect width="140.68" height="138" transform="translate(992.648 3638.529)" fill="none" stroke="#a92d3e" stroke-width="0.853"/><path d="M1103.156,3740.724h-2.28V3707.5a4.354,4.354,0,0,0-4.352-4.351h-48.632a4.356,4.356,0,0,0-4.352,4.351v33.228h-2.281a2.141,2.141,0,0,0-2.139,2.141v2.21a2.144,2.144,0,0,0,2.139,2.142h61.9a2.145,2.145,0,0,0,2.143-2.142v-2.21a2.142,2.142,0,0,0-2.143-2.141m-57.543-33.228a2.282,2.282,0,0,1,2.278-2.281h48.632a2.281,2.281,0,0,1,2.28,2.281v33.228h-53.19Zm57.612,37.579a.069.069,0,0,1-.07.07h-61.9a.07.07,0,0,1-.068-.07v-2.21a.069.069,0,0,1,.068-.068h25.5c0,.021,0,.044,0,.068a1.037,1.037,0,0,0,1.036,1.036h8.842a1.038,1.038,0,0,0,1.036-1.036c0-.024,0-.047,0-.068h25.493a.068.068,0,0,1,.07.068Z" transform="translate(-12.974 -18.099)" fill="#a30533"/><path d="M1092.153,3719.626h-1.106a1.037,1.037,0,0,0,0,2.073h1.106a1.037,1.037,0,0,0,0-2.073" transform="translate(-27.367 -22.796)" fill="#a30533"/><path d="M1107.6,3719.626h-8.843a1.037,1.037,0,0,0,0,2.073h8.843a1.037,1.037,0,1,0,0-2.073" transform="translate(-29.52 -22.796)" fill="#a30533"/><path d="M1105.391,3725.794h-6.631a1.037,1.037,0,0,0,0,2.074h6.631a1.037,1.037,0,0,0,0-2.074" transform="translate(-29.524 -24.53)" fill="#a30533"/><path d="M1092.153,3725.794h-1.106a1.037,1.037,0,0,0,0,2.074h1.106a1.037,1.037,0,0,0,0-2.074" transform="translate(-27.367 -24.53)" fill="#a30533"/></g></svg>