<svg xmlns="http://www.w3.org/2000/svg" width="109.128" height="87.1" viewBox="0 0 109.128 87.1"><g transform="translate(-514.482 -435.25)"><path d="M604.734,508.265H533.359a12,12,0,0,1-11.977-11.977V447.977A12.054,12.054,0,0,1,533.359,436h71.294a12,12,0,0,1,11.977,11.977v48.231a11.949,11.949,0,0,1-11.842,12.057Zm-71.375-66.358a6.062,6.062,0,0,0-6.069,6.053v48.248a6.062,6.062,0,0,0,6.053,6.069h71.31a6.061,6.061,0,0,0,6.069-6.053V447.977a6.06,6.06,0,0,0-6.053-6.069h-71.31Z" fill="none" stroke="#43a2da" stroke-width="1.5"/><path d="M566.7,472.335l-2.266-4.775c-.081-.081-.081-.162-.162-.243a14.985,14.985,0,0,0,.971-5.422,15.437,15.437,0,1,0-5.017,11.325h.166l5.179.486a1.016,1.016,0,0,0,1.129-1.371Zm-24.2-8.578a1.861,1.861,0,1,1,1.861-1.861,1.882,1.882,0,0,1-1.858,1.861Zm7.445,0a1.861,1.861,0,1,1,1.861-1.861,1.882,1.882,0,0,1-1.858,1.861Zm7.445,0a1.861,1.861,0,1,1,1.861-1.861,1.881,1.881,0,0,1-1.859,1.861Z" fill="none" stroke="#43a2da" stroke-width="1.5"/><circle cx="13.352" cy="13.352" r="13.352" transform="translate(570.342 448.624)" fill="none" stroke="#43a2da" stroke-width="1.5"/><path d="M584.018,477.028h-.647c-22.416.566-19.341,25.023-19.341,25.023h39.41C603.439,501.97,606.515,477.594,584.018,477.028Z" fill="none" stroke="#43a2da" stroke-width="1.5"/><path d="M618.006,516.6H520.087a4.87,4.87,0,0,1-4.855-4.856h0a4.871,4.871,0,0,1,4.855-4.855h97.918a4.87,4.87,0,0,1,4.855,4.855h0A4.87,4.87,0,0,1,618.006,516.6Z" transform="translate(0 5)" fill="none" stroke="#43a2da" stroke-width="1.5"/></g></svg>