<svg xmlns="http://www.w3.org/2000/svg" xmlns:xlink="http://www.w3.org/1999/xlink" width="517.843" height="504.827" viewBox="0 0 517.843 504.827"><defs><clipPath id="a"><path d="M1932.981,856.131a27.594,27.594,0,1,0,27.595-27.595,27.593,27.593,0,0,0-27.595,27.595" transform="translate(-1932.981 -828.536)" fill="none"/></clipPath><radialGradient id="b" cx="27.594" cy="27.594" r="27.594" gradientTransform="matrix(1, 0, 0, -1, 0, 55.188)" gradientUnits="userSpaceOnUse"><stop offset="0" stop-color="#f6f6f6"/><stop offset="0.475" stop-color="#f9f9f9"/><stop offset="0.715" stop-color="#fff"/><stop offset="1" stop-color="#fff"/></radialGradient><clipPath id="c"><path d="M1672.793,854.5a27.594,27.594,0,1,0,27.593-27.593,27.594,27.594,0,0,0-27.593,27.593" transform="translate(-1672.793 -826.904)" fill="none"/></clipPath><radialGradient id="d" cx="27.594" cy="27.594" r="27.594" xlink:href="#b"/><clipPath id="e"><path d="M1803.107,1397.665a27.594,27.594,0,1,0,27.593-27.595,27.593,27.593,0,0,0-27.593,27.595" transform="translate(-1803.107 -1370.07)" fill="none"/></clipPath><radialGradient id="f" cx="27.594" cy="27.594" r="27.594" xlink:href="#b"/><clipPath id="g"><path d="M2082.791,1045.4a27.594,27.594,0,1,0,27.593-27.595,27.594,27.594,0,0,0-27.593,27.595" transform="translate(-2082.791 -1017.803)" fill="none"/></clipPath><radialGradient id="h" cx="27.594" cy="27.595" r="27.594" gradientTransform="matrix(1, 0, 0, -1, -0.001, 55.19)" xlink:href="#b"/><clipPath id="i"><path d="M1523.423,1045.4a27.595,27.595,0,1,0,27.595-27.595,27.595,27.595,0,0,0-27.595,27.595" transform="translate(-1523.423 -1017.803)" fill="none"/></clipPath><radialGradient id="j" cx="27.595" cy="101.816" r="27.595" gradientTransform="matrix(1, 0, 0, -1, 0, 203.631)" xlink:href="#b"/><clipPath id="k"><path d="M1578.818,1296.1a27.594,27.594,0,1,0,27.595-27.593,27.594,27.594,0,0,0-27.595,27.593" transform="translate(-1578.818 -1268.509)" fill="none"/></clipPath><radialGradient id="l" cx="27.594" cy="27.594" r="27.594" xlink:href="#b"/><clipPath id="m"><path d="M2026.171,1296.1a27.594,27.594,0,1,0,27.595-27.593,27.595,27.595,0,0,0-27.595,27.593" transform="translate(-2026.171 -1268.509)" fill="none"/></clipPath><radialGradient id="n" cx="27.594" cy="27.594" r="27.594" xlink:href="#b"/></defs><g transform="translate(-102.508 -31.26)"><g transform="translate(130.94 32.571)"><path d="M1898.7,1067.93a89.2,89.2,0,0,1-153.563,88.822A88.919,88.919,0,0,0,1898.7,1067.93" transform="translate(-1588.817 -868.972)" fill="#f0eff1"/><path d="M1836.451,830.662c70.143,0,137.468,31.941,181.2,86.781l-90.1,71.852c-21.867-27.42-56.031-43.39-91.1-43.39Z" transform="translate(-1606.963 -822.334)" fill="#6a3d94" fill-rule="evenodd"/><path d="M2039.7,938.674a230.489,230.489,0,0,1,44.506,194.994l-112.353-25.644a115.244,115.244,0,0,0-22.254-97.5Z" transform="translate(-1629.006 -843.565)" fill="#154983" fill-rule="evenodd"/><path d="M2074.393,1175.1a230.487,230.487,0,0,1-124.7,156.374l-50-103.831a115.239,115.239,0,0,0,62.351-78.186Z" transform="translate(-1619.196 -884.997)" fill="#a71d36" fill-rule="evenodd"/><path d="M1912.99,1350.6a230.49,230.49,0,0,1-200.009,0l50-103.831a115.248,115.248,0,0,0,100,0Z" transform="translate(-1582.496 -904.126)" fill="#27255f" fill-rule="evenodd"/><path d="M1682.471,1331.474a230.488,230.488,0,0,1-124.7-156.374l112.354-25.645a115.246,115.246,0,0,0,62.351,78.188Z" transform="translate(-1551.987 -884.997)" fill="#bc3660" fill-rule="evenodd"/><path d="M1556.354,1133.669a230.484,230.484,0,0,1,44.507-194.994l90.1,71.852a115.245,115.245,0,0,0-22.253,97.5Z" transform="translate(-1550.573 -843.565)" fill="#046cb4" fill-rule="evenodd"/><path d="M1613.163,917.444a230.486,230.486,0,0,1,180.2-86.781V945.906a115.241,115.241,0,0,0-90.1,43.39Z" transform="translate(-1562.876 -822.334)" fill="#3c3b52" fill-rule="evenodd"/><path d="M1865.487,855.343a172.863,172.863,0,0,1,135.151,65.085l-67.576,53.89a86.432,86.432,0,0,0-67.574-32.543Z" transform="translate(-1612.474 -827.185)" fill="#6a3d94" fill-rule="evenodd"/><path d="M2039.013,969.012a172.864,172.864,0,0,1,33.38,146.245l-84.265-19.233a86.434,86.434,0,0,0-16.689-73.123Z" transform="translate(-1633.3 -849.528)" fill="#154983" fill-rule="evenodd"/><path d="M2057.9,1197.008a172.868,172.868,0,0,1-93.527,117.281l-37.5-77.873a86.434,86.434,0,0,0,46.764-58.64Z" transform="translate(-1624.539 -890.564)" fill="#a71d36" fill-rule="evenodd"/><path d="M1894.105,1344.35a172.863,172.863,0,0,1-150.006,0l37.5-77.873a86.436,86.436,0,0,0,75,0Z" transform="translate(-1588.613 -907.999)" fill="#27255f" fill-rule="evenodd"/><path d="M1678.476,1314.289a172.862,172.862,0,0,1-93.527-117.28l84.265-19.233a86.431,86.431,0,0,0,46.764,58.64Z" transform="translate(-1557.33 -890.564)" fill="#bc3660" fill-rule="evenodd"/><path d="M1576.75,1115.257a172.867,172.867,0,0,1,33.38-146.245l67.574,53.89a86.434,86.434,0,0,0-16.689,73.123Z" transform="translate(-1554.866 -849.528)" fill="#046cb4" fill-rule="evenodd"/><path d="M1641.2,920.43a172.866,172.866,0,0,1,135.152-65.086v86.432a86.437,86.437,0,0,0-67.576,32.542Z" transform="translate(-1568.387 -827.185)" fill="#3c3b52" fill-rule="evenodd"/><path d="M1993.169,854.51a34.214,34.214,0,1,1-34.214-34.214,34.213,34.213,0,0,1,34.214,34.214" transform="translate(-1624.121 -820.296)" fill="#6a3d94"/></g><g transform="translate(438.181 39.192)"><g clip-path="url(#a)"><rect width="55.188" height="55.188" transform="translate(0 0)" fill="url(#b)"/></g></g><g transform="translate(222.517 31.26)"><path d="M1732.982,852.878a34.214,34.214,0,1,1-34.214-34.214,34.214,34.214,0,0,1,34.214,34.214" transform="translate(-1664.554 -818.664)" fill="#3c3b52"/></g><g transform="translate(229.137 37.88)"><g clip-path="url(#c)"><rect width="55.188" height="55.188" transform="translate(0 0)" fill="url(#d)"/></g></g><g transform="translate(327.215 467.66)"><path d="M1863.295,1396.045a34.214,34.214,0,1,1-34.214-34.214,34.214,34.214,0,0,1,34.214,34.214" transform="translate(-1794.867 -1361.831)" fill="#27255f"/></g><g transform="translate(333.836 474.279)"><g clip-path="url(#e)"><rect width="55.188" height="55.188" transform="translate(0 0)" fill="url(#f)"/></g></g><g transform="translate(551.923 184.636)"><path d="M2142.979,1043.777a34.214,34.214,0,1,1-34.214-34.213,34.214,34.214,0,0,1,34.214,34.213" transform="translate(-2074.551 -1009.564)" fill="#154983"/></g><g transform="translate(558.544 191.255)"><g clip-path="url(#g)"><rect width="55.188" height="55.189" transform="translate(0 0)" fill="url(#h)"/></g></g><g transform="translate(102.508 184.636)"><path d="M1583.612,1043.777a34.214,34.214,0,1,1-34.214-34.213,34.215,34.215,0,0,1,34.214,34.213" transform="translate(-1515.184 -1009.564)" fill="#046cb4"/></g><g transform="translate(109.127 191.255)"><g clip-path="url(#i)"><rect width="55.19" height="55.189" transform="translate(0 0)" fill="url(#j)"/></g></g><g transform="translate(147.013 386.062)"><path d="M1639.006,1294.483a34.214,34.214,0,1,1-34.214-34.213,34.213,34.213,0,0,1,34.214,34.213" transform="translate(-1570.578 -1260.27)" fill="#bc3660"/></g><g transform="translate(153.634 392.682)"><g clip-path="url(#k)"><rect width="55.188" height="55.188" transform="translate(0)" fill="url(#l)"/></g></g><g transform="translate(506.434 386.062)"><path d="M2086.36,1294.483a34.214,34.214,0,1,1-34.214-34.213,34.213,34.213,0,0,1,34.214,34.213" transform="translate(-2017.932 -1260.27)" fill="#a71d36"/></g><g transform="translate(513.053 392.682)"><g clip-path="url(#m)"><rect width="55.188" height="55.188" transform="translate(0)" fill="url(#n)"/></g></g><g transform="translate(453.86 56.695)"><path d="M1959.627,869.652c-4.267,0-7.131-3.5-7.131-9.665s2.864-9.665,7.131-9.665c4.24,0,7.1,3.5,7.1,9.665S1963.867,869.652,1959.627,869.652Zm0-17.154c-2.863,0-4.6,2.643-4.6,7.49s1.735,7.49,4.6,7.49,4.572-2.643,4.572-7.49S1962.492,852.5,1959.627,852.5Z" transform="translate(-1952.496 -850.322)" fill="#6a3d94"/><path d="M1976.6,869.368V853.288l-3.882,1.459-.276-1.982,4.461-2.066h2.148v18.669Z" transform="translate(-1956.417 -850.396)" fill="#6a3d94"/></g><g transform="translate(418.508 100.545)"><path d="M1947.019,951.829h-37.7a.82.82,0,0,0,0,1.639h37.705a.82.82,0,1,0,0-1.639" transform="translate(-1908.495 -914.125)" fill="#fff"/><path d="M1916.274,939.587h-4.919a.82.82,0,0,0-.82.82v9.836a.82.82,0,0,0,.82.82h4.919a.82.82,0,0,0,.819-.82v-9.836a.82.82,0,0,0-.819-.82m-.82,9.836h-3.279v-8.2h3.279Z" transform="translate(-1908.896 -911.718)" fill="#fff"/><path d="M1928.516,929.385H1923.6a.82.82,0,0,0-.819.819v18.033a.82.82,0,0,0,.819.82h4.918a.82.82,0,0,0,.819-.82V930.2a.82.82,0,0,0-.819-.819m-.82,18.032h-3.279V931.024h3.279Z" transform="translate(-1911.303 -909.713)" fill="#fff"/><path d="M1940.758,933.465h-4.918a.82.82,0,0,0-.82.819v14.754a.82.82,0,0,0,.82.82h4.918a.82.82,0,0,0,.82-.82V934.284a.82.82,0,0,0-.82-.819m-.819,14.754h-3.279V935.1h3.279Z" transform="translate(-1913.709 -910.515)" fill="#fff"/><path d="M1953,921.223h-4.918a.82.82,0,0,0-.82.819v24.59a.82.82,0,0,0,.82.82H1953a.82.82,0,0,0,.819-.82v-24.59a.82.82,0,0,0-.819-.819m-.82,24.59H1948.9v-22.95h3.278Z" transform="translate(-1916.115 -908.109)" fill="#fff"/><path d="M1913.814,923.264a3.278,3.278,0,1,0,3.279,3.278,3.281,3.281,0,0,0-3.279-3.278m0,4.918a1.639,1.639,0,1,1,1.64-1.64,1.641,1.641,0,0,1-1.64,1.64" transform="translate(-1908.896 -908.51)" fill="#fff"/><path d="M1926.057,913.062a3.278,3.278,0,1,0,3.278,3.279,3.282,3.282,0,0,0-3.278-3.279m0,4.918a1.639,1.639,0,1,1,1.639-1.639,1.641,1.641,0,0,1-1.639,1.639" transform="translate(-1911.302 -906.504)" fill="#fff"/><path d="M1938.3,917.143a3.278,3.278,0,1,0,3.279,3.278,3.282,3.282,0,0,0-3.279-3.278m0,4.918a1.639,1.639,0,1,1,1.639-1.64,1.641,1.641,0,0,1-1.639,1.64" transform="translate(-1913.709 -907.307)" fill="#fff"/><path d="M1950.542,904.9a3.279,3.279,0,1,0,3.279,3.279,3.282,3.282,0,0,0-3.279-3.279m0,4.918a1.639,1.639,0,1,1,1.639-1.639,1.641,1.641,0,0,1-1.639,1.639" transform="translate(-1916.115 -904.9)" fill="#fff"/><path d="M1948,910.362a.821.821,0,0,0-1.158,0l-6.361,6.361a.819.819,0,0,0,1.159,1.159l6.361-6.361a.821.821,0,0,0,0-1.159" transform="translate(-1914.736 -905.927)" fill="#fff"/><path d="M1935.092,918.493l-5.266-1.5a.82.82,0,0,0-.449,1.577l5.265,1.5a.85.85,0,0,0,.226.031.82.82,0,0,0,.224-1.608" transform="translate(-1912.483 -907.27)" fill="#fff"/><path d="M1923.4,918.338a.821.821,0,0,0-1.151-.131l-6.18,4.928a.82.82,0,0,0,1.021,1.283l6.181-4.927a.82.82,0,0,0,.129-1.153" transform="translate(-1909.923 -907.481)" fill="#fff"/></g><g transform="translate(307.716 237.014)"><path d="M1799.608,1073.072h-5.485v15.122h-3.031v-15.122h-5.436v-2.465h13.952Z" transform="translate(-1769.746 -1070.607)" fill="#2d2c41"/><path d="M1812.851,1089.865a6.073,6.073,0,0,1-4.524-1.758,6.376,6.376,0,0,1-1.733-4.68v-.364a7.832,7.832,0,0,1,.756-3.5,5.738,5.738,0,0,1,2.12-2.4,5.6,5.6,0,0,1,3.043-.857,5.126,5.126,0,0,1,4.124,1.7,7.2,7.2,0,0,1,1.456,4.819v1.184h-8.54a3.927,3.927,0,0,0,1.081,2.561,3.247,3.247,0,0,0,2.385.942,3.975,3.975,0,0,0,3.286-1.63l1.583,1.51a5.28,5.28,0,0,1-2.1,1.817A6.545,6.545,0,0,1,1812.851,1089.865Zm-.35-11.2a2.473,2.473,0,0,0-1.951.846,4.388,4.388,0,0,0-.948,2.355h5.592v-.217a3.568,3.568,0,0,0-.784-2.229A2.453,2.453,0,0,0,1812.5,1078.667Z" transform="translate(-1774.989 -1072.035)" fill="#2d2c41"/><path d="M1828.027,1076.553l.084,1.365a4.7,4.7,0,0,1,3.769-1.606,3.613,3.613,0,0,1,3.588,2,4.636,4.636,0,0,1,4.011-2,4.081,4.081,0,0,1,3.219,1.195,5.275,5.275,0,0,1,1.081,3.527v8.589h-2.936v-8.5a2.6,2.6,0,0,0-.543-1.825,2.379,2.379,0,0,0-1.8-.58,2.446,2.446,0,0,0-1.637.538,2.842,2.842,0,0,0-.888,1.407l.012,8.963h-2.935v-8.6a2.094,2.094,0,0,0-2.355-2.307,2.584,2.584,0,0,0-2.5,1.438v9.469h-2.935v-13.069Z" transform="translate(-1779.662 -1072.035)" fill="#2d2c41"/><path d="M1861.95,1089.623a1.9,1.9,0,1,0-3.768.242,4.615,4.615,0,0,1-3.214-1.123,3.6,3.6,0,0,1-1.244-2.779,3.711,3.711,0,0,1,1.552-3.207,7.52,7.52,0,0,1,4.439-1.117h1.8v-.858a2.288,2.288,0,0,0-.568-1.624,2.249,2.249,0,0,0-1.727-.609,2.592,2.592,0,0,0-1.643.5,1.554,1.554,0,0,0-.639,1.274H1854a3.255,3.255,0,0,1,.713-2.011,4.745,4.745,0,0,1,1.939-1.468,6.8,6.8,0,0,1,2.736-.531,5.479,5.479,0,0,1,3.66,1.154,4.11,4.11,0,0,1,1.4,3.243v5.894a6.681,6.681,0,0,0,.5,2.815v.2Zm-3.225-2.114a3.337,3.337,0,0,0,1.636-.422,2.826,2.826,0,0,0,1.154-1.136v-2.464h-1.582a4.33,4.33,0,0,0-2.453.568,1.838,1.838,0,0,0-.821,1.606,1.715,1.715,0,0,0,.562,1.347A2.176,2.176,0,0,0,1858.725,1087.509Z" transform="translate(-1786.788 -1072.035)" fill="#2d2c41"/><path d="M1879.557,1086.072a1.332,1.332,0,0,0-.646-1.2,6.875,6.875,0,0,0-2.145-.724,11,11,0,0,1-2.5-.8,3.334,3.334,0,0,1-2.2-3.079,3.48,3.48,0,0,1,1.424-2.827,5.634,5.634,0,0,1,3.624-1.135,5.865,5.865,0,0,1,3.787,1.159,3.681,3.681,0,0,1,1.444,3.008h-2.935a1.812,1.812,0,0,0-.628-1.408,2.411,2.411,0,0,0-1.668-.562,2.6,2.6,0,0,0-1.576.447,1.412,1.412,0,0,0-.61,1.2,1.189,1.189,0,0,0,.568,1.051,7.808,7.808,0,0,0,2.295.755,10.868,10.868,0,0,1,2.712.906,3.857,3.857,0,0,1,1.461,1.262,3.22,3.22,0,0,1,.478,1.788,3.407,3.407,0,0,1-1.462,2.858,6.235,6.235,0,0,1-3.829,1.093,6.75,6.75,0,0,1-2.862-.58,4.708,4.708,0,0,1-1.958-1.594,3.771,3.771,0,0,1-.7-2.186h2.851a2.064,2.064,0,0,0,.784,1.6,3.053,3.053,0,0,0,1.921.562,2.966,2.966,0,0,0,1.762-.441A1.364,1.364,0,0,0,1879.557,1086.072Z" transform="translate(-1791.272 -1072.035)" fill="#2d2c41"/><path d="M1814.788,1114.241a7.77,7.77,0,0,1,1.4-4.85,4.488,4.488,0,0,1,3.756-1.83,4.265,4.265,0,0,1,3.358,1.449v-6.692h2.935v18.554h-2.657l-.146-1.352a4.325,4.325,0,0,1-3.514,1.594,4.466,4.466,0,0,1-3.714-1.848A8.054,8.054,0,0,1,1814.788,1114.241Zm2.935.253a5.441,5.441,0,0,0,.768,3.11,2.488,2.488,0,0,0,2.18,1.117,2.772,2.772,0,0,0,2.633-1.607v-5.58a2.731,2.731,0,0,0-2.609-1.571,2.511,2.511,0,0,0-2.2,1.129A6.065,6.065,0,0,0,1817.723,1114.494Z" transform="translate(-1777.04 -1078.546)" fill="#2d2c41"/><path d="M1840.033,1122.865a6.074,6.074,0,0,1-4.524-1.758,6.376,6.376,0,0,1-1.733-4.68v-.364a7.833,7.833,0,0,1,.755-3.5,5.755,5.755,0,0,1,2.12-2.4,5.61,5.61,0,0,1,3.044-.857,5.125,5.125,0,0,1,4.125,1.7,7.2,7.2,0,0,1,1.456,4.819v1.184h-8.539a3.918,3.918,0,0,0,1.08,2.561,3.247,3.247,0,0,0,2.386.942,3.974,3.974,0,0,0,3.285-1.63l1.583,1.51a5.272,5.272,0,0,1-2.1,1.817A6.55,6.55,0,0,1,1840.033,1122.865Zm-.35-11.2a2.475,2.475,0,0,0-1.951.846,4.381,4.381,0,0,0-.948,2.355h5.593v-.217a3.565,3.565,0,0,0-.786-2.229A2.45,2.45,0,0,0,1839.683,1111.667Z" transform="translate(-1781.794 -1080.297)" fill="#2d2c41"/><path d="M1855.636,1120.872H1852.7v-18.554h2.935Z" transform="translate(-1786.532 -1078.546)" fill="#2d2c41"/><path d="M1767.489,1147.672v6.523h-3.056v-17.587h6.728a6.8,6.8,0,0,1,4.68,1.536,5.162,5.162,0,0,1,1.734,4.063,4.992,4.992,0,0,1-1.7,4.026,7.129,7.129,0,0,1-4.753,1.439Zm0-2.464h3.672a3.617,3.617,0,0,0,2.488-.767,2.819,2.819,0,0,0,.858-2.217,3.043,3.043,0,0,0-.87-2.277,3.352,3.352,0,0,0-2.391-.876h-3.756Z" transform="translate(-1764.433 -1087.131)" fill="#2d2c41"/><path d="M1792.284,1145.235a7.258,7.258,0,0,0-1.195-.1,2.693,2.693,0,0,0-2.718,1.546v8.938h-2.935v-13.069h2.8l.072,1.462a3.3,3.3,0,0,1,2.947-1.7,2.759,2.759,0,0,1,1.04.169Z" transform="translate(-1769.691 -1088.559)" fill="#2d2c41"/><path d="M1796.609,1148.966a7.707,7.707,0,0,1,.761-3.46,5.561,5.561,0,0,1,2.139-2.367,6.024,6.024,0,0,1,3.163-.827,5.7,5.7,0,0,1,4.295,1.7,6.694,6.694,0,0,1,1.782,4.517l.011.689a7.785,7.785,0,0,1-.742,3.455,5.5,5.5,0,0,1-2.126,2.355,6.068,6.068,0,0,1-3.195.834,5.673,5.673,0,0,1-4.427-1.842,7.06,7.06,0,0,1-1.66-4.911Zm2.935.254a5.263,5.263,0,0,0,.834,3.159,2.707,2.707,0,0,0,2.319,1.142,2.679,2.679,0,0,0,2.313-1.16,5.815,5.815,0,0,0,.828-3.4,5.2,5.2,0,0,0-.852-3.14,2.87,2.87,0,0,0-4.6-.017A5.7,5.7,0,0,0,1799.544,1149.221Z" transform="translate(-1772.489 -1088.559)" fill="#2d2c41"/><path d="M1815.742,1148.992a7.653,7.653,0,0,1,1.431-4.863,4.6,4.6,0,0,1,3.8-1.817,4.3,4.3,0,0,1,3.515,1.558l.134-1.317h2.645v12.671a5.27,5.27,0,0,1-1.6,4.059,6.1,6.1,0,0,1-4.318,1.486,6.953,6.953,0,0,1-2.808-.6,4.989,4.989,0,0,1-2.084-1.564l1.389-1.765a4.194,4.194,0,0,0,3.334,1.607,3.239,3.239,0,0,0,2.307-.792,3.03,3.03,0,0,0,.846-2.325v-.881a4.326,4.326,0,0,1-3.381,1.413,4.583,4.583,0,0,1-3.751-1.825A7.887,7.887,0,0,1,1815.742,1148.992Zm2.923.253a5.255,5.255,0,0,0,.8,3.1,2.583,2.583,0,0,0,2.229,1.13,2.825,2.825,0,0,0,2.633-1.522v-5.75a2.785,2.785,0,0,0-2.609-1.486,2.594,2.594,0,0,0-2.253,1.148A5.887,5.887,0,0,0,1818.665,1149.245Z" transform="translate(-1777.279 -1088.559)" fill="#2d2c41"/><path d="M1842.273,1145.235a7.267,7.267,0,0,0-1.2-.1,2.692,2.692,0,0,0-2.718,1.546v8.938h-2.935v-13.069h2.8l.072,1.462a3.3,3.3,0,0,1,2.947-1.7,2.758,2.758,0,0,1,1.04.169Z" transform="translate(-1782.207 -1088.559)" fill="#2d2c41"/><path d="M1855,1155.623a1.9,1.9,0,1,0-3.768.242,4.614,4.614,0,0,1-3.213-1.123,3.6,3.6,0,0,1-1.245-2.779,3.712,3.712,0,0,1,1.552-3.207,7.523,7.523,0,0,1,4.439-1.117h1.8v-.858a2.292,2.292,0,0,0-.567-1.624,2.251,2.251,0,0,0-1.728-.609,2.589,2.589,0,0,0-1.642.5,1.552,1.552,0,0,0-.639,1.274h-2.936a3.25,3.25,0,0,1,.713-2.01,4.732,4.732,0,0,1,1.939-1.468,6.8,6.8,0,0,1,2.735-.531,5.479,5.479,0,0,1,3.66,1.154,4.106,4.106,0,0,1,1.4,3.243v5.895a6.691,6.691,0,0,0,.5,2.815v.2Zm-3.225-2.114a3.342,3.342,0,0,0,1.637-.422,2.823,2.823,0,0,0,1.153-1.136v-2.464h-1.582a4.326,4.326,0,0,0-2.453.568,1.839,1.839,0,0,0-.822,1.606,1.715,1.715,0,0,0,.562,1.347A2.177,2.177,0,0,0,1851.775,1153.509Z" transform="translate(-1785.048 -1088.559)" fill="#2d2c41"/><path d="M1868.239,1142.553l.085,1.365a4.7,4.7,0,0,1,3.769-1.606,3.612,3.612,0,0,1,3.587,2,4.635,4.635,0,0,1,4.01-2,4.078,4.078,0,0,1,3.219,1.195,5.27,5.27,0,0,1,1.081,3.527v8.589h-2.935v-8.5a2.6,2.6,0,0,0-.544-1.825,2.375,2.375,0,0,0-1.8-.579,2.446,2.446,0,0,0-1.637.537,2.83,2.83,0,0,0-.887,1.407l.011,8.963h-2.936v-8.6a2.093,2.093,0,0,0-2.355-2.307,2.582,2.582,0,0,0-2.5,1.438v9.469h-2.936v-13.069Z" transform="translate(-1789.73 -1088.559)" fill="#2d2c41"/><path d="M1902.161,1155.623a1.9,1.9,0,1,0-3.768.242,4.612,4.612,0,0,1-3.212-1.123,3.593,3.593,0,0,1-1.244-2.779,3.709,3.709,0,0,1,1.552-3.207,7.522,7.522,0,0,1,4.439-1.117h1.8v-.858a2.287,2.287,0,0,0-.567-1.624,2.247,2.247,0,0,0-1.726-.609,2.588,2.588,0,0,0-1.643.5,1.551,1.551,0,0,0-.64,1.274h-2.935a3.253,3.253,0,0,1,.712-2.01,4.735,4.735,0,0,1,1.938-1.468,6.8,6.8,0,0,1,2.735-.531,5.482,5.482,0,0,1,3.661,1.154,4.11,4.11,0,0,1,1.4,3.243v5.895a6.7,6.7,0,0,0,.495,2.815v.2Zm-3.225-2.114a3.339,3.339,0,0,0,1.637-.422,2.823,2.823,0,0,0,1.153-1.136v-2.464h-1.582a4.327,4.327,0,0,0-2.452.568,1.838,1.838,0,0,0-.821,1.606,1.714,1.714,0,0,0,.562,1.347A2.176,2.176,0,0,0,1898.936,1153.509Z" transform="translate(-1796.856 -1088.559)" fill="#2d2c41"/></g><g transform="translate(571.798 208.76)"><path d="M2106.419,1058.919c-4.267,0-7.131-3.5-7.131-9.664s2.864-9.665,7.131-9.665c4.24,0,7.1,3.5,7.1,9.665S2110.66,1058.919,2106.419,1058.919Zm0-17.153c-2.863,0-4.6,2.643-4.6,7.489s1.736,7.49,4.6,7.49,4.572-2.643,4.572-7.49S2109.283,1041.766,2106.419,1041.766Z" transform="translate(-2099.288 -1039.59)" fill="#154983"/><path d="M2119.957,1058.562v-1.9l6.884-7.187c1.679-1.763,2.423-2.946,2.423-4.461,0-2.093-1.212-3.139-3.387-3.139a7.658,7.658,0,0,0-5.066,2.2l-.358-2.4a8.432,8.432,0,0,1,5.562-2.093c3.607,0,5.811,2.065,5.811,5.259,0,2.258-1.02,3.772-3.305,6.113l-5.314,5.4h8.563l.33,2.2Z" transform="translate(-2103.351 -1039.59)" fill="#154983"/></g><g transform="translate(526.493 410.193)"><path d="M2050.03,1309.634c-4.267,0-7.131-3.5-7.131-9.665s2.864-9.665,7.131-9.665c4.241,0,7.1,3.5,7.1,9.665S2054.271,1309.634,2050.03,1309.634Zm0-17.153c-2.864,0-4.6,2.643-4.6,7.489s1.734,7.49,4.6,7.49,4.572-2.643,4.572-7.49S2052.895,1292.481,2050.03,1292.481Z" transform="translate(-2042.899 -1290.305)" fill="#a71d36"/><path d="M2068.739,1309.634a10.519,10.519,0,0,1-5.342-1.459l.413-2.423a8.515,8.515,0,0,0,5.067,1.653c2.45,0,3.964-1.1,3.964-3.194,0-2.258-1.514-3.608-5.093-3.608h-.854l-.358-2.2h1.4c3.084,0,4.543-1.1,4.543-3.112,0-1.6-1.156-2.753-3.5-2.753a7.721,7.721,0,0,0-4.928,1.79l-.358-2.313a8.656,8.656,0,0,1,5.4-1.707c4.186,0,5.92,2.368,5.92,4.874,0,2.313-1.4,3.635-3.415,4.3,2.4.66,3.773,2.119,3.773,4.708C2075.375,1307.459,2072.814,1309.634,2068.739,1309.634Z" transform="translate(-2046.928 -1290.305)" fill="#a71d36"/></g><g transform="translate(346.184 491.796)"><path d="M1825.609,1411.2c-4.269,0-7.132-3.5-7.132-9.665s2.864-9.665,7.132-9.665c4.24,0,7.1,3.5,7.1,9.665S1829.849,1411.2,1825.609,1411.2Zm0-17.154c-2.864,0-4.6,2.643-4.6,7.489s1.735,7.49,4.6,7.49,4.57-2.643,4.57-7.49S1828.473,1394.048,1825.609,1394.048Z" transform="translate(-1818.477 -1391.872)" fill="#27255f"/><path d="M1850.739,1406.705v4.213h-2.286v-4.213h-9.307v-1.818l8.647-12.638h2.946v12.419h2.974v2.037Zm-2.286-11.675-6.663,9.637h6.663Z" transform="translate(-1822.54 -1391.946)" fill="#27255f"/></g><g transform="translate(166.839 410.193)"><path d="M1602.385,1309.634c-4.268,0-7.131-3.5-7.131-9.665s2.863-9.665,7.131-9.665c4.24,0,7.1,3.5,7.1,9.665S1606.626,1309.634,1602.385,1309.634Zm0-17.153c-2.863,0-4.6,2.643-4.6,7.489s1.735,7.49,4.6,7.49,4.57-2.643,4.57-7.49S1605.249,1292.481,1602.385,1292.481Z" transform="translate(-1595.254 -1290.305)" fill="#bc3660"/><path d="M1621.374,1309.722a9.528,9.528,0,0,1-5.177-1.432l.386-2.34a8.444,8.444,0,0,0,4.874,1.6c2.505,0,4.46-1.183,4.46-3.882,0-2.176-1.376-3.58-3.937-3.58a7.717,7.717,0,0,0-3.167.606l-1.845-.413.661-9.526h9.8l.33,2.2H1619.7l-.414,5.425a9.562,9.562,0,0,1,2.974-.468c3.8,0,6.141,2.258,6.141,5.617C1628.4,1307.574,1625.311,1309.722,1621.374,1309.722Z" transform="translate(-1599.371 -1290.393)" fill="#bc3660"/></g><g transform="translate(121.837 208.76)"><path d="M1546.374,1058.919c-4.268,0-7.132-3.5-7.132-9.664s2.864-9.665,7.132-9.665c4.24,0,7.1,3.5,7.1,9.665S1550.614,1058.919,1546.374,1058.919Zm0-17.153c-2.863,0-4.6,2.643-4.6,7.489s1.735,7.49,4.6,7.49,4.571-2.643,4.571-7.49S1549.238,1041.766,1546.374,1041.766Z" transform="translate(-1539.242 -1039.59)" fill="#046cb4"/><path d="M1567.751,1047.162c3.579,0,5.782,2.2,5.782,5.7,0,3.525-2.726,6.057-6.416,6.057-3.882,0-6.691-2.725-6.691-7.874,0-6.443,4.159-10,10.078-11.455l.33,2.2c-3.8.963-6.966,2.864-7.792,6.828A8.3,8.3,0,0,1,1567.751,1047.162Zm-.551,9.582a3.577,3.577,0,0,0,3.855-3.772c0-2.258-1.184-3.634-3.855-3.634a6.728,6.728,0,0,0-4.378,1.624C1562.849,1054.486,1564.529,1056.744,1567.2,1056.744Z" transform="translate(-1543.406 -1039.59)" fill="#046cb4"/></g><g transform="translate(242.713 55.385)"><path d="M1696.823,868.021c-4.268,0-7.132-3.5-7.132-9.664s2.864-9.665,7.132-9.665c4.24,0,7.1,3.5,7.1,9.665S1701.064,868.021,1696.823,868.021Zm0-17.154c-2.863,0-4.6,2.643-4.6,7.49s1.735,7.49,4.6,7.49,4.571-2.643,4.571-7.49S1699.687,850.867,1696.823,850.867Z" transform="translate(-1689.691 -848.691)" fill="#3c3b52"/><path d="M1714.344,867.944l-2.423-.551,7.1-16.025H1709.8l-.329-2.23h12.335v1.927Z" transform="translate(-1693.579 -848.779)" fill="#3c3b52"/></g><g transform="translate(179.078 100.152)"><path d="M2041.994,1052.134a.835.835,0,0,0-.673-.568l-3.63-.527-1.625-3.288a.834.834,0,0,0-1.5,0l-1.623,3.29-3.628.529a.835.835,0,0,0-.463,1.424l2.627,2.559-.619,3.615a.833.833,0,0,0,1.21.879l3.246-1.707,3.248,1.706a.833.833,0,0,0,1.209-.88l-.62-3.615,2.626-2.561a.833.833,0,0,0,.21-.855m-4.314,2.528a.831.831,0,0,0-.24.738l.408,2.381-2.139-1.124a.834.834,0,0,0-.776,0l-2.138,1.126.407-2.381a.833.833,0,0,0-.24-.738l-1.73-1.686,2.391-.348a.834.834,0,0,0,.628-.457l1.068-2.166,1.071,2.166a.832.832,0,0,0,.628.457l2.39.346Z" transform="translate(-1692.675 -932.495)" fill="#fff"/><path d="M2051.1,1073.277l-6.9-12a15.187,15.187,0,1,0-23.712,0l-6.9,12a.834.834,0,0,0,.834,1.243l5.383-.722,2.066,5.023a.835.835,0,0,0,.716.515l.055,0a.836.836,0,0,0,.723-.416l6.963-12.06,0,0a15.672,15.672,0,0,0,2.012.131,15.236,15.236,0,0,0,2.009-.133l0,.006,6.963,12.06a.834.834,0,0,0,.722.416c.018,0,.037,0,.056,0a.835.835,0,0,0,.717-.515l2.065-5.023,5.384.722a.834.834,0,0,0,.834-1.243m-28.324,3.339-1.5-3.656,1.349-2.2a.834.834,0,1,0-1.422-.872l-1.363,2.225-3.95.53,5.781-10.054a15.192,15.192,0,0,0,6.938,3.935Zm9.571-11.3a13.518,13.518,0,1,1,13.518-13.517,13.532,13.532,0,0,1-13.518,13.517m12.513,6.791-1.363-2.225a.835.835,0,0,0-1.423.872l1.349,2.2-1.5,3.656-5.828-10.094a15.2,15.2,0,0,0,6.938-3.935l5.78,10.054Z" transform="translate(-1689.703 -930.398)" fill="#fff"/><path d="M2035.559,1042.017a10.847,10.847,0,0,0-5.312,1.389.834.834,0,1,0,.818,1.453,9.181,9.181,0,0,1,13.674,8.005,9.077,9.077,0,0,1-.892,3.949.835.835,0,0,0,1.506.719,10.74,10.74,0,0,0,1.054-4.668,10.86,10.86,0,0,0-10.848-10.848" transform="translate(-1692.914 -931.459)" fill="#fff"/><path d="M2039.866,1062.672a.835.835,0,0,0-1.134-.328,9.182,9.182,0,0,1-12.78-11.844.835.835,0,0,0-1.519-.693,10.851,10.851,0,0,0,15.1,14,.836.836,0,0,0,.328-1.134" transform="translate(-1691.664 -932.895)" fill="#fff"/><path d="M2028.2,1046.21a.835.835,0,0,0-1.179.042l-.018.02a.834.834,0,0,0,1.224,1.133l.015-.015a.835.835,0,0,0-.042-1.18" transform="translate(-1692.317 -932.24)" fill="#fff"/><path d="M1999.936,1221.6h-19.842v36.727h28.77v-27.8Zm.358,2.09,6.481,6.48h-6.481Zm-18.975,33.413v-34.279h17.752v8.57h8.569V1257.1Z" transform="translate(-1683.139 -966.759)" fill="#fff"/><path d="M1999.936,1221.6h-19.842v36.727h28.77v-27.8Zm.358,2.09,6.481,6.48h-6.481Zm-18.975,33.413v-34.279h17.752v8.57h8.569V1257.1Z" transform="translate(-1683.139 -966.759)" fill="none" stroke="#fff" stroke-miterlimit="10" stroke-width="0.4"/><path d="M2004.977,1237.6h-9.795a.612.612,0,1,0,0,1.224h9.795a.612.612,0,0,0,0-1.224" transform="translate(-1685.985 -969.904)" fill="#fff"/><path d="M2004.977,1237.6h-9.795a.612.612,0,1,0,0,1.224h9.795a.612.612,0,0,0,0-1.224Z" transform="translate(-1685.985 -969.904)" fill="none" stroke="#fff" stroke-miterlimit="10" stroke-width="0.4"/><path d="M1991.465,1235.446l-2.633,2.107-.836-.837a.612.612,0,1,0-.866.865l1.225,1.225a.612.612,0,0,0,.815.044l3.06-2.448a.612.612,0,0,0-.764-.956" transform="translate(-1684.487 -969.454)" fill="#fff"/><path d="M1991.465,1235.446l-2.633,2.107-.836-.837a.612.612,0,1,0-.866.865l1.225,1.225a.612.612,0,0,0,.815.044l3.06-2.448a.612.612,0,0,0-.764-.956Z" transform="translate(-1684.487 -969.454)" fill="none" stroke="#fff" stroke-miterlimit="10" stroke-width="0.4"/><path d="M2004.977,1245.979h-9.795a.612.612,0,1,0,0,1.224h9.795a.612.612,0,0,0,0-1.224" transform="translate(-1685.985 -971.551)" fill="#fff"/><path d="M2004.977,1245.979h-9.795a.612.612,0,1,0,0,1.224h9.795a.612.612,0,0,0,0-1.224Z" transform="translate(-1685.985 -971.551)" fill="none" stroke="#fff" stroke-miterlimit="10" stroke-width="0.4"/><path d="M1991.465,1243.826l-2.633,2.107-.836-.837a.613.613,0,0,0-.866.866l1.225,1.225a.614.614,0,0,0,.432.178.606.606,0,0,0,.383-.134l3.06-2.447a.612.612,0,0,0-.764-.957" transform="translate(-1684.487 -971.102)" fill="#fff"/><path d="M1991.465,1243.826l-2.633,2.107-.836-.837a.613.613,0,0,0-.866.866l1.225,1.225a.614.614,0,0,0,.432.178.606.606,0,0,0,.383-.134l3.06-2.447a.612.612,0,0,0-.764-.957Z" transform="translate(-1684.487 -971.102)" fill="none" stroke="#fff" stroke-miterlimit="10" stroke-width="0.4"/><path d="M2004.977,1254.359h-9.795a.612.612,0,1,0,0,1.224h9.795a.612.612,0,0,0,0-1.224" transform="translate(-1685.985 -973.198)" fill="#fff"/><path d="M2004.977,1254.359h-9.795a.612.612,0,1,0,0,1.224h9.795a.612.612,0,0,0,0-1.224Z" transform="translate(-1685.985 -973.198)" fill="none" stroke="#fff" stroke-miterlimit="10" stroke-width="0.4"/><path d="M1991.465,1252.207l-2.633,2.107-.836-.837a.612.612,0,0,0-.866.865l1.225,1.225a.612.612,0,0,0,.432.178.606.606,0,0,0,.383-.134l3.06-2.448a.612.612,0,0,0-.764-.956" transform="translate(-1684.487 -972.749)" fill="#fff"/><path d="M1991.465,1252.207l-2.633,2.107-.836-.837a.612.612,0,0,0-.866.865l1.225,1.225a.612.612,0,0,0,.432.178.606.606,0,0,0,.383-.134l3.06-2.448a.612.612,0,0,0-.764-.956Z" transform="translate(-1684.487 -972.749)" fill="none" stroke="#fff" stroke-miterlimit="10" stroke-width="0.4"/><path d="M1836.63,1306.4a3.356,3.356,0,1,0,3.356,3.355,3.356,3.356,0,0,0-3.356-3.355m0,5.369a2.013,2.013,0,1,1,2.013-2.013,2.013,2.013,0,0,1-2.013,2.013" transform="translate(-1654.28 -983.427)" fill="#fff"/><path d="M1842.584,1304.931l-.926-.41c-.036-.129-.075-.255-.117-.376l.516-.889a.672.672,0,0,0,0-.664,7.484,7.484,0,0,0-.966-1.35.669.669,0,0,0-.649-.207l-.774.178v-4.3a4.029,4.029,0,0,0-2.085-3.525,2.684,2.684,0,1,0-3.883,0,4.027,4.027,0,0,0-2.085,3.525v4.3l-.774-.178a.672.672,0,0,0-.649.206,7.6,7.6,0,0,0-.966,1.351.668.668,0,0,0,.006.664l.515.889c-.042.121-.08.243-.115.371l-.965.411a.672.672,0,0,0-.407.617v1.519a.671.671,0,0,0,.407.617l.965.41c.035.128.073.252.115.371l-.515.89a.667.667,0,0,0-.006.664,7.454,7.454,0,0,0,.966,1.349.667.667,0,0,0,.649.207l.974-.223c.1.075.194.148.3.218l.094,1.034a.671.671,0,0,0,.386.547,7.218,7.218,0,0,0,1.557.524.671.671,0,0,0,.644-.219l.685-.793h.327l.684.793a.674.674,0,0,0,.646.219,7.238,7.238,0,0,0,1.556-.524.67.67,0,0,0,.386-.546l.095-1.035q.152-.1.3-.218l.974.223a.667.667,0,0,0,.649-.207,7.5,7.5,0,0,0,.966-1.349.672.672,0,0,0,0-.664l-.516-.89c.042-.121.081-.247.117-.376l.926-.408a.672.672,0,0,0,.4-.615v-1.519a.668.668,0,0,0-.4-.613m-6.938-14.732a1.342,1.342,0,1,1-1.342,1.342,1.342,1.342,0,0,1,1.342-1.342m-2.684,6.709a2.684,2.684,0,0,1,5.369,0v2.4a7.058,7.058,0,0,0-1.191-.377.674.674,0,0,0-.646.219l-.684.793h-.327l-.684-.793a.671.671,0,0,0-.645-.219,7.072,7.072,0,0,0-1.192.377Zm8.68,9.718-.826.365a.675.675,0,0,0-.384.464,5,5,0,0,1-.252.811.673.673,0,0,0,.039.593l.477.823a6.005,6.005,0,0,1-.349.489l-.9-.206a.666.666,0,0,0-.594.151,4.939,4.939,0,0,1-.67.495.67.67,0,0,0-.314.509l-.088.958c-.18.071-.361.132-.541.184l-.615-.714a.67.67,0,0,0-.509-.233h-.942a.671.671,0,0,0-.509.233l-.615.714q-.27-.078-.54-.184l-.087-.958a.67.67,0,0,0-.316-.51,5.056,5.056,0,0,1-.67-.495.666.666,0,0,0-.593-.151l-.9.206q-.188-.237-.35-.489l.478-.823a.674.674,0,0,0,.039-.593,5.025,5.025,0,0,1-.253-.811.672.672,0,0,0-.391-.469l-.862-.367v-.632l.862-.367a.667.667,0,0,0,.391-.468,5.012,5.012,0,0,1,.253-.811.673.673,0,0,0-.039-.593l-.478-.823q.163-.252.35-.49l.9.206a.672.672,0,0,0,.593-.15,5,5,0,0,1,.67-.5.672.672,0,0,0,.316-.51l.087-.958a5.455,5.455,0,0,1,.541-.183l.615.713a.67.67,0,0,0,.509.233h.942a.671.671,0,0,0,.508-.233l.615-.713a5.531,5.531,0,0,1,.541.183l.088.958a.673.673,0,0,0,.315.51,4.883,4.883,0,0,1,.67.5.674.674,0,0,0,.594.15l.9-.207q.188.239.35.49l-.478.824a.673.673,0,0,0-.039.593,5.136,5.136,0,0,1,.252.811.671.671,0,0,0,.383.465l.826.365Z" transform="translate(-1653.295 -979.977)" fill="#fff"/><path d="M1852.5,1325.608a3.355,3.355,0,1,0,3.355,3.355,3.356,3.356,0,0,0-3.355-3.355m0,5.368a2.013,2.013,0,1,1,2.013-2.013,2.013,2.013,0,0,1-2.013,2.013" transform="translate(-1657.399 -987.203)" fill="#fff"/><path d="M1858.453,1324.141l-.926-.409c-.036-.129-.076-.255-.117-.376l.516-.89a.67.67,0,0,0,.005-.664,7.465,7.465,0,0,0-.966-1.35.672.672,0,0,0-.649-.206l-.774.177v-4.3a4.025,4.025,0,0,0-2.085-3.525,2.684,2.684,0,1,0-3.883,0,4.027,4.027,0,0,0-2.085,3.525v4.3l-.774-.177a.672.672,0,0,0-.649.206,7.552,7.552,0,0,0-.966,1.35.668.668,0,0,0,.005.664l.515.889c-.042.121-.079.244-.115.371l-.965.411a.67.67,0,0,0-.407.616v1.519a.67.67,0,0,0,.407.617l.965.411c.035.128.073.251.115.37l-.515.89a.668.668,0,0,0-.005.664,7.5,7.5,0,0,0,.966,1.349.666.666,0,0,0,.649.207l.975-.223c.1.075.194.148.3.218l.094,1.035a.674.674,0,0,0,.386.547,7.277,7.277,0,0,0,1.557.523.67.67,0,0,0,.645-.219l.684-.793h.327l.684.793a.671.671,0,0,0,.646.219,7.284,7.284,0,0,0,1.556-.523.67.67,0,0,0,.386-.547l.095-1.035c.1-.07.2-.142.3-.218l.975.223a.666.666,0,0,0,.649-.207,7.535,7.535,0,0,0,.966-1.348.672.672,0,0,0-.005-.664l-.516-.891c.042-.12.081-.246.117-.376l.926-.408a.672.672,0,0,0,.4-.615v-1.519a.67.67,0,0,0-.4-.613m-6.938-14.732a1.342,1.342,0,1,1-1.343,1.342,1.342,1.342,0,0,1,1.343-1.342m-2.684,6.71a2.684,2.684,0,1,1,5.369,0v2.4a7.209,7.209,0,0,0-1.192-.377.674.674,0,0,0-.645.219l-.684.793h-.327l-.683-.793a.675.675,0,0,0-.646-.219,7.212,7.212,0,0,0-1.192.377Zm8.68,9.717-.827.365a.671.671,0,0,0-.383.464,5.014,5.014,0,0,1-.252.812.671.671,0,0,0,.039.593l.477.824q-.163.252-.35.489l-.9-.206a.668.668,0,0,0-.594.151,4.936,4.936,0,0,1-.67.495.674.674,0,0,0-.314.509l-.088.958a5.68,5.68,0,0,1-.54.184l-.615-.714a.67.67,0,0,0-.509-.233h-.942a.674.674,0,0,0-.509.233l-.615.714q-.27-.077-.541-.184l-.087-.958a.675.675,0,0,0-.317-.51,5.029,5.029,0,0,1-.669-.495.669.669,0,0,0-.594-.151l-.9.206q-.189-.237-.351-.489l.478-.824a.673.673,0,0,0,.039-.593,5.008,5.008,0,0,1-.253-.811.667.667,0,0,0-.391-.468l-.862-.367v-.632l.862-.368a.667.667,0,0,0,.391-.468,5.012,5.012,0,0,1,.253-.812.673.673,0,0,0-.039-.593l-.478-.823q.163-.252.35-.49l.9.206a.672.672,0,0,0,.594-.15,4.926,4.926,0,0,1,.67-.5.67.67,0,0,0,.315-.509l.088-.959a5.531,5.531,0,0,1,.541-.183l.615.714a.67.67,0,0,0,.509.233h.942a.67.67,0,0,0,.509-.233l.615-.714c.18.051.361.112.541.183l.088.958a.67.67,0,0,0,.316.509,4.919,4.919,0,0,1,.669.5.672.672,0,0,0,.594.15l.9-.206q.188.237.35.49l-.477.823a.671.671,0,0,0-.039.593,4.984,4.984,0,0,1,.252.812.67.67,0,0,0,.383.464l.827.365Z" transform="translate(-1656.414 -983.753)" fill="#fff"/><path d="M1820.761,1325.608a3.355,3.355,0,1,0,3.356,3.355,3.355,3.355,0,0,0-3.356-3.355m0,5.368a2.013,2.013,0,1,1,2.013-2.013,2.013,2.013,0,0,1-2.013,2.013" transform="translate(-1651.161 -987.203)" fill="#fff"/><path d="M1826.725,1324.141l-.927-.409c-.036-.129-.075-.255-.117-.376l.516-.89a.672.672,0,0,0,0-.664,7.531,7.531,0,0,0-.966-1.35.672.672,0,0,0-.649-.206l-.774.177v-4.3a4.028,4.028,0,0,0-2.085-3.525,2.685,2.685,0,1,0-3.884,0,4.028,4.028,0,0,0-2.085,3.525v4.3l-.774-.177a.671.671,0,0,0-.648.206,7.508,7.508,0,0,0-.966,1.35.67.67,0,0,0,.005.664l.515.889c-.042.121-.08.247-.116.377l-.927.409a.671.671,0,0,0-.4.613v1.519a.673.673,0,0,0,.4.615l.927.408c.036.13.075.255.117.376l-.516.89a.67.67,0,0,0,0,.664,7.531,7.531,0,0,0,.965,1.35.669.669,0,0,0,.65.207l.975-.223c.1.075.194.148.3.218l.094,1.035a.672.672,0,0,0,.386.547,7.239,7.239,0,0,0,1.558.523.67.67,0,0,0,.644-.219l.685-.794h.327l.684.794a.672.672,0,0,0,.646.219,7.229,7.229,0,0,0,1.555-.523.667.667,0,0,0,.386-.547l.1-1.035q.152-.1.3-.218l.975.223a.667.667,0,0,0,.649-.207,7.524,7.524,0,0,0,.966-1.349.672.672,0,0,0,0-.664l-.516-.89c.042-.121.081-.247.117-.377l.927-.408a.673.673,0,0,0,.4-.614v-1.52a.67.67,0,0,0-.4-.613m-6.938-14.732a1.342,1.342,0,1,1-1.342,1.342,1.342,1.342,0,0,1,1.342-1.342m-2.684,6.71a2.684,2.684,0,1,1,5.369,0v2.4a7.225,7.225,0,0,0-1.191-.377.674.674,0,0,0-.646.219l-.684.793h-.327l-.684-.793a.674.674,0,0,0-.645-.219,7.22,7.22,0,0,0-1.192.377Zm8.68,9.717-.826.365a.67.67,0,0,0-.384.464,5.014,5.014,0,0,1-.252.812.673.673,0,0,0,.039.593l.477.824c-.109.168-.224.331-.35.489l-.9-.206a.668.668,0,0,0-.595.151,4.928,4.928,0,0,1-.67.495.672.672,0,0,0-.314.509l-.088.958a5.707,5.707,0,0,1-.541.184l-.615-.714a.668.668,0,0,0-.508-.233h-.943a.672.672,0,0,0-.508.233l-.615.714q-.27-.077-.541-.184l-.087-.958a.676.676,0,0,0-.316-.51,4.99,4.99,0,0,1-.67-.495.668.668,0,0,0-.593-.151l-.9.206c-.126-.158-.242-.321-.35-.489l.477-.824a.673.673,0,0,0,.04-.593,5.032,5.032,0,0,1-.253-.811.671.671,0,0,0-.383-.465l-.827-.365v-.644l.827-.365a.67.67,0,0,0,.383-.464,5.037,5.037,0,0,1,.253-.812.67.67,0,0,0-.04-.593l-.477-.823q.163-.252.35-.49l.9.206a.669.669,0,0,0,.593-.15,4.98,4.98,0,0,1,.67-.5.671.671,0,0,0,.316-.509l.088-.959a5.455,5.455,0,0,1,.541-.183l.614.714a.673.673,0,0,0,.509.233h.943a.668.668,0,0,0,.508-.233l.615-.714a5.531,5.531,0,0,1,.541.183l.088.958a.672.672,0,0,0,.315.509,4.874,4.874,0,0,1,.67.5.671.671,0,0,0,.595.15l.9-.206q.188.237.35.49l-.477.823a.673.673,0,0,0-.039.593,4.984,4.984,0,0,1,.252.812.671.671,0,0,0,.384.464l.826.365Z" transform="translate(-1650.186 -983.753)" fill="#fff"/><path d="M1826.4,1295.643a18.138,18.138,0,0,0-9.278,8.839l1.209.583a16.8,16.8,0,0,1,8.592-8.186Z" transform="translate(-1651.105 -981.313)" fill="#fff"/><path d="M1841.408,1336.25a16.958,16.958,0,0,1-10.263.091l-.4,1.281a18.216,18.216,0,0,0,11.083-.1Z" transform="translate(-1653.783 -989.295)" fill="#fff"/><path d="M1845.88,1295.549l-.51,1.241a16.757,16.757,0,0,1,8.843,8.431l1.216-.568a18.1,18.1,0,0,0-9.55-9.1" transform="translate(-1656.657 -981.295)" fill="#fff"/><path d="M1675.795,1226.737a4.624,4.624,0,1,0-6.218,0,5.954,5.954,0,0,0-4.819,5.835v2.642a.661.661,0,0,0,.66.661h14.535a.662.662,0,0,0,.661-.661v-2.642a5.955,5.955,0,0,0-4.82-5.835m-6.412-3.414a3.3,3.3,0,1,1,3.3,3.3,3.308,3.308,0,0,1-3.3-3.3m9.91,11.231H1666.08v-1.982a4.63,4.63,0,0,1,4.625-4.625h3.963a4.63,4.63,0,0,1,4.625,4.625Z" transform="translate(-1621.155 -966.189)" fill="#fff"/><path d="M1660.994,1254.7a4.625,4.625,0,1,0-6.218,0,5.952,5.952,0,0,0-4.819,5.834v2.643a.66.66,0,0,0,.66.661h14.534a.661.661,0,0,0,.661-.661v-2.643a5.952,5.952,0,0,0-4.819-5.834m-6.412-3.415a3.3,3.3,0,1,1,3.3,3.3,3.307,3.307,0,0,1-3.3-3.3m9.91,11.231h-13.212v-1.982a4.63,4.63,0,0,1,4.625-4.625h3.963a4.63,4.63,0,0,1,4.625,4.625Z" transform="translate(-1618.246 -971.684)" fill="#fff"/><path d="M1690.6,1254.7a4.624,4.624,0,1,0-6.219,0,5.952,5.952,0,0,0-4.818,5.834v2.643a.661.661,0,0,0,.661.661h14.533a.661.661,0,0,0,.661-.661v-2.643a5.952,5.952,0,0,0-4.819-5.834m-6.412-3.415a3.3,3.3,0,1,1,3.3,3.3,3.307,3.307,0,0,1-3.3-3.3m9.91,11.231h-13.213v-1.982a4.629,4.629,0,0,1,4.624-4.625h3.963a4.631,4.631,0,0,1,4.625,4.625Z" transform="translate(-1624.065 -971.684)" fill="#fff"/><path d="M1654.583,1244.985l-1.32.052c.018.455.055.915.108,1.369l1.312-.157c-.051-.418-.083-.844-.1-1.265" transform="translate(-1618.896 -971.356)" fill="#fff"/><path d="M1653.371,1241.638c-.054.451-.091.911-.108,1.369l1.32.051c.016-.423.05-.848.1-1.265Z" transform="translate(-1618.896 -970.698)" fill="#fff"/><path d="M1661.406,1227.183c-.361.276-.718.57-1.058.877l.882.983c.315-.283.643-.555.977-.808Z" transform="translate(-1620.289 -967.857)" fill="#fff"/><path d="M1655.143,1235.087c-.194.413-.374.838-.535,1.267l1.237.464c.149-.4.314-.787.493-1.167Z" transform="translate(-1619.16 -969.41)" fill="#fff"/><path d="M1653.991,1238.288c-.125.436-.235.887-.325,1.334l1.3.26c.084-.412.184-.828.3-1.231Z" transform="translate(-1618.975 -970.039)" fill="#fff"/><path d="M1658.9,1229.468c-.317.333-.62.68-.906,1.031l1.027.832c.264-.325.545-.646.836-.953Z" transform="translate(-1619.826 -968.306)" fill="#fff"/><path d="M1664.248,1225.335c-.4.214-.8.448-1.185.7l.717,1.111c.356-.231.723-.447,1.091-.643Z" transform="translate(-1620.822 -967.493)" fill="#fff"/><path d="M1656.8,1232.122c-.258.378-.5.769-.731,1.164l1.146.657c.208-.366.436-.727.674-1.073Z" transform="translate(-1619.447 -968.827)" fill="#fff"/><path d="M1670.665,1263.539l-.261,1.3c.445.091.9.162,1.359.216l.153-1.312c-.42-.05-.841-.116-1.251-.2" transform="translate(-1622.265 -975.003)" fill="#fff"/><path d="M1678.267,1263.529c-.411.083-.831.152-1.253.2l.159,1.313c.456-.057.911-.13,1.355-.221Z" transform="translate(-1623.564 -975.001)" fill="#fff"/><path d="M1675.119,1263.907c-.422.017-.849.019-1.269,0l-.053,1.32c.221.009.443.013.668.013s.472-.006.706-.015Z" transform="translate(-1622.932 -975.075)" fill="#fff"/><path d="M1688.691,1228.28l-.883.983c.314.283.62.58.908.884l.96-.909c-.313-.33-.644-.652-.985-.958" transform="translate(-1625.686 -968.072)" fill="#fff"/><path d="M1691.008,1230.758l-1.028.831c.263.325.518.668.758,1.017l1.09-.747c-.26-.378-.536-.748-.82-1.1" transform="translate(-1626.113 -968.559)" fill="#fff"/><path d="M1695.664,1243.344l-1.32.051c.009.208.013.419.013.628s0,.427-.013.641l1.32.051q.014-.345.014-.694c0-.227,0-.453-.014-.678" transform="translate(-1626.971 -971.033)" fill="#fff"/><path d="M1692.908,1233.575l-1.147.657c.21.366.406.744.586,1.125l1.195-.564c-.194-.412-.407-.823-.634-1.218" transform="translate(-1626.463 -969.113)" fill="#fff"/><path d="M1694.341,1236.667l-1.236.465c.149.394.282.8.4,1.2l1.27-.364c-.125-.439-.271-.877-.432-1.3" transform="translate(-1626.727 -969.721)" fill="#fff"/><path d="M1695.267,1239.952l-1.3.26c.083.414.15.835.2,1.253l1.312-.157c-.054-.451-.127-.907-.217-1.356" transform="translate(-1626.898 -970.366)" fill="#fff"/><path d="M1686.017,1226.206l-.716,1.111c.354.227.7.472,1.038.729l.8-1.052c-.364-.277-.741-.542-1.124-.789" transform="translate(-1625.193 -967.664)" fill="#fff"/><path d="M1683.052,1224.591l-.53,1.211c.385.169.769.354,1.141.554l.624-1.163c-.4-.217-.818-.419-1.236-.6" transform="translate(-1624.647 -967.347)" fill="#fff"/><path d="M1629.74,1071.775l-.007-.007c-.052-.057-.106-.113-.16-.169l-7.225-7.4a2.3,2.3,0,0,0-1.662-.7,2.322,2.322,0,0,0-1.721,3.883l4.351,4.8a.891.891,0,0,1-.11,1.3.9.9,0,0,1-1.206-.1l-5.033-5.477a2.277,2.277,0,0,1-.593-1.375l-.6-8.506a2.653,2.653,0,0,0-2.639-2.461h-.019a2.647,2.647,0,0,0-2.625,2.678l.136,11.411a5.433,5.433,0,0,0,1.367,3.535l7.644,8.62a1.745,1.745,0,0,1,.44,1.17l-.027,2.942a.654.654,0,0,0,.655.661h8.427a.655.655,0,0,0,.645-.537l1.557-8.538a6.745,6.745,0,0,0-1.585-5.721Zm.3,5.493-1.46,8h-7.22l.022-2.281a3.06,3.06,0,0,0-.77-2.05l-7.646-8.622a4.121,4.121,0,0,1-1.037-2.68l-.136-11.41a1.335,1.335,0,0,1,1.319-1.352h.014a1.34,1.34,0,0,1,1.332,1.242l.6,8.507a3.6,3.6,0,0,0,.934,2.168l5.034,5.478a2.2,2.2,0,0,0,3.251-2.97l-4.351-4.8a1.019,1.019,0,0,1,.011-1.373,1.014,1.014,0,0,1,1.463-.015l7.226,7.4c.049.05.094.1.141.148l0,0a5.425,5.425,0,0,1,1.264,4.6" transform="translate(-1610.488 -934.122)" fill="#fff"/><path d="M1659.508,1056.356a2.629,2.629,0,0,0-1.875-.793h-.014a2.656,2.656,0,0,0-2.639,2.459l-.6,8.507a2.28,2.28,0,0,1-.591,1.375l-5.035,5.476a.891.891,0,0,1-1.315-1.2l4.351-4.8a2.322,2.322,0,0,0-1.722-3.883,2.3,2.3,0,0,0-1.662.7l-7.23,7.406c-.056.059-.112.118-.168.178a6.742,6.742,0,0,0-1.588,5.721l1.56,8.538a.655.655,0,0,0,.644.537h8.426a.656.656,0,0,0,.655-.661l-.027-2.94a1.743,1.743,0,0,1,.441-1.171l3.961-4.468a.655.655,0,1,0-.98-.869l-3.962,4.467a3.055,3.055,0,0,0-.771,2.051l.021,2.28h-7.218l-1.461-8a5.42,5.42,0,0,1,1.267-4.6c.047-.052.1-.1.141-.151l7.226-7.4a1.015,1.015,0,0,1,1.464.015,1.02,1.02,0,0,1,.01,1.372l-4.351,4.8a2.2,2.2,0,0,0,3.251,2.97l5.037-5.478a3.6,3.6,0,0,0,.934-2.168l.6-8.506a1.341,1.341,0,0,1,1.332-1.242h.01a1.335,1.335,0,0,1,1.325,1.352l-.136,11.41a4.119,4.119,0,0,1-1.036,2.681l-2.046,2.307a.655.655,0,1,0,.98.87l2.046-2.307a5.42,5.42,0,0,0,1.365-3.535l.137-11.41a2.629,2.629,0,0,0-.756-1.885" transform="translate(-1616.153 -934.122)" fill="#fff"/><path d="M1641.985,1061.268a2.475,2.475,0,0,0,.991-2.436l-.7-4.073a1.181,1.181,0,0,1,.34-1.044l2.959-2.884a2.49,2.49,0,0,0-1.38-4.248l-4.089-.6a1.176,1.176,0,0,1-.888-.644l-1.829-3.705a2.49,2.49,0,0,0-4.466,0l-1.829,3.705a1.178,1.178,0,0,1-.888.645l-4.089.594a2.49,2.49,0,0,0-1.38,4.248.656.656,0,0,0,.915-.939,1.18,1.18,0,0,1,.653-2.012l4.089-.594a2.492,2.492,0,0,0,1.874-1.363l1.829-3.705a1.179,1.179,0,0,1,2.115,0l1.83,3.705a2.492,2.492,0,0,0,1.875,1.363l4.089.594a1.18,1.18,0,0,1,.654,2.012l-2.959,2.884a2.489,2.489,0,0,0-.716,2.2l.7,4.072a1.18,1.18,0,0,1-1.712,1.244l-3.656-1.923a2.5,2.5,0,0,0-2.318,0l-3.657,1.923a1.179,1.179,0,0,1-1.711-1.244l.7-4.072a2.493,2.493,0,0,0-.716-2.2l-1.384-1.349a.655.655,0,1,0-.914.938l1.384,1.349a1.176,1.176,0,0,1,.339,1.044l-.7,4.073a2.487,2.487,0,0,0,3.614,2.625l3.656-1.922a1.179,1.179,0,0,1,1.1,0l3.656,1.922a2.477,2.477,0,0,0,2.623-.19" transform="translate(-1613.141 -931.112)" fill="#fff"/><path d="M1651.175,1044.2a.655.655,0,0,0,.86-.347l1.573-3.693a.655.655,0,1,0-1.206-.514l-1.573,3.694a.656.656,0,0,0,.346.86" transform="translate(-1618.407 -930.914)" fill="#fff"/><path d="M1654.4,1048.076a.659.659,0,0,0,.826.42l4.02-1.31a.656.656,0,1,0-.406-1.247l-4.02,1.311a.654.654,0,0,0-.42.825" transform="translate(-1619.113 -932.224)" fill="#fff"/><path d="M1654.371,1053.123a.656.656,0,1,0-.438,1.236l2.708.961a.634.634,0,0,0,.219.038.655.655,0,0,0,.219-1.273Z" transform="translate(-1618.942 -933.635)" fill="#fff"/><path d="M1623.037,1043.849a.655.655,0,1,0,1.206-.513l-1.573-3.693a.655.655,0,0,0-1.206.513Z" transform="translate(-1612.635 -930.914)" fill="#fff"/><path d="M1615.229,1047.186l4.02,1.31a.665.665,0,0,0,.2.032.655.655,0,0,0,.2-1.278l-4.02-1.311a.656.656,0,0,0-.406,1.247" transform="translate(-1611.331 -932.224)" fill="#fff"/><path d="M1620.423,1053.123l-2.709.962a.655.655,0,0,0,.219,1.273.638.638,0,0,0,.219-.038l2.709-.961a.656.656,0,0,0-.439-1.236" transform="translate(-1611.823 -933.635)" fill="#fff"/><path d="M1741.578,915.059l4.858-4.049h6.361v-6.6h-15.839v6.6h4.62Zm-3.3-5.369v-3.96h13.2v3.96h-5.519l-3.061,2.551V909.69Z" transform="translate(-1635.347 -904.411)" fill="#fff"/><rect width="1.321" height="1.321" transform="translate(104.25 2.638)" fill="#fff"/><rect width="5.279" height="1.321" transform="translate(106.891 2.638)" fill="#fff"/><rect width="1.32" height="1.321" transform="translate(113.49 2.638)" fill="#fff"/><path d="M1750.839,946.429l-.533-5.342a4.621,4.621,0,0,0,3.9-4.556V927.95h-2.639v-.911a2.375,2.375,0,0,0-1.285-2.116,3.947,3.947,0,0,0,1.285-2.912v-1.319a3.96,3.96,0,1,0-7.919,0v1.319a3.962,3.962,0,0,0,2.609,3.718l-3.542,3.543h-3.7a2.645,2.645,0,0,0-1.9-2.365l-2.705-.773v-1.178a3.946,3.946,0,0,0,1.319-2.945v-1.319a3.959,3.959,0,1,0-7.919,0v1.319a3.949,3.949,0,0,0,1.32,2.945v1.179l-2.706.773a2.647,2.647,0,0,0-1.914,2.537v2.467h-2.641v3.958h1.321v10.56h-5.941v1.32h40.918v-1.32Zm-5.877-10.56v-3.026l4.677-4.677a2.062,2.062,0,0,0,.584-1.266,1.145,1.145,0,0,1,.019.138v8.171a1.982,1.982,0,0,1-1.98,1.98h-5.279v-1.32Zm-1.979,5.281h3.362l.527,5.279h-3.889Zm4.688,0h1.314l.528,5.279H1748.2Zm3.891-5.941v-5.939h1.32v7.26a3.3,3.3,0,0,1-3.3,3.3h-6.6V938.51h5.279a3.3,3.3,0,0,0,3.3-3.3m-6.6-13.2v-1.319a2.64,2.64,0,0,1,5.28,0v1.319a2.64,2.64,0,1,1-5.28,0m-1.706,8.58,4.4-4.4a.74.74,0,0,1,1.047,1.046l-4.677,4.678h-6.986a.66.66,0,0,1,0-1.321Zm-14.132-9.9a2.64,2.64,0,0,1,5.279,0v1.319a2.64,2.64,0,1,1-5.279,0Zm2.639,5.279a3.932,3.932,0,0,0,1.32-.231v.709a1.455,1.455,0,0,1-2.64,0v-.709a3.939,3.939,0,0,0,1.32.231m-5.94,3.473a1.327,1.327,0,0,1,.958-1.269l2.718-.775a2.722,2.722,0,0,0,4.528,0l2.719.775a1.319,1.319,0,0,1,.929,1.1h-.631a1.961,1.961,0,0,0-1.859,2.64h-9.361Zm-2.639,3.786h20.459v1.321h-20.459Zm1.32,5.281h1.979V937.19H1724.5v-1.32h17.159v1.32H1727.8v1.321h13.859v7.919h-1.572l-1.32-2.639H1727.4l-1.32,2.639H1724.5Zm14.111,7.919H1727.55l.661-1.32h9.743Z" transform="translate(-1631.472 -906.833)" fill="#fff"/></g></g></svg>