<svg xmlns="http://www.w3.org/2000/svg" xmlns:xlink="http://www.w3.org/1999/xlink" width="324.305" height="316.5" viewBox="0 0 324.305 316.5"><defs><radialGradient id="a" cx="313.906" cy="303.005" r="70.122" gradientUnits="userSpaceOnUse"><stop offset="0.038" stop-color="#d7d7db"/><stop offset="0.554" stop-color="#ededef"/><stop offset="1" stop-color="#f5f4f5"/></radialGradient><radialGradient id="b" cx="167.668" cy="152.633" r="94.403" gradientTransform="translate(-10.402 -11.569) scale(0.897 0.898)" gradientUnits="userSpaceOnUse"><stop offset="0" stop-color="gray"/><stop offset="0.302" stop-color="#828282" stop-opacity="0.98"/><stop offset="0.471" stop-color="#888889" stop-opacity="0.918"/><stop offset="0.607" stop-color="#949495" stop-opacity="0.812"/><stop offset="0.725" stop-color="#a5a5a6" stop-opacity="0.659"/><stop offset="0.832" stop-color="#bbbbbc" stop-opacity="0.459"/><stop offset="0.929" stop-color="#d5d5d6" stop-opacity="0.22"/><stop offset="1" stop-color="#ededef" stop-opacity="0"/></radialGradient><radialGradient id="c" cx="264.102" cy="247.239" r="154.744" gradientTransform="translate(0.008 0.001)" gradientUnits="userSpaceOnUse"><stop offset="0" stop-color="#f5f4f5"/><stop offset="0.431" stop-color="#f8f7f8"/><stop offset="0.715" stop-color="#fff"/></radialGradient><filter id="d" x="173.16" y="22.058" width="96.046" height="86.345" filterUnits="userSpaceOnUse"><feOffset dx="5" dy="5" input="SourceAlpha"/><feGaussianBlur stdDeviation="2.5" result="e"/><feFlood flood-color="#040505" flood-opacity="0.4"/><feComposite operator="in" in2="e"/><feComposite in="SourceGraphic"/></filter><filter id="f" x="224.206" y="76.822" width="78.139" height="102.699" filterUnits="userSpaceOnUse"><feOffset dx="5" dy="5" input="SourceAlpha"/><feGaussianBlur stdDeviation="2.5" result="g"/><feFlood flood-color="#040505" flood-opacity="0.4"/><feComposite operator="in" in2="g"/><feComposite in="SourceGraphic"/></filter><filter id="h" x="202.733" y="177.404" width="93.574" height="96.862" filterUnits="userSpaceOnUse"><feOffset dx="5" dy="5" input="SourceAlpha"/><feGaussianBlur stdDeviation="2.5" result="i"/><feFlood flood-color="#040505" flood-opacity="0.4"/><feComposite operator="in" in2="i"/><feComposite in="SourceGraphic"/></filter><filter id="j" x="37.998" y="177.404" width="93.574" height="96.862" filterUnits="userSpaceOnUse"><feOffset dx="5" dy="5" input="SourceAlpha"/><feGaussianBlur stdDeviation="2.5" result="k"/><feFlood flood-color="#040505" flood-opacity="0.4"/><feComposite operator="in" in2="k"/><feComposite in="SourceGraphic"/></filter><filter id="l" x="31.959" y="76.822" width="78.14" height="102.699" filterUnits="userSpaceOnUse"><feOffset dx="5" dy="5" input="SourceAlpha"/><feGaussianBlur stdDeviation="2.5" result="m"/><feFlood flood-color="#040505" flood-opacity="0.4"/><feComposite operator="in" in2="m"/><feComposite in="SourceGraphic"/></filter><filter id="n" x="65.099" y="22.058" width="96.046" height="86.345" filterUnits="userSpaceOnUse"><feOffset dx="5" dy="5" input="SourceAlpha"/><feGaussianBlur stdDeviation="2.5" result="o"/><feFlood flood-color="#040505" flood-opacity="0.4"/><feComposite operator="in" in2="o"/><feComposite in="SourceGraphic"/></filter><radialGradient id="p" cx="16.547" cy="16.547" r="16.547" gradientTransform="matrix(0.629, 0.778, -0.778, 0.629, 19.016, -6.724)" xlink:href="#c"/><radialGradient id="q" cx="16.547" cy="16.547" r="16.547" gradientTransform="matrix(0.629, 0.778, -0.778, 0.629, 19.016, -6.724)" xlink:href="#c"/><radialGradient id="r" cx="16.547" cy="16.547" r="16.547" gradientTransform="matrix(0.629, 0.778, -0.778, 0.629, 19.016, -6.724)" xlink:href="#c"/><radialGradient id="s" cx="16.547" cy="16.547" r="16.547" gradientTransform="matrix(0.629, 0.778, -0.778, 0.629, 19.016, -6.724)" xlink:href="#c"/><radialGradient id="t" cx="16.547" cy="16.547" r="16.547" gradientTransform="matrix(0.629, 0.778, -0.778, 0.629, 19.016, -6.724)" xlink:href="#c"/><radialGradient id="u" cx="16.547" cy="16.547" r="16.547" gradientTransform="matrix(0.629, 0.778, -0.778, 0.629, 19.016, -6.724)" xlink:href="#c"/><radialGradient id="v" cx="16.547" cy="16.547" r="16.547" gradientTransform="matrix(0.629, 0.778, -0.778, 0.629, 19.016, -6.724)" xlink:href="#c"/></defs><g transform="translate(-170.346 -168.349)"><g transform="translate(262.591 249.41)"><path d="M363.49,253.421a70.122,70.122,0,1,0,20.538,49.584A69.9,69.9,0,0,0,363.49,253.421Z" transform="translate(-243.784 -232.883)" fill="url(#a)"/><path d="M268.267,331.312,301.2,364.3q2.913.241,5.891.245a70.737,70.737,0,0,0,70.67-70.8q0-1.683-.079-3.349l-23.973-24.018Z" transform="translate(-237.514 -224.305)" fill="url(#b)"/><g transform="translate(15.954 15.892)"><path d="M363.455,299.021a53.485,53.485,0,1,1-53.483-53.486A53.483,53.483,0,0,1,363.455,299.021Z" transform="translate(-256.485 -245.535)" fill="#fff"/><path d="M363.177,298.717A53.484,53.484,0,1,0,309.694,352.2,53.276,53.276,0,0,0,363.177,298.717Z" transform="translate(-256.207 -245.231)" fill="url(#c)"/><g transform="translate(9.476 30.028)"><path d="M356.116,269.441A53.491,53.491,0,0,1,264.029,322.7a53.322,53.322,0,0,0,92.087-53.263Z" transform="translate(-264.029 -269.441)" fill="#ededef"/></g></g></g><path d="M299.438,178.433A138.217,138.217,0,0,1,407.5,230.473l-54.031,43.088a69.1,69.1,0,0,0-54.03-26.02Z" transform="translate(33.06 2.582)" fill="#4c2e85" fill-rule="evenodd"/><path d="M396.484,219.863a138.214,138.214,0,0,1,26.688,116.931L355.8,321.417a69.1,69.1,0,0,0-13.345-58.466Z" transform="translate(44.075 13.192)" fill="#003a72" fill-rule="evenodd"/><path d="M428.076,316.089a138.217,138.217,0,0,1-74.782,93.772L323.31,347.6a69.107,69.107,0,0,0,37.39-46.885Z" transform="translate(39.173 33.897)" fill="#940b29" fill-rule="evenodd"/><path d="M371.634,400.3a138.216,138.216,0,0,1-119.938,0l29.984-62.265a69.105,69.105,0,0,0,59.97,0Z" transform="translate(20.833 43.456)" fill="#131c4e" fill-rule="evenodd"/><path d="M266.943,409.862a138.217,138.217,0,0,1-74.782-93.772l67.376-15.377a69.112,69.112,0,0,0,37.39,46.886Z" transform="translate(5.587 33.897)" fill="#ab224e" fill-rule="evenodd"/><path d="M192.868,336.794a138.215,138.215,0,0,1,26.689-116.931l54.031,43.088a69.1,69.1,0,0,0-13.345,58.466Z" transform="translate(4.88 13.192)" fill="#005ba8" fill-rule="evenodd"/><path d="M213.409,230.473a138.217,138.217,0,0,1,108.062-52.04v69.108a69.1,69.1,0,0,0-54.03,26.02Z" transform="translate(11.028 2.582)" fill="#2b2d41" fill-rule="evenodd"/><g transform="matrix(1, 0, 0, 1, 170.35, 168.35)" filter="url(#d)"><path d="M310.192,187.9a103.66,103.66,0,0,1,81.046,39.029l-40.523,32.316a51.828,51.828,0,0,0-40.523-19.515Z" transform="translate(-134.53 -163.34)" fill="#4c2e85" fill-rule="evenodd"/></g><g transform="matrix(1, 0, 0, 1, 170.35, 168.35)" filter="url(#f)"><path d="M391.354,231.5a103.665,103.665,0,0,1,20.017,87.7L360.84,307.665a51.828,51.828,0,0,0-10.009-43.849Z" transform="translate(-124.12 -152.18)" fill="#003a72" fill-rule="evenodd"/></g><g transform="matrix(1, 0, 0, 1, 170.35, 168.35)" filter="url(#h)"><path d="M412.31,323.107a103.663,103.663,0,0,1-56.086,70.329l-22.488-46.7a51.832,51.832,0,0,0,28.042-35.164Z" transform="translate(-128.5 -131.67)" fill="#940b29" fill-rule="evenodd"/></g><g transform="matrix(1, 0, 0, 1, 170.35, 168.35)" filter="url(#j)"><path d="M258.673,393.436a103.663,103.663,0,0,1-56.086-70.329l50.531-11.533a51.832,51.832,0,0,0,28.042,35.164Z" transform="translate(-162.09 -131.67)" fill="#ab224e" fill-rule="evenodd"/></g><g transform="matrix(1, 0, 0, 1, 170.35, 168.35)" filter="url(#l)"><path d="M200.379,319.2A103.666,103.666,0,0,1,220.4,231.5l40.523,32.317a51.828,51.828,0,0,0-10.009,43.849Z" transform="translate(-163.32 -152.18)" fill="#005ba8" fill-rule="evenodd"/></g><g transform="matrix(1, 0, 0, 1, 170.35, 168.35)" filter="url(#n)"><path d="M224.163,226.929A103.66,103.66,0,0,1,305.209,187.9v51.83a51.832,51.832,0,0,0-40.523,19.515Z" transform="translate(-156.56 -163.34)" fill="#2b2d41" fill-rule="evenodd"/></g><ellipse cx="20.517" cy="20.517" rx="20.517" ry="20.517" transform="translate(367.668 186.999) rotate(-25.807)" fill="#4c2e85"/><ellipse cx="16.547" cy="16.547" rx="16.547" ry="16.547" transform="matrix(0.629, -0.778, 0.778, 0.629, 371.8, 199.007)" fill="url(#p)"/><ellipse cx="20.517" cy="20.517" rx="20.517" ry="20.517" transform="translate(242.311 186.213) rotate(-25.807)" fill="#2b2d41"/><ellipse cx="16.547" cy="16.547" rx="16.547" ry="16.547" transform="matrix(0.629, -0.778, 0.778, 0.629, 246.443, 198.221)" fill="url(#q)"/><ellipse cx="20.517" cy="20.517" rx="20.517" ry="20.517" transform="translate(305.096 447.908) rotate(-25.807)" fill="#131c4e"/><ellipse cx="16.547" cy="16.547" rx="16.547" ry="16.547" transform="matrix(0.629, -0.778, 0.778, 0.629, 309.227, 459.915)" fill="url(#r)"/><ellipse cx="20.517" cy="20.517" rx="20.517" ry="20.517" transform="translate(439.846 278.187) rotate(-25.807)" fill="#003a72"/><ellipse cx="16.547" cy="16.547" rx="16.547" ry="16.547" transform="matrix(0.629, -0.778, 0.778, 0.629, 443.977, 290.195)" fill="url(#s)"/><ellipse cx="20.517" cy="20.517" rx="20.517" ry="20.517" transform="translate(170.346 278.187) rotate(-25.807)" fill="#005ba8"/><ellipse cx="16.547" cy="16.547" rx="16.547" ry="16.547" transform="matrix(0.629, -0.778, 0.778, 0.629, 174.477, 290.195)" fill="url(#t)"/><ellipse cx="20.517" cy="20.517" rx="20.517" ry="20.517" transform="translate(197.035 398.976) rotate(-25.807)" fill="#ab224e"/><ellipse cx="16.547" cy="16.547" rx="16.547" ry="16.547" transform="matrix(0.629, -0.778, 0.778, 0.629, 201.166, 410.984)" fill="url(#u)"/><ellipse cx="20.517" cy="20.517" rx="20.517" ry="20.517" transform="translate(412.567 398.976) rotate(-25.807)" fill="#940b29"/><ellipse cx="16.547" cy="16.547" rx="16.547" ry="16.547" transform="matrix(0.629, -0.778, 0.778, 0.629, 416.698, 410.984)" fill="url(#v)"/><path d="M.975-6.059c0-3.608-1.675-5.654-4.156-5.654-2.5,0-4.172,2.046-4.172,5.654S-5.677-.406-3.181-.406C-.7-.406.975-2.451.975-6.059Zm-1.482,0c0,2.835-1,4.381-2.674,4.381s-2.69-1.546-2.69-4.381,1.015-4.381,2.69-4.381S-.507-8.894-.507-6.059ZM5.871-.615V-11.536H4.615L2.006-10.328l.161,1.16,2.271-.854V-.615Z" transform="translate(395.712 201.349)" fill="#4c2e85"/><g transform="translate(366.726 216.783)"><g transform="translate(0 22.61)"><path d="M349.79,224.908H327.18a.492.492,0,1,0,0,.984h22.61a.492.492,0,1,0,0-.984Z" transform="translate(-326.688 -224.908)" fill="#fff"/></g><g transform="translate(0.984 16.712)"><path d="M330.911,220.213h-2.949a.491.491,0,0,0-.491.491v5.9a.491.491,0,0,0,.491.491h2.949a.492.492,0,0,0,.492-.491v-5.9A.492.492,0,0,0,330.911,220.213Zm-.491,5.9h-1.966V221.2h1.966v4.915Z" transform="translate(-327.471 -220.213)" fill="#fff"/></g><g transform="translate(6.882 11.797)"><path d="M335.607,216.3h-2.949a.491.491,0,0,0-.491.491V227.6a.491.491,0,0,0,.491.491h2.949a.491.491,0,0,0,.491-.491V216.791A.491.491,0,0,0,335.607,216.3Zm-.491,10.812h-1.967v-9.83h1.967v9.83Z" transform="translate(-332.167 -216.3)" fill="#fff"/></g><g transform="translate(12.781 13.763)"><path d="M340.3,217.865h-2.949a.491.491,0,0,0-.491.491V227.2a.491.491,0,0,0,.491.491H340.3a.491.491,0,0,0,.491-.491v-8.848A.491.491,0,0,0,340.3,217.865Zm-.492,8.847h-1.966v-7.864h1.966Z" transform="translate(-336.863 -217.865)" fill="#fff"/></g><g transform="translate(18.678 7.864)"><path d="M345,213.169H342.05a.492.492,0,0,0-.492.491v14.747a.492.492,0,0,0,.492.491H345a.491.491,0,0,0,.491-.491V213.66A.491.491,0,0,0,345,213.169Zm-.492,14.745h-1.966V214.153h1.966Z" transform="translate(-341.558 -213.169)" fill="#fff"/></g><g transform="translate(0.984 8.848)"><path d="M329.437,213.952a1.966,1.966,0,1,0,1.967,1.966A1.968,1.968,0,0,0,329.437,213.952Zm0,2.949a.984.984,0,1,1,.983-.984A.984.984,0,0,1,329.437,216.9Z" transform="translate(-327.471 -213.952)" fill="#fff"/></g><g transform="translate(6.882 3.932)"><path d="M334.133,210.038a1.966,1.966,0,1,0,1.966,1.967A1.969,1.969,0,0,0,334.133,210.038Zm0,2.949a.983.983,0,1,1,.984-.982A.984.984,0,0,1,334.133,212.987Z" transform="translate(-332.167 -210.038)" fill="#fff"/></g><g transform="translate(12.781 5.899)"><path d="M338.829,211.6a1.966,1.966,0,1,0,1.966,1.966A1.968,1.968,0,0,0,338.829,211.6Zm0,2.949a.984.984,0,1,1,.982-.984A.985.985,0,0,1,338.829,214.553Z" transform="translate(-336.863 -211.604)" fill="#fff"/></g><g transform="translate(18.678)"><path d="M343.525,206.908a1.966,1.966,0,1,0,1.966,1.966A1.968,1.968,0,0,0,343.525,206.908Zm0,2.949a.983.983,0,1,1,.982-.984A.985.985,0,0,1,343.525,209.857Z" transform="translate(-341.558 -206.908)" fill="#fff"/></g><g transform="translate(15.298 2.516)"><path d="M343.52,209.055a.491.491,0,0,0-.695,0l-3.815,3.814a.492.492,0,0,0,.7.7l3.814-3.815A.491.491,0,0,0,343.52,209.055Z" transform="translate(-338.867 -208.911)" fill="#fff"/></g><g transform="translate(9.774 5.81)"><path d="M338.253,212.454l-3.158-.9a.492.492,0,0,0-.27.946l3.158.9a.5.5,0,0,0,.134.019.492.492,0,0,0,.136-.965Z" transform="translate(-334.47 -211.533)" fill="#fff"/></g><g transform="translate(3.5 6.326)"><path d="M334.056,212.129a.492.492,0,0,0-.691-.078l-3.705,2.954a.492.492,0,0,0,.306.877.5.5,0,0,0,.305-.107l3.707-2.954A.493.493,0,0,0,334.056,212.129Z" transform="translate(-329.475 -211.944)" fill="#fff"/></g></g><path d="M-22.385-9.813-18.3.388l4.087-10.2h2.138v12.5h-1.649V-2.18l.155-5.255-4.1,10.124h-1.262l-4.1-10.1.163,5.229V2.689h-1.649v-12.5Zm12.378,7.771A5.488,5.488,0,0,1-9.47-4.5,4,4,0,0,1-7.976-6.181a4.067,4.067,0,0,1,2.185-.592A3.918,3.918,0,0,1-2.721-5.46,5.054,5.054,0,0,1-1.549-1.965v.112A5.535,5.535,0,0,1-2.069.581,3.945,3.945,0,0,1-3.554,2.26a4.114,4.114,0,0,1-2.22.6A3.908,3.908,0,0,1-8.835,1.547a5.029,5.029,0,0,1-1.172-3.478Zm1.6.189A3.975,3.975,0,0,0-7.693.628a2.3,2.3,0,0,0,1.919.936A2.281,2.281,0,0,0-3.85.615a4.346,4.346,0,0,0,.713-2.658,3.968,3.968,0,0,0-.726-2.477,2.307,2.307,0,0,0-1.928-.949,2.281,2.281,0,0,0-1.9.936A4.314,4.314,0,0,0-8.41-1.853ZM-5.07-10.5h1.923l-2.3,2.524-1.279,0Zm4.95,8.466A5.443,5.443,0,0,1,.894-5.473a3.2,3.2,0,0,1,2.653-1.3A3.222,3.222,0,0,1,6.132-5.657V-10.5H7.72V2.689H6.261l-.077-1A3.235,3.235,0,0,1,3.53,2.861,3.173,3.173,0,0,1,.9,1.538,5.5,5.5,0,0,1-.119-1.913Zm1.589.18A4.121,4.121,0,0,0,2.122.62a2.11,2.11,0,0,0,1.8.893A2.317,2.317,0,0,0,6.132.156V-4.112a2.335,2.335,0,0,0-2.19-1.314,2.12,2.12,0,0,0-1.82.9A4.537,4.537,0,0,0,1.469-1.853ZM15.745,1.77a3.374,3.374,0,0,1-2.722,1.09A2.888,2.888,0,0,1,10.76,2,3.735,3.735,0,0,1,9.974-.557V-6.6h1.589v6q0,2.112,1.717,2.112A2.378,2.378,0,0,0,15.7.156V-6.6H17.29V2.689H15.779Zm5.508.919H19.665V-10.5h1.589ZM23.2-2.042A5.488,5.488,0,0,1,23.735-4.5a4,4,0,0,1,1.494-1.683,4.067,4.067,0,0,1,2.185-.592,3.918,3.918,0,0,1,3.07,1.314,5.054,5.054,0,0,1,1.172,3.495v.112A5.535,5.535,0,0,1,31.136.581,3.945,3.945,0,0,1,29.651,2.26a4.114,4.114,0,0,1-2.22.6A3.908,3.908,0,0,1,24.37,1.547,5.029,5.029,0,0,1,23.2-1.931Zm1.6.189A3.975,3.975,0,0,0,25.512.628a2.3,2.3,0,0,0,1.919.936A2.281,2.281,0,0,0,29.355.615a4.346,4.346,0,0,0,.713-2.658,3.968,3.968,0,0,0-.726-2.477,2.307,2.307,0,0,0-1.928-.949,2.281,2.281,0,0,0-1.9.936A4.314,4.314,0,0,0,24.8-1.853ZM38.882.225a1.169,1.169,0,0,0-.485-1A4.67,4.67,0,0,0,36.7-1.39a8,8,0,0,1-1.915-.618,2.724,2.724,0,0,1-1.048-.859A2.054,2.054,0,0,1,33.4-4.051a2.41,2.41,0,0,1,.966-1.932,3.773,3.773,0,0,1,2.469-.79,3.882,3.882,0,0,1,2.563.816,2.591,2.591,0,0,1,.983,2.087h-1.6A1.434,1.434,0,0,0,38.233-5a2.075,2.075,0,0,0-1.4-.472,2.172,2.172,0,0,0-1.357.378,1.189,1.189,0,0,0-.489.987.964.964,0,0,0,.455.867,5.6,5.6,0,0,0,1.644.558,8.568,8.568,0,0,1,1.928.635,2.812,2.812,0,0,1,1.095.889A2.185,2.185,0,0,1,40.47.113a2.378,2.378,0,0,1-1,2,4.178,4.178,0,0,1-2.585.751,4.678,4.678,0,0,1-1.975-.395,3.212,3.212,0,0,1-1.344-1.1A2.659,2.659,0,0,1,33.086-.17h1.589a1.645,1.645,0,0,0,.64,1.267,2.482,2.482,0,0,0,1.576.468A2.562,2.562,0,0,0,38.336,1.2,1.121,1.121,0,0,0,38.882.225Zm-77.051,19.1a5.443,5.443,0,0,1,1.013-3.439,3.2,3.2,0,0,1,2.653-1.3A3.222,3.222,0,0,1-31.918,15.7V10.854h1.589V24.043h-1.46l-.077-1a3.235,3.235,0,0,1-2.653,1.168,3.173,3.173,0,0,1-2.632-1.322,5.5,5.5,0,0,1-1.018-3.452Zm1.589.18a4.121,4.121,0,0,0,.653,2.473,2.11,2.11,0,0,0,1.8.893,2.317,2.317,0,0,0,2.207-1.357V17.242a2.335,2.335,0,0,0-2.19-1.314,2.12,2.12,0,0,0-1.82.9A4.537,4.537,0,0,0-36.581,19.5Zm12.395,4.714a4.059,4.059,0,0,1-3.074-1.241,4.605,4.605,0,0,1-1.185-3.319v-.292a5.575,5.575,0,0,1,.528-2.469,4.119,4.119,0,0,1,1.477-1.7,3.713,3.713,0,0,1,2.056-.614,3.479,3.479,0,0,1,2.816,1.194,5.168,5.168,0,0,1,1,3.417v.661h-6.294a3.3,3.3,0,0,0,.8,2.22,2.524,2.524,0,0,0,1.953.846,2.767,2.767,0,0,0,1.425-.343,3.581,3.581,0,0,0,1.022-.91l.97.756A3.9,3.9,0,0,1-24.186,24.214Zm-.2-8.329a2.119,2.119,0,0,0-1.614.7,3.4,3.4,0,0,0-.807,1.962h4.654v-.12a3.026,3.026,0,0,0-.653-1.876A2,2,0,0,0-24.383,15.885ZM-6.875,19.5a5.563,5.563,0,0,1-.97,3.417,3.11,3.11,0,0,1-2.627,1.3,3.407,3.407,0,0,1-2.662-1.073v4.474h-1.589V14.752h1.451l.077,1.03a3.272,3.272,0,0,1,2.7-1.2,3.168,3.168,0,0,1,2.649,1.262,5.624,5.624,0,0,1,.975,3.512Zm-1.589-.18a4.1,4.1,0,0,0-.67-2.482,2.158,2.158,0,0,0-1.838-.91,2.335,2.335,0,0,0-2.164,1.279v4.439a2.34,2.34,0,0,0,2.181,1.271,2.147,2.147,0,0,0,1.816-.906A4.481,4.481,0,0,0-8.463,19.32Zm7.921-3.143a4.76,4.76,0,0,0-.781-.06,2.093,2.093,0,0,0-2.121,1.331v6.594H-5.033V14.752h1.546l.026,1.073A2.474,2.474,0,0,1-1.246,14.58a1.623,1.623,0,0,1,.7.12Zm.691,3.134a5.488,5.488,0,0,1,.537-2.456A4,4,0,0,1,2.18,15.173a4.067,4.067,0,0,1,2.185-.592,3.918,3.918,0,0,1,3.07,1.314,5.054,5.054,0,0,1,1.172,3.495V19.5a5.535,5.535,0,0,1-.519,2.434A3.945,3.945,0,0,1,6.6,23.613a4.114,4.114,0,0,1-2.22.6A3.908,3.908,0,0,1,1.321,22.9,5.029,5.029,0,0,1,.149,19.423Zm1.6.189a3.975,3.975,0,0,0,.717,2.482,2.3,2.3,0,0,0,1.919.936,2.281,2.281,0,0,0,1.923-.949,4.346,4.346,0,0,0,.713-2.658,3.968,3.968,0,0,0-.726-2.477,2.307,2.307,0,0,0-1.928-.949,2.281,2.281,0,0,0-1.9.936A4.314,4.314,0,0,0,1.746,19.5Zm8.3-.18a5.46,5.46,0,0,1,1-3.456,3.213,3.213,0,0,1,2.662-1.284,3.2,3.2,0,0,1,2.653,1.2l.077-1.03h1.451v9.067a3.78,3.78,0,0,1-1.069,2.842A3.945,3.945,0,0,1,13.952,27.7a4.778,4.778,0,0,1-1.966-.429,3.385,3.385,0,0,1-1.468-1.176l.824-.953a3.106,3.106,0,0,0,2.5,1.262,2.434,2.434,0,0,0,1.807-.653,2.494,2.494,0,0,0,.648-1.838v-.8a3.265,3.265,0,0,1-2.6,1.1,3.174,3.174,0,0,1-2.64-1.314A5.741,5.741,0,0,1,10.046,19.32Zm1.6.18a4.166,4.166,0,0,0,.644,2.469,2.092,2.092,0,0,0,1.8.9A2.327,2.327,0,0,0,16.3,21.5V17.259a2.354,2.354,0,0,0-2.19-1.331,2.111,2.111,0,0,0-1.812.9A4.537,4.537,0,0,0,11.643,19.5ZM24.6,16.177a4.76,4.76,0,0,0-.781-.06A2.093,2.093,0,0,0,21.7,17.448v6.594H20.113V14.752h1.546l.026,1.073A2.474,2.474,0,0,1,23.9,14.58a1.623,1.623,0,0,1,.7.12Zm6.676,7.865a3.337,3.337,0,0,1-.223-.979,3.544,3.544,0,0,1-2.645,1.151,3.28,3.28,0,0,1-2.254-.777,2.514,2.514,0,0,1-.88-1.971,2.626,2.626,0,0,1,1.1-2.254,5.2,5.2,0,0,1,3.1-.8h1.546v-.73a1.784,1.784,0,0,0-.5-1.327,2,2,0,0,0-1.468-.494,2.316,2.316,0,0,0-1.425.429,1.265,1.265,0,0,0-.575,1.039h-1.6a2.192,2.192,0,0,1,.494-1.344,3.37,3.37,0,0,1,1.34-1.026,4.506,4.506,0,0,1,1.859-.378,3.673,3.673,0,0,1,2.516.8,2.9,2.9,0,0,1,.945,2.211V21.87a5.228,5.228,0,0,0,.326,2.035v.137Zm-2.636-1.211a2.792,2.792,0,0,0,1.417-.386,2.337,2.337,0,0,0,.97-1V19.535H29.786q-2.919,0-2.919,1.709a1.446,1.446,0,0,0,.5,1.168A1.914,1.914,0,0,0,28.644,22.832Zm7.784-8.08.043,1.03a3.431,3.431,0,0,1,2.756-1.2,2.656,2.656,0,0,1,2.653,1.494,3.519,3.519,0,0,1,1.206-1.082,3.563,3.563,0,0,1,1.756-.412q3.057,0,3.108,3.237v6.225H46.363V17.912a2.133,2.133,0,0,0-.455-1.49,2,2,0,0,0-1.528-.494,2.106,2.106,0,0,0-1.468.528,2.142,2.142,0,0,0-.678,1.421v6.165h-1.6V17.955a1.772,1.772,0,0,0-1.983-2.026,2.125,2.125,0,0,0-2.138,1.331v6.783H34.926V14.752Zm19.479,9.291a3.337,3.337,0,0,1-.223-.979,3.544,3.544,0,0,1-2.645,1.151,3.28,3.28,0,0,1-2.254-.777,2.514,2.514,0,0,1-.88-1.971,2.626,2.626,0,0,1,1.1-2.254,5.2,5.2,0,0,1,3.1-.8h1.546v-.73a1.784,1.784,0,0,0-.5-1.327,2,2,0,0,0-1.468-.494,2.316,2.316,0,0,0-1.425.429,1.265,1.265,0,0,0-.575,1.039h-1.6a2.192,2.192,0,0,1,.494-1.344,3.37,3.37,0,0,1,1.34-1.026,4.506,4.506,0,0,1,1.859-.378,3.673,3.673,0,0,1,2.516.8,2.9,2.9,0,0,1,.945,2.211V21.87a5.228,5.228,0,0,0,.326,2.035v.137Zm-2.636-1.211a2.792,2.792,0,0,0,1.417-.386,2.337,2.337,0,0,0,.97-1V19.535H54.413q-2.919,0-2.919,1.709a1.446,1.446,0,0,0,.5,1.168A1.914,1.914,0,0,0,53.271,22.832Z" transform="translate(322.772 311.503)" fill="#003971"/><path d="M-.056-5.408c0-3.584-1.664-5.616-4.128-5.616-2.48,0-4.144,2.032-4.144,5.616S-6.664.208-4.184.208C-1.72.208-.056-1.824-.056-5.408Zm-1.472,0c0,2.816-.992,4.352-2.656,4.352S-6.856-2.592-6.856-5.408-5.848-9.76-4.184-9.76-1.528-8.224-1.528-5.408ZM8.36,0,8.168-1.28H3.192L6.28-4.416C7.608-5.776,8.2-6.656,8.2-7.968c0-1.856-1.28-3.056-3.376-3.056A4.9,4.9,0,0,0,1.592-9.808L1.8-8.416A4.453,4.453,0,0,1,4.744-9.7c1.264,0,1.968.608,1.968,1.824,0,.88-.432,1.568-1.408,2.592L1.3-1.1V0Z" transform="translate(467.199 292.723)" fill="#003a72"/><path d="M.053-5.07c0-3.36-1.56-5.265-3.87-5.265-2.325,0-3.885,1.9-3.885,5.265S-6.142.2-3.817.2C-1.507.2.053-1.71.053-5.07Zm-1.38,0c0,2.64-.93,4.08-2.49,4.08S-6.322-2.43-6.322-5.07s.945-4.08,2.505-4.08S-1.327-7.71-1.327-5.07Zm9.1,2.3A2.464,2.464,0,0,0,5.723-5.34a2.367,2.367,0,0,0,1.86-2.34c0-1.365-.945-2.655-3.225-2.655a4.713,4.713,0,0,0-2.94.93l.195,1.26A4.205,4.205,0,0,1,4.3-9.12c1.275,0,1.905.63,1.905,1.5,0,1.095-.8,1.7-2.475,1.7H2.962l.2,1.2h.465c1.95,0,2.775.735,2.775,1.965,0,1.14-.825,1.74-2.16,1.74a4.638,4.638,0,0,1-2.76-.9L1.252-.6a5.73,5.73,0,0,0,2.91.8C6.383.2,7.778-.99,7.778-2.775Z" transform="translate(440.175 413.512)" fill="#940b29"/><path d="M-.54-5.07c0-3.36-1.56-5.265-3.87-5.265-2.325,0-3.885,1.9-3.885,5.265S-6.735.2-4.41.2C-2.1.2-.54-1.71-.54-5.07Zm-1.38,0c0,2.64-.93,4.08-2.49,4.08S-6.915-2.43-6.915-5.07-5.97-9.15-4.41-9.15-1.92-7.71-1.92-5.07ZM8.685-2.3v-1.11H7.065V-10.17H5.46L.75-3.285v.99H5.82V0H7.065V-2.3ZM5.82-3.405H2.19l3.63-5.25Z" transform="translate(331.449 463.443)" fill="#131c4e"/><path d="M-.08-5.408c0-3.584-1.664-5.616-4.128-5.616-2.48,0-4.144,2.032-4.144,5.616S-6.688.208-4.208.208C-1.744.208-.08-1.824-.08-5.408Zm-1.472,0c0,2.816-.992,4.352-2.656,4.352S-6.88-2.592-6.88-5.408-5.872-9.76-4.208-9.76-1.552-8.224-1.552-5.408ZM8.512-3.392c0-1.952-1.36-3.264-3.568-3.264a5.554,5.554,0,0,0-1.728.272l.24-3.152H8.144l-.192-1.28h-5.7L1.872-5.28l1.072.24a4.477,4.477,0,0,1,1.84-.352,2.005,2.005,0,0,1,2.288,2.08c0,1.568-1.136,2.256-2.592,2.256a4.912,4.912,0,0,1-2.832-.928L1.424-.624A5.533,5.533,0,0,0,4.432.208C6.72.208,8.512-1.04,8.512-3.392Z" transform="translate(223.387 414.512)" fill="#ab224e"/><path d="M-.376-5.408c0-3.584-1.664-5.616-4.128-5.616-2.48,0-4.144,2.032-4.144,5.616S-6.984.208-4.5.208C-2.04.208-.376-1.824-.376-5.408Zm-1.472,0c0,2.816-.992,4.352-2.656,4.352S-7.176-2.592-7.176-5.408-6.168-9.76-4.5-9.76-1.848-8.224-1.848-5.408ZM2.76-5.776c.48-2.3,2.32-3.408,4.528-3.968L7.1-11.024c-3.44.848-5.856,2.912-5.856,6.656C1.24-1.376,2.872.208,5.128.208a3.514,3.514,0,0,0,3.728-3.52A3.1,3.1,0,0,0,5.5-6.624,4.826,4.826,0,0,0,2.76-5.776Zm-.128,1.36A3.909,3.909,0,0,1,5.176-5.36c1.552,0,2.24.8,2.24,2.112a2.079,2.079,0,0,1-2.24,2.192C3.624-1.056,2.648-2.368,2.632-4.416Z" transform="translate(196.699 292.724)" fill="#005ba8"/><path d="M.12-5.07c0-3.36-1.56-5.265-3.87-5.265-2.325,0-3.885,1.9-3.885,5.265S-6.075.2-3.75.2C-1.44.2.12-1.71.12-5.07Zm-1.38,0c0,2.64-.93,4.08-2.49,4.08S-6.255-2.43-6.255-5.07-5.31-9.15-3.75-9.15-1.26-7.71-1.26-5.07ZM7.725-9.09v-1.05H1.005l.18,1.215H6.21L2.34-.2l1.32.3Z" transform="translate(268.921 200.749)" fill="#2b2d41"/><g transform="translate(417.31 280.243)"><g transform="translate(7.285 5.14)"><path d="M380.788,264.43a.5.5,0,0,0-.4-.34l-2.177-.317-.973-1.972a.5.5,0,0,0-.448-.279h0a.5.5,0,0,0-.45.279l-.972,1.973-2.177.317a.5.5,0,0,0-.278.854l1.576,1.535-.372,2.168a.5.5,0,0,0,.2.489.5.5,0,0,0,.526.038l1.947-1.024,1.947,1.024a.5.5,0,0,0,.726-.528l-.372-2.168,1.574-1.536A.5.5,0,0,0,380.788,264.43Zm-2.589,1.516a.5.5,0,0,0-.143.442l.245,1.428-1.282-.674a.5.5,0,0,0-.466,0l-1.281.674.244-1.428a.5.5,0,0,0-.143-.443l-1.038-1.011,1.433-.209a.5.5,0,0,0,.377-.274l.641-1.3.642,1.3a.5.5,0,0,0,.377.274l1.433.207Z" transform="translate(-372.758 -261.522)" fill="#fff"/></g><g transform="translate(0 0)"><path d="M389.516,279.414l-4.136-7.194a9.107,9.107,0,1,0-14.219,0l-4.135,7.194a.5.5,0,0,0,.5.746l3.228-.433,1.238,3.012a.5.5,0,0,0,.43.309h.034a.5.5,0,0,0,.432-.25l4.175-7.233v0a9.231,9.231,0,0,0,2.412,0v0l4.175,7.233a.5.5,0,0,0,.433.25h.034a.5.5,0,0,0,.43-.309l1.239-3.012,3.228.433a.5.5,0,0,0,.5-.746Zm-16.985,2-.9-2.192.809-1.321a.5.5,0,0,0-.853-.523l-.818,1.334-2.369.319L371.865,273a9.1,9.1,0,0,0,4.16,2.359Zm5.739-6.774a8.106,8.106,0,1,1,8.107-8.106A8.114,8.114,0,0,1,378.27,274.642Zm7.5,4.072-.818-1.334a.5.5,0,0,0-.853.523l.809,1.321-.9,2.192-3.494-6.053a9.11,9.11,0,0,0,4.16-2.359l3.466,6.029Z" transform="translate(-366.959 -257.43)" fill="#fff"/></g><g transform="translate(7.871 2.603)"><path d="M376.666,259.5a6.511,6.511,0,0,0-3.185.832.5.5,0,0,0,.491.873,5.506,5.506,0,0,1,7.665,7.169.5.5,0,0,0,.236.667.5.5,0,0,0,.667-.236,6.443,6.443,0,0,0,.632-2.8A6.512,6.512,0,0,0,376.666,259.5Z" transform="translate(-373.225 -259.502)" fill="#fff"/></g><g transform="translate(4.807 6.12)"><path d="M380.622,270.31a.5.5,0,0,0-.68-.2,5.507,5.507,0,0,1-7.665-7.1.5.5,0,0,0-.911-.416,6.507,6.507,0,0,0,9.058,8.4A.5.5,0,0,0,380.622,270.31Z" transform="translate(-370.786 -262.302)" fill="#fff"/></g><g transform="translate(6.407 4.515)"><path d="M372.912,261.158a.5.5,0,0,0-.707.025l-.011.011a.5.5,0,1,0,.735.68l.009-.009A.5.5,0,0,0,372.912,261.158Z" transform="translate(-372.06 -261.024)" fill="#fff"/></g></g><g transform="translate(401.222 369.365)"><path d="M366.05,328.382h-11.9v22.026H371.4V333.737Zm.215,1.254,3.886,3.886h-3.886Zm-11.379,20.037V329.117h10.645v5.139h5.139v15.417Z" transform="translate(-354.151 -328.382)" fill="#fff" stroke="#fff" stroke-miterlimit="10" stroke-width="0.4"/><path d="M365.944,334.519h-5.874a.367.367,0,0,0,0,.735h5.874a.367.367,0,0,0,0-.735Z" transform="translate(-352.729 -326.81)" fill="#fff" stroke="#fff" stroke-miterlimit="10" stroke-width="0.4"/><path d="M359.489,333.724l-1.579,1.262-.5-.5a.367.367,0,1,0-.519.519l.734.735a.371.371,0,0,0,.26.107.363.363,0,0,0,.229-.08l1.836-1.468a.367.367,0,0,0-.458-.573Z" transform="translate(-353.477 -327.035)" fill="#fff" stroke="#fff" stroke-miterlimit="10" stroke-width="0.4"/><path d="M365.944,337.734h-5.874a.367.367,0,0,0,0,.735h5.874a.367.367,0,0,0,0-.735Z" transform="translate(-352.729 -325.987)" fill="#fff" stroke="#fff" stroke-miterlimit="10" stroke-width="0.4"/><path d="M359.489,336.937,357.91,338.2l-.5-.5a.367.367,0,1,0-.519.52l.734.734a.367.367,0,0,0,.26.108.363.363,0,0,0,.229-.08l1.836-1.468a.367.367,0,0,0-.458-.574Z" transform="translate(-353.477 -326.211)" fill="#fff" stroke="#fff" stroke-miterlimit="10" stroke-width="0.4"/><path d="M365.944,340.949h-5.874a.367.367,0,0,0,0,.734h5.874a.367.367,0,0,0,0-.734Z" transform="translate(-352.729 -325.164)" fill="#fff" stroke="#fff" stroke-miterlimit="10" stroke-width="0.4"/><path d="M359.489,340.152l-1.579,1.264-.5-.5a.367.367,0,1,0-.519.519l.734.735a.371.371,0,0,0,.26.107.363.363,0,0,0,.229-.08l1.836-1.468a.367.367,0,0,0-.458-.573Z" transform="translate(-353.477 -325.388)" fill="#fff" stroke="#fff" stroke-miterlimit="10" stroke-width="0.4"/></g><g transform="translate(320.452 401.766)"><g transform="translate(10.035 8.457)"><path d="M299.848,360.909a2.012,2.012,0,1,0,2.012,2.012A2.012,2.012,0,0,0,299.848,360.909Zm0,3.219a1.207,1.207,0,1,1,1.208-1.207A1.207,1.207,0,0,1,299.848,364.128Z" transform="translate(-297.837 -360.909)" fill="#fff"/></g><g transform="translate(7.619)"><path d="M304.5,363.822l-.556-.245c-.021-.078-.045-.153-.07-.226l.31-.533a.405.405,0,0,0,0-.4,4.533,4.533,0,0,0-.579-.81.4.4,0,0,0-.389-.123l-.464.105v-2.58A2.416,2.416,0,0,0,301.5,356.9a1.609,1.609,0,1,0-2.328,0,2.416,2.416,0,0,0-1.251,2.114v2.58l-.463-.105a.4.4,0,0,0-.389.123,4.442,4.442,0,0,0-.579.81.4.4,0,0,0,0,.4l.309.534c-.024.073-.048.147-.069.222l-.578.247a.4.4,0,0,0-.245.369v.911a.4.4,0,0,0,.245.371l.578.246c.021.077.045.151.069.222l-.309.534a.405.405,0,0,0,0,.4,4.476,4.476,0,0,0,.579.809.4.4,0,0,0,.389.124l.584-.134c.058.045.117.089.177.131l.057.621a.4.4,0,0,0,.232.328,4.273,4.273,0,0,0,.933.314.4.4,0,0,0,.387-.131l.409-.476h.2l.411.476a.4.4,0,0,0,.387.131,4.3,4.3,0,0,0,.933-.314.4.4,0,0,0,.231-.328l.058-.621c.06-.041.119-.085.177-.131l.584.134a.4.4,0,0,0,.389-.124,4.477,4.477,0,0,0,.579-.809.405.405,0,0,0,0-.4l-.31-.534c.025-.073.049-.148.07-.225l.556-.245a.405.405,0,0,0,.24-.369v-.911A.4.4,0,0,0,304.5,363.822Zm-4.161-8.834a.805.805,0,1,1-.8.805A.805.805,0,0,1,300.34,354.987Zm-1.609,4.025a1.61,1.61,0,1,1,3.219,0v1.442a4.179,4.179,0,0,0-.715-.226.4.4,0,0,0-.387.131l-.409.476h-.2l-.409-.476a.4.4,0,0,0-.387-.131,4.181,4.181,0,0,0-.715.226v-1.442Zm5.205,5.827-.5.219a.406.406,0,0,0-.23.279,3.023,3.023,0,0,1-.151.486.4.4,0,0,0,.024.355l.286.494q-.1.151-.211.294l-.539-.123a.4.4,0,0,0-.355.09,3.1,3.1,0,0,1-.4.3.4.4,0,0,0-.188.305l-.053.575a3.274,3.274,0,0,1-.324.109l-.369-.428a.4.4,0,0,0-.305-.139h-.565a.4.4,0,0,0-.3.139l-.369.428a3.279,3.279,0,0,1-.324-.109l-.053-.575a.4.4,0,0,0-.188-.305,3.1,3.1,0,0,1-.4-.3.4.4,0,0,0-.357-.09l-.539.123c-.074-.1-.144-.193-.21-.294l.286-.494a.4.4,0,0,0,.024-.355,3.119,3.119,0,0,1-.152-.486.4.4,0,0,0-.234-.281l-.518-.22v-.379l.518-.22a.4.4,0,0,0,.234-.281,3.12,3.12,0,0,1,.152-.486.4.4,0,0,0-.024-.355l-.286-.494c.065-.1.136-.2.21-.294l.539.123a.405.405,0,0,0,.357-.09,3.1,3.1,0,0,1,.4-.3.4.4,0,0,0,.188-.305l.053-.575c.108-.043.216-.079.324-.111l.369.428a.4.4,0,0,0,.3.141h.565a.4.4,0,0,0,.305-.141l.369-.428c.108.031.216.068.324.111l.053.575a.4.4,0,0,0,.188.305,3.1,3.1,0,0,1,.4.3.4.4,0,0,0,.355.09l.539-.123q.113.143.211.294l-.286.494a.4.4,0,0,0-.024.355,2.985,2.985,0,0,1,.151.486.406.406,0,0,0,.23.279l.5.219v.387Z" transform="translate(-295.914 -354.176)" fill="#fff"/></g><g transform="translate(17.681 17.712)"><path d="M305.935,368.277a2.012,2.012,0,1,0,2.012,2.012A2.012,2.012,0,0,0,305.935,368.277Zm0,3.219a1.207,1.207,0,1,1,1.207-1.207A1.208,1.208,0,0,1,305.935,371.5Z" transform="translate(-303.924 -368.277)" fill="#fff"/></g><g transform="translate(15.265 9.256)"><path d="M310.589,371.19l-.556-.246c-.021-.077-.045-.152-.07-.225l.31-.534a.405.405,0,0,0,0-.4,4.482,4.482,0,0,0-.579-.809.4.4,0,0,0-.389-.124l-.463.107V366.38a2.417,2.417,0,0,0-1.251-2.114,1.609,1.609,0,1,0-2.329,0,2.418,2.418,0,0,0-1.25,2.114v2.581l-.464-.107a.4.4,0,0,0-.389.124,4.479,4.479,0,0,0-.579.809.4.4,0,0,0,0,.4l.309.534c-.024.072-.048.146-.069.222l-.578.246a.4.4,0,0,0-.245.371v.911a.4.4,0,0,0,.245.371l.578.246c.021.077.045.15.069.222l-.309.533a.4.4,0,0,0,0,.4,4.488,4.488,0,0,0,.579.81.4.4,0,0,0,.389.123l.584-.133c.058.045.117.088.177.131l.057.619a.4.4,0,0,0,.231.329,4.3,4.3,0,0,0,.934.313.4.4,0,0,0,.387-.131l.409-.476h.2l.411.476a.4.4,0,0,0,.387.131,4.294,4.294,0,0,0,.933-.313.4.4,0,0,0,.231-.329l.058-.619c.06-.043.119-.085.177-.131l.584.133a.4.4,0,0,0,.389-.123,4.544,4.544,0,0,0,.579-.809.405.405,0,0,0,0-.4l-.31-.534c.025-.073.049-.148.07-.226l.556-.245a.4.4,0,0,0,.24-.368v-.911A.4.4,0,0,0,310.589,371.19Zm-4.161-8.834a.8.8,0,1,1-.8.8A.8.8,0,0,1,306.427,362.356Zm-1.609,4.023a1.61,1.61,0,0,1,3.219,0v1.442a4.177,4.177,0,0,0-.715-.226.4.4,0,0,0-.387.131l-.411.476h-.2l-.409-.476a.4.4,0,0,0-.387-.131,4.18,4.18,0,0,0-.715.226V366.38Zm5.205,5.827-.5.219a.406.406,0,0,0-.23.279,2.986,2.986,0,0,1-.151.486.4.4,0,0,0,.024.355l.286.495c-.065.1-.136.2-.211.293l-.539-.123a.4.4,0,0,0-.355.09,2.883,2.883,0,0,1-.4.3.4.4,0,0,0-.188.306l-.053.574c-.108.043-.216.079-.324.111l-.369-.428a.4.4,0,0,0-.305-.139h-.565a.4.4,0,0,0-.3.139l-.369.428c-.108-.031-.216-.068-.324-.111l-.053-.574a.4.4,0,0,0-.188-.306,2.813,2.813,0,0,1-.4-.3.4.4,0,0,0-.357-.09l-.539.123c-.074-.094-.144-.192-.21-.293l.286-.495a.4.4,0,0,0,.024-.355,3.106,3.106,0,0,1-.152-.486.4.4,0,0,0-.234-.28l-.517-.221v-.379l.517-.22a.4.4,0,0,0,.234-.28,3.124,3.124,0,0,1,.152-.487.4.4,0,0,0-.024-.355l-.286-.494c.065-.1.134-.2.21-.294l.539.124a.405.405,0,0,0,.357-.09,3,3,0,0,1,.4-.3.4.4,0,0,0,.188-.305l.053-.574a3.286,3.286,0,0,1,.324-.111l.369.428a.4.4,0,0,0,.3.139h.565a.406.406,0,0,0,.305-.139l.369-.428a3.287,3.287,0,0,1,.324.111l.053.574a.4.4,0,0,0,.188.305,2.993,2.993,0,0,1,.4.3.4.4,0,0,0,.355.09l.539-.124q.113.143.211.294l-.286.494a.4.4,0,0,0-.024.355,3.028,3.028,0,0,1,.151.486.406.406,0,0,0,.23.279l.5.22Z" transform="translate(-302.001 -361.545)" fill="#fff"/></g><g transform="translate(2.389 17.712)"><path d="M293.762,368.277a2.012,2.012,0,1,0,2.011,2.012A2.013,2.013,0,0,0,293.762,368.277Zm0,3.219a1.207,1.207,0,1,1,1.207-1.207A1.208,1.208,0,0,1,293.762,371.5Z" transform="translate(-291.75 -368.277)" fill="#fff"/></g><g transform="translate(0 9.256)"><path d="M298.41,371.19l-.556-.246c-.021-.077-.045-.152-.07-.225l.31-.534a.405.405,0,0,0,0-.4,4.481,4.481,0,0,0-.579-.809.4.4,0,0,0-.389-.124l-.464.107V366.38a2.417,2.417,0,0,0-1.251-2.114,1.609,1.609,0,1,0-2.328,0,2.417,2.417,0,0,0-1.251,2.114v2.581l-.464-.107a.4.4,0,0,0-.389.124,4.481,4.481,0,0,0-.579.809.405.405,0,0,0,0,.4l.309.534c-.025.073-.048.148-.069.225l-.556.246a.4.4,0,0,0-.24.368v.911a.4.4,0,0,0,.24.368l.556.245c.021.078.045.153.07.226l-.31.534a.4.4,0,0,0,0,.4,4.489,4.489,0,0,0,.579.81.4.4,0,0,0,.389.123l.584-.133c.058.045.117.088.177.131l.057.619a.4.4,0,0,0,.232.329,4.343,4.343,0,0,0,.933.314.405.405,0,0,0,.387-.132l.41-.476h.2l.41.476a.405.405,0,0,0,.387.132,4.366,4.366,0,0,0,.933-.314.4.4,0,0,0,.232-.328l.057-.621c.06-.043.119-.085.177-.131l.584.133a.4.4,0,0,0,.389-.123,4.48,4.48,0,0,0,.579-.809.405.405,0,0,0,0-.4l-.31-.534c.026-.073.049-.148.07-.226l.556-.245a.4.4,0,0,0,.24-.368v-.911A.4.4,0,0,0,298.41,371.19Zm-4.16-8.834a.8.8,0,1,1-.805.8A.8.8,0,0,1,294.249,362.356Zm-1.61,4.023a1.61,1.61,0,0,1,3.219,0v1.442a4.178,4.178,0,0,0-.715-.226.4.4,0,0,0-.387.131l-.41.476h-.2l-.411-.476a.4.4,0,0,0-.387-.131,4.176,4.176,0,0,0-.715.226V366.38Zm5.205,5.827-.5.219a.406.406,0,0,0-.23.279,2.983,2.983,0,0,1-.151.486.4.4,0,0,0,.024.355l.286.495c-.065.1-.136.2-.211.293l-.539-.123a.4.4,0,0,0-.355.09,2.885,2.885,0,0,1-.4.3.4.4,0,0,0-.188.306l-.053.574c-.108.043-.216.079-.324.111l-.369-.428a.4.4,0,0,0-.305-.139h-.564a.4.4,0,0,0-.305.139l-.369.428c-.108-.031-.216-.068-.324-.111l-.053-.574a.4.4,0,0,0-.188-.306,2.885,2.885,0,0,1-.4-.3.4.4,0,0,0-.357-.09l-.538.123c-.075-.094-.146-.192-.211-.293l.286-.495a.4.4,0,0,0,.024-.355,2.983,2.983,0,0,1-.151-.486.4.4,0,0,0-.231-.279l-.495-.219v-.386l.5-.22a.405.405,0,0,0,.23-.279,3.024,3.024,0,0,1,.151-.486.4.4,0,0,0-.024-.355l-.286-.494c.065-.1.136-.2.21-.294l.539.124a.4.4,0,0,0,.357-.09,3,3,0,0,1,.4-.3.4.4,0,0,0,.188-.305l.053-.574a3.287,3.287,0,0,1,.324-.111l.369.428a.4.4,0,0,0,.305.139h.564a.4.4,0,0,0,.305-.139l.369-.428a3.291,3.291,0,0,1,.324.111l.053.574a.4.4,0,0,0,.188.305,3,3,0,0,1,.4.3.4.4,0,0,0,.357.09l.538-.124q.113.143.211.294l-.286.494a.4.4,0,0,0-.024.355,3.024,3.024,0,0,1,.151.486.406.406,0,0,0,.23.279l.5.22v.386Z" transform="translate(-289.848 -361.545)" fill="#fff"/></g><g transform="translate(2.253 3.274)"><path d="M297.205,356.783a10.885,10.885,0,0,0-5.563,5.3l.725.349a10.079,10.079,0,0,1,5.153-4.909Z" transform="translate(-291.642 -356.783)" fill="#fff"/></g><g transform="translate(8.815 22.839)"><path d="M303.26,372.359a10.149,10.149,0,0,1-6.154.054l-.24.769a10.919,10.919,0,0,0,6.647-.059Z" transform="translate(-296.866 -372.359)" fill="#fff"/></g><g transform="translate(15.862 3.229)"><path d="M302.781,356.747l-.305.745a10.053,10.053,0,0,1,5.3,5.056l.729-.34A10.851,10.851,0,0,0,302.781,356.747Z" transform="translate(-302.476 -356.747)" fill="#fff"/></g></g><g transform="translate(242.164 367.969)"><g transform="translate(7.131 0)"><path d="M239.817,332.091a2.773,2.773,0,1,0-3.728,0,3.57,3.57,0,0,0-2.89,3.5v1.584a.4.4,0,0,0,.4.4h8.715a.4.4,0,0,0,.4-.4V335.59A3.57,3.57,0,0,0,239.817,332.091Zm-3.845-2.047a1.981,1.981,0,1,1,1.981,1.981A1.983,1.983,0,0,1,235.972,330.043Zm5.943,6.735h-7.923V335.59a2.777,2.777,0,0,1,2.773-2.773h2.377a2.777,2.777,0,0,1,2.773,2.773Z" transform="translate(-233.199 -327.27)" fill="#fff"/></g><g transform="translate(0 13.47)"><path d="M234.14,342.815a2.773,2.773,0,1,0-3.729,0,3.569,3.569,0,0,0-2.889,3.5V347.9a.4.4,0,0,0,.4.4h8.716a.4.4,0,0,0,.4-.4v-1.585A3.569,3.569,0,0,0,234.14,342.815Zm-3.845-2.048a1.981,1.981,0,1,1,1.981,1.981A1.982,1.982,0,0,1,230.3,340.767Zm5.943,6.735h-7.923v-1.19a2.775,2.775,0,0,1,2.773-2.772h2.377a2.776,2.776,0,0,1,2.773,2.772Z" transform="translate(-227.522 -337.994)" fill="#fff"/></g><g transform="translate(14.262 13.47)"><path d="M245.494,342.815a2.773,2.773,0,1,0-3.728,0,3.569,3.569,0,0,0-2.89,3.5V347.9a.4.4,0,0,0,.4.4h8.715a.4.4,0,0,0,.4-.4v-1.585A3.569,3.569,0,0,0,245.494,342.815Zm-3.845-2.048a1.981,1.981,0,1,1,1.981,1.981A1.983,1.983,0,0,1,241.649,340.767Zm5.943,6.735h-7.923v-1.19a2.775,2.775,0,0,1,2.773-2.772h2.377a2.776,2.776,0,0,1,2.773,2.772Z" transform="translate(-238.876 -337.994)" fill="#fff"/></g><g transform="translate(1.593 12.665)"><path d="M229.581,337.353l-.791.031c.011.273.033.549.065.821l.786-.094C229.611,337.86,229.591,337.605,229.581,337.353Z" transform="translate(-228.79 -337.353)" fill="#fff"/></g><g transform="translate(1.593 11.052)"><path d="M228.855,336.069c-.033.27-.055.546-.065.821l.791.03c.01-.254.03-.507.06-.757Z" transform="translate(-228.79 -336.069)" fill="#fff"/></g><g transform="translate(5.006 4.089)"><path d="M232.143,330.525c-.217.165-.431.342-.636.525l.53.59c.188-.17.386-.333.585-.485Z" transform="translate(-231.507 -330.525)" fill="#fff"/></g><g transform="translate(2.241 7.896)"><path d="M229.628,333.556c-.117.249-.225.5-.322.76l.742.279c.089-.237.188-.472.3-.7Z" transform="translate(-229.306 -333.556)" fill="#fff"/></g><g transform="translate(1.787 9.438)"><path d="M229.14,334.784c-.075.263-.141.533-.195.8l.776.157c.05-.247.111-.5.18-.739Z" transform="translate(-228.945 -334.784)" fill="#fff"/></g><g transform="translate(3.873 5.189)"><path d="M231.149,331.4c-.19.2-.372.408-.544.619l.617.5c.157-.195.327-.388.5-.572Z" transform="translate(-230.605 -331.401)" fill="#fff"/></g><g transform="translate(6.314 3.198)"><path d="M233.26,329.816c-.24.128-.479.269-.711.418l.43.666c.214-.138.435-.267.654-.386Z" transform="translate(-232.549 -329.816)" fill="#fff"/></g><g transform="translate(2.943 6.468)"><path d="M230.3,332.419c-.156.226-.3.461-.438.7l.687.394c.126-.219.261-.436.4-.644Z" transform="translate(-229.865 -332.419)" fill="#fff"/></g><g transform="translate(9.852 21.605)"><path d="M235.522,344.47l-.157.776c.266.054.541.1.814.129l.093-.786C236.019,344.559,235.767,344.519,235.522,344.47Z" transform="translate(-235.365 -344.47)" fill="#fff"/></g><g transform="translate(13.036 21.6)"><path d="M238.651,344.466c-.246.05-.5.09-.751.122l.1.786c.274-.033.546-.078.813-.131Z" transform="translate(-237.9 -344.466)" fill="#fff"/></g><g transform="translate(11.487 21.782)"><path d="M237.458,344.611c-.253.01-.509.011-.76,0l-.031.791c.132.006.265.009.4.009s.283,0,.423-.01Z" transform="translate(-236.667 -344.611)" fill="#fff"/></g><g transform="translate(18.236 4.617)"><path d="M242.57,330.946l-.53.589c.19.17.372.348.545.53l.575-.545C242.973,331.323,242.775,331.129,242.57,330.946Z" transform="translate(-242.04 -330.946)" fill="#fff"/></g><g transform="translate(19.282 5.811)"><path d="M243.49,331.9l-.617.5c.158.195.312.4.455.609l.653-.447C243.826,332.329,243.661,332.108,243.49,331.9Z" transform="translate(-242.873 -331.896)" fill="#fff"/></g><g transform="translate(21.386 11.875)"><path d="M245.339,336.724l-.791.03q.008.188.008.377t-.008.384l.791.031c.005-.138.008-.276.008-.417S245.344,336.858,245.339,336.724Z" transform="translate(-244.548 -336.724)" fill="#fff"/></g><g transform="translate(20.141 7.169)"><path d="M244.244,332.977l-.687.394c.126.219.244.446.352.673l.716-.338C244.508,333.459,244.381,333.214,244.244,332.977Z" transform="translate(-243.557 -332.977)" fill="#fff"/></g><g transform="translate(20.788 8.658)"><path d="M244.813,334.163l-.741.279c.089.236.168.479.239.721l.761-.219C245,334.682,244.91,334.418,244.813,334.163Z" transform="translate(-244.072 -334.163)" fill="#fff"/></g><g transform="translate(21.207 10.241)"><path d="M245.181,335.423l-.776.156c.049.247.09.5.119.751l.786-.094C245.279,335.966,245.235,335.692,245.181,335.423Z" transform="translate(-244.405 -335.423)" fill="#fff"/></g><g transform="translate(17.029 3.618)"><path d="M241.509,330.15l-.43.667c.211.136.421.283.623.437l.48-.631C241.965,330.457,241.737,330.3,241.509,330.15Z" transform="translate(-241.079 -330.15)" fill="#fff"/></g><g transform="translate(15.69 2.84)"><path d="M240.33,329.531l-.317.725c.231.1.461.214.683.333l.374-.7C240.829,329.761,240.581,329.639,240.33,329.531Z" transform="translate(-240.013 -329.531)" fill="#fff"/></g></g><g transform="translate(223.148 281.509)"><path d="M223.928,274.419l0,0-.1-.1-4.332-4.438a1.378,1.378,0,0,0-1-.42,1.392,1.392,0,0,0-1.031,2.329l2.609,2.876a.534.534,0,0,1-.067.779.536.536,0,0,1-.722-.058l-3.018-3.285a1.366,1.366,0,0,1-.355-.824l-.361-5.1a1.592,1.592,0,0,0-1.583-1.476h-.013a1.587,1.587,0,0,0-1.574,1.605l.082,6.843a3.26,3.26,0,0,0,.82,2.12l4.583,5.169a1.043,1.043,0,0,1,.264.7l-.016,1.764a.393.393,0,0,0,.393.4h5.053a.393.393,0,0,0,.387-.323l.935-5.12a4.044,4.044,0,0,0-.952-3.43Zm.182,3.295-.875,4.8h-4.328l.013-1.368a1.831,1.831,0,0,0-.462-1.23l-4.584-5.17a2.464,2.464,0,0,1-.622-1.608l-.082-6.842a.8.8,0,0,1,.791-.81h.009a.8.8,0,0,1,.8.745l.361,5.1a2.146,2.146,0,0,0,.56,1.3l3.018,3.285a1.32,1.32,0,0,0,1.949-1.781l-2.609-2.876a.611.611,0,0,1,.006-.823.607.607,0,0,1,.878-.009l4.334,4.439c.029.029.057.059.084.088v0A3.252,3.252,0,0,1,224.11,277.714Z" transform="translate(-212.383 -256.835)" fill="#fff"/><path d="M235.551,265.173a1.579,1.579,0,0,0-1.124-.476h-.009a1.594,1.594,0,0,0-1.583,1.475l-.359,5.1a1.367,1.367,0,0,1-.355.825l-3.018,3.283a.536.536,0,0,1-.724.058.531.531,0,0,1-.065-.778l2.609-2.876a1.392,1.392,0,0,0-1.033-2.329,1.373,1.373,0,0,0-1,.42l-4.336,4.441c-.034.035-.068.07-.1.107a4.039,4.039,0,0,0-.953,3.43l.936,5.12a.393.393,0,0,0,.387.323h5.053a.4.4,0,0,0,.279-.117.39.39,0,0,0,.113-.28l-.016-1.764a1.048,1.048,0,0,1,.265-.7l2.375-2.678a.393.393,0,0,0-.588-.523l-2.375,2.679a1.824,1.824,0,0,0-.462,1.23l.013,1.368h-4.329l-.877-4.8a3.253,3.253,0,0,1,.76-2.761l.085-.09,4.332-4.438a.607.607,0,0,1,.884.832l-2.609,2.876a1.32,1.32,0,0,0,1.949,1.781l3.02-3.285a2.153,2.153,0,0,0,.56-1.3l.36-5.1a.8.8,0,0,1,.8-.745h.006a.8.8,0,0,1,.794.81l-.082,6.842a2.462,2.462,0,0,1-.621,1.608l-1.227,1.384a.393.393,0,1,0,.588.521l1.227-1.383a3.252,3.252,0,0,0,.819-2.12L236,266.3A1.574,1.574,0,0,0,235.551,265.173Z" transform="translate(-209.552 -256.835)" fill="#fff"/><path d="M228.354,271.428a1.485,1.485,0,0,0,.594-1.461l-.418-2.442a.706.706,0,0,1,.2-.627l1.774-1.728a1.493,1.493,0,0,0-.828-2.547l-2.452-.357a.71.71,0,0,1-.533-.387l-1.1-2.222a1.493,1.493,0,0,0-2.678,0l-1.1,2.222a.71.71,0,0,1-.533.387l-2.452.357a1.493,1.493,0,0,0-.828,2.547.394.394,0,0,0,.549-.564.706.706,0,0,1,.392-1.206l2.452-.357a1.492,1.492,0,0,0,1.124-.816l1.1-2.222a.707.707,0,0,1,1.269,0l1.1,2.222a1.492,1.492,0,0,0,1.124.816l2.452.357a.706.706,0,0,1,.392,1.206l-1.774,1.73a1.5,1.5,0,0,0-.43,1.323l.418,2.442a.706.706,0,0,1-1.026.745l-2.193-1.152a1.493,1.493,0,0,0-1.389,0l-2.193,1.152a.706.706,0,0,1-1.026-.745l.418-2.442a1.492,1.492,0,0,0-.43-1.323l-.829-.809a.393.393,0,1,0-.549.563l.83.809a.708.708,0,0,1,.2.627l-.418,2.442a1.491,1.491,0,0,0,2.167,1.574l2.193-1.152a.7.7,0,0,1,.658,0l2.193,1.152A1.484,1.484,0,0,0,228.354,271.428Z" transform="translate(-211.057 -258.339)" fill="#fff"/><path d="M228.076,261.407a.392.392,0,0,0,.515-.209l.943-2.215a.393.393,0,0,0-.722-.308l-.943,2.215A.393.393,0,0,0,228.076,261.407Z" transform="translate(-208.425 -258.438)" fill="#fff"/><path d="M229.233,262.294a.392.392,0,0,0,.373.271.411.411,0,0,0,.122-.019l2.41-.786a.393.393,0,1,0-.244-.747l-2.41.786A.392.392,0,0,0,229.233,262.294Z" transform="translate(-208.073 -257.783)" fill="#fff"/><path d="M229.4,263.77a.393.393,0,0,0-.263.741l1.624.577a.405.405,0,0,0,.132.023.393.393,0,0,0,.131-.764Z" transform="translate(-208.158 -257.078)" fill="#fff"/><path d="M217.548,261.2a.393.393,0,1,0,.723-.308l-.943-2.215a.393.393,0,0,0-.724.308Z" transform="translate(-211.31 -258.438)" fill="#fff"/><path d="M214.3,261.76l2.41.786a.41.41,0,0,0,.122.019.393.393,0,0,0,.122-.766l-2.41-.786a.393.393,0,0,0-.244.747Z" transform="translate(-211.962 -257.783)" fill="#fff"/><path d="M216.873,263.77l-1.624.577a.393.393,0,0,0,.132.764.4.4,0,0,0,.131-.023l1.624-.577a.393.393,0,1,0-.263-.741Z" transform="translate(-211.716 -257.078)" fill="#fff"/></g><g transform="translate(274.583 216.547)"><path d="M263.663,213.106l2.913-2.428h3.815V206.72h-9.5v3.958h2.771Zm-1.978-3.219v-2.375H269.6v2.375h-3.31l-1.835,1.53v-1.53Z" transform="translate(-251.395 -206.72)" fill="#fff"/><path d="M262.153,207.98h.791v.793h-.791Z" transform="translate(-251.072 -206.397)" fill="#fff"/><path d="M263.413,207.98h3.167v.793h-3.167Z" transform="translate(-250.749 -206.397)" fill="#fff"/><path d="M266.564,207.98h.791v.793h-.791Z" transform="translate(-249.942 -206.397)" fill="#fff"/><path d="M273.476,229.255l-.319-3.2a2.772,2.772,0,0,0,2.336-2.733v-5.145H273.91v-.546a1.424,1.424,0,0,0-.77-1.269,2.366,2.366,0,0,0,.77-1.746v-.791a2.374,2.374,0,1,0-4.748,0v.791a2.378,2.378,0,0,0,1.564,2.23l-2.124,2.124h-2.22a1.588,1.588,0,0,0-1.139-1.419l-1.622-.462v-.707a2.369,2.369,0,0,0,.791-1.765v-.791a2.375,2.375,0,1,0-4.749,0v.791a2.366,2.366,0,0,0,.791,1.765v.707l-1.622.464a1.586,1.586,0,0,0-1.148,1.521v1.48H256.1v2.374h.791v6.332h-3.561v.793h24.536v-.793Zm-3.523-6.332v-1.815l2.8-2.8a1.233,1.233,0,0,0,.35-.759.578.578,0,0,1,.011.082v4.9a1.188,1.188,0,0,1-1.187,1.187h-3.165v-.791Zm-1.187,3.167h2.016l.317,3.165h-2.333Zm2.811,0h.788l.317,3.165h-.788Zm2.333-3.562v-3.561h.793v4.352a1.982,1.982,0,0,1-1.98,1.98h-3.957v-.791h3.165A1.981,1.981,0,0,0,273.91,222.527Zm-3.957-7.915v-.791a1.583,1.583,0,1,1,3.165,0v.791a1.583,1.583,0,1,1-3.165,0Zm-1.024,5.145,2.64-2.64a.444.444,0,0,1,.628.627l-2.8,2.8H265.2a.4.4,0,0,1,0-.791Zm-8.475-5.936a1.583,1.583,0,1,1,3.167,0v.791a1.583,1.583,0,0,1-3.167,0Zm1.583,3.165a2.354,2.354,0,0,0,.791-.138v.425a.873.873,0,0,1-1.583,0v-.425A2.365,2.365,0,0,0,262.037,216.987Zm-3.561,2.083a.8.8,0,0,1,.574-.761l1.63-.465a1.631,1.631,0,0,0,2.714,0l1.63.466a.788.788,0,0,1,.557.657H265.2a1.188,1.188,0,0,0-1.187,1.187,1.159,1.159,0,0,0,.073.4h-5.613Zm-1.584,2.271h12.27v.791h-12.27Zm.793,3.167h1.187v-.793h-1.187v-.791h10.289v.791h-8.31v.793h8.31v4.748h-.942l-.791-1.583h-6.822l-.791,1.583h-.942Zm8.461,4.748h-6.633l.4-.791h5.842Z" transform="translate(-253.331 -205.51)" fill="#fff"/></g></g></svg>